<?xml version="1.0" encoding="UTF-8" standalone="no"?>
<svg
   xmlns:dc="http://purl.org/dc/elements/1.1/"
   xmlns:cc="http://creativecommons.org/ns#"
   xmlns:rdf="http://www.w3.org/1999/02/22-rdf-syntax-ns#"
   xmlns:svg="http://www.w3.org/2000/svg"
   xmlns="http://www.w3.org/2000/svg"
   xmlns:sodipodi="http://sodipodi.sourceforge.net/DTD/sodipodi-0.dtd"
   xmlns:inkscape="http://www.inkscape.org/namespaces/inkscape"
   version="1.1"
   id="svg2"
   viewBox="0 0 744.09448819 1052.3622047"
   height="297mm"
   width="210mm"
   inkscape:version="0.92.3 (2405546, 2018-03-11)"
   sodipodi:docname="page.svg">
  <sodipodi:namedview
     pagecolor="#ffffff"
     bordercolor="#666666"
     borderopacity="1"
     objecttolerance="10"
     gridtolerance="10"
     guidetolerance="10"
     inkscape:pageopacity="0"
     inkscape:pageshadow="2"
     inkscape:window-width="1920"
     inkscape:window-height="1013"
     id="namedview7"
     showgrid="false"
     inkscape:zoom="0.65068136"
     inkscape:cx="522.01924"
     inkscape:cy="512.89855"
     inkscape:window-x="0"
     inkscape:window-y="38"
     inkscape:window-maximized="1"
     inkscape:current-layer="svg2" />
  <defs
     id="defs4" />
  <metadata
     id="metadata7">
    <rdf:RDF>
      <cc:Work
         rdf:about="">
        <dc:format>image/svg+xml</dc:format>
        <dc:type
           rdf:resource="http://purl.org/dc/dcmitype/StillImage" />
        <dc:title />
      </cc:Work>
    </rdf:RDF>
  </metadata>
  <path
     sodipodi:nodetypes="ccccc"
     inkscape:connector-curvature="0"
     id="path854"
     d="M 95.871981,254.17223 C 409.27877,586.84713 532.31703,310.85683 405.78373,111.47905 124.79607,331.89509 487.78562,391.96053 662.18554,443.68661 -243.45612,873.17654 604.95321,1099.8482 216.26935,717.92507 -72.325208,1075.5105 290.65553,502.3876 111.47905,541.78817"
     style="fill:#ffcdcd;fill-rule:evenodd;stroke:none;stroke-width:35.43281259;stroke-linecap:round;stroke-linejoin:miter;stroke-opacity:1;opacity:1;fill-opacity:1;stroke-miterlimit:4;stroke-dasharray:none" />
  <g
     id="layer1" />
  <path
     style="color:#000000;font-style:normal;font-variant:normal;font-weight:normal;font-stretch:normal;font-size:medium;line-height:normal;font-family:sans-serif;font-variant-ligatures:normal;font-variant-position:normal;font-variant-caps:normal;font-variant-numeric:normal;font-variant-alternates:normal;font-feature-settings:normal;text-indent:0;text-align:start;text-decoration:none;text-decoration-line:none;text-decoration-style:solid;text-decoration-color:#000000;letter-spacing:normal;word-spacing:normal;text-transform:none;writing-mode:lr-tb;direction:ltr;text-orientation:mixed;dominant-baseline:auto;baseline-shift:baseline;text-anchor:start;white-space:normal;shape-padding:0;clip-rule:nonzero;display:inline;overflow:visible;visibility:visible;opacity:1;isolation:auto;mix-blend-mode:normal;color-interpolation:sRGB;color-interpolation-filters:linearRGB;solid-color:#000000;solid-opacity:1;vector-effect:none;fill:#cdcdff;fill-opacity:1;fill-rule:evenodd;stroke:none;stroke-width:35.43281174;stroke-linecap:round;stroke-linejoin:miter;stroke-miterlimit:4;stroke-dasharray:none;stroke-dashoffset:0;stroke-opacity:1;color-rendering:auto;image-rendering:auto;shape-rendering:auto;text-rendering:auto;enable-background:accumulate"
     d="M 410.25195,85.457031 394.84961,97.539062 C 322.8378,154.02751 288.48514,202.01515 285.11133,247.79883 c -3.37381,45.78367 27.28326,81.82845 68.62305,108.00976 12.30706,7.79431 25.87512,14.96765 40.16406,21.71875 -21.63725,15.40213 -51.37999,20.06192 -94.01172,5.91797 -49.28471,-16.3512 -114.00255,-59.56419 -191.11914,-141.42187 a 17.718178,17.718178 0 1 0 -25.791018,24.29687 c 79.586808,84.47977 147.775498,131.52099 205.751958,150.75586 57.97645,19.23487 107.48176,8.8632 139.39257,-21.99609 0.67442,-0.65219 1.29473,-1.35426 1.95313,-2.02149 59.04269,23.07179 125.84339,39.97755 182.27344,55.13282 -200.58932,99.69127 -308.44664,188.21311 -361.67774,262.96679 -2.3311,3.27363 -4.38775,6.49222 -6.50586,9.72266 -4.96653,-5.10272 -10.06087,-10.26839 -15.47851,-15.5918 l -13.9336,-13.69336 -12.26953,15.20313 c -34.55108,42.8108 -59.47801,71.83565 -76.73047,89.89258 3.83166,-12.2209 8.38859,-25.92478 13.83985,-41.74414 16.13742,-46.83025 36.18691,-103.81717 40.89258,-150.18555 2.35283,-23.18419 1.77667,-44.71568 -10.34961,-62.16211 -6.06315,-8.72322 -15.60094,-15.57763 -26.53125,-18.50977 -10.93032,-2.93213 -22.83779,-2.48435 -35.92969,0.39454 a 17.718178,17.718178 0 1 0 7.60937,34.60742 c 9.30516,-2.04619 15.56026,-1.73924 19.13868,-0.7793 3.57841,0.95994 4.89612,2.03082 6.61914,4.50977 3.44602,4.95789 6.16203,18.94322 4.1914,38.36132 -3.94126,38.83621 -23.00424,95.39348 -39.14062,142.22071 -8.068194,23.41361 -15.356994,44.42572 -19.701175,61.06836 -2.17209,8.32132 -3.721614,15.35847 -3.925781,22.61718 -0.102084,3.62936 -0.03403,7.42099 1.787109,12.25977 1.821142,4.83878 7.153823,11.26922 13.960938,13.32812 6.807109,2.05891 12.258559,0.51906 16.283199,-1.08984 4.02464,-1.6089 7.28516,-3.68333 10.72461,-6.18945 6.8789,-5.01224 14.36213,-11.96243 23.76172,-21.66602 16.47691,-17.00979 38.9799,-43.1096 68.56836,-79.36133 2.89888,2.97083 5.66169,5.86849 8.39649,8.75391 -28.65935,61.24857 -19.29302,112.06468 5.61132,143.05859 15.20063,18.91747 35.12023,30.61648 55.23438,33.58008 20.11414,2.9636 43.46861,-5.58063 52.125,-26.35351 8.65639,-20.77289 3.65172,-46.40862 -13.41211,-78.34766 -11.78822,-22.06447 -30.11202,-47.73013 -56.48438,-77.43945 3.19787,-5.17299 6.61676,-10.44232 10.51172,-15.91211 50.92634,-71.51706 165.34652,-165.36252 390.24414,-272.01758 L 711.5957,439.86133 667.22266,426.70117 C 605.36339,408.35405 521.57088,388.74283 452.0293,363.03906 c 14.95411,-27.93359 21.51621,-62.30766 20.49414,-98.86523 -1.46016,-52.22692 -18.46101,-109.68499 -51.78125,-162.1875 z m -9.1875,52.902349 c 23.14617,42.29408 34.93085,87.09608 36.04102,126.80468 0.93615,33.48445 -5.81053,62.84688 -18.38086,84.57227 -17.0156,-7.4322 -32.59547,-15.35218 -46.03125,-23.86133 -36.08414,-22.85281 -54.38757,-46.38561 -52.24414,-75.47266 1.96654,-26.68657 24.15104,-64.51426 80.61523,-112.04296 z m -149.38086,643.3496 c 19.99986,23.61719 33.83782,43.70583 42.57032,60.05079 14.47297,27.08963 14.02969,43.04767 11.95703,48.02148 -2.07267,4.97381 -4.7395,6.32929 -14.25196,4.92773 -9.51245,-1.40155 -22.82605,-8.33128 -32.78125,-20.7207 -14.80809,-18.42894 -24.45009,-48.61167 -7.49414,-92.2793 z"
     id="path4137"
     inkscape:connector-curvature="0" />
</svg>
