G04*
G04 #@! TF.GenerationSoftware,Altium Limited,Altium Designer,22.4.2 (48)*
G04*
G04 Layer_Color=0*
%FSLAX25Y25*%
%MOIN*%
G70*
G04*
G04 #@! TF.SameCoordinates,9DE54F71-11C6-4998-B53C-E160C00813D1*
G04*
G04*
G04 #@! TF.FilePolarity,Positive*
G04*
G01*
G75*
%ADD11C,0.00787*%
%ADD13C,0.00394*%
%ADD14C,0.00004*%
D11*
X90999Y85693D02*
X87719D01*
X87063Y86349D01*
Y87661D01*
X87719Y88317D01*
X90999D01*
X90343Y89629D02*
X90999Y90285D01*
Y91597D01*
X90343Y92252D01*
X89687D01*
X89031Y91597D01*
Y90941D01*
Y91597D01*
X88375Y92252D01*
X87719D01*
X87063Y91597D01*
Y90285D01*
X87719Y89629D01*
D13*
X126032Y68000D02*
X129969D01*
X128000Y66031D02*
Y69968D01*
X162031Y79000D02*
X165969D01*
X164000Y77031D02*
Y80968D01*
X182500Y80031D02*
Y83968D01*
X180531Y82000D02*
X184468D01*
X142031Y92000D02*
X145968D01*
X144000Y90031D02*
Y93968D01*
X109953Y65831D02*
Y69768D01*
X107984Y67799D02*
X111921D01*
X128000Y80031D02*
Y83968D01*
X126032Y82000D02*
X129969D01*
X210295Y63016D02*
X213705Y64984D01*
X211016Y65705D02*
X212984Y62295D01*
X134795Y37984D02*
X138205Y36016D01*
X135516Y35295D02*
X137484Y38705D01*
X115031Y56000D02*
X118968D01*
X117000Y54031D02*
Y57968D01*
X87516Y62295D02*
X89484Y65705D01*
X86795Y64984D02*
X90205Y63016D01*
X102295Y56484D02*
X105705Y54516D01*
X103016Y53795D02*
X104984Y57205D01*
D14*
X55404Y77680D02*
X157480Y18898D01*
X259557Y77679D01*
X259842Y78740D01*
Y102362D01*
X55118Y102362D02*
X259842Y102362D01*
X55118Y78740D02*
Y102362D01*
Y78740D02*
X55404Y77680D01*
M02*
