G04*
G04 #@! TF.GenerationSoftware,Altium Limited,Altium Designer,22.4.2 (48)*
G04*
G04 Layer_Color=32768*
%FSLAX25Y25*%
%MOIN*%
G70*
G04*
G04 #@! TF.SameCoordinates,9DE54F71-11C6-4998-B53C-E160C00813D1*
G04*
G04*
G04 #@! TF.FilePolarity,Positive*
G04*
G01*
G75*
%ADD11C,0.00787*%
%ADD13C,0.00394*%
%ADD14C,0.00004*%
%ADD85C,0.00197*%
D11*
X90999Y85693D02*
X87719D01*
X87063Y86349D01*
Y87661D01*
X87719Y88317D01*
X90999D01*
X90343Y89629D02*
X90999Y90285D01*
Y91597D01*
X90343Y92252D01*
X89687D01*
X89031Y91597D01*
Y90941D01*
Y91597D01*
X88375Y92252D01*
X87719D01*
X87063Y91597D01*
Y90285D01*
X87719Y89629D01*
D13*
X140000Y73630D02*
Y77370D01*
X138130Y75500D02*
X141870D01*
X148429Y76343D02*
Y80083D01*
X146559Y78213D02*
X150299D01*
X162500Y89531D02*
Y93468D01*
X160531Y91500D02*
X164468D01*
X183500Y90031D02*
Y93969D01*
X181531Y92000D02*
X185469D01*
X117500Y79130D02*
Y82870D01*
X115630Y81000D02*
X119370D01*
X84500Y76630D02*
Y80370D01*
X82630Y78500D02*
X86370D01*
X101130Y82000D02*
X104870D01*
X103000Y80130D02*
Y83870D01*
X107500Y91031D02*
Y94969D01*
X105531Y93000D02*
X109469D01*
X180532Y60500D02*
X184469D01*
X182500Y58531D02*
Y62468D01*
X116130Y50500D02*
X119870D01*
X118000Y48630D02*
Y52370D01*
X173630Y39500D02*
X177370D01*
X175500Y37630D02*
Y41370D01*
D14*
X55404Y77680D02*
X157480Y18898D01*
X259557Y77679D01*
X259842Y78740D01*
Y102362D01*
X55118Y102362D02*
X259842Y102362D01*
X55118Y78740D02*
Y102362D01*
Y78740D02*
X55404Y77680D01*
D85*
X83189Y83319D02*
Y99067D01*
X98937Y83319D02*
Y99067D01*
X83189D02*
X98937D01*
X83189Y83319D02*
X98937D01*
X178276Y101378D02*
X214889Y101378D01*
X214890Y67126D01*
X178275Y67126D02*
X214890Y67126D01*
X178275Y67126D02*
X178276Y101378D01*
X196386Y84252D02*
X200323Y84252D01*
X198354Y86220D02*
X198354Y82283D01*
X135866Y67823D02*
X144134D01*
X135866Y83177D02*
X144134D01*
X135866Y67823D02*
Y83177D01*
X144134Y67823D02*
Y83177D01*
X144295Y85890D02*
X152563D01*
X144295Y70535D02*
X152563D01*
Y85890D01*
X144295Y70535D02*
Y85890D01*
X153642Y87169D02*
X171358D01*
X153642Y95831D02*
X171358D01*
Y87169D02*
Y95831D01*
X153642Y87169D02*
Y95831D01*
X175035Y97118D02*
X191965D01*
X175035Y86882D02*
X191965D01*
X175035D02*
Y97118D01*
X191965Y86882D02*
Y97118D01*
X113366Y87693D02*
X121634D01*
X113366Y74307D02*
X121634D01*
Y87693D01*
X113366Y74307D02*
Y87693D01*
X80366Y86177D02*
X88634D01*
X80366Y70823D02*
X88634D01*
Y86177D01*
X80366Y70823D02*
Y86177D01*
X96307Y77866D02*
Y86134D01*
X109693Y77866D02*
Y86134D01*
X96307D02*
X109693D01*
X96307Y77866D02*
X109693D01*
X99035Y98118D02*
X115965D01*
X99035Y87882D02*
X115965D01*
X99035D02*
Y98118D01*
X115965Y87882D02*
Y98118D01*
X174626Y56760D02*
Y64240D01*
X190374Y56760D02*
Y64240D01*
X174626Y56760D02*
X190374D01*
X174626Y64240D02*
X190374D01*
X124693Y46366D02*
Y54634D01*
X111307Y46366D02*
Y54634D01*
Y46366D02*
X124693D01*
X111307Y54634D02*
X124693D01*
X182193Y35366D02*
Y43634D01*
X168807Y35366D02*
Y43634D01*
Y35366D02*
X182193D01*
X168807Y43634D02*
X182193D01*
M02*
