G04*
G04 #@! TF.GenerationSoftware,Altium Limited,Altium Designer,22.4.2 (48)*
G04*
G04 Layer_Color=16711935*
%FSLAX25Y25*%
%MOIN*%
G70*
G04*
G04 #@! TF.SameCoordinates,9DE54F71-11C6-4998-B53C-E160C00813D1*
G04*
G04*
G04 #@! TF.FilePolarity,Positive*
G04*
G01*
G75*
%ADD11C,0.00787*%
%ADD13C,0.00394*%
%ADD14C,0.00004*%
D11*
X90999Y85693D02*
X87719D01*
X87063Y86349D01*
Y87661D01*
X87719Y88317D01*
X90999D01*
X90343Y89629D02*
X90999Y90285D01*
Y91597D01*
X90343Y92252D01*
X89687D01*
X89031Y91597D01*
Y90941D01*
Y91597D01*
X88375Y92252D01*
X87719D01*
X87063Y91597D01*
Y90285D01*
X87719Y89629D01*
D13*
X95591Y88634D02*
X95327Y89618D01*
X94606Y90339D01*
X93622Y90602D01*
X92638Y90339D01*
X91917Y89618D01*
X91654Y88634D01*
X91917Y87650D01*
X92638Y86929D01*
X93622Y86665D01*
X94606Y86929D01*
X95327Y87650D01*
X95591Y88634D01*
X84961Y85091D02*
Y97295D01*
X97165Y85091D02*
Y97295D01*
X84961D02*
X97165D01*
X84961Y85091D02*
X97165D01*
X183394Y72441D02*
X183394Y68504D01*
X183394Y72441D02*
X189693Y72441D01*
X183394Y68504D02*
X213315Y68504D01*
X189693Y72441D02*
X189693Y96063D01*
X183394Y100000D02*
X213315Y100000D01*
X183394Y96063D02*
X189693Y96063D01*
X183394Y96063D02*
X183394Y100000D01*
X213315Y100000D02*
X213315Y68504D01*
X138130Y72055D02*
X141870D01*
X138130Y78945D02*
X141870D01*
X138130Y72055D02*
Y78945D01*
X141870Y72055D02*
Y78945D01*
X146559Y81657D02*
X150299D01*
X146559Y74768D02*
X150299D01*
Y81657D01*
X146559Y74768D02*
Y81657D01*
X156102Y88252D02*
X168898D01*
X156102Y94748D02*
X168898D01*
Y88252D02*
Y94748D01*
X156102Y88252D02*
Y94748D01*
X179169Y94854D02*
X187831D01*
X179169Y89146D02*
X187831D01*
X179169D02*
Y94854D01*
X187831Y89146D02*
Y94854D01*
X115630Y84445D02*
X119370D01*
X115630Y77555D02*
X119370D01*
Y84445D01*
X115630Y77555D02*
Y84445D01*
X82630Y81945D02*
X86370D01*
X82630Y75055D02*
X86370D01*
Y81945D01*
X82630Y75055D02*
Y81945D01*
X99555Y80130D02*
Y83870D01*
X106445Y80130D02*
Y83870D01*
X99555D02*
X106445D01*
X99555Y80130D02*
X106445D01*
X103169Y95854D02*
X111831D01*
X103169Y90146D02*
X111831D01*
X103169D02*
Y95854D01*
X111831Y90146D02*
Y95854D01*
X175807Y56957D02*
Y64043D01*
X189193Y56957D02*
Y64043D01*
X175807Y56957D02*
X189193D01*
X175807Y64043D02*
X189193D01*
X121445Y48630D02*
Y52370D01*
X114555Y48630D02*
Y52370D01*
Y48630D02*
X121445D01*
X114555Y52370D02*
X121445D01*
X178945Y37630D02*
Y41370D01*
X172055Y37630D02*
Y41370D01*
Y37630D02*
X178945D01*
X172055Y41370D02*
X178945D01*
D14*
X55404Y77680D02*
X157480Y18898D01*
X259557Y77679D01*
X259842Y78740D01*
Y102362D01*
X55118Y102362D02*
X259842Y102362D01*
X55118Y78740D02*
Y102362D01*
Y78740D02*
X55404Y77680D01*
M02*
