G04*
G04 #@! TF.GenerationSoftware,Altium Limited,Altium Designer,22.4.2 (48)*
G04*
G04 Layer_Color=32896*
%FSLAX25Y25*%
%MOIN*%
G70*
G04*
G04 #@! TF.SameCoordinates,9DE54F71-11C6-4998-B53C-E160C00813D1*
G04*
G04*
G04 #@! TF.FilePolarity,Positive*
G04*
G01*
G75*
%ADD10C,0.00984*%
%ADD11C,0.00787*%
%ADD12C,0.01000*%
%ADD14C,0.00004*%
%ADD84C,0.00394*%
D10*
X185854Y93307D02*
X185116Y93733D01*
Y92881D01*
X185854Y93307D01*
D11*
X86220Y80299D02*
X88780D01*
X86220Y67701D02*
X88780D01*
X104835Y87543D02*
X109165D01*
X104835Y80457D02*
X109165D01*
X97126Y97886D02*
X97756D01*
X84370D02*
X85000D01*
X84370Y84500D02*
X85000D01*
X97126D02*
X97756D01*
Y86665D01*
Y95720D02*
Y97886D01*
X84370Y95720D02*
Y97886D01*
Y84500D02*
Y86665D01*
X213708Y93307D02*
X213709Y75197D01*
X183000Y100591D02*
X183000Y96063D01*
X189693Y96063D01*
X183000Y72441D02*
X189693Y72441D01*
X183000Y72441D02*
X183000Y67913D01*
X183000Y100591D02*
X200716Y100591D01*
X183000Y67913D02*
X200716Y67913D01*
X189693Y92323D02*
X189693Y96063D01*
X189693Y72441D02*
X189693Y76181D01*
X180335Y57547D02*
X184665D01*
X180335Y63453D02*
X184665D01*
X165213Y44223D02*
Y40287D01*
X163245D01*
X162589Y40943D01*
Y41599D01*
X163245Y42255D01*
X165213D01*
X163245D01*
X162589Y42911D01*
Y43567D01*
X163245Y44223D01*
X165213D01*
X161277Y40287D02*
Y42911D01*
X159965Y44223D01*
X158653Y42911D01*
Y40287D01*
Y42255D01*
X161277D01*
X157341Y44223D02*
X154717D01*
X156029D01*
Y40287D01*
X189468Y43312D02*
X190124Y43968D01*
X191436D01*
X192092Y43312D01*
Y42656D01*
X191436Y42000D01*
X190124D01*
X189468Y41344D01*
Y40688D01*
X190124Y40032D01*
X191436D01*
X192092Y40688D01*
X185532Y43968D02*
X186844D01*
X186188D01*
Y40688D01*
X186844Y40032D01*
X187500D01*
X188156Y40688D01*
X184220Y40032D02*
X182908D01*
X183564D01*
Y43968D01*
X184220Y43312D01*
X216532Y72464D02*
X220468D01*
Y74432D01*
X219812Y75088D01*
X218500D01*
X217844Y74432D01*
Y72464D01*
X216532Y79024D02*
Y76400D01*
X219156Y79024D01*
X219812D01*
X220468Y78368D01*
Y77056D01*
X219812Y76400D01*
X175156Y68812D02*
X175812Y69468D01*
X177124D01*
X177780Y68812D01*
Y66188D01*
X177124Y65532D01*
X175812D01*
X175156Y66188D01*
X171220Y69468D02*
X172532Y68812D01*
X173844Y67500D01*
Y66188D01*
X173188Y65532D01*
X171876D01*
X171220Y66188D01*
Y66844D01*
X171876Y67500D01*
X173844D01*
X107656Y92312D02*
X108312Y92968D01*
X109624D01*
X110280Y92312D01*
Y89688D01*
X109624Y89032D01*
X108312D01*
X107656Y89688D01*
X106344Y92312D02*
X105688Y92968D01*
X104376D01*
X103720Y92312D01*
Y91656D01*
X104376Y91000D01*
X103720Y90344D01*
Y89688D01*
X104376Y89032D01*
X105688D01*
X106344Y89688D01*
Y90344D01*
X105688Y91000D01*
X106344Y91656D01*
Y92312D01*
X105688Y91000D02*
X104376D01*
X82280Y100468D02*
Y97188D01*
X81624Y96532D01*
X80312D01*
X79656Y97188D01*
Y100468D01*
X78344Y99812D02*
X77688Y100468D01*
X76376D01*
X75720Y99812D01*
Y99156D01*
X76376Y98500D01*
X77032D01*
X76376D01*
X75720Y97844D01*
Y97188D01*
X76376Y96532D01*
X77688D01*
X78344Y97188D01*
X101124Y75468D02*
Y71532D01*
X98500D01*
X97188D02*
X95876D01*
X96532D01*
Y75468D01*
X97188Y74812D01*
X90999Y85693D02*
X87719D01*
X87063Y86349D01*
Y87661D01*
X87719Y88317D01*
X90999D01*
X90343Y89629D02*
X90999Y90285D01*
Y91597D01*
X90343Y92252D01*
X89687D01*
X89031Y91597D01*
Y90941D01*
Y91597D01*
X88375Y92252D01*
X87719D01*
X87063Y91597D01*
Y90285D01*
X87719Y89629D01*
D12*
X167000Y36500D02*
X181000D01*
Y44500D01*
X167000D02*
X181000D01*
X167000Y36500D02*
Y44500D01*
D14*
X55404Y77680D02*
X157480Y18898D01*
X259557Y77679D01*
X259842Y78740D01*
Y102362D01*
X55118Y102362D02*
X259842Y102362D01*
X55118Y78740D02*
Y102362D01*
Y78740D02*
X55404Y77680D01*
D84*
X97323Y82925D02*
D03*
M02*
