G04*
G04 #@! TF.GenerationSoftware,Altium Limited,Altium Designer,22.4.2 (48)*
G04*
G04 Layer_Color=128*
%FSLAX25Y25*%
%MOIN*%
G70*
G04*
G04 #@! TF.SameCoordinates,9DE54F71-11C6-4998-B53C-E160C00813D1*
G04*
G04*
G04 #@! TF.FilePolarity,Positive*
G04*
G01*
G75*
%ADD11C,0.00787*%
%ADD14C,0.00004*%
%ADD61R,0.03150X0.10630*%
%ADD62R,0.03740X0.06693*%
%ADD65R,0.13386X0.05906*%
%ADD66R,0.12205X0.05512*%
%ADD67R,0.02500X0.05000*%
%ADD68R,0.03740X0.06693*%
%ADD81R,0.04134X0.02677*%
%ADD82R,0.01969X0.01024*%
G04:AMPARAMS|DCode=83|XSize=9.06mil|YSize=31.5mil|CornerRadius=1mil|HoleSize=0mil|Usage=FLASHONLY|Rotation=0.000|XOffset=0mil|YOffset=0mil|HoleType=Round|Shape=RoundedRectangle|*
%AMROUNDEDRECTD83*
21,1,0.00906,0.02950,0,0,0.0*
21,1,0.00706,0.03150,0,0,0.0*
1,1,0.00200,0.00353,-0.01475*
1,1,0.00200,-0.00353,-0.01475*
1,1,0.00200,-0.00353,0.01475*
1,1,0.00200,0.00353,0.01475*
%
%ADD83ROUNDEDRECTD83*%
D11*
X90999Y85693D02*
X87719D01*
X87063Y86349D01*
Y87661D01*
X87719Y88317D01*
X90999D01*
X90343Y89629D02*
X90999Y90285D01*
Y91597D01*
X90343Y92252D01*
X89687D01*
X89031Y91597D01*
Y90941D01*
Y91597D01*
X88375Y92252D01*
X87719D01*
X87063Y91597D01*
Y90285D01*
X87719Y89629D01*
D14*
X55404Y77680D02*
X157480Y18898D01*
X259557Y77679D01*
X259842Y78740D01*
Y102362D01*
X55118Y102362D02*
X259842Y102362D01*
X55118Y78740D02*
Y102362D01*
Y78740D02*
X55404Y77680D01*
D61*
X91831Y74000D02*
D03*
X83169D02*
D03*
D62*
X112512Y84000D02*
D03*
X101488D02*
D03*
D65*
X185756Y80315D02*
D03*
X185756Y88189D02*
D03*
D66*
X208000Y71260D02*
D03*
X208000Y97244D02*
D03*
D67*
X170500Y40500D02*
D03*
X174000D02*
D03*
X177500D02*
D03*
D68*
X188012Y60500D02*
D03*
X176988D02*
D03*
D81*
X88562Y89421D02*
D03*
Y92965D02*
D03*
X93562D02*
D03*
Y89421D02*
D03*
D82*
X84645Y90209D02*
D03*
Y92177D02*
D03*
X97480D02*
D03*
Y90209D02*
D03*
D83*
X95000Y97000D02*
D03*
X93032D02*
D03*
X91063D02*
D03*
X89095D02*
D03*
X87126D02*
D03*
Y85386D02*
D03*
X89095D02*
D03*
X91063D02*
D03*
X93032D02*
D03*
X95000D02*
D03*
M02*
