G04*
G04 #@! TF.GenerationSoftware,Altium Limited,Altium Designer,22.4.2 (48)*
G04*
G04 Layer_Color=16711935*
%FSLAX25Y25*%
%MOIN*%
G70*
G04*
G04 #@! TF.SameCoordinates,9DE54F71-11C6-4998-B53C-E160C00813D1*
G04*
G04*
G04 #@! TF.FilePolarity,Negative*
G04*
G01*
G75*
%ADD11C,0.00787*%
%ADD14C,0.00004*%
%ADD44P,0.07238X4X255.0*%
%ADD45C,0.05118*%
%ADD46C,0.06102*%
%ADD47C,0.16732*%
%ADD48C,0.08858*%
%ADD49C,0.02953*%
%ADD50C,0.02559*%
%ADD51C,0.02362*%
%ADD61R,0.03150X0.10630*%
%ADD62R,0.03740X0.06693*%
G04:AMPARAMS|DCode=73|XSize=16.54mil|YSize=38.98mil|CornerRadius=4.74mil|HoleSize=0mil|Usage=FLASHONLY|Rotation=0.000|XOffset=0mil|YOffset=0mil|HoleType=Round|Shape=RoundedRectangle|*
%AMROUNDEDRECTD73*
21,1,0.01654,0.02950,0,0,0.0*
21,1,0.00706,0.03898,0,0,0.0*
1,1,0.00948,0.00353,-0.01475*
1,1,0.00948,-0.00353,-0.01475*
1,1,0.00948,-0.00353,0.01475*
1,1,0.00948,0.00353,0.01475*
%
%ADD73ROUNDEDRECTD73*%
G04:AMPARAMS|DCode=74|XSize=70.47mil|YSize=100mil|CornerRadius=4.71mil|HoleSize=0mil|Usage=FLASHONLY|Rotation=90.000|XOffset=0mil|YOffset=0mil|HoleType=Round|Shape=RoundedRectangle|*
%AMROUNDEDRECTD74*
21,1,0.07047,0.09059,0,0,90.0*
21,1,0.06106,0.10000,0,0,90.0*
1,1,0.00941,0.04530,0.03053*
1,1,0.00941,0.04530,-0.03053*
1,1,0.00941,-0.04530,-0.03053*
1,1,0.00941,-0.04530,0.03053*
%
%ADD74ROUNDEDRECTD74*%
%ADD75R,0.13976X0.06496*%
%ADD76R,0.12795X0.06102*%
%ADD77R,0.03091X0.05591*%
%ADD78R,0.04331X0.07284*%
%ADD79R,0.03346X0.01693*%
%ADD80R,0.03347X0.01693*%
D11*
X90999Y85693D02*
X87719D01*
X87063Y86349D01*
Y87661D01*
X87719Y88317D01*
X90999D01*
X90343Y89629D02*
X90999Y90285D01*
Y91597D01*
X90343Y92252D01*
X89687D01*
X89031Y91597D01*
Y90941D01*
Y91597D01*
X88375Y92252D01*
X87719D01*
X87063Y91597D01*
Y90285D01*
X87719Y89629D01*
D14*
X55404Y77680D02*
X157480Y18898D01*
X259557Y77679D01*
X259842Y78740D01*
Y102362D01*
X55118Y102362D02*
X259842Y102362D01*
X55118Y78740D02*
Y102362D01*
Y78740D02*
X55404Y77680D01*
D44*
X218819Y67937D02*
D03*
D45*
X212000Y64000D02*
D03*
X205181Y60063D02*
D03*
D46*
X225638Y71874D02*
D03*
X198362Y56126D02*
D03*
D47*
X157480Y31496D02*
D03*
X70866Y78740D02*
D03*
X244094D02*
D03*
D48*
X132165Y50000D02*
D03*
X162165D02*
D03*
X172165D02*
D03*
X182165D02*
D03*
X142165D02*
D03*
X152165D02*
D03*
Y63386D02*
D03*
X162165D02*
D03*
D49*
X152177Y80500D02*
D03*
X161500Y87000D02*
D03*
X225000Y86500D02*
D03*
X221000Y92500D02*
D03*
X134500Y91000D02*
D03*
X125000Y42000D02*
D03*
X124000Y86500D02*
D03*
X173500Y92000D02*
D03*
X130000Y100000D02*
D03*
X100000Y68000D02*
D03*
X145500Y29500D02*
D03*
X99500Y63000D02*
D03*
X102500Y62000D02*
D03*
X110000Y100500D02*
D03*
X173500Y99500D02*
D03*
X189500Y38500D02*
D03*
D50*
X88110Y93161D02*
D03*
Y89224D02*
D03*
X94016D02*
D03*
Y93161D02*
D03*
X91063Y91193D02*
D03*
D51*
X167543Y80968D02*
D03*
X164000D02*
D03*
X160457D02*
D03*
X167543Y77031D02*
D03*
X164000D02*
D03*
X160457D02*
D03*
D61*
X91831Y74000D02*
D03*
X83169D02*
D03*
D62*
X112512Y84000D02*
D03*
X101488D02*
D03*
D73*
X95000Y97000D02*
D03*
X93032D02*
D03*
X91063D02*
D03*
X89095D02*
D03*
X87126D02*
D03*
Y85386D02*
D03*
X89095D02*
D03*
X91063D02*
D03*
X93032D02*
D03*
X95000D02*
D03*
D74*
X91063Y91193D02*
D03*
D75*
X185756Y80315D02*
D03*
X185756Y88189D02*
D03*
D76*
X208000Y71260D02*
D03*
X208000Y97244D02*
D03*
D77*
X170500Y40500D02*
D03*
X174000D02*
D03*
X177500D02*
D03*
D78*
X188012Y60500D02*
D03*
X176988D02*
D03*
D79*
X84960Y90209D02*
D03*
Y92177D02*
D03*
D80*
X97165D02*
D03*
Y90209D02*
D03*
M02*
