G04*
G04 #@! TF.GenerationSoftware,Altium Limited,Altium Designer,22.4.2 (48)*
G04*
G04 Layer_Color=65535*
%FSLAX25Y25*%
%MOIN*%
G70*
G04*
G04 #@! TF.SameCoordinates,9DE54F71-11C6-4998-B53C-E160C00813D1*
G04*
G04*
G04 #@! TF.FilePolarity,Positive*
G04*
G01*
G75*
%ADD10C,0.00984*%
%ADD11C,0.00787*%
%ADD12C,0.01000*%
%ADD13C,0.00394*%
%ADD14C,0.00004*%
D10*
X176008Y73193D02*
X175270Y73619D01*
Y72767D01*
X176008Y73193D01*
X99594Y70752D02*
X98856Y71178D01*
Y70326D01*
X99594Y70752D01*
X224971Y58135D02*
X224233Y58561D01*
Y57708D01*
X224971Y58135D01*
X144661Y33550D02*
X143922Y33976D01*
Y33124D01*
X144661Y33550D01*
X96661Y60550D02*
X95922Y60976D01*
Y60124D01*
X96661Y60550D01*
X112328Y52340D02*
X111590Y52766D01*
Y51914D01*
X112328Y52340D01*
D11*
X122464Y64433D02*
X133536D01*
X122464Y71567D02*
X133536D01*
X162031Y73488D02*
X165969D01*
X162031Y84512D02*
X165969D01*
X178169Y86232D02*
X186831D01*
X178169Y77768D02*
X186831D01*
X138464Y88433D02*
X149536D01*
X138464Y95567D02*
X149536D01*
X160531Y88646D02*
X164468D01*
X160531Y94354D02*
X164468D01*
X104047Y72721D02*
Y73705D01*
X105032D01*
X104047Y61894D02*
Y62878D01*
Y61894D02*
X105032D01*
X115858Y72721D02*
Y73705D01*
X114874D02*
X115858D01*
Y61894D02*
Y62878D01*
X114874Y61894D02*
X115858D01*
X122464Y85567D02*
X133536D01*
X122464Y78433D02*
X133536D01*
X201624Y47326D02*
X231628Y64649D01*
X199262Y51418D02*
X201624Y47326D01*
X229266Y68740D02*
X231628Y64649D01*
X192372Y63351D02*
X194734Y59260D01*
X192372Y63351D02*
X222376Y80674D01*
X224738Y76582D01*
X137475Y39279D02*
X137986Y38983D01*
X131991Y36080D02*
X137958Y32635D01*
X117000Y54130D02*
Y57870D01*
X83991Y63080D02*
X89958Y59635D01*
X89474Y66279D02*
X89986Y65983D01*
X104975Y57779D02*
X105486Y57483D01*
X99393Y54410D02*
X105359Y50965D01*
X177876Y75468D02*
Y72188D01*
X178532Y71532D01*
X179844D01*
X180500Y72188D01*
Y75468D01*
X181812Y71532D02*
X183124D01*
X182468D01*
Y75468D01*
X181812Y74812D01*
X170376Y32032D02*
Y35968D01*
X172344D01*
X173000Y35312D01*
Y34000D01*
X172344Y33344D01*
X170376D01*
X171688D02*
X173000Y32032D01*
X174312D02*
X175624D01*
X174968D01*
Y35968D01*
X174312Y35312D01*
X143376Y42968D02*
Y39032D01*
X145344D01*
X146000Y39688D01*
Y42312D01*
X145344Y42968D01*
X143376D01*
X147312Y39032D02*
X148624D01*
X147968D01*
Y42968D01*
X147312Y42312D01*
X113968Y78220D02*
X110032D01*
Y80188D01*
X110688Y80844D01*
X112000D01*
X112656Y80188D01*
Y78220D01*
Y79532D02*
X113968Y80844D01*
X110032Y84780D02*
X110688Y83468D01*
X112000Y82156D01*
X113312D01*
X113968Y82812D01*
Y84124D01*
X113312Y84780D01*
X112656D01*
X112000Y84124D01*
Y82156D01*
X191000Y83812D02*
X190344Y84468D01*
X189032D01*
X188376Y83812D01*
Y81188D01*
X189032Y80532D01*
X190344D01*
X191000Y81188D01*
X192312Y80532D02*
X193624D01*
X192968D01*
Y84468D01*
X192312Y83812D01*
X95720Y77468D02*
Y74188D01*
X96376Y73532D01*
X97688D01*
X98344Y74188D01*
Y77468D01*
X102280Y73532D02*
X99656D01*
X102280Y76156D01*
Y76812D01*
X101624Y77468D01*
X100312D01*
X99656Y76812D01*
X232652Y76360D02*
X232892Y77256D01*
X232236Y78392D01*
X231340Y78632D01*
X230772Y78304D01*
X230532Y77408D01*
X231188Y76272D01*
X230948Y75376D01*
X230380Y75048D01*
X229484Y75288D01*
X228828Y76424D01*
X229068Y77321D01*
X233876Y75552D02*
X230468Y73584D01*
X232260Y73104D01*
X231780Y71312D01*
X235188Y73280D01*
X232436Y70176D02*
X233092Y69039D01*
X232764Y69608D01*
X236172Y71575D01*
X235276Y71816D01*
X124720Y58032D02*
Y61968D01*
X126688D01*
X127344Y61312D01*
Y60000D01*
X126688Y59344D01*
X124720D01*
X126032D02*
X127344Y58032D01*
X128656Y58688D02*
X129312Y58032D01*
X130624D01*
X131280Y58688D01*
Y61312D01*
X130624Y61968D01*
X129312D01*
X128656Y61312D01*
Y60656D01*
X129312Y60000D01*
X131280D01*
X89720Y80032D02*
Y83968D01*
X91688D01*
X92344Y83312D01*
Y82000D01*
X91688Y81344D01*
X89720D01*
X91032D02*
X92344Y80032D01*
X93656Y83968D02*
X96280D01*
Y83312D01*
X93656Y80688D01*
Y80032D01*
X81532Y92280D02*
X85468D01*
Y90312D01*
X84812Y89656D01*
X83500D01*
X82844Y90312D01*
Y92280D01*
Y90968D02*
X81532Y89656D01*
X85468Y85720D02*
Y88344D01*
X83500D01*
X84156Y87032D01*
Y86376D01*
X83500Y85720D01*
X82188D01*
X81532Y86376D01*
Y87688D01*
X82188Y88344D01*
X136720Y63032D02*
Y66968D01*
X138688D01*
X139344Y66312D01*
Y65000D01*
X138688Y64344D01*
X136720D01*
X138032D02*
X139344Y63032D01*
X142624D02*
Y66968D01*
X140656Y65000D01*
X143280D01*
X138720Y83032D02*
Y86968D01*
X140688D01*
X141344Y86312D01*
Y85000D01*
X140688Y84344D01*
X138720D01*
X140032D02*
X141344Y83032D01*
X142656Y86312D02*
X143312Y86968D01*
X144624D01*
X145280Y86312D01*
Y85656D01*
X144624Y85000D01*
X143968D01*
X144624D01*
X145280Y84344D01*
Y83688D01*
X144624Y83032D01*
X143312D01*
X142656Y83688D01*
X159220Y96532D02*
Y100468D01*
X161188D01*
X161844Y99812D01*
Y98500D01*
X161188Y97844D01*
X159220D01*
X160532D02*
X161844Y96532D01*
X165780D02*
X163156D01*
X165780Y99156D01*
Y99812D01*
X165124Y100468D01*
X163812D01*
X163156Y99812D01*
X189376Y48032D02*
Y51968D01*
X191344D01*
X192000Y51312D01*
Y50000D01*
X191344Y49344D01*
X189376D01*
X193312Y48032D02*
X194624D01*
X193968D01*
Y51968D01*
X193312Y51312D01*
X168720Y60032D02*
Y63968D01*
X170688D01*
X171344Y63312D01*
Y62000D01*
X170688Y61344D01*
X168720D01*
X172656Y63312D02*
X173312Y63968D01*
X174624D01*
X175280Y63312D01*
Y62656D01*
X174624Y62000D01*
X173968D01*
X174624D01*
X175280Y61344D01*
Y60688D01*
X174624Y60032D01*
X173312D01*
X172656Y60688D01*
X77644Y72344D02*
X75676Y68936D01*
X77380Y67952D01*
X78276Y68192D01*
X79588Y70464D01*
X79348Y71360D01*
X77644Y72344D01*
X81356Y65656D02*
X79084Y66968D01*
X82668Y67928D01*
X82996Y68496D01*
X82756Y69392D01*
X81620Y70048D01*
X80724Y69808D01*
X130344Y76312D02*
X129688Y76968D01*
X128376D01*
X127720Y76312D01*
Y73688D01*
X128376Y73032D01*
X129688D01*
X130344Y73688D01*
X134280Y76968D02*
X131656D01*
Y75000D01*
X132968Y75656D01*
X133624D01*
X134280Y75000D01*
Y73688D01*
X133624Y73032D01*
X132312D01*
X131656Y73688D01*
X130344Y90312D02*
X129688Y90968D01*
X128376D01*
X127720Y90312D01*
Y87688D01*
X128376Y87032D01*
X129688D01*
X130344Y87688D01*
X131656Y90968D02*
X134280D01*
Y90312D01*
X131656Y87688D01*
Y87032D01*
X95344Y94312D02*
X94688Y94968D01*
X93376D01*
X92720Y94312D01*
Y91688D01*
X93376Y91032D01*
X94688D01*
X95344Y91688D01*
X96656Y94312D02*
X97312Y94968D01*
X98624D01*
X99280Y94312D01*
Y93656D01*
X98624Y93000D01*
X97968D01*
X98624D01*
X99280Y92344D01*
Y91688D01*
X98624Y91032D01*
X97312D01*
X96656Y91688D01*
X142844Y100312D02*
X142188Y100968D01*
X140876D01*
X140220Y100312D01*
Y97688D01*
X140876Y97032D01*
X142188D01*
X142844Y97688D01*
X146124Y97032D02*
Y100968D01*
X144156Y99000D01*
X146780D01*
X194344Y94312D02*
X193688Y94968D01*
X192376D01*
X191720Y94312D01*
Y91688D01*
X192376Y91032D01*
X193688D01*
X194344Y91688D01*
X198280Y91032D02*
X195656D01*
X198280Y93656D01*
Y94312D01*
X197624Y94968D01*
X196312D01*
X195656Y94312D01*
X90999Y85693D02*
X87719D01*
X87063Y86349D01*
Y87661D01*
X87719Y88317D01*
X90999D01*
X90343Y89629D02*
X90999Y90285D01*
Y91597D01*
X90343Y92252D01*
X89687D01*
X89031Y91597D01*
Y90941D01*
Y91597D01*
X88375Y92252D01*
X87719D01*
X87063Y91597D01*
Y90285D01*
X87719Y89629D01*
D12*
X127165Y45000D02*
X187165D01*
X127165Y55000D02*
X187165D01*
Y45000D02*
Y55000D01*
X127165Y45000D02*
Y55000D01*
X147165Y58386D02*
Y68386D01*
X167165Y58386D02*
Y68386D01*
X147165D02*
X167165D01*
X147165Y58386D02*
X167165D01*
D13*
X116860Y45516D02*
Y47484D01*
X117844D01*
X118172Y47156D01*
Y46500D01*
X117844Y46172D01*
X116860D01*
X117516D02*
X118172Y45516D01*
X118828Y47156D02*
X119156Y47484D01*
X119812D01*
X120140Y47156D01*
Y46828D01*
X119812Y46500D01*
X120140Y46172D01*
Y45844D01*
X119812Y45516D01*
X119156D01*
X118828Y45844D01*
Y46172D01*
X119156Y46500D01*
X118828Y46828D01*
Y47156D01*
X119156Y46500D02*
X119812D01*
X95860Y66484D02*
Y64516D01*
X96844D01*
X97172Y64844D01*
Y66156D01*
X96844Y66484D01*
X95860D01*
X97828Y66156D02*
X98156Y66484D01*
X98812D01*
X99140Y66156D01*
Y65828D01*
X98812Y65500D01*
X98484D01*
X98812D01*
X99140Y65172D01*
Y64844D01*
X98812Y64516D01*
X98156D01*
X97828Y64844D01*
D14*
X55404Y77680D02*
X157480Y18898D01*
X259557Y77679D01*
X259842Y78740D01*
Y102362D01*
X55118Y102362D02*
X259842Y102362D01*
X55118Y78740D02*
Y102362D01*
Y78740D02*
X55404Y77680D01*
M02*
