G04*
G04 #@! TF.GenerationSoftware,Altium Limited,Altium Designer,22.4.2 (48)*
G04*
G04 Layer_Color=8388736*
%FSLAX25Y25*%
%MOIN*%
G70*
G04*
G04 #@! TF.SameCoordinates,9DE54F71-11C6-4998-B53C-E160C00813D1*
G04*
G04*
G04 #@! TF.FilePolarity,Positive*
G04*
G01*
G75*
%ADD11C,0.00787*%
%ADD14C,0.00004*%
D11*
X124850Y69575D02*
X131150D01*
Y66425D02*
Y69575D01*
X124850Y66425D02*
X131150D01*
X124850D02*
Y69575D01*
X155831Y73882D02*
X172169D01*
Y84118D01*
X155831D02*
X172169D01*
X155831Y73882D02*
Y84118D01*
X186831Y79146D02*
Y84854D01*
X178169D02*
X186831D01*
X178169Y79146D02*
Y84854D01*
Y79146D02*
X186831D01*
X140850Y93575D02*
X147150D01*
Y90425D02*
Y93575D01*
X140850Y90425D02*
X147150D01*
X140850D02*
Y93575D01*
X104047Y61894D02*
Y73705D01*
Y61894D02*
X115858D01*
Y73705D01*
X104047D02*
X115858D01*
X124850Y80425D02*
Y83575D01*
Y80425D02*
X131150D01*
Y83575D01*
X124850D02*
X131150D01*
X201624Y47326D02*
X231628Y64649D01*
X186467Y73580D02*
X201624Y47326D01*
X186467Y73580D02*
X216471Y90903D01*
X231628Y64649D01*
X132286Y36592D02*
X138253Y33147D01*
X132286Y36592D02*
X134747Y40853D01*
X140714Y37409D01*
X138253Y33147D02*
X140714Y37409D01*
X113555Y54130D02*
X120445D01*
X113555D02*
Y57870D01*
X120445D01*
Y54130D02*
Y57870D01*
X90253Y60146D02*
X92714Y64409D01*
X86747Y67853D02*
X92714Y64409D01*
X84286Y63591D02*
X86747Y67853D01*
X84286Y63591D02*
X90253Y60146D01*
X99786Y55091D02*
X105753Y51647D01*
X99786Y55091D02*
X102247Y59353D01*
X108214Y55909D01*
X105753Y51647D02*
X108214Y55909D01*
X90999Y85693D02*
X87719D01*
X87063Y86349D01*
Y87661D01*
X87719Y88317D01*
X90999D01*
X90343Y89629D02*
X90999Y90285D01*
Y91597D01*
X90343Y92252D01*
X89687D01*
X89031Y91597D01*
Y90941D01*
Y91597D01*
X88375Y92252D01*
X87719D01*
X87063Y91597D01*
Y90285D01*
X87719Y89629D01*
D14*
X55404Y77680D02*
X157480Y18898D01*
X259557Y77679D01*
X259842Y78740D01*
Y102362D01*
X55118Y102362D02*
X259842Y102362D01*
X55118Y78740D02*
Y102362D01*
Y78740D02*
X55404Y77680D01*
M02*
