M48
;Layer_Color=9474304
;FILE_FORMAT=2:4
INCH,TZ
;TYPE=PLATED
T1F00S00C0.0079
T2F00S00C0.0118
T3F00S00C0.0236
T4F00S00C0.0315
T5F00S00C0.0394
T6F00S00C0.0827
%
T01
X8811Y8922
Y9316
X9106Y9119
X9402Y9316
Y8922
T02
X9950Y6300
X10250Y6200
X10000Y6800
X12400Y8650
X13450Y9100
X13000Y10000
X11000Y10050
X15218Y8050
X14550Y2950
X12500Y4200
X18950Y3850
X16754Y7703
X16400
X16046
Y8097
X16400
X16754
X16150Y8700
X17350Y9200
Y9950
X22100Y9250
X22500Y8650
T03
X13217Y5000
X14217
X15217
Y6339
X16217
Y5000
X17217
X18217
T04
X20518Y6006
X21200Y6400
X21882Y6794
T05
X19836Y5613
X22564Y7187
T06
X7087Y7874
X15748Y3150
X24409Y7874
M30
