G04*
G04 #@! TF.GenerationSoftware,Altium Limited,Altium Designer,22.4.2 (48)*
G04*
G04 Layer_Color=16711935*
%FSLAX25Y25*%
%MOIN*%
G70*
G04*
G04 #@! TF.SameCoordinates,9DE54F71-11C6-4998-B53C-E160C00813D1*
G04*
G04*
G04 #@! TF.FilePolarity,Positive*
G04*
G01*
G75*
%ADD11C,0.00787*%
%ADD14C,0.00004*%
G36*
X208386Y69425D02*
X208413Y69425D01*
X208446Y69424D01*
X208479Y69420D01*
X208516Y69415D01*
X208555Y69410D01*
X208594Y69401D01*
X208634Y69390D01*
X208676Y69378D01*
X208717Y69361D01*
X208757Y69343D01*
X208759Y69342D01*
X208767Y69337D01*
X208777Y69332D01*
X208791Y69322D01*
X208811Y69311D01*
X208831Y69297D01*
X208854Y69281D01*
X208880Y69262D01*
X208907Y69240D01*
X208936Y69218D01*
X208963Y69190D01*
X208993Y69160D01*
X209021Y69129D01*
X209049Y69095D01*
X209077Y69059D01*
X209102Y69020D01*
X208844Y68839D01*
X208843Y68841D01*
X208839Y68845D01*
X208834Y68853D01*
X208825Y68864D01*
X208814Y68876D01*
X208801Y68891D01*
X208787Y68907D01*
X208771Y68923D01*
X208734Y68959D01*
X208693Y68996D01*
X208648Y69029D01*
X208600Y69058D01*
X208597Y69059D01*
X208594Y69061D01*
X208587Y69064D01*
X208577Y69067D01*
X208564Y69073D01*
X208548Y69077D01*
X208532Y69082D01*
X208510Y69088D01*
X208489Y69093D01*
X208464Y69097D01*
X208438Y69100D01*
X208411Y69103D01*
X208380Y69105D01*
X208349Y69105D01*
X208317Y69105D01*
X208283Y69101D01*
X208281Y69100D01*
X208274Y69101D01*
X208265Y69097D01*
X208252Y69097D01*
X208233Y69093D01*
X208214Y69088D01*
X208192Y69082D01*
X208166Y69077D01*
X208138Y69070D01*
X208110Y69060D01*
X208080Y69049D01*
X208048Y69038D01*
X207981Y69008D01*
X207911Y68973D01*
X207884Y68957D01*
X207870Y68946D01*
X207854Y68935D01*
X207835Y68924D01*
X207817Y68909D01*
X207776Y68878D01*
X207731Y68841D01*
X207689Y68801D01*
X207650Y68756D01*
X207648Y68755D01*
X207646Y68751D01*
X207641Y68744D01*
X207634Y68735D01*
X207625Y68724D01*
X207617Y68710D01*
X207599Y68679D01*
X207579Y68643D01*
X207561Y68600D01*
X207546Y68558D01*
X207539Y68513D01*
X207540Y68511D01*
X207537Y68508D01*
X207538Y68502D01*
X207537Y68492D01*
X207537Y68469D01*
X207539Y68438D01*
X207544Y68405D01*
X207553Y68367D01*
X207565Y68329D01*
X207584Y68290D01*
X207585Y68288D01*
X207587Y68285D01*
X207590Y68280D01*
X207595Y68274D01*
X207608Y68256D01*
X207626Y68233D01*
X207650Y68211D01*
X207678Y68186D01*
X207711Y68164D01*
X207748Y68147D01*
X207749Y68145D01*
X207753Y68146D01*
X207767Y68140D01*
X207789Y68134D01*
X207821Y68130D01*
X207859Y68126D01*
X207882Y68123D01*
X207906Y68123D01*
X207932Y68122D01*
X207960Y68125D01*
X207988Y68127D01*
X208019Y68132D01*
X208021Y68133D01*
X208025Y68133D01*
X208031Y68134D01*
X208042Y68136D01*
X208054Y68138D01*
X208070Y68141D01*
X208092Y68147D01*
X208115Y68153D01*
X208143Y68160D01*
X208175Y68167D01*
X208212Y68177D01*
X208254Y68188D01*
X208298Y68200D01*
X208348Y68216D01*
X208405Y68232D01*
X208467Y68250D01*
X208471Y68250D01*
X208482Y68254D01*
X208500Y68260D01*
X208523Y68266D01*
X208551Y68273D01*
X208584Y68282D01*
X208620Y68291D01*
X208657Y68301D01*
X208739Y68319D01*
X208822Y68337D01*
X208862Y68345D01*
X208901Y68349D01*
X208935Y68353D01*
X208967Y68355D01*
X208970Y68355D01*
X208976Y68356D01*
X208987Y68356D01*
X209001Y68355D01*
X209019Y68356D01*
X209038Y68353D01*
X209088Y68350D01*
X209142Y68343D01*
X209200Y68332D01*
X209260Y68312D01*
X209288Y68301D01*
X209316Y68288D01*
X209317Y68286D01*
X209323Y68284D01*
X209330Y68280D01*
X209341Y68273D01*
X209352Y68265D01*
X209366Y68256D01*
X209383Y68243D01*
X209400Y68230D01*
X209417Y68215D01*
X209437Y68197D01*
X209475Y68158D01*
X209513Y68112D01*
X209530Y68085D01*
X209548Y68059D01*
X209549Y68058D01*
X209552Y68052D01*
X209558Y68042D01*
X209563Y68029D01*
X209569Y68015D01*
X209577Y67997D01*
X209585Y67975D01*
X209594Y67952D01*
X209611Y67899D01*
X209623Y67838D01*
X209627Y67804D01*
X209631Y67770D01*
X209633Y67735D01*
X209632Y67698D01*
X209631Y67695D01*
X209631Y67688D01*
X209629Y67679D01*
X209629Y67664D01*
X209625Y67647D01*
X209621Y67626D01*
X209616Y67603D01*
X209609Y67576D01*
X209600Y67549D01*
X209591Y67518D01*
X209579Y67487D01*
X209565Y67456D01*
X209549Y67422D01*
X209530Y67388D01*
X209508Y67355D01*
X209485Y67321D01*
X209484Y67319D01*
X209478Y67313D01*
X209470Y67304D01*
X209459Y67291D01*
X209446Y67276D01*
X209431Y67258D01*
X209411Y67238D01*
X209389Y67216D01*
X209364Y67193D01*
X209338Y67168D01*
X209310Y67143D01*
X209277Y67117D01*
X209244Y67092D01*
X209207Y67066D01*
X209170Y67040D01*
X209105Y67003D01*
X209087Y66995D01*
X209065Y66982D01*
X209041Y66970D01*
X209012Y66957D01*
X208979Y66943D01*
X208945Y66928D01*
X208908Y66913D01*
X208827Y66885D01*
X208742Y66863D01*
X208700Y66855D01*
X208656Y66847D01*
X208654Y66848D01*
X208646Y66846D01*
X208634Y66846D01*
X208617Y66845D01*
X208598Y66843D01*
X208573Y66843D01*
X208548Y66844D01*
X208518Y66844D01*
X208487Y66847D01*
X208453Y66850D01*
X208418Y66857D01*
X208384Y66865D01*
X208348Y66873D01*
X208312Y66884D01*
X208274Y66898D01*
X208240Y66915D01*
X208237Y66915D01*
X208231Y66918D01*
X208221Y66924D01*
X208209Y66933D01*
X208192Y66942D01*
X208174Y66954D01*
X208154Y66969D01*
X208132Y66984D01*
X208107Y67003D01*
X208082Y67023D01*
X208057Y67047D01*
X208032Y67071D01*
X207981Y67127D01*
X207958Y67159D01*
X207934Y67193D01*
X208199Y67373D01*
X208200Y67371D01*
X208206Y67366D01*
X208214Y67355D01*
X208224Y67342D01*
X208239Y67328D01*
X208254Y67310D01*
X208272Y67293D01*
X208293Y67273D01*
X208318Y67254D01*
X208343Y67234D01*
X208369Y67216D01*
X208399Y67199D01*
X208429Y67182D01*
X208461Y67169D01*
X208495Y67157D01*
X208531Y67151D01*
X208534Y67150D01*
X208539Y67149D01*
X208551Y67149D01*
X208565Y67147D01*
X208583Y67147D01*
X208605Y67148D01*
X208629Y67149D01*
X208657Y67151D01*
X208688Y67158D01*
X208721Y67163D01*
X208758Y67173D01*
X208797Y67184D01*
X208836Y67198D01*
X208880Y67216D01*
X208924Y67238D01*
X208971Y67262D01*
X208997Y67277D01*
X209013Y67289D01*
X209034Y67303D01*
X209057Y67318D01*
X209084Y67339D01*
X209110Y67359D01*
X209166Y67407D01*
X209193Y67431D01*
X209219Y67460D01*
X209243Y67489D01*
X209265Y67518D01*
X209283Y67549D01*
X209297Y67580D01*
X209298Y67582D01*
X209299Y67588D01*
X209302Y67596D01*
X209306Y67607D01*
X209309Y67623D01*
X209313Y67639D01*
X209315Y67658D01*
X209319Y67678D01*
X209322Y67725D01*
X209318Y67775D01*
X209314Y67802D01*
X209306Y67827D01*
X209296Y67853D01*
X209283Y67879D01*
X209282Y67881D01*
X209280Y67884D01*
X209276Y67891D01*
X209270Y67897D01*
X209263Y67906D01*
X209254Y67917D01*
X209233Y67941D01*
X209206Y67966D01*
X209172Y67989D01*
X209154Y68001D01*
X209133Y68010D01*
X209112Y68018D01*
X209088Y68025D01*
X209086Y68024D01*
X209081Y68025D01*
X209074Y68025D01*
X209061Y68027D01*
X209046Y68027D01*
X209026Y68027D01*
X209002Y68025D01*
X208974Y68022D01*
X208940Y68018D01*
X208903Y68013D01*
X208859Y68006D01*
X208810Y67996D01*
X208758Y67984D01*
X208697Y67969D01*
X208633Y67950D01*
X208562Y67929D01*
X208560Y67928D01*
X208557Y67929D01*
X208552Y67926D01*
X208544Y67923D01*
X208523Y67918D01*
X208496Y67909D01*
X208465Y67900D01*
X208426Y67889D01*
X208385Y67877D01*
X208342Y67866D01*
X208250Y67842D01*
X208203Y67828D01*
X208157Y67818D01*
X208113Y67808D01*
X208071Y67799D01*
X208033Y67794D01*
X207999Y67790D01*
X207997Y67791D01*
X207989Y67788D01*
X207976Y67787D01*
X207960Y67787D01*
X207938Y67786D01*
X207915Y67787D01*
X207888Y67787D01*
X207858Y67787D01*
X207793Y67793D01*
X207726Y67804D01*
X207656Y67823D01*
X207625Y67834D01*
X207592Y67849D01*
X207589Y67849D01*
X207584Y67853D01*
X207575Y67857D01*
X207564Y67865D01*
X207549Y67872D01*
X207533Y67883D01*
X207514Y67897D01*
X207495Y67910D01*
X207474Y67928D01*
X207451Y67947D01*
X207428Y67967D01*
X207406Y67990D01*
X207361Y68044D01*
X207341Y68075D01*
X207321Y68106D01*
X207320Y68108D01*
X207316Y68115D01*
X207311Y68123D01*
X207306Y68136D01*
X207299Y68152D01*
X207290Y68172D01*
X207281Y68195D01*
X207272Y68218D01*
X207262Y68247D01*
X207254Y68276D01*
X207247Y68308D01*
X207242Y68341D01*
X207237Y68377D01*
X207231Y68414D01*
X207231Y68453D01*
X207232Y68492D01*
X207232Y68494D01*
X207233Y68502D01*
X207233Y68513D01*
X207236Y68528D01*
X207239Y68546D01*
X207242Y68568D01*
X207247Y68594D01*
X207255Y68621D01*
X207264Y68651D01*
X207273Y68683D01*
X207286Y68716D01*
X207300Y68751D01*
X207318Y68786D01*
X207335Y68823D01*
X207357Y68858D01*
X207381Y68895D01*
X207382Y68898D01*
X207388Y68903D01*
X207395Y68914D01*
X207406Y68927D01*
X207419Y68944D01*
X207437Y68963D01*
X207457Y68984D01*
X207479Y69008D01*
X207503Y69033D01*
X207531Y69059D01*
X207561Y69085D01*
X207595Y69113D01*
X207629Y69140D01*
X207667Y69169D01*
X207708Y69195D01*
X207750Y69221D01*
X207779Y69238D01*
X207800Y69248D01*
X207826Y69261D01*
X207856Y69276D01*
X207891Y69294D01*
X207929Y69311D01*
X207969Y69327D01*
X208013Y69346D01*
X208105Y69379D01*
X208152Y69392D01*
X208201Y69404D01*
X208247Y69415D01*
X208295Y69422D01*
X208297Y69422D01*
X208305Y69424D01*
X208318Y69425D01*
X208337Y69424D01*
X208359Y69425D01*
X208386Y69425D01*
D02*
G37*
G36*
X208026Y66429D02*
X207733Y66260D01*
X206576Y67495D01*
X206575Y67497D01*
X206568Y67505D01*
X206558Y67514D01*
X206545Y67529D01*
X206528Y67547D01*
X206509Y67568D01*
X206487Y67591D01*
X206463Y67616D01*
X206438Y67644D01*
X206410Y67676D01*
X206380Y67708D01*
X206352Y67742D01*
X206291Y67813D01*
X206227Y67887D01*
X206228Y67885D01*
X206228Y67883D01*
X206231Y67878D01*
X206233Y67870D01*
X206238Y67850D01*
X206246Y67823D01*
X206255Y67792D01*
X206266Y67758D01*
X206276Y67721D01*
X206287Y67682D01*
X206313Y67602D01*
X206324Y67563D01*
X206333Y67527D01*
X206343Y67494D01*
X206352Y67468D01*
X206358Y67446D01*
X206361Y67437D01*
X206362Y67431D01*
X206797Y65720D01*
X206449Y65519D01*
X205502Y66443D01*
X205501Y66445D01*
X205497Y66447D01*
X205492Y66451D01*
X205486Y66459D01*
X205477Y66467D01*
X205466Y66477D01*
X205455Y66488D01*
X205443Y66502D01*
X205428Y66516D01*
X205412Y66532D01*
X205378Y66568D01*
X205337Y66610D01*
X205293Y66655D01*
X205246Y66705D01*
X205199Y66757D01*
X205146Y66812D01*
X205094Y66871D01*
X204989Y66991D01*
X204888Y67114D01*
X204889Y67112D01*
X204892Y67103D01*
X204895Y67091D01*
X204900Y67073D01*
X204909Y67051D01*
X204917Y67024D01*
X204927Y66996D01*
X204938Y66961D01*
X204949Y66923D01*
X204961Y66882D01*
X204975Y66838D01*
X204988Y66791D01*
X205004Y66742D01*
X205020Y66690D01*
X205035Y66635D01*
X205052Y66579D01*
X205519Y64982D01*
X205229Y64814D01*
X204568Y67335D01*
X204849Y67496D01*
X206262Y66103D01*
X206263Y66101D01*
X206268Y66096D01*
X206277Y66087D01*
X206290Y66074D01*
X206304Y66062D01*
X206319Y66046D01*
X206356Y66010D01*
X206393Y65973D01*
X206429Y65939D01*
X206445Y65924D01*
X206458Y65908D01*
X206470Y65895D01*
X206479Y65887D01*
X206478Y65889D01*
X206477Y65895D01*
X206474Y65904D01*
X206471Y65916D01*
X206465Y65931D01*
X206462Y65947D01*
X206456Y65966D01*
X206450Y65988D01*
X206435Y66034D01*
X206423Y66083D01*
X206407Y66133D01*
X206396Y66180D01*
X205897Y68102D01*
X206195Y68273D01*
X208026Y66429D01*
D02*
G37*
G36*
X204057Y64771D02*
X204057Y64774D01*
X204060Y64778D01*
X204062Y64786D01*
X204065Y64796D01*
X204070Y64811D01*
X204076Y64828D01*
X204084Y64846D01*
X204091Y64868D01*
X204100Y64891D01*
X204113Y64917D01*
X204124Y64944D01*
X204138Y64972D01*
X204169Y65035D01*
X204205Y65102D01*
X204206Y65104D01*
X204210Y65109D01*
X204216Y65119D01*
X204222Y65131D01*
X204233Y65147D01*
X204244Y65165D01*
X204257Y65185D01*
X204269Y65206D01*
X204301Y65254D01*
X204333Y65304D01*
X204369Y65355D01*
X204406Y65401D01*
X204555Y65143D01*
X204553Y65139D01*
X204548Y65132D01*
X204539Y65120D01*
X204528Y65102D01*
X204514Y65081D01*
X204499Y65056D01*
X204482Y65026D01*
X204464Y64995D01*
X204443Y64960D01*
X204424Y64922D01*
X204383Y64842D01*
X204345Y64754D01*
X204312Y64663D01*
X204311Y64660D01*
X204309Y64652D01*
X204305Y64639D01*
X204299Y64622D01*
X204293Y64600D01*
X204285Y64575D01*
X204279Y64547D01*
X204272Y64516D01*
X204259Y64449D01*
X204248Y64377D01*
X204243Y64304D01*
X204240Y64269D01*
X204243Y64234D01*
X204069Y64134D01*
X202808Y66318D01*
X203075Y66472D01*
X204057Y64771D01*
D02*
G37*
G36*
X135590Y38575D02*
X135607Y38574D01*
X135626Y38575D01*
X135648Y38574D01*
X135670Y38572D01*
X135695Y38569D01*
X135750Y38562D01*
X135810Y38550D01*
X135874Y38534D01*
X135875Y38533D01*
X135881Y38531D01*
X135891Y38528D01*
X135904Y38523D01*
X135919Y38519D01*
X135940Y38511D01*
X135960Y38504D01*
X135984Y38493D01*
X136011Y38481D01*
X136040Y38469D01*
X136071Y38456D01*
X136103Y38442D01*
X136172Y38407D01*
X136244Y38367D01*
X137028Y37915D01*
X135772Y35739D01*
X134981Y36195D01*
X134961Y36209D01*
X134936Y36223D01*
X134910Y36241D01*
X134881Y36257D01*
X134821Y36299D01*
X134759Y36341D01*
X134731Y36362D01*
X134703Y36385D01*
X134677Y36407D01*
X134655Y36426D01*
X134653Y36427D01*
X134647Y36433D01*
X134639Y36442D01*
X134627Y36454D01*
X134615Y36467D01*
X134599Y36483D01*
X134582Y36505D01*
X134565Y36526D01*
X134526Y36575D01*
X134489Y36633D01*
X134454Y36698D01*
X134426Y36767D01*
X134425Y36769D01*
X134421Y36778D01*
X134418Y36792D01*
X134412Y36809D01*
X134407Y36832D01*
X134400Y36859D01*
X134393Y36890D01*
X134387Y36923D01*
X134381Y36960D01*
X134376Y37002D01*
X134371Y37045D01*
X134370Y37089D01*
X134370Y37136D01*
X134371Y37185D01*
X134375Y37235D01*
X134382Y37288D01*
X134383Y37292D01*
X134385Y37300D01*
X134387Y37314D01*
X134391Y37334D01*
X134397Y37360D01*
X134405Y37390D01*
X134413Y37424D01*
X134424Y37462D01*
X134438Y37502D01*
X134453Y37547D01*
X134471Y37594D01*
X134490Y37642D01*
X134512Y37692D01*
X134536Y37746D01*
X134564Y37798D01*
X134594Y37853D01*
X134596Y37857D01*
X134601Y37865D01*
X134608Y37877D01*
X134620Y37895D01*
X134633Y37917D01*
X134648Y37940D01*
X134667Y37968D01*
X134687Y37999D01*
X134709Y38029D01*
X134734Y38062D01*
X134788Y38131D01*
X134845Y38198D01*
X134908Y38260D01*
X134909Y38262D01*
X134916Y38267D01*
X134924Y38276D01*
X134937Y38287D01*
X134951Y38299D01*
X134970Y38313D01*
X134990Y38331D01*
X135012Y38347D01*
X135062Y38386D01*
X135118Y38424D01*
X135177Y38460D01*
X135238Y38491D01*
X135241Y38492D01*
X135244Y38494D01*
X135253Y38498D01*
X135265Y38502D01*
X135279Y38508D01*
X135297Y38515D01*
X135337Y38529D01*
X135386Y38543D01*
X135440Y38558D01*
X135495Y38568D01*
X135551Y38575D01*
X135553Y38574D01*
X135558Y38575D01*
X135565Y38576D01*
X135577Y38576D01*
X135590Y38575D01*
D02*
G37*
G36*
X134202Y39546D02*
X133220Y37846D01*
X133223Y37846D01*
X133227Y37846D01*
X133235Y37848D01*
X133246Y37851D01*
X133261Y37854D01*
X133279Y37857D01*
X133298Y37859D01*
X133321Y37864D01*
X133346Y37868D01*
X133374Y37870D01*
X133403Y37873D01*
X133434Y37876D01*
X133505Y37880D01*
X133580Y37882D01*
X133583Y37883D01*
X133589Y37881D01*
X133600Y37881D01*
X133615Y37882D01*
X133634Y37880D01*
X133654Y37880D01*
X133678Y37879D01*
X133703Y37879D01*
X133760Y37875D01*
X133819Y37873D01*
X133881Y37866D01*
X133940Y37858D01*
X133791Y37600D01*
X133786Y37600D01*
X133778Y37600D01*
X133763Y37602D01*
X133743Y37602D01*
X133716Y37604D01*
X133687Y37605D01*
X133653Y37604D01*
X133617Y37605D01*
X133577Y37605D01*
X133535Y37603D01*
X133444Y37598D01*
X133349Y37587D01*
X133253Y37570D01*
X133251Y37570D01*
X133243Y37567D01*
X133229Y37564D01*
X133212Y37561D01*
X133190Y37555D01*
X133164Y37549D01*
X133137Y37541D01*
X133106Y37531D01*
X133042Y37509D01*
X132974Y37483D01*
X132908Y37451D01*
X132877Y37435D01*
X132847Y37416D01*
X132674Y37516D01*
X133935Y39700D01*
X134202Y39546D01*
D02*
G37*
%LPC*%
G36*
X135640Y38261D02*
X135597Y38261D01*
X135550Y38256D01*
X135507Y38247D01*
X135504Y38247D01*
X135499Y38245D01*
X135491Y38243D01*
X135479Y38238D01*
X135465Y38233D01*
X135448Y38227D01*
X135429Y38218D01*
X135407Y38208D01*
X135383Y38197D01*
X135359Y38183D01*
X135333Y38169D01*
X135304Y38151D01*
X135276Y38134D01*
X135248Y38112D01*
X135219Y38090D01*
X135189Y38065D01*
X135188Y38063D01*
X135182Y38057D01*
X135174Y38050D01*
X135162Y38039D01*
X135148Y38025D01*
X135131Y38007D01*
X135112Y37986D01*
X135092Y37964D01*
X135070Y37938D01*
X135047Y37909D01*
X135022Y37878D01*
X134995Y37843D01*
X134969Y37806D01*
X134941Y37766D01*
X134915Y37724D01*
X134889Y37679D01*
X134888Y37677D01*
X134887Y37675D01*
X134884Y37670D01*
X134880Y37663D01*
X134870Y37646D01*
X134858Y37622D01*
X134843Y37592D01*
X134826Y37558D01*
X134808Y37519D01*
X134791Y37477D01*
X134774Y37433D01*
X134755Y37385D01*
X134738Y37336D01*
X134726Y37286D01*
X134713Y37237D01*
X134704Y37186D01*
X134698Y37137D01*
X134698Y37089D01*
X134699Y37087D01*
X134698Y37078D01*
X134700Y37066D01*
X134701Y37047D01*
X134703Y37028D01*
X134707Y37003D01*
X134711Y36975D01*
X134717Y36945D01*
X134723Y36914D01*
X134732Y36882D01*
X134744Y36848D01*
X134756Y36814D01*
X134771Y36780D01*
X134788Y36748D01*
X134808Y36716D01*
X134829Y36685D01*
X134831Y36685D01*
X134833Y36681D01*
X134838Y36674D01*
X134847Y36666D01*
X134857Y36656D01*
X134870Y36642D01*
X134886Y36628D01*
X134906Y36610D01*
X134927Y36593D01*
X134952Y36574D01*
X134980Y36551D01*
X135012Y36528D01*
X135047Y36503D01*
X135085Y36479D01*
X135129Y36452D01*
X135631Y36161D01*
X136591Y37825D01*
X136092Y38113D01*
X136073Y38122D01*
X136052Y38134D01*
X136028Y38146D01*
X136001Y38159D01*
X135946Y38184D01*
X135884Y38211D01*
X135825Y38234D01*
X135795Y38241D01*
X135768Y38248D01*
X135766Y38249D01*
X135762Y38250D01*
X135753Y38250D01*
X135743Y38253D01*
X135730Y38254D01*
X135716Y38256D01*
X135681Y38260D01*
X135640Y38261D01*
D02*
G37*
%LPD*%
D11*
X120496Y71961D02*
X135504D01*
Y64039D02*
Y71961D01*
X120496Y64039D02*
X135504D01*
X120496D02*
Y71961D01*
X154157Y72110D02*
X173843D01*
Y85890D01*
X154157D02*
X173843D01*
X154157Y72110D02*
Y85890D01*
X188012Y78654D02*
Y85346D01*
X176988D02*
X188012D01*
X176988Y78654D02*
Y85346D01*
Y78654D02*
X188012D01*
X136496Y95961D02*
X151504D01*
Y88039D02*
Y95961D01*
X136496Y88039D02*
X151504D01*
X136496D02*
Y95961D01*
X100283Y58130D02*
Y77469D01*
Y58130D02*
X119622D01*
Y77469D01*
X100283D02*
X119622D01*
X120496Y78039D02*
Y85961D01*
Y78039D02*
X135504D01*
Y85961D01*
X120496D02*
X135504D01*
X200201Y46050D02*
X233444Y65243D01*
X184650Y72986D02*
X200201Y46050D01*
X184650Y72986D02*
X217893Y92178D01*
X233444Y65243D01*
X129447Y37776D02*
X140699Y31280D01*
X129447Y37776D02*
X132616Y43266D01*
X143868Y36769D01*
X140699Y31280D02*
X143868Y36769D01*
X112472Y53736D02*
X121528D01*
X112472D02*
Y58264D01*
X121528D01*
Y53736D02*
Y58264D01*
X92699Y58280D02*
X95868Y63770D01*
X84616Y70266D02*
X95868Y63770D01*
X81447Y64776D02*
X84616Y70266D01*
X81447Y64776D02*
X92699Y58280D01*
X96947Y56276D02*
X108199Y49780D01*
X96947Y56276D02*
X100116Y61765D01*
X111368Y55269D01*
X108199Y49780D02*
X111368Y55269D01*
X131411Y72067D02*
X130755Y72723D01*
X129443D01*
X128787Y72067D01*
Y69443D01*
X129443Y68787D01*
X130755D01*
X131411Y69443D01*
X135347Y72723D02*
X132723D01*
Y70755D01*
X134035Y71411D01*
X134691D01*
X135347Y70755D01*
Y69443D01*
X134691Y68787D01*
X133379D01*
X132723Y69443D01*
X159277Y79787D02*
X162557D01*
X163213Y80443D01*
Y81755D01*
X162557Y82411D01*
X159277D01*
X163213Y83723D02*
Y85035D01*
Y84379D01*
X159277D01*
X159933Y83723D01*
X179089Y77933D02*
X179745Y77277D01*
X181057D01*
X181713Y77933D01*
Y80557D01*
X181057Y81213D01*
X179745D01*
X179089Y80557D01*
X177777Y81213D02*
X176465D01*
X177121D01*
Y77277D01*
X177777Y77933D01*
X147411Y96067D02*
X146755Y96723D01*
X145443D01*
X144787Y96067D01*
Y93443D01*
X145443Y92787D01*
X146755D01*
X147411Y93443D01*
X150691Y92787D02*
Y96723D01*
X148723Y94755D01*
X151347D01*
X110740Y72522D02*
Y69243D01*
X111396Y68587D01*
X112708D01*
X113364Y69243D01*
Y72522D01*
X117300Y68587D02*
X114676D01*
X117300Y71211D01*
Y71867D01*
X116644Y72522D01*
X115332D01*
X114676Y71867D01*
X131411Y86067D02*
X130755Y86723D01*
X129443D01*
X128787Y86067D01*
Y83443D01*
X129443Y82787D01*
X130755D01*
X131411Y83443D01*
X132723Y86723D02*
X135347D01*
Y86067D01*
X132723Y83443D01*
Y82787D01*
X116213Y55954D02*
Y52018D01*
X114245D01*
X113589Y52674D01*
Y53986D01*
X114245Y54642D01*
X116213D01*
X114901D02*
X113589Y55954D01*
X112277Y55298D02*
X111621Y55954D01*
X110309D01*
X109653Y55298D01*
Y52674D01*
X110309Y52018D01*
X111621D01*
X112277Y52674D01*
Y53330D01*
X111621Y53986D01*
X109653D01*
X85985Y61218D02*
X87952Y64626D01*
X86248Y65610D01*
X85352Y65370D01*
X84040Y63098D01*
X84280Y62202D01*
X85985Y61218D01*
X82272Y67906D02*
X84544Y66594D01*
X80960Y65634D01*
X80632Y65066D01*
X80872Y64170D01*
X82008Y63514D01*
X82904Y63754D01*
X101485Y52718D02*
X103452Y56126D01*
X101748Y57110D01*
X100852Y56870D01*
X99540Y54598D01*
X99780Y53702D01*
X101485Y52718D01*
X98404Y55254D02*
X97508Y55014D01*
X96372Y55670D01*
X96132Y56566D01*
X96460Y57134D01*
X97356Y57374D01*
X97924Y57046D01*
X97356Y57374D01*
X97116Y58270D01*
X97444Y58838D01*
X98340Y59078D01*
X99476Y58422D01*
X99716Y57526D01*
X90999Y85693D02*
X87719D01*
X87063Y86349D01*
Y87661D01*
X87719Y88317D01*
X90999D01*
X90343Y89629D02*
X90999Y90285D01*
Y91597D01*
X90343Y92252D01*
X89687D01*
X89031Y91597D01*
Y90941D01*
Y91597D01*
X88375Y92252D01*
X87719D01*
X87063Y91597D01*
Y90285D01*
X87719Y89629D01*
D14*
X55404Y77680D02*
X157480Y18898D01*
X259557Y77679D01*
X259842Y78740D01*
Y102362D01*
X55118Y102362D02*
X259842Y102362D01*
X55118Y78740D02*
Y102362D01*
Y78740D02*
X55404Y77680D01*
M02*
