G04*
G04 #@! TF.GenerationSoftware,Altium Limited,Altium Designer,22.4.2 (48)*
G04*
G04 Layer_Color=8421504*
%FSLAX25Y25*%
%MOIN*%
G70*
G04*
G04 #@! TF.SameCoordinates,9DE54F71-11C6-4998-B53C-E160C00813D1*
G04*
G04*
G04 #@! TF.FilePolarity,Positive*
G04*
G01*
G75*
%ADD11C,0.00787*%
%ADD14C,0.00004*%
%ADD15R,0.00984X0.02067*%
%ADD16R,0.00984X0.02067*%
%ADD17R,0.00984X0.02067*%
%ADD18R,0.00984X0.02067*%
%ADD19R,0.03937X0.03150*%
%ADD20R,0.03937X0.03150*%
%ADD21R,0.03937X0.03150*%
%ADD22R,0.03937X0.03150*%
%ADD23R,0.04183X0.04183*%
%ADD24R,0.04758X0.03985*%
%ADD25R,0.04134X0.04528*%
%ADD26R,0.03740X0.05315*%
%ADD27R,0.04331X0.06496*%
%ADD28R,0.05906X0.06102*%
%ADD29R,0.04134X0.03543*%
G04:AMPARAMS|DCode=30|XSize=9.42mil|YSize=38.03mil|CornerRadius=4.71mil|HoleSize=0mil|Usage=FLASHONLY|Rotation=0.000|XOffset=0mil|YOffset=0mil|HoleType=Round|Shape=RoundedRectangle|*
%AMROUNDEDRECTD30*
21,1,0.00942,0.02861,0,0,0.0*
21,1,0.00000,0.03803,0,0,0.0*
1,1,0.00942,0.00000,-0.01431*
1,1,0.00942,0.00000,-0.01431*
1,1,0.00942,0.00000,0.01431*
1,1,0.00942,0.00000,0.01431*
%
%ADD30ROUNDEDRECTD30*%
G04:AMPARAMS|DCode=31|XSize=38.03mil|YSize=9.42mil|CornerRadius=4.71mil|HoleSize=0mil|Usage=FLASHONLY|Rotation=0.000|XOffset=0mil|YOffset=0mil|HoleType=Round|Shape=RoundedRectangle|*
%AMROUNDEDRECTD31*
21,1,0.03803,0.00000,0,0,0.0*
21,1,0.02861,0.00942,0,0,0.0*
1,1,0.00942,0.01431,0.00000*
1,1,0.00942,-0.01431,0.00000*
1,1,0.00942,-0.01431,0.00000*
1,1,0.00942,0.01431,0.00000*
%
%ADD31ROUNDEDRECTD31*%
%ADD32R,0.03803X0.00942*%
%ADD33R,0.03543X0.04134*%
%ADD34P,0.06125X4X195.0*%
%ADD35R,0.02559X0.03543*%
G36*
X154650Y75457D02*
X157405D01*
X157484D01*
X157629Y75397D01*
X157739Y75286D01*
X157799Y75141D01*
Y75063D01*
Y74985D01*
X157739Y74840D01*
X157629Y74729D01*
X157484Y74669D01*
X157405D01*
D01*
X154650D01*
Y75457D01*
D02*
G37*
G36*
Y77031D02*
X157405D01*
X157484D01*
X157629Y76972D01*
X157739Y76861D01*
X157799Y76716D01*
Y76638D01*
Y76560D01*
X157739Y76415D01*
X157629Y76304D01*
X157484Y76244D01*
X157405D01*
Y76244D01*
X154650D01*
Y77031D01*
D02*
G37*
G36*
Y78606D02*
X157405D01*
X157484D01*
X157629Y78546D01*
X157739Y78436D01*
X157799Y78291D01*
Y78213D01*
Y78134D01*
X157739Y77990D01*
X157629Y77879D01*
X157484Y77819D01*
X157405D01*
D01*
X154650D01*
Y78606D01*
D02*
G37*
G36*
Y80181D02*
X157405D01*
X157484D01*
X157629Y80121D01*
X157739Y80010D01*
X157799Y79866D01*
Y79787D01*
Y79709D01*
X157739Y79564D01*
X157629Y79454D01*
X157484Y79394D01*
X157405D01*
D01*
X154650D01*
Y80181D01*
D02*
G37*
G36*
Y81756D02*
X157405Y81756D01*
X157484D01*
X157629Y81696D01*
X157739Y81585D01*
X157799Y81441D01*
Y81362D01*
Y81284D01*
X157739Y81139D01*
X157629Y81028D01*
X157484Y80968D01*
X157405D01*
D01*
X154650D01*
Y81756D01*
D02*
G37*
G36*
Y83331D02*
X157405D01*
X157484D01*
X157629Y83271D01*
X157739Y83160D01*
X157799Y83015D01*
Y82937D01*
Y82859D01*
X157739Y82714D01*
X157629Y82603D01*
X157484Y82543D01*
X157405D01*
D01*
X154650D01*
Y83331D01*
D02*
G37*
G36*
X173350Y74669D02*
X170595D01*
X170516D01*
X170371Y74729D01*
X170261Y74840D01*
X170201Y74985D01*
Y75063D01*
Y75141D01*
X170261Y75286D01*
X170371Y75397D01*
X170516Y75457D01*
X170595D01*
D01*
X173350D01*
Y74669D01*
D02*
G37*
G36*
Y76244D02*
X170595Y76244D01*
X170516D01*
X170371Y76304D01*
X170261Y76415D01*
X170201Y76560D01*
Y76638D01*
Y76716D01*
X170261Y76861D01*
X170371Y76972D01*
X170516Y77031D01*
X170595D01*
D01*
X173350D01*
Y76244D01*
D02*
G37*
G36*
Y77819D02*
X170595D01*
X170516D01*
X170371Y77879D01*
X170261Y77990D01*
X170201Y78134D01*
Y78213D01*
Y78291D01*
X170261Y78436D01*
X170371Y78546D01*
X170516Y78606D01*
X170595D01*
D01*
X173350D01*
Y77819D01*
D02*
G37*
G36*
Y79394D02*
X170595D01*
X170516D01*
X170371Y79454D01*
X170261Y79564D01*
X170201Y79709D01*
Y79787D01*
Y79866D01*
X170261Y80010D01*
X170371Y80121D01*
X170516Y80181D01*
X170595D01*
D01*
X173350D01*
Y79394D01*
D02*
G37*
G36*
Y80968D02*
X170595D01*
X170516D01*
X170371Y81028D01*
X170261Y81139D01*
X170201Y81284D01*
Y81362D01*
Y81441D01*
X170261Y81585D01*
X170371Y81696D01*
X170516Y81756D01*
X170595D01*
Y81756D01*
X173350D01*
Y80968D01*
D02*
G37*
G36*
Y82543D02*
X170595D01*
X170516D01*
X170371Y82603D01*
X170261Y82714D01*
X170201Y82859D01*
Y82937D01*
Y83015D01*
X170261Y83160D01*
X170371Y83271D01*
X170516Y83331D01*
X170595D01*
D01*
X173350D01*
Y82543D01*
D02*
G37*
D11*
X90999Y85693D02*
X87719D01*
X87063Y86349D01*
Y87661D01*
X87719Y88317D01*
X90999D01*
X90343Y89629D02*
X90999Y90285D01*
Y91597D01*
X90343Y92252D01*
X89687D01*
X89031Y91597D01*
Y90941D01*
Y91597D01*
X88375Y92252D01*
X87719D01*
X87063Y91597D01*
Y90285D01*
X87719Y89629D01*
D14*
X55404Y77680D02*
X157480Y18898D01*
X259557Y77679D01*
X259842Y78740D01*
Y102362D01*
X55118Y102362D02*
X259842Y102362D01*
X55118Y78740D02*
Y102362D01*
Y78740D02*
X55404Y77680D01*
D15*
X168331Y84364D02*
D03*
D16*
Y73636D02*
D03*
D17*
X159669Y84364D02*
D03*
D18*
Y73636D02*
D03*
D19*
X166362Y80968D02*
D03*
D20*
Y77031D02*
D03*
D21*
X161638Y80968D02*
D03*
D22*
Y77031D02*
D03*
D23*
X109953Y67799D02*
D03*
D24*
X124843Y68000D02*
D03*
X131157D02*
D03*
X140843Y92000D02*
D03*
X147157D02*
D03*
X131157Y82000D02*
D03*
X124843D02*
D03*
D25*
X140000Y72154D02*
D03*
Y78846D02*
D03*
X148429Y81559D02*
D03*
Y74866D02*
D03*
X84500Y81846D02*
D03*
Y75154D02*
D03*
D26*
X179547Y82000D02*
D03*
X185453D02*
D03*
D27*
X168110Y91500D02*
D03*
X156890D02*
D03*
D28*
X179957Y92000D02*
D03*
X187043D02*
D03*
X103957Y93000D02*
D03*
X111043D02*
D03*
D29*
X117500Y83854D02*
D03*
Y78146D02*
D03*
D30*
X107000Y73599D02*
D03*
X108969D02*
D03*
X110937D02*
D03*
X112906D02*
D03*
Y62000D02*
D03*
X110937D02*
D03*
X108969D02*
D03*
X107000D02*
D03*
D31*
X115752Y70752D02*
D03*
Y68784D02*
D03*
Y66815D02*
D03*
Y64847D02*
D03*
X104153D02*
D03*
Y66815D02*
D03*
Y68784D02*
D03*
D32*
Y70752D02*
D03*
D33*
X100146Y82000D02*
D03*
X105854D02*
D03*
X120854Y50500D02*
D03*
X115146D02*
D03*
X178354Y39500D02*
D03*
X172646D02*
D03*
D34*
X140372Y35833D02*
D03*
X133553Y39770D02*
D03*
X85553Y66770D02*
D03*
X92372Y62833D02*
D03*
X107872Y54333D02*
D03*
X101053Y58270D02*
D03*
D35*
X119854Y56000D02*
D03*
X114146D02*
D03*
M02*
