M48
;Layer_Color=9474304
;FILE_FORMAT=2:4
INCH,TZ
;TYPE=PLATED
T1F00S00C0.0079
T2F00S00C0.0118
T3F00S00C0.0236
T4F00S00C0.0260
T5F00S00C0.0335
T6F00S00C0.0354
T7F00S00C0.0827
;TYPE=NON_PLATED
T8F00S00C0.0787
%
T01
X13384Y5748
X13778
X13581Y6044
X13384Y6339
X13778
X16560Y6209
X16954
X16757Y6504
X16560Y6800
X16954
X14052Y21231
Y21624
Y22018
X13658
Y21624
Y21231
X13264
Y21624
Y22018
T02
X3400Y9300
X4900Y9550
X6250Y9050
X6850
X8400Y9650
X8950Y9700
X9400Y9750
X9000Y11400
X8550
X8200
X7700
X7850Y11850
X7300
X6950Y12300
X6900Y11400
X7100Y13100
X6800Y13500
X6850Y14150
X7718Y14400
X7950Y14900
X7450Y15450
X6450Y15350
X7750Y13050
X9351Y14526
X11200Y14250
X11100Y13000
X13500Y13100
X13450Y12350
X14900Y12480
X15307Y13307
X15600Y14200
X14850Y14300
X14583Y13900
X14050Y14500
X13600Y15000
X13400Y14200
X13350Y13850
X13250Y10800
X13950Y10850
X14614Y11066
X14882Y10836
X15100Y9750
X14950Y8800
X14200Y8850
X14100Y8350
X13800Y7500
X13268Y7082
X12750Y8000
X12700Y8800
Y9950
Y10450
X11800Y7950
X10250Y7900
X9600Y6900
X8800Y6300
X7435Y6615
X10800Y5600
X10650Y4800
X10600Y3750
X11850Y3700
X11600Y4550
X12800Y4050
X13550Y4800
X14650Y3650
X15265Y15135
X16650Y14300
Y13650
X16814Y12296
X17254Y11954
X17500Y11018
X17850Y10750
X18000Y11450
X19200Y10750
X19500Y10450
X20100Y10300
X19980Y10750
X20350Y10850
X21073
X20750Y10450
X22150Y10550
X22113Y11550
Y12005
X23032Y11950
X22900Y11350
X22782Y12750
X23032Y13250
X23250Y14300
X23900Y14800
X23400Y15550
X24900Y15150
Y14500
Y13750
Y12950
Y12300
X24850Y11250
X23950Y9300
X23000Y7150
X21732Y7298
X21700Y6850
X21350Y5250
X20700Y4650
X20200Y4200
X19650
X20073Y5627
X19891Y6641
X19750Y7350
X18600Y7500
X19413Y8534
X19500Y8900
X19200Y9218
X18600Y9450
X18150
X16700Y9418
X15750Y8800
X15650Y10568
X16050Y11281
X17874Y13250
X18500Y13200
X18533Y12857
X19214Y12700
Y13550
X19431Y14500
X18820Y15450
X20200
X20500Y15150
X21150Y14300
X20900Y13700
X20950Y13100
X21152Y13302
X21400Y13506
X21155Y12479
X20500Y12700
X18050Y13850
X19768Y9700
X18831Y5759
X17500Y5300
X17050Y4900
X16700Y5150
X15800Y5050
X17050Y3350
X17650Y3900
X18200Y3300
X17102Y16132
X16832Y17000
X16396Y17253
X17102Y17520
X17950
X17935Y18365
X17350Y18168
X17374Y19626
X17921Y19950
X18300Y19450
X19050Y19650
X19450Y19500
X19532Y18850
X18700Y18750
X19050Y20500
X19800Y20800
X19450Y22050
X19700Y23500
X20300Y22900
X21250Y22550
X17650
X17950Y23350
X17450Y24300
X17277Y21632
X17750Y21500
X18007Y21774
X18100Y21150
X16181Y21231
X15900Y20000
X16150Y16400
X18977Y16720
X19800Y16850
X21600Y16171
X22500Y16200
X23100Y16650
X24350Y17150
X24450Y17700
X24250Y18500
X23700Y19500
X23100Y20300
X24900Y16000
X15500Y16450
X15200Y17900
X14650Y18000
X14350Y18450
X14150Y19300
X14140Y19700
X13103Y19699
X13004Y19263
X12300Y19700
X12350Y20150
X13100Y17900
X11300Y18007
X9600Y18100
X8950Y17800
X6750
X6350
X5750Y18550
X4800Y18750
X3700Y19000
X3250Y18100
X6000Y16200
X6250Y15750
X9350Y15850
X10150Y16400
X10850Y15700
X11550Y16300
X15250Y18732
X15550Y20000
X14981Y20831
X15050Y21850
X15516Y21526
X15300Y24800
X14800Y25050
X12650Y25200
X9600Y21800
X9750Y21450
X7700Y23400
T03
X11248Y3031
X12248
X13248
X14248
X15248
X16248
T04
X16300Y22100
Y22600
Y23100
Y23600
Y24100
X12350Y23950
X11850
X11350
X10850
X10350
X10250Y23150
Y22650
Y22150
Y21650
Y21150
X8913Y21250
Y20750
Y20250
X7550
Y20750
Y21250
Y21750
Y22250
X8913
Y21750
X5600Y21300
Y20800
Y20300
Y19800
Y19300
T05
X22505Y17750
X23095
Y18400
X22505
Y19050
X23095
T06
X6400Y5500
X5718Y6231
X5036Y6963
X6600Y7400
X18700Y4100
X23350Y10500
X18700Y23450
X8700Y23400
X7800Y18550
X6800
X4300Y18100
T07
X4574Y8465
X22985
X13780Y24409
T08
X13780Y9449
Y18110
M30
