G04*
G04 #@! TF.GenerationSoftware,Altium Limited,Altium Designer,22.4.2 (48)*
G04*
G04 Layer_Physical_Order=2*
G04 Layer_Color=16711680*
%FSLAX25Y25*%
%MOIN*%
G70*
G04*
G04 #@! TF.SameCoordinates,A5219701-5F61-4D45-AD81-8ED9BC4A77AE*
G04*
G04*
G04 #@! TF.FilePolarity,Positive*
G04*
G01*
G75*
%ADD10C,0.00984*%
%ADD14C,0.00787*%
%ADD15C,0.01000*%
%ADD17C,0.00004*%
%ADD18C,0.00700*%
%ADD19C,0.00400*%
G04:AMPARAMS|DCode=23|XSize=11.02mil|YSize=33.47mil|CornerRadius=1.98mil|HoleSize=0mil|Usage=FLASHONLY|Rotation=270.000|XOffset=0mil|YOffset=0mil|HoleType=Round|Shape=RoundedRectangle|*
%AMROUNDEDRECTD23*
21,1,0.01102,0.02950,0,0,270.0*
21,1,0.00706,0.03347,0,0,270.0*
1,1,0.00397,-0.01475,-0.00353*
1,1,0.00397,-0.01475,0.00353*
1,1,0.00397,0.01475,0.00353*
1,1,0.00397,0.01475,-0.00353*
%
%ADD23ROUNDEDRECTD23*%
%ADD27R,0.10630X0.03937*%
%ADD33R,0.03543X0.03543*%
%ADD41R,0.05315X0.07480*%
%ADD42R,0.03740X0.06693*%
%ADD43R,0.03740X0.04134*%
%ADD46R,0.03543X0.03543*%
%ADD72C,0.04600*%
G04:AMPARAMS|DCode=80|XSize=64.96mil|YSize=94.49mil|CornerRadius=1.95mil|HoleSize=0mil|Usage=FLASHONLY|Rotation=0.000|XOffset=0mil|YOffset=0mil|HoleType=Round|Shape=RoundedRectangle|*
%AMROUNDEDRECTD80*
21,1,0.06496,0.09059,0,0,0.0*
21,1,0.06106,0.09449,0,0,0.0*
1,1,0.00390,0.03053,-0.04530*
1,1,0.00390,-0.03053,-0.04530*
1,1,0.00390,-0.03053,0.04530*
1,1,0.00390,0.03053,0.04530*
%
%ADD80ROUNDEDRECTD80*%
%ADD85C,0.02000*%
%ADD88C,0.01102*%
%ADD89C,0.00500*%
%ADD92R,0.05906X0.05906*%
%ADD93C,0.08268*%
G04:AMPARAMS|DCode=94|XSize=49.21mil|YSize=49.21mil|CornerRadius=12.3mil|HoleSize=0mil|Usage=FLASHONLY|Rotation=180.000|XOffset=0mil|YOffset=0mil|HoleType=Round|Shape=RoundedRectangle|*
%AMROUNDEDRECTD94*
21,1,0.04921,0.02461,0,0,180.0*
21,1,0.02461,0.04921,0,0,180.0*
1,1,0.02461,-0.01230,0.01230*
1,1,0.02461,0.01230,0.01230*
1,1,0.02461,0.01230,-0.01230*
1,1,0.02461,-0.01230,-0.01230*
%
%ADD94ROUNDEDRECTD94*%
%ADD95R,0.04921X0.04921*%
%ADD96R,0.05906X0.05906*%
%ADD97C,0.05906*%
%ADD98P,0.08352X4X178.0*%
%ADD99C,0.16142*%
%ADD100C,0.07874*%
%ADD101C,0.02362*%
%ADD102C,0.01968*%
G04:AMPARAMS|DCode=103|XSize=11.81mil|YSize=27.56mil|CornerRadius=0mil|HoleSize=0mil|Usage=FLASHONLY|Rotation=225.000|XOffset=0mil|YOffset=0mil|HoleType=Round|Shape=Rectangle|*
%AMROTATEDRECTD103*
4,1,4,-0.00557,0.01392,0.01392,-0.00557,0.00557,-0.01392,-0.01392,0.00557,-0.00557,0.01392,0.0*
%
%ADD103ROTATEDRECTD103*%

G04:AMPARAMS|DCode=104|XSize=11.81mil|YSize=39.37mil|CornerRadius=0mil|HoleSize=0mil|Usage=FLASHONLY|Rotation=225.000|XOffset=0mil|YOffset=0mil|HoleType=Round|Shape=Rectangle|*
%AMROTATEDRECTD104*
4,1,4,-0.00974,0.01810,0.01810,-0.00974,0.00974,-0.01810,-0.01810,0.00974,-0.00974,0.01810,0.0*
%
%ADD104ROTATEDRECTD104*%

%ADD105R,0.02423X0.02254*%
%ADD106R,0.02756X0.03937*%
%ADD107R,0.01968X0.07677*%
%ADD108R,0.01968X0.03937*%
G04:AMPARAMS|DCode=109|XSize=19.68mil|YSize=102.36mil|CornerRadius=0mil|HoleSize=0mil|Usage=FLASHONLY|Rotation=180.000|XOffset=0mil|YOffset=0mil|HoleType=Round|Shape=Octagon|*
%AMOCTAGOND109*
4,1,8,0.00492,-0.05118,-0.00492,-0.05118,-0.00984,-0.04626,-0.00984,0.04626,-0.00492,0.05118,0.00492,0.05118,0.00984,0.04626,0.00984,-0.04626,0.00492,-0.05118,0.0*
%
%ADD109OCTAGOND109*%

%ADD110R,0.07677X0.01968*%
%ADD111R,0.03937X0.01968*%
%ADD112R,0.02559X0.02756*%
%ADD113R,0.00984X0.01575*%
%ADD114R,0.06693X0.06693*%
%ADD115R,0.00984X0.03150*%
%ADD116R,0.03150X0.00984*%
%ADD117R,0.01575X0.00984*%
G04:AMPARAMS|DCode=118|XSize=9.84mil|YSize=15.75mil|CornerRadius=0mil|HoleSize=0mil|Usage=FLASHONLY|Rotation=90.000|XOffset=0mil|YOffset=0mil|HoleType=Round|Shape=Octagon|*
%AMOCTAGOND118*
4,1,8,-0.00787,-0.00246,-0.00787,0.00246,-0.00541,0.00492,0.00541,0.00492,0.00787,0.00246,0.00787,-0.00246,0.00541,-0.00492,-0.00541,-0.00492,-0.00787,-0.00246,0.0*
%
%ADD118OCTAGOND118*%

%ADD119R,0.03543X0.02559*%
%ADD120C,0.01181*%
%ADD121C,0.01968*%
%ADD122C,0.02284*%
%ADD123R,0.01102X0.02756*%
%ADD124R,0.01102X0.02756*%
G36*
X147659Y254734D02*
X154200Y253997D01*
X160690Y252894D01*
X167107Y251429D01*
X173433Y249607D01*
X179646Y247433D01*
X185728Y244914D01*
X191658Y242058D01*
X197420Y238874D01*
X202993Y235371D01*
X208362Y231562D01*
X213509Y227458D01*
X218417Y223072D01*
X223072Y218417D01*
X227458Y213509D01*
X231562Y208362D01*
X235371Y202993D01*
X238873Y197420D01*
X242058Y191658D01*
X244914Y185728D01*
X247433Y179646D01*
X249607Y173433D01*
X251429Y167107D01*
X252894Y160690D01*
X253997Y154200D01*
X254734Y147659D01*
X255103Y141087D01*
Y137795D01*
Y134504D01*
X254734Y127932D01*
X253997Y121390D01*
X252894Y114901D01*
X251429Y108483D01*
X249607Y102158D01*
X247433Y95944D01*
X244914Y89863D01*
X242058Y83932D01*
X238874Y78171D01*
X235371Y72597D01*
X231562Y67229D01*
X227458Y62082D01*
X223072Y57174D01*
X218417Y52519D01*
X213509Y48133D01*
X208362Y44029D01*
X202993Y40219D01*
X197420Y36717D01*
X191658Y33533D01*
X185728Y30677D01*
X179646Y28158D01*
X173433Y25984D01*
X167107Y24161D01*
X160690Y22697D01*
X154200Y21594D01*
X147659Y20857D01*
X141087Y20488D01*
X134504D01*
X127932Y20857D01*
X121390Y21594D01*
X114901Y22697D01*
X108483Y24161D01*
X102158Y25984D01*
X95944Y28158D01*
X89863Y30677D01*
X83932Y33533D01*
X78171Y36717D01*
X72597Y40219D01*
X67229Y44028D01*
X62082Y48133D01*
X57174Y52519D01*
X52519Y57174D01*
X48133Y62082D01*
X44029Y67228D01*
X40219Y72597D01*
X36717Y78171D01*
X33533Y83932D01*
X30677Y89863D01*
X28158Y95944D01*
X27786Y97008D01*
X28075Y97415D01*
X54000D01*
Y177165D01*
X46738D01*
X46453Y177547D01*
Y179471D01*
X95263D01*
X95344Y179416D01*
X95938Y179298D01*
X96064Y179087D01*
X96153Y178807D01*
X81466Y164119D01*
X81400Y164020D01*
X79504D01*
Y163529D01*
X76398D01*
Y163627D01*
X72976D01*
Y161839D01*
X72971Y161813D01*
Y155237D01*
X72916Y155156D01*
X72786Y154500D01*
X72916Y153844D01*
X72971Y153763D01*
Y128654D01*
X73087Y128068D01*
X73419Y127572D01*
X81882Y119109D01*
Y116728D01*
X86425D01*
Y121272D01*
X84045D01*
X76029Y129287D01*
Y153230D01*
X79504D01*
Y152980D01*
X84047D01*
Y156539D01*
X79504D01*
Y156289D01*
X76029D01*
Y160373D01*
X76398D01*
Y160471D01*
X79504D01*
Y160461D01*
X84047D01*
Y162375D01*
X100209Y178537D01*
X112263D01*
X112344Y178483D01*
X113000Y178352D01*
X113656Y178483D01*
X114212Y178854D01*
X114584Y179410D01*
X114714Y180066D01*
X114584Y180722D01*
X114212Y181278D01*
X113656Y181650D01*
X113000Y181780D01*
X112344Y181650D01*
X112263Y181596D01*
X99576D01*
X98991Y181479D01*
X98494Y181148D01*
X98193Y180847D01*
X97913Y180936D01*
X97702Y181062D01*
X97584Y181656D01*
X97212Y182212D01*
X96656Y182584D01*
X96000Y182714D01*
X95344Y182584D01*
X95263Y182529D01*
X80578D01*
X80417Y183003D01*
X80462Y183037D01*
X81016Y183759D01*
X81104Y183971D01*
X133229D01*
X133449Y183471D01*
X133001Y182387D01*
X132832Y181102D01*
X133001Y179818D01*
X133496Y178621D01*
X134285Y177593D01*
X134783Y177210D01*
X134614Y176710D01*
X120177D01*
X120177Y176710D01*
X119598Y176595D01*
X119107Y176267D01*
X99113Y156273D01*
X93496D01*
Y156539D01*
X88953D01*
Y152980D01*
X89333D01*
Y149627D01*
X89149D01*
Y146373D01*
X89333D01*
Y144272D01*
X88575D01*
Y139728D01*
X89333D01*
Y138772D01*
X88575D01*
Y134228D01*
X89333D01*
Y133272D01*
X88575D01*
Y128728D01*
X89333D01*
Y127772D01*
X88575D01*
Y123228D01*
X92281D01*
X92473Y122766D01*
X90978Y121272D01*
X88575D01*
Y116728D01*
X93118D01*
Y119132D01*
X96095Y122109D01*
X111576D01*
X111864Y121609D01*
X111801Y121457D01*
Y119488D01*
X111960Y119106D01*
X112343Y118947D01*
X114971D01*
Y116492D01*
X115087Y115907D01*
X115419Y115411D01*
X115711Y115118D01*
X116208Y114786D01*
X116793Y114670D01*
X118947D01*
Y112343D01*
X119106Y111960D01*
X119488Y111801D01*
X121437D01*
X121627Y111880D01*
X121819Y111959D01*
X121819Y111960D01*
X121820Y111960D01*
X121898Y112150D01*
X121978Y112341D01*
X121984Y114652D01*
X123622D01*
X124207Y114768D01*
X124703Y115100D01*
X124758Y115182D01*
X125258Y115030D01*
Y109229D01*
X125258Y109228D01*
X125373Y108649D01*
X125701Y108158D01*
X131774Y102086D01*
X131818Y101930D01*
X131816Y101572D01*
X131772Y101434D01*
X122366Y92029D01*
X69237D01*
X69156Y92084D01*
X68500Y92214D01*
X67844Y92084D01*
X67288Y91712D01*
X66916Y91156D01*
X66786Y90500D01*
X66916Y89844D01*
X67288Y89288D01*
X67844Y88916D01*
X68500Y88786D01*
X69156Y88916D01*
X69237Y88971D01*
X123000D01*
X123585Y89087D01*
X124081Y89419D01*
X133633Y98971D01*
X134731D01*
X134901Y98471D01*
X134285Y97998D01*
X133496Y96970D01*
X133001Y95773D01*
X132832Y94488D01*
X133001Y93204D01*
X133496Y92006D01*
X134285Y90978D01*
X135313Y90189D01*
X136511Y89694D01*
X137795Y89525D01*
X139080Y89694D01*
X140277Y90189D01*
X141305Y90978D01*
X142094Y92006D01*
X142590Y93204D01*
X142759Y94488D01*
X142590Y95773D01*
X142094Y96970D01*
X141305Y97998D01*
X140689Y98471D01*
X140859Y98971D01*
X149359D01*
X149627Y98471D01*
X149416Y98156D01*
X149397Y98060D01*
X141440Y90103D01*
X141344Y90084D01*
X140788Y89712D01*
X140416Y89156D01*
X140286Y88500D01*
X140416Y87844D01*
X140788Y87288D01*
X141344Y86916D01*
X142000Y86786D01*
X142656Y86916D01*
X143212Y87288D01*
X143584Y87844D01*
X143603Y87940D01*
X151560Y95897D01*
X151656Y95916D01*
X152212Y96288D01*
X152584Y96844D01*
X152714Y97500D01*
X152584Y98156D01*
X152373Y98471D01*
X152641Y98971D01*
X180976D01*
X181561Y99087D01*
X182057Y99419D01*
X189719Y107080D01*
X189827Y107242D01*
X190358Y107137D01*
X190416Y106844D01*
X190788Y106288D01*
X190980Y106159D01*
Y93522D01*
X190788Y93393D01*
X190416Y92837D01*
X190286Y92181D01*
X190416Y91525D01*
X190788Y90969D01*
X191344Y90597D01*
X192000Y90467D01*
X192656Y90597D01*
X192971Y90808D01*
X193471Y90540D01*
Y89737D01*
X193416Y89656D01*
X193286Y89000D01*
X193416Y88344D01*
X193788Y87788D01*
X194344Y87416D01*
X195000Y87286D01*
X195656Y87416D01*
X195768Y87491D01*
X196209Y87256D01*
Y85772D01*
X192779Y82342D01*
X192558Y82011D01*
X192480Y81621D01*
Y81051D01*
X192138Y80693D01*
X188382D01*
Y79529D01*
X176118D01*
Y80272D01*
X171575D01*
Y75728D01*
X176118D01*
Y76471D01*
X184359D01*
X184627Y75971D01*
X184459Y75720D01*
X178352Y69612D01*
X178020Y69116D01*
X177904Y68531D01*
Y52851D01*
X167582Y42529D01*
X155358D01*
Y50740D01*
X153755D01*
X153273Y50799D01*
X153191Y51209D01*
X152959Y51557D01*
X152959Y51557D01*
X147258Y57258D01*
X146910Y57490D01*
X146500Y57572D01*
X146500Y57572D01*
X141614D01*
X141579Y57565D01*
X140139D01*
X139867Y57511D01*
X139636Y57356D01*
X139481Y57125D01*
X139427Y56853D01*
Y56147D01*
X139481Y55875D01*
X139636Y55644D01*
X139867Y55489D01*
X140139Y55435D01*
X141579D01*
X141614Y55428D01*
X146056D01*
X150282Y51202D01*
X150091Y50740D01*
X149043D01*
Y45529D01*
X132358D01*
Y52846D01*
X131529D01*
Y55446D01*
X131747Y55489D01*
X131978Y55644D01*
X132133Y55875D01*
X132187Y56147D01*
Y56853D01*
X132133Y57125D01*
X132019Y57484D01*
X132133Y57843D01*
X132187Y58116D01*
Y58821D01*
X132133Y59094D01*
X131978Y59325D01*
Y59581D01*
X132133Y59812D01*
X132187Y60084D01*
Y60790D01*
X132133Y61062D01*
X131978Y61293D01*
X131747Y61448D01*
X131475Y61502D01*
X130035D01*
X130000Y61509D01*
X125815D01*
Y64138D01*
X114185D01*
Y59201D01*
X125478D01*
X125685Y58701D01*
X119511Y52527D01*
X119500Y52529D01*
X69334D01*
X68179Y53684D01*
X68188Y54184D01*
X68880Y54830D01*
X64170Y59880D01*
X59120Y55170D01*
X63830Y50120D01*
X65686Y51851D01*
X67619Y49919D01*
X68115Y49587D01*
X68700Y49471D01*
X118867D01*
X125419Y42919D01*
X125915Y42587D01*
X126500Y42471D01*
X131788D01*
X131836Y42408D01*
X131973Y41971D01*
X124498Y34495D01*
X123690Y34830D01*
X122480Y34989D01*
X121271Y34830D01*
X120143Y34363D01*
X119176Y33620D01*
X118433Y32652D01*
X117966Y31525D01*
X117806Y30315D01*
X117966Y29105D01*
X118433Y27978D01*
X119176Y27010D01*
X120143Y26267D01*
X121271Y25800D01*
X122480Y25641D01*
X123690Y25800D01*
X124817Y26267D01*
X125785Y27010D01*
X126528Y27978D01*
X126995Y29105D01*
X127154Y30315D01*
X126995Y31525D01*
X126661Y32332D01*
X133799Y39471D01*
X159541D01*
X159732Y39009D01*
X154969Y34246D01*
X154817Y34363D01*
X153690Y34830D01*
X152480Y34989D01*
X151271Y34830D01*
X150144Y34363D01*
X149176Y33620D01*
X148433Y32652D01*
X147966Y31525D01*
X147807Y30315D01*
X147966Y29105D01*
X148433Y27978D01*
X149176Y27010D01*
X150144Y26267D01*
X151271Y25800D01*
X152480Y25641D01*
X153690Y25800D01*
X154817Y26267D01*
X155785Y27010D01*
X156528Y27978D01*
X156995Y29105D01*
X157154Y30315D01*
X156995Y31525D01*
X156528Y32652D01*
X156411Y32804D01*
X161588Y37980D01*
X168051D01*
X168242Y37519D01*
X164969Y34246D01*
X164817Y34363D01*
X163690Y34830D01*
X162480Y34989D01*
X161271Y34830D01*
X160143Y34363D01*
X159176Y33620D01*
X158433Y32652D01*
X157966Y31525D01*
X157807Y30315D01*
X157966Y29105D01*
X158433Y27978D01*
X159176Y27010D01*
X160143Y26267D01*
X161271Y25800D01*
X162480Y25641D01*
X163690Y25800D01*
X164817Y26267D01*
X165785Y27010D01*
X166528Y27978D01*
X166995Y29105D01*
X167154Y30315D01*
X166995Y31525D01*
X166528Y32652D01*
X166411Y32804D01*
X183721Y50114D01*
X183942Y50444D01*
X184020Y50835D01*
Y62578D01*
X191660Y70218D01*
X192122Y70027D01*
Y66307D01*
X195878D01*
Y67224D01*
X196340Y67415D01*
X197223Y66532D01*
X197200Y66414D01*
X197330Y65758D01*
X197702Y65202D01*
X198258Y64830D01*
X198914Y64700D01*
X199390Y64794D01*
X199825Y64359D01*
X198449Y62982D01*
X201104Y60326D01*
X201200Y60421D01*
X205377Y56244D01*
X205708Y56023D01*
X206098Y55946D01*
X211965D01*
X212355Y56023D01*
X212686Y56244D01*
X220221Y63779D01*
X220442Y64110D01*
X220520Y64500D01*
Y99078D01*
X229547Y108105D01*
X230047Y107898D01*
Y101547D01*
X236953D01*
Y108453D01*
X230602D01*
X230395Y108953D01*
X233221Y111779D01*
X233442Y112110D01*
X233520Y112500D01*
Y141659D01*
X233712Y141788D01*
X234084Y142344D01*
X234214Y143000D01*
X234084Y143656D01*
X233712Y144212D01*
X233156Y144584D01*
X232500Y144714D01*
X231844Y144584D01*
X231288Y144212D01*
X230916Y143656D01*
X230786Y143000D01*
X230916Y142344D01*
X231288Y141788D01*
X231480Y141659D01*
Y134276D01*
X231039Y134040D01*
X230975Y134084D01*
X230319Y134214D01*
X229663Y134084D01*
X229107Y133712D01*
X228735Y133156D01*
X228605Y132500D01*
X228735Y131844D01*
X228971Y131492D01*
Y129283D01*
X228530Y129047D01*
X228475Y129084D01*
X227819Y129214D01*
X227163Y129084D01*
X226607Y128712D01*
X226235Y128156D01*
X226105Y127500D01*
X226157Y127237D01*
X220570Y121650D01*
X220474Y121631D01*
X219918Y121259D01*
X219655Y120866D01*
X219155Y121018D01*
Y130957D01*
X219155Y130957D01*
X219071Y131382D01*
X218830Y131743D01*
X215681Y134891D01*
X215714Y135055D01*
X215584Y135711D01*
X215212Y136267D01*
X214656Y136639D01*
X214000Y136769D01*
X213344Y136639D01*
X212788Y136267D01*
X212416Y135711D01*
X212286Y135057D01*
X212286Y135055D01*
X211852Y134673D01*
X211524Y134738D01*
X210868Y134607D01*
X210312Y134236D01*
X209940Y133680D01*
X209836Y133157D01*
X209634Y132890D01*
X209367Y132688D01*
X208844Y132584D01*
X208288Y132212D01*
X207916Y131656D01*
X207786Y131000D01*
X207916Y130344D01*
X208288Y129788D01*
X208844Y129416D01*
X209500Y129286D01*
X209618Y129309D01*
X212008Y126920D01*
X211761Y126459D01*
X211547Y126502D01*
X210891Y126371D01*
X210335Y125999D01*
X209964Y125443D01*
X209833Y124787D01*
X209964Y124132D01*
X210335Y123575D01*
X210891Y123204D01*
X211325Y123118D01*
X211888Y122555D01*
Y110277D01*
X211447Y110042D01*
X211384Y110084D01*
X210728Y110214D01*
X210072Y110084D01*
X209516Y109712D01*
X209145Y109156D01*
X209014Y108500D01*
X209145Y107844D01*
X209516Y107288D01*
X209616Y107221D01*
Y105209D01*
X209585Y105197D01*
X209084Y105156D01*
X208712Y105712D01*
X208156Y106084D01*
X207500Y106214D01*
X206844Y106084D01*
X206288Y105712D01*
X205916Y105156D01*
X205786Y104500D01*
X205916Y103844D01*
X206055Y103636D01*
X204735Y102316D01*
X204274Y102508D01*
Y106995D01*
X204712Y107288D01*
X205084Y107844D01*
X205214Y108500D01*
X205084Y109156D01*
X204712Y109712D01*
X204156Y110084D01*
X203500Y110214D01*
X202844Y110084D01*
X202288Y109712D01*
X201916Y109156D01*
X201786Y108500D01*
X201798Y108441D01*
X201327Y108246D01*
X201015Y108712D01*
X200459Y109084D01*
X199803Y109214D01*
X199147Y109084D01*
X198591Y108712D01*
X198220Y108156D01*
X198089Y107500D01*
X198220Y106844D01*
X198523Y106390D01*
Y105293D01*
X197098Y103868D01*
X196637Y104115D01*
X196714Y104500D01*
X196584Y105156D01*
X196529Y105237D01*
Y140819D01*
X196413Y141404D01*
X196081Y141900D01*
X195914Y142068D01*
Y144420D01*
X196029Y145000D01*
X195898Y145656D01*
X195527Y146212D01*
X194971Y146584D01*
X194315Y146714D01*
X193659Y146584D01*
X193103Y146212D01*
X192731Y145656D01*
X192601Y145000D01*
X192731Y144344D01*
X192855Y144159D01*
Y141435D01*
X192971Y140849D01*
X193303Y140353D01*
X193471Y140185D01*
Y137235D01*
X192971Y136968D01*
X192798Y137084D01*
X192142Y137214D01*
X191486Y137084D01*
X190930Y136712D01*
X190558Y136156D01*
X190428Y135500D01*
X190558Y134844D01*
X190559Y134843D01*
Y132172D01*
X189602Y131215D01*
X189102Y131422D01*
Y149228D01*
X193618D01*
Y153772D01*
X192543D01*
Y155039D01*
X193043Y155246D01*
X203980Y144309D01*
Y128341D01*
X203788Y128212D01*
X203416Y127656D01*
X203286Y127000D01*
X203416Y126344D01*
X203788Y125788D01*
X204344Y125416D01*
X205000Y125286D01*
X205656Y125416D01*
X206212Y125788D01*
X206584Y126344D01*
X206714Y127000D01*
X206584Y127656D01*
X206212Y128212D01*
X206020Y128341D01*
Y144731D01*
X205942Y145121D01*
X205721Y145452D01*
X189197Y161976D01*
X189251Y162254D01*
X189383Y162476D01*
X193506D01*
X194091Y162593D01*
X194587Y162924D01*
X198560Y166897D01*
X198656Y166916D01*
X199212Y167288D01*
X199584Y167844D01*
X199714Y168500D01*
X199584Y169156D01*
X199212Y169712D01*
X198656Y170084D01*
X198000Y170214D01*
X197344Y170084D01*
X196788Y169712D01*
X196416Y169156D01*
X196397Y169060D01*
X192872Y165535D01*
X191200D01*
X191063Y165816D01*
X191010Y166035D01*
X191350Y166545D01*
X191481Y167201D01*
X191350Y167857D01*
X190979Y168413D01*
X190423Y168784D01*
X189767Y168915D01*
X189111Y168784D01*
X189006Y168714D01*
X170083D01*
X169816Y169214D01*
X169903Y169344D01*
X170033Y170000D01*
X169903Y170656D01*
X169531Y171212D01*
X168975Y171584D01*
X168319Y171714D01*
X167663Y171584D01*
X167265Y171318D01*
X165699Y171320D01*
X165463Y171761D01*
X165540Y171876D01*
X165671Y172531D01*
X165540Y173187D01*
X165810Y173684D01*
X170255D01*
X170360Y173613D01*
X171016Y173483D01*
X171672Y173613D01*
X171753Y173668D01*
X178762D01*
X178844Y173613D01*
X179500Y173483D01*
X180156Y173613D01*
X180712Y173985D01*
X181084Y174541D01*
X181214Y175197D01*
X181084Y175853D01*
X180712Y176409D01*
X180156Y176780D01*
X179500Y176911D01*
X178844Y176780D01*
X178715Y176694D01*
X171800D01*
X171672Y176780D01*
X171016Y176911D01*
X170360Y176780D01*
X170255Y176710D01*
X165210D01*
X165203Y176709D01*
X165195Y176710D01*
X165194Y176710D01*
X140977D01*
X140807Y177210D01*
X141305Y177593D01*
X142094Y178621D01*
X142590Y179818D01*
X142759Y181102D01*
X142590Y182387D01*
X142094Y183584D01*
X141305Y184612D01*
X140277Y185401D01*
X139080Y185897D01*
X137795Y186066D01*
X137179Y185985D01*
X136945Y186459D01*
X141841Y191354D01*
X142156Y191416D01*
X142712Y191788D01*
X143084Y192344D01*
X143214Y193000D01*
X143084Y193656D01*
X142712Y194212D01*
X142156Y194584D01*
X142095Y194596D01*
X141885Y195100D01*
X142058Y195416D01*
X142614Y195788D01*
X142985Y196344D01*
X143116Y197000D01*
X142985Y197656D01*
X142614Y198212D01*
X142058Y198584D01*
X141402Y198714D01*
X140746Y198584D01*
X140190Y198212D01*
X139818Y197656D01*
X139799Y197560D01*
X133721Y191482D01*
X131820D01*
X131585Y191923D01*
X131621Y191978D01*
X131752Y192634D01*
X131621Y193290D01*
X131578Y193355D01*
X131814Y193796D01*
X132991D01*
X133378Y193872D01*
X133706Y194092D01*
X141044Y201430D01*
X163898D01*
X163913Y201423D01*
X165980D01*
X165980Y201423D01*
X166083Y201466D01*
X166167Y201426D01*
X166351Y201273D01*
X166466Y201083D01*
X166423Y200980D01*
X166423Y200980D01*
Y198520D01*
X166464Y198420D01*
Y198020D01*
X166865D01*
X166965Y197978D01*
X167949D01*
X168048Y198020D01*
X170323D01*
X170514Y197558D01*
X161287Y188330D01*
X153846D01*
X153712Y188531D01*
X153156Y188902D01*
X152500Y189033D01*
X151844Y188902D01*
X151288Y188531D01*
X150916Y187975D01*
X150786Y187319D01*
X150916Y186663D01*
X151288Y186107D01*
X151844Y185735D01*
X152500Y185605D01*
X153156Y185735D01*
X153712Y186107D01*
X153846Y186307D01*
X161706D01*
X162093Y186384D01*
X162421Y186604D01*
X171657Y195839D01*
X172135Y195694D01*
X172152Y195608D01*
X172524Y195052D01*
X172598Y195002D01*
Y183100D01*
X172288Y182893D01*
X171916Y182337D01*
X171786Y181681D01*
X171916Y181025D01*
X171953Y180970D01*
X171717Y180529D01*
X152737D01*
X152656Y180584D01*
X152000Y180714D01*
X151344Y180584D01*
X150788Y180212D01*
X150416Y179656D01*
X150286Y179000D01*
X150416Y178344D01*
X150788Y177788D01*
X151344Y177416D01*
X152000Y177286D01*
X152656Y177416D01*
X152737Y177471D01*
X178500D01*
X179085Y177587D01*
X179581Y177919D01*
X187560Y185897D01*
X187656Y185916D01*
X188212Y186288D01*
X188584Y186844D01*
X188714Y187500D01*
X188584Y188156D01*
X188212Y188712D01*
X187656Y189084D01*
X187000Y189214D01*
X186344Y189084D01*
X185788Y188712D01*
X185416Y188156D01*
X185397Y188060D01*
X181429Y184092D01*
X180951Y184237D01*
X180938Y184302D01*
X180566Y184858D01*
X180302Y185035D01*
Y198208D01*
X180422Y198288D01*
X180794Y198844D01*
X180924Y199500D01*
X180794Y200156D01*
X180456Y200660D01*
X180496Y200942D01*
X180581Y201207D01*
X180683Y201233D01*
X193443Y188473D01*
X193466Y188439D01*
X193640Y188322D01*
X193735Y187844D01*
X194107Y187288D01*
X194299Y187159D01*
Y186618D01*
X193228D01*
Y182075D01*
X197772D01*
Y186618D01*
X196338D01*
Y187159D01*
X196531Y187288D01*
X196903Y187844D01*
X197033Y188500D01*
X196903Y189156D01*
X196531Y189712D01*
X195975Y190084D01*
X195319Y190214D01*
X194697Y190090D01*
X194681Y190102D01*
X194674Y190103D01*
X184289Y200488D01*
X184496Y200988D01*
X191882D01*
Y198728D01*
X193480D01*
Y196341D01*
X193288Y196212D01*
X192916Y195656D01*
X192786Y195000D01*
X192916Y194344D01*
X193288Y193788D01*
X193844Y193416D01*
X194500Y193286D01*
X195156Y193416D01*
X195712Y193788D01*
X196084Y194344D01*
X196214Y195000D01*
X196084Y195656D01*
X195712Y196212D01*
X195520Y196341D01*
Y198728D01*
X196425D01*
Y203272D01*
X191882D01*
Y203012D01*
X188272D01*
Y206768D01*
X196818D01*
X197344Y206416D01*
X198000Y206286D01*
X198656Y206416D01*
X199212Y206788D01*
X199584Y207344D01*
X199714Y208000D01*
X199584Y208656D01*
X199212Y209212D01*
X198656Y209584D01*
X198000Y209714D01*
X197344Y209584D01*
X196788Y209212D01*
X196507Y208791D01*
X180429D01*
X180222Y209291D01*
X181715Y210785D01*
X181935Y211113D01*
X182012Y211500D01*
X181935Y211887D01*
X181715Y212215D01*
X181387Y212435D01*
X181000Y212512D01*
X180613Y212435D01*
X180285Y212215D01*
X179012Y210942D01*
X178512Y211149D01*
Y215000D01*
X178435Y215387D01*
X178215Y215715D01*
X177887Y215935D01*
X177500Y216012D01*
X177113Y215935D01*
X176785Y215715D01*
X176565Y215387D01*
X176488Y215000D01*
Y210725D01*
X176020Y210577D01*
X175917Y210534D01*
X175833Y210574D01*
X175648Y210727D01*
X175534Y210917D01*
X175577Y211020D01*
X175577Y211020D01*
Y213480D01*
X175536Y213580D01*
Y213980D01*
X175135D01*
X175035Y214021D01*
X174051D01*
X173783Y214452D01*
Y214973D01*
X173984Y215107D01*
X174355Y215663D01*
X174486Y216319D01*
X174355Y216975D01*
X173984Y217531D01*
X173427Y217902D01*
X172772Y218033D01*
X172116Y217902D01*
X171560Y217531D01*
X171188Y216975D01*
X171058Y216319D01*
X171188Y215663D01*
X171560Y215107D01*
X171760Y214973D01*
Y211906D01*
X171780Y211808D01*
Y209846D01*
X170220D01*
Y213980D01*
X168048D01*
X167949Y214021D01*
X166965D01*
X166865Y213980D01*
X166629D01*
X166393Y214451D01*
X170971Y219029D01*
X171192Y219360D01*
X171270Y219750D01*
Y231882D01*
X172272D01*
Y236425D01*
X167728D01*
Y231882D01*
X169230D01*
Y220172D01*
X164373Y215315D01*
X164152Y214985D01*
X164075Y214594D01*
Y210577D01*
X163520D01*
X163249Y210704D01*
X163133Y211262D01*
X163397Y211658D01*
X163528Y212314D01*
X163397Y212969D01*
X163026Y213526D01*
X162470Y213897D01*
X161814Y214028D01*
X161158Y213897D01*
X160602Y213526D01*
X160230Y212969D01*
X160100Y212314D01*
X160230Y211658D01*
X160602Y211102D01*
X161013Y210827D01*
Y209133D01*
X161090Y208745D01*
X161309Y208417D01*
X162215Y207512D01*
X162007Y207012D01*
X151566D01*
X151299Y207512D01*
X151396Y207657D01*
X151415Y207752D01*
X156196Y212533D01*
X156527Y213029D01*
X156644Y213615D01*
Y214454D01*
X156742Y214601D01*
X156873Y215257D01*
X156742Y215913D01*
X156713Y215956D01*
Y219471D01*
X160644D01*
X161003Y219003D01*
X161588Y218554D01*
X162269Y218272D01*
X163000Y218176D01*
X163731Y218272D01*
X164412Y218554D01*
X164997Y219003D01*
X165446Y219588D01*
X165728Y220269D01*
X165824Y221000D01*
X165728Y221731D01*
X165446Y222412D01*
X164997Y222997D01*
X164752Y223185D01*
Y223815D01*
X164997Y224003D01*
X165446Y224588D01*
X165728Y225269D01*
X165824Y226000D01*
X165728Y226731D01*
X165446Y227412D01*
X164997Y227997D01*
X164752Y228185D01*
Y228815D01*
X164997Y229003D01*
X165446Y229588D01*
X165728Y230269D01*
X165824Y231000D01*
X165728Y231731D01*
X165446Y232412D01*
X164997Y232997D01*
X164752Y233185D01*
Y233815D01*
X164997Y234003D01*
X165446Y234588D01*
X165728Y235269D01*
X165824Y236000D01*
X165728Y236731D01*
X165446Y237412D01*
X164997Y237997D01*
X164752Y238185D01*
Y238815D01*
X164997Y239003D01*
X165356Y239471D01*
X167728D01*
Y238575D01*
X172272D01*
Y243118D01*
X167728D01*
Y242529D01*
X165356D01*
X164997Y242997D01*
X164412Y243446D01*
X163731Y243728D01*
X163000Y243824D01*
X162269Y243728D01*
X161588Y243446D01*
X161003Y242997D01*
X160554Y242412D01*
X160272Y241731D01*
X160176Y241000D01*
X160272Y240269D01*
X160554Y239588D01*
X161003Y239003D01*
X161248Y238815D01*
Y238185D01*
X161003Y237997D01*
X160644Y237529D01*
X158618D01*
Y238272D01*
X154075D01*
Y233728D01*
X154075D01*
Y233272D01*
X154075D01*
Y228728D01*
X154075D01*
Y228272D01*
X154075D01*
Y224925D01*
X153613Y224734D01*
X152037Y226310D01*
X151925Y226384D01*
Y228272D01*
X151925D01*
Y228728D01*
X151925D01*
Y233272D01*
X151925D01*
Y233728D01*
X151925D01*
Y238272D01*
X147382D01*
Y233728D01*
X147382D01*
Y233272D01*
X147382D01*
Y228728D01*
X147382D01*
Y228272D01*
X147382D01*
Y223728D01*
X150277D01*
X150296Y223725D01*
X153654Y220367D01*
Y216031D01*
X153575Y215913D01*
X153445Y215257D01*
X153575Y214601D01*
X153585Y214586D01*
Y214248D01*
X149346Y210009D01*
X130654D01*
X123581Y217081D01*
X123085Y217413D01*
X122500Y217529D01*
X120969D01*
Y218272D01*
X120969D01*
Y218728D01*
X120969D01*
Y223272D01*
X120029D01*
Y224382D01*
X120772D01*
Y226762D01*
X124581Y230572D01*
X124913Y231068D01*
X125029Y231654D01*
Y237144D01*
X125497Y237503D01*
X125946Y238088D01*
X125980Y238172D01*
X126480Y238072D01*
Y238006D01*
X126558Y237616D01*
X126779Y237285D01*
X146285Y217779D01*
X146616Y217558D01*
X147006Y217480D01*
X149159D01*
X149288Y217288D01*
X149844Y216916D01*
X150500Y216786D01*
X151156Y216916D01*
X151712Y217288D01*
X152084Y217844D01*
X152214Y218500D01*
X152084Y219156D01*
X151712Y219712D01*
X151156Y220084D01*
X150500Y220214D01*
X149844Y220084D01*
X149288Y219712D01*
X149159Y219520D01*
X147428D01*
X128520Y238428D01*
Y242000D01*
X128442Y242390D01*
X128221Y242721D01*
X124721Y246221D01*
X124390Y246442D01*
X124000Y246520D01*
X112618D01*
Y247772D01*
X108075D01*
Y243228D01*
X112618D01*
Y244480D01*
X123578D01*
X126480Y241578D01*
Y240928D01*
X125980Y240828D01*
X125946Y240912D01*
X125497Y241497D01*
X124912Y241946D01*
X124231Y242228D01*
X123500Y242324D01*
X122769Y242228D01*
X122088Y241946D01*
X121503Y241497D01*
X121315Y241252D01*
X120685D01*
X120497Y241497D01*
X119912Y241946D01*
X119231Y242228D01*
X118500Y242324D01*
X117769Y242228D01*
X117088Y241946D01*
X116503Y241497D01*
X116315Y241252D01*
X115685D01*
X115497Y241497D01*
X114912Y241946D01*
X114231Y242228D01*
X113500Y242324D01*
X112769Y242228D01*
X112088Y241946D01*
X111503Y241497D01*
X111315Y241252D01*
X110685D01*
X110497Y241497D01*
X109912Y241946D01*
X109231Y242228D01*
X108500Y242324D01*
X107769Y242228D01*
X107088Y241946D01*
X106503Y241497D01*
X106315Y241252D01*
X105685D01*
X105497Y241497D01*
X105183Y241738D01*
Y243228D01*
X105925D01*
Y247772D01*
X101382D01*
Y243228D01*
X102124D01*
Y241961D01*
X102088Y241946D01*
X101503Y241497D01*
X101054Y240912D01*
X100772Y240231D01*
X100676Y239500D01*
X100772Y238769D01*
X101054Y238088D01*
X101503Y237503D01*
X102088Y237054D01*
X102769Y236772D01*
X103500Y236676D01*
X104231Y236772D01*
X104912Y237054D01*
X105497Y237503D01*
X105685Y237748D01*
X106315D01*
X106503Y237503D01*
X106971Y237144D01*
Y235618D01*
X106228D01*
Y231180D01*
X105800Y230901D01*
X105310Y231392D01*
X105324Y231500D01*
X105228Y232231D01*
X104946Y232912D01*
X104497Y233497D01*
X103912Y233946D01*
X103231Y234228D01*
X102500Y234324D01*
X101769Y234228D01*
X101088Y233946D01*
X100987Y233868D01*
X100950Y233876D01*
X98772D01*
Y234618D01*
X94228D01*
Y230075D01*
X98772D01*
Y230817D01*
X99766D01*
X99772Y230769D01*
X100054Y230088D01*
X100503Y229503D01*
X100748Y229315D01*
Y228685D01*
X100503Y228497D01*
X100054Y227912D01*
X99772Y227231D01*
X99766Y227183D01*
X98772D01*
Y227925D01*
X94228D01*
Y223382D01*
X98772D01*
Y224124D01*
X100499D01*
X100669Y223624D01*
X100503Y223497D01*
X100054Y222912D01*
X99772Y222231D01*
X99676Y221500D01*
X99772Y220769D01*
X100054Y220088D01*
X100503Y219503D01*
X100748Y219315D01*
Y218685D01*
X100503Y218497D01*
X100054Y217912D01*
X99772Y217231D01*
X99676Y216500D01*
X99772Y215769D01*
X100054Y215088D01*
X100503Y214503D01*
X100748Y214315D01*
Y213685D01*
X100503Y213497D01*
X100054Y212912D01*
X99772Y212231D01*
X99676Y211500D01*
X99772Y210769D01*
X100054Y210088D01*
X100490Y209520D01*
X100479Y209442D01*
X100312Y209020D01*
X99422D01*
X93520Y214922D01*
Y228500D01*
X93442Y228890D01*
X93221Y229221D01*
X90453Y231989D01*
Y237453D01*
X83547D01*
Y230547D01*
X89011D01*
X91480Y228078D01*
Y224810D01*
X90980Y224610D01*
X90543Y224946D01*
X89862Y225228D01*
X89131Y225324D01*
X88400Y225228D01*
X87719Y224946D01*
X87134Y224497D01*
X86775Y224029D01*
X84783D01*
X84772Y224032D01*
Y225118D01*
X80228D01*
Y224029D01*
X77856D01*
X77497Y224497D01*
X76912Y224946D01*
X76231Y225228D01*
X75500Y225324D01*
X74769Y225228D01*
X74345Y225052D01*
X74035Y225259D01*
X73450Y225376D01*
X71272D01*
Y226118D01*
X66728D01*
Y225390D01*
X66027D01*
X65386Y225263D01*
X64843Y224900D01*
X60970Y221027D01*
X60607Y220484D01*
X60480Y219843D01*
Y214772D01*
X59882D01*
Y214674D01*
X58245D01*
X57997Y214997D01*
X57412Y215446D01*
X56731Y215728D01*
X56000Y215824D01*
X55269Y215728D01*
X54588Y215446D01*
X54003Y214997D01*
X53644Y214529D01*
X49989D01*
X49657Y214463D01*
X49395Y214921D01*
X52519Y218417D01*
X57174Y223072D01*
X62082Y227458D01*
X67228Y231562D01*
X72597Y235371D01*
X78171Y238873D01*
X83932Y242058D01*
X89863Y244914D01*
X95944Y247433D01*
X102158Y249607D01*
X108483Y251429D01*
X114901Y252894D01*
X121390Y253997D01*
X127931Y254734D01*
X134504Y255103D01*
X141087D01*
X147659Y254734D01*
D02*
G37*
G36*
X175035Y211020D02*
X174346Y210331D01*
X174051D01*
Y213480D01*
X175035D01*
Y211020D01*
D02*
G37*
G36*
X167949Y210331D02*
X167654D01*
X166965Y211020D01*
Y213480D01*
X167949D01*
Y210331D01*
D02*
G37*
G36*
X178480Y209051D02*
X175331D01*
Y209347D01*
X176020Y210035D01*
X178480D01*
Y209051D01*
D02*
G37*
G36*
X166669Y209347D02*
Y209051D01*
X163520D01*
Y210035D01*
X165980D01*
X166669Y209347D01*
D02*
G37*
G36*
X178480Y201965D02*
X176020D01*
X175331Y202654D01*
Y202949D01*
X178480D01*
Y201965D01*
D02*
G37*
G36*
X166669Y202654D02*
X165980Y201965D01*
X163913D01*
Y202949D01*
X166669D01*
Y202654D01*
D02*
G37*
G36*
X175035Y200980D02*
Y198520D01*
X174051D01*
Y201669D01*
X174346D01*
X175035Y200980D01*
D02*
G37*
G36*
X167949Y198520D02*
X166965D01*
Y200980D01*
X167654Y201669D01*
X167949D01*
Y198520D01*
D02*
G37*
G36*
X45699Y209655D02*
Y201708D01*
X41762Y197772D01*
X40382D01*
Y193228D01*
X44925D01*
Y196609D01*
X47644Y199328D01*
X48228D01*
Y198882D01*
X52772D01*
Y202239D01*
X53272Y202272D01*
X53272Y202269D01*
X53554Y201588D01*
X54003Y201003D01*
X54248Y200815D01*
Y200185D01*
X54003Y199997D01*
X53554Y199412D01*
X53272Y198731D01*
X53176Y198000D01*
X53209Y197746D01*
X52492Y197029D01*
X51618D01*
Y197772D01*
X47075D01*
Y193228D01*
X51618D01*
Y193971D01*
X52830D01*
X52914Y193925D01*
X53226Y193542D01*
X53240Y193483D01*
X53176Y193000D01*
X53272Y192269D01*
X53554Y191588D01*
X54003Y191003D01*
X54588Y190554D01*
X55269Y190272D01*
X56000Y190176D01*
X56731Y190272D01*
X57412Y190554D01*
X57958Y190973D01*
X58326D01*
X58338Y190971D01*
X60382D01*
Y190228D01*
X64925D01*
Y194772D01*
X60382D01*
Y194029D01*
X58604D01*
X58446Y194412D01*
X57997Y194997D01*
X57752Y195185D01*
Y195815D01*
X57997Y196003D01*
X58446Y196588D01*
X58728Y197269D01*
X58824Y198000D01*
X58728Y198731D01*
X58446Y199412D01*
X57997Y199997D01*
X57858Y200104D01*
X57838Y200640D01*
X58187Y200973D01*
X58326D01*
X58338Y200971D01*
X59882D01*
Y199728D01*
X64425D01*
Y203035D01*
X64887Y203227D01*
X66575Y201539D01*
Y199728D01*
X71118D01*
Y204272D01*
X68878D01*
X68717Y204304D01*
X68545D01*
X68082Y204766D01*
X68274Y205228D01*
X71118D01*
Y205971D01*
X73144D01*
X73503Y205503D01*
X73748Y205315D01*
Y204685D01*
X73503Y204497D01*
X73054Y203912D01*
X72772Y203231D01*
X72676Y202500D01*
X72772Y201769D01*
X73054Y201088D01*
X73503Y200503D01*
X73971Y200144D01*
Y197772D01*
X73382D01*
Y193520D01*
X71618D01*
Y194772D01*
X67075D01*
Y190228D01*
X71618D01*
Y191480D01*
X74842D01*
X74987Y191202D01*
X75020Y190980D01*
X73022Y188982D01*
X69953D01*
X69805Y188953D01*
X64547D01*
Y182529D01*
X46453D01*
Y184453D01*
X39547D01*
Y177547D01*
X39262Y177165D01*
X27722D01*
X27432Y177573D01*
X28158Y179646D01*
X30677Y185728D01*
X33533Y191658D01*
X36717Y197420D01*
X40219Y202993D01*
X44028Y208362D01*
X45199Y209830D01*
X45699Y209655D01*
D02*
G37*
G36*
X156102Y156949D02*
X154724Y155571D01*
X154134D01*
X154154Y163248D01*
X156102D01*
Y156949D01*
D02*
G37*
G36*
X121457Y155571D02*
X120866D01*
X119488Y156949D01*
Y163248D01*
X121457D01*
Y155571D01*
D02*
G37*
G36*
X152489Y154571D02*
X152105Y154186D01*
X151939Y153938D01*
X151881Y153646D01*
Y151354D01*
X151939Y151062D01*
X152105Y150813D01*
X152353Y150648D01*
X152646Y150590D01*
X152938Y150648D01*
X153187Y150813D01*
X153352Y151062D01*
X153410Y151354D01*
Y153329D01*
X153701Y153619D01*
X154640D01*
X155071Y153453D01*
Y150484D01*
X159263D01*
X159409Y150455D01*
X182382D01*
Y149228D01*
X186925D01*
X187063Y148785D01*
Y147997D01*
X186772Y147618D01*
X186563Y147618D01*
X182228D01*
Y147183D01*
X159409D01*
X159263Y147153D01*
X155071D01*
Y144185D01*
X159263D01*
X159409Y144156D01*
X164720D01*
X164956Y143715D01*
X164916Y143656D01*
X164786Y143000D01*
X164916Y142344D01*
X165288Y141788D01*
X165480Y141659D01*
Y137841D01*
X165288Y137712D01*
X164916Y137156D01*
X164786Y136500D01*
X164916Y135844D01*
X165288Y135288D01*
X165593Y135084D01*
X165441Y134584D01*
X154584D01*
Y142289D01*
X154584Y142289D01*
X154469Y142868D01*
X154141Y143359D01*
X143947Y153553D01*
X143947Y153553D01*
X143456Y153881D01*
X142877Y153996D01*
X142877Y153996D01*
X140883D01*
Y154634D01*
X141035Y155071D01*
X144004D01*
Y155071D01*
X144185D01*
Y155071D01*
X147154D01*
Y155071D01*
X147335D01*
Y155071D01*
X150303D01*
Y155071D01*
X150484D01*
Y155071D01*
X152282D01*
X152489Y154571D01*
D02*
G37*
G36*
X139085Y165226D02*
X138300Y164440D01*
X137972Y163949D01*
X137857Y163370D01*
X137857Y163370D01*
Y158130D01*
Y152483D01*
X137972Y151904D01*
X138300Y151413D01*
X138791Y151085D01*
X139370Y150970D01*
X142250D01*
X148080Y145140D01*
X147915Y144598D01*
X147844Y144584D01*
X147288Y144212D01*
X146916Y143656D01*
X146786Y143000D01*
X146916Y142344D01*
X146987Y142239D01*
Y140782D01*
X146546Y140547D01*
X146491Y140584D01*
X145835Y140714D01*
X145179Y140584D01*
X144623Y140212D01*
X144251Y139656D01*
X144121Y139000D01*
X144251Y138344D01*
X144321Y138239D01*
Y134461D01*
X138145Y128285D01*
X116181D01*
X116035Y128256D01*
X111843D01*
Y125287D01*
X111406Y125135D01*
X95468D01*
X95468Y125135D01*
X94889Y125020D01*
X94398Y124692D01*
X94398Y124692D01*
X93580Y123874D01*
X93118Y124065D01*
Y127772D01*
X92360D01*
Y128728D01*
X93118D01*
Y133272D01*
X92360D01*
Y134228D01*
X93118D01*
Y138772D01*
X92360D01*
Y139728D01*
X93118D01*
Y144272D01*
X92360D01*
Y146373D01*
X92572D01*
Y149627D01*
X92360D01*
Y152980D01*
X93496D01*
Y153246D01*
X99113D01*
X104168Y148192D01*
Y136047D01*
X104168Y136047D01*
X104283Y135467D01*
X104611Y134976D01*
X107587Y132001D01*
X107587Y132001D01*
X108078Y131673D01*
X108657Y131558D01*
X116181D01*
X116327Y131587D01*
X120520D01*
Y134236D01*
X120520Y134555D01*
X120520Y135055D01*
Y137386D01*
X120520Y137705D01*
X120520Y138205D01*
Y140854D01*
X111843D01*
Y138205D01*
X111843Y137886D01*
X111843Y137386D01*
X111843Y134736D01*
X111406Y134584D01*
X109284D01*
X107194Y136673D01*
Y147306D01*
X111406D01*
X111843Y147153D01*
Y144185D01*
X116035D01*
X116181Y144156D01*
X116327Y144185D01*
X120520D01*
Y147153D01*
X120520D01*
Y147335D01*
X120520D01*
Y148664D01*
X120982Y148855D01*
X131897Y137940D01*
X131916Y137844D01*
X132288Y137288D01*
X132844Y136916D01*
X133500Y136786D01*
X134156Y136916D01*
X134712Y137288D01*
X135084Y137844D01*
X135214Y138500D01*
X135084Y139156D01*
X134712Y139712D01*
X134475Y139871D01*
X134580Y140401D01*
X134656Y140416D01*
X135212Y140788D01*
X135584Y141344D01*
X135714Y142000D01*
X135584Y142656D01*
X135212Y143212D01*
X134656Y143584D01*
X134000Y143714D01*
X133773Y143669D01*
X122833Y154609D01*
X123024Y155071D01*
X124787D01*
X125106Y155071D01*
X125606Y155071D01*
X127937D01*
X128256Y155071D01*
X128756Y155071D01*
X131087D01*
X131405Y155071D01*
Y155071D01*
X131587D01*
Y155071D01*
X134555D01*
Y159263D01*
X134584Y159409D01*
Y162577D01*
X137695Y165688D01*
X138894D01*
X139085Y165226D01*
D02*
G37*
G36*
X163248Y154134D02*
X155571D01*
Y154724D01*
X156949Y156102D01*
X163248D01*
Y154134D01*
D02*
G37*
G36*
X120020Y154724D02*
Y154134D01*
X112343Y154154D01*
Y156102D01*
X118642D01*
X120020Y154724D01*
D02*
G37*
G36*
X127543Y173184D02*
X119402Y165042D01*
X119074Y164551D01*
X118959Y163972D01*
X118959Y163972D01*
Y163277D01*
X118947Y163248D01*
Y157058D01*
X118771Y156819D01*
X118532Y156644D01*
X112343D01*
X111960Y156485D01*
X111801Y156102D01*
Y154154D01*
X111880Y153963D01*
X111884Y153953D01*
X111843Y153453D01*
X111843Y153453D01*
Y150484D01*
X111406Y150332D01*
X106308D01*
X101880Y154760D01*
X120804Y173684D01*
X127336D01*
X127543Y173184D01*
D02*
G37*
G36*
X182228Y136382D02*
X186772D01*
X187063Y136003D01*
Y132943D01*
X186600Y132681D01*
X186563Y132686D01*
X186212Y133212D01*
X185656Y133584D01*
X185000Y133714D01*
X184344Y133584D01*
X183788Y133212D01*
X183416Y132656D01*
X183406Y132602D01*
X177681Y126878D01*
X177613Y126776D01*
X171982Y121145D01*
X171886Y121126D01*
X171330Y120754D01*
X170959Y120198D01*
X170828Y119542D01*
X170877Y119298D01*
X170416Y119052D01*
X168585Y120883D01*
X168730Y121361D01*
X168795Y121374D01*
X169351Y121746D01*
X169723Y122302D01*
X169853Y122958D01*
X169723Y123614D01*
X169351Y124170D01*
X168795Y124541D01*
X168671Y124566D01*
X165395Y127842D01*
X164904Y128170D01*
X164325Y128285D01*
X164325Y128285D01*
X164185D01*
X163748Y128437D01*
X163748Y128785D01*
X163748Y131405D01*
X164185Y131558D01*
X175071D01*
X175071Y131558D01*
X175650Y131673D01*
X176141Y132001D01*
X181032Y136892D01*
X181156Y136916D01*
X181374Y137062D01*
X182228D01*
Y136382D01*
D02*
G37*
G36*
X138202Y124758D02*
X137972Y124414D01*
X137857Y123835D01*
X137857Y123834D01*
Y120957D01*
X137705Y120520D01*
X135055D01*
X134736Y120520D01*
X134236Y120520D01*
X131905D01*
X131587Y120520D01*
X131087Y120520D01*
X128437D01*
Y120520D01*
X128256D01*
Y120520D01*
X125287D01*
Y117289D01*
X124787Y117137D01*
X124703Y117263D01*
X124207Y117594D01*
X123622Y117711D01*
X122346D01*
X121993Y118065D01*
X121998Y120018D01*
X121998Y120019D01*
X121998Y120020D01*
X121919Y120210D01*
X121840Y120401D01*
X121840Y120402D01*
X121839Y120402D01*
X121650Y120481D01*
X121458Y120561D01*
X121457Y120561D01*
X121457Y120561D01*
X120976D01*
X120737Y120737D01*
X120561Y120976D01*
Y121457D01*
X120498Y121609D01*
X120786Y122109D01*
X133556D01*
X133844Y121916D01*
X134500Y121786D01*
X135156Y121916D01*
X135712Y122288D01*
X136084Y122844D01*
X136214Y123500D01*
X136084Y124156D01*
X135712Y124712D01*
X135643Y124758D01*
X135794Y125258D01*
X137998D01*
X138202Y124758D01*
D02*
G37*
G36*
X163248Y121437D02*
Y119488D01*
X156949D01*
X155571Y120866D01*
Y121457D01*
X163248Y121437D01*
D02*
G37*
G36*
X120020Y120866D02*
X118642Y119488D01*
X112343D01*
Y121457D01*
X120020D01*
Y120866D01*
D02*
G37*
G36*
X231480Y123034D02*
Y112922D01*
X218779Y100221D01*
X218558Y99890D01*
X218480Y99500D01*
Y70134D01*
X217980Y69867D01*
X217656Y70084D01*
X217000Y70214D01*
X216668Y70148D01*
X213469Y73347D01*
X213378Y73408D01*
X211126Y75659D01*
X210574Y75107D01*
X210112Y75298D01*
Y81629D01*
X212144Y83662D01*
X212386Y84023D01*
X212470Y84448D01*
X212470Y84448D01*
Y95019D01*
X218830Y101378D01*
X219071Y101739D01*
X219155Y102165D01*
X219155Y102165D01*
Y114530D01*
X219655Y114681D01*
X219918Y114288D01*
X220474Y113916D01*
X221130Y113786D01*
X221786Y113916D01*
X222342Y114288D01*
X222713Y114844D01*
X222733Y114940D01*
X231018Y123226D01*
X231480Y123034D01*
D02*
G37*
G36*
X156102Y118642D02*
Y112343D01*
X154134D01*
Y120020D01*
X154724D01*
X156102Y118642D01*
D02*
G37*
G36*
X121437Y112343D02*
X119488D01*
Y118642D01*
X120866Y120020D01*
X121457D01*
X121437Y112343D01*
D02*
G37*
G36*
X199207Y83112D02*
Y68579D01*
X199116Y68440D01*
X198545Y68355D01*
X197062Y69838D01*
X196702Y70079D01*
X196276Y70164D01*
X195878Y70453D01*
Y71244D01*
X193339D01*
X193148Y71706D01*
X195721Y74279D01*
X195942Y74610D01*
X196020Y75000D01*
Y80578D01*
X198745Y83303D01*
X199207Y83112D01*
D02*
G37*
%LPC*%
G36*
X137795Y252707D02*
X136115Y252541D01*
X134499Y252051D01*
X133010Y251255D01*
X131705Y250184D01*
X130634Y248879D01*
X129838Y247390D01*
X129348Y245775D01*
X129183Y244094D01*
X129348Y242414D01*
X129838Y240799D01*
X130634Y239310D01*
X131705Y238005D01*
X133010Y236933D01*
X134499Y236138D01*
X136115Y235648D01*
X137795Y235482D01*
X139475Y235648D01*
X141091Y236138D01*
X142580Y236933D01*
X143885Y238005D01*
X144956Y239310D01*
X145752Y240799D01*
X146242Y242414D01*
X146407Y244094D01*
X146242Y245775D01*
X145752Y247390D01*
X144956Y248879D01*
X143885Y250184D01*
X142580Y251255D01*
X141091Y252051D01*
X139475Y252541D01*
X137795Y252707D01*
D02*
G37*
G36*
X190453Y237953D02*
X183547D01*
Y231047D01*
X190453D01*
Y237953D01*
D02*
G37*
G36*
X180069Y219450D02*
X179413Y219319D01*
X178857Y218948D01*
X178486Y218392D01*
X178355Y217736D01*
X178486Y217080D01*
X178857Y216524D01*
X179057Y216390D01*
X179057Y216390D01*
X183728Y211719D01*
Y209338D01*
X188272D01*
Y210675D01*
X204382D01*
Y207228D01*
X205124D01*
Y206272D01*
X204382D01*
Y202529D01*
X203118D01*
Y203272D01*
X198575D01*
Y198728D01*
X203118D01*
Y199471D01*
X204382D01*
Y196228D01*
X205124D01*
Y195272D01*
X204382D01*
Y190728D01*
X205124D01*
Y189772D01*
X204382D01*
Y185228D01*
X205124D01*
Y184272D01*
X204382D01*
Y179728D01*
X205124D01*
Y178772D01*
X204382D01*
Y178683D01*
X197772D01*
Y179925D01*
X193228D01*
Y175382D01*
X197772D01*
Y175624D01*
X204382D01*
Y174228D01*
X205124D01*
Y173272D01*
X204382D01*
Y168728D01*
X206762D01*
X210072Y165419D01*
X210568Y165087D01*
X211154Y164971D01*
X230263D01*
X230344Y164916D01*
X231000Y164786D01*
X231656Y164916D01*
X232212Y165288D01*
X232584Y165844D01*
X232714Y166500D01*
X232584Y167156D01*
X232506Y167272D01*
Y174539D01*
X233913D01*
Y180461D01*
X232482D01*
Y181039D01*
X233913D01*
Y186961D01*
X232482D01*
Y187539D01*
X233913D01*
Y193461D01*
X227992D01*
Y193179D01*
X227664Y193038D01*
X227492Y193000D01*
X226953Y193360D01*
X226277Y193494D01*
X223817D01*
X223142Y193360D01*
X222569Y192978D01*
X222187Y192405D01*
X222053Y191730D01*
Y189270D01*
X222187Y188595D01*
X222569Y188022D01*
X223142Y187640D01*
X223817Y187505D01*
X226277D01*
X226953Y187640D01*
X227492Y188000D01*
X227664Y187962D01*
X227992Y187821D01*
Y187539D01*
X229423D01*
Y186961D01*
X227992D01*
Y186679D01*
X227664Y186538D01*
X227492Y186500D01*
X226953Y186860D01*
X226277Y186995D01*
X223817D01*
X223142Y186860D01*
X222569Y186478D01*
X222187Y185905D01*
X222053Y185230D01*
Y182770D01*
X222187Y182095D01*
X222569Y181522D01*
X223142Y181140D01*
X223817Y181006D01*
X226277D01*
X226953Y181140D01*
X227492Y181500D01*
X227664Y181462D01*
X227992Y181321D01*
Y181039D01*
X229423D01*
Y180461D01*
X227992D01*
Y180179D01*
X227664Y180038D01*
X227492Y180000D01*
X226953Y180360D01*
X226277Y180494D01*
X223817D01*
X223142Y180360D01*
X222569Y179978D01*
X222187Y179405D01*
X222053Y178730D01*
Y176270D01*
X222187Y175595D01*
X222569Y175022D01*
X223142Y174640D01*
X223817Y174505D01*
X226277D01*
X226953Y174640D01*
X227492Y175000D01*
X227664Y174962D01*
X227992Y174821D01*
Y174539D01*
X229447D01*
Y168029D01*
X211787D01*
X208925Y170891D01*
Y173272D01*
X208183D01*
Y174228D01*
X208925D01*
Y178772D01*
X208183D01*
Y179728D01*
X208925D01*
Y184272D01*
X208183D01*
Y185228D01*
X208925D01*
Y189772D01*
X208183D01*
Y190728D01*
X208925D01*
Y195272D01*
X208183D01*
Y196228D01*
X208925D01*
Y200772D01*
X208183D01*
Y201728D01*
X208925D01*
Y206272D01*
X208183D01*
Y207228D01*
X208925D01*
Y211772D01*
X208209D01*
Y213433D01*
X209516D01*
Y218567D01*
X204776D01*
Y213734D01*
X188272D01*
Y213882D01*
X185891D01*
X181720Y218053D01*
X181653Y218392D01*
X181281Y218948D01*
X180725Y219319D01*
X180069Y219450D01*
D02*
G37*
G36*
X93496Y164020D02*
X88953D01*
Y160461D01*
X93496D01*
Y164020D01*
D02*
G37*
G36*
X239000Y149714D02*
X238344Y149584D01*
X237788Y149212D01*
X237659Y149020D01*
X220000D01*
X219610Y148942D01*
X219279Y148721D01*
X209227Y138669D01*
X209000Y138714D01*
X208344Y138584D01*
X207788Y138212D01*
X207416Y137656D01*
X207286Y137000D01*
X207416Y136344D01*
X207788Y135788D01*
X208344Y135416D01*
X209000Y135286D01*
X209656Y135416D01*
X210212Y135788D01*
X210584Y136344D01*
X210714Y137000D01*
X210669Y137227D01*
X220422Y146980D01*
X237659D01*
X237788Y146788D01*
X238344Y146416D01*
X239000Y146286D01*
X239656Y146416D01*
X240212Y146788D01*
X240584Y147344D01*
X240714Y148000D01*
X240584Y148656D01*
X240212Y149212D01*
X239656Y149584D01*
X239000Y149714D01*
D02*
G37*
G36*
X62500Y92214D02*
X61844Y92084D01*
X61288Y91712D01*
X60916Y91156D01*
X60786Y90500D01*
X60916Y89844D01*
X61288Y89288D01*
X61844Y88916D01*
X61940Y88897D01*
X68419Y82419D01*
X68915Y82087D01*
X69500Y81971D01*
X140263D01*
X140344Y81916D01*
X141000Y81786D01*
X141656Y81916D01*
X142212Y82288D01*
X142584Y82844D01*
X142714Y83500D01*
X142584Y84156D01*
X142212Y84712D01*
X141656Y85084D01*
X141000Y85214D01*
X140344Y85084D01*
X140263Y85029D01*
X70134D01*
X64103Y91060D01*
X64084Y91156D01*
X63712Y91712D01*
X63156Y92084D01*
X62500Y92214D01*
D02*
G37*
G36*
X229854Y93258D02*
X228174Y93092D01*
X226559Y92602D01*
X225070Y91807D01*
X223765Y90735D01*
X222693Y89430D01*
X221898Y87941D01*
X221408Y86326D01*
X221242Y84646D01*
X221408Y82965D01*
X221898Y81350D01*
X222693Y79861D01*
X223765Y78556D01*
X225070Y77485D01*
X226559Y76689D01*
X228174Y76199D01*
X229854Y76033D01*
X231535Y76199D01*
X233150Y76689D01*
X234639Y77485D01*
X235944Y78556D01*
X237015Y79861D01*
X237811Y81350D01*
X238301Y82965D01*
X238467Y84646D01*
X238301Y86326D01*
X237811Y87941D01*
X237015Y89430D01*
X235944Y90735D01*
X234639Y91807D01*
X233150Y92602D01*
X231535Y93092D01*
X229854Y93258D01*
D02*
G37*
G36*
X45736D02*
X44056Y93092D01*
X42440Y92602D01*
X40951Y91807D01*
X39646Y90735D01*
X38575Y89430D01*
X37779Y87941D01*
X37289Y86326D01*
X37124Y84646D01*
X37289Y82965D01*
X37779Y81350D01*
X38575Y79861D01*
X39646Y78556D01*
X40951Y77485D01*
X42440Y76689D01*
X44056Y76199D01*
X45736Y76033D01*
X47416Y76199D01*
X49032Y76689D01*
X50521Y77485D01*
X51826Y78556D01*
X52897Y79861D01*
X53693Y81350D01*
X54183Y82965D01*
X54348Y84646D01*
X54183Y86326D01*
X53693Y87941D01*
X52897Y89430D01*
X51826Y90735D01*
X50521Y91807D01*
X49032Y92602D01*
X47416Y93092D01*
X45736Y93258D01*
D02*
G37*
G36*
X167000Y95895D02*
X166344Y95765D01*
X165788Y95393D01*
X165416Y94837D01*
X165286Y94181D01*
X165416Y93525D01*
X165624Y93214D01*
Y80272D01*
X164882D01*
Y75728D01*
X169425D01*
Y80272D01*
X168683D01*
Y93929D01*
X168674Y93977D01*
X168714Y94181D01*
X168584Y94837D01*
X168212Y95393D01*
X167656Y95765D01*
X167000Y95895D01*
D02*
G37*
G36*
X118000Y81214D02*
X117344Y81084D01*
X116788Y80712D01*
X116416Y80156D01*
X116397Y80060D01*
X111866Y75529D01*
X69453D01*
Y77453D01*
X62547D01*
Y70547D01*
X69453D01*
Y72471D01*
X112500D01*
X113085Y72587D01*
X113581Y72919D01*
X118560Y77897D01*
X118656Y77916D01*
X119212Y78288D01*
X119584Y78844D01*
X119714Y79500D01*
X119584Y80156D01*
X119212Y80712D01*
X118656Y81084D01*
X118000Y81214D01*
D02*
G37*
G36*
X143622Y72878D02*
X140063D01*
Y72353D01*
X133414D01*
X133333Y72407D01*
X132677Y72537D01*
X132021Y72407D01*
X131836Y72283D01*
X125815D01*
Y72799D01*
X114185D01*
Y67862D01*
X125815D01*
Y69225D01*
X128233D01*
X128481Y68725D01*
X128282Y68427D01*
X128166Y67842D01*
Y65327D01*
X128022Y65230D01*
X127867Y64999D01*
X127813Y64727D01*
Y64021D01*
X127867Y63749D01*
X128022Y63518D01*
X128253Y63363D01*
X128525Y63309D01*
X131475D01*
X131747Y63363D01*
X131978Y63518D01*
X132133Y63749D01*
X132187Y64021D01*
Y64727D01*
X132133Y64999D01*
X131978Y65230D01*
X131747Y65385D01*
X131475Y65439D01*
X131230D01*
X131225Y65440D01*
Y67208D01*
X133237Y69221D01*
X133333Y69240D01*
X133414Y69294D01*
X140063D01*
Y69122D01*
X140085D01*
Y65428D01*
X139867Y65385D01*
X139636Y65230D01*
X139481Y64999D01*
X139427Y64727D01*
Y64021D01*
X139481Y63749D01*
X139595Y63390D01*
X139481Y63031D01*
X139427Y62758D01*
Y62053D01*
X139481Y61780D01*
X139595Y61421D01*
X139481Y61062D01*
X139427Y60790D01*
Y60084D01*
X139481Y59812D01*
X139636Y59581D01*
X139867Y59426D01*
X140139Y59372D01*
X143089D01*
X143361Y59426D01*
X143592Y59581D01*
X143747Y59812D01*
X143801Y60084D01*
Y60790D01*
X143747Y61062D01*
X143633Y61421D01*
X143747Y61780D01*
X143801Y62053D01*
Y62758D01*
X143747Y63031D01*
X143633Y63390D01*
X143747Y63749D01*
X143801Y64021D01*
Y64727D01*
X143747Y64999D01*
X143592Y65230D01*
X143361Y65385D01*
X143143Y65428D01*
Y69122D01*
X143622D01*
Y72878D01*
D02*
G37*
G36*
X137342Y68458D02*
X136240D01*
X135857Y68300D01*
X135757Y68300D01*
X135374Y68458D01*
X134272D01*
X133889Y68300D01*
X133731Y67917D01*
Y65161D01*
X133889Y64778D01*
X134272Y64620D01*
X135374D01*
X135757Y64778D01*
X135857Y64778D01*
X136240Y64620D01*
X137342D01*
X137725Y64778D01*
X137883Y65161D01*
Y67917D01*
X137725Y68300D01*
X137342Y68458D01*
D02*
G37*
G36*
X57301Y65794D02*
X56397Y65707D01*
X55545Y65389D01*
X54805Y64861D01*
X54227Y64159D01*
X53850Y63332D01*
X53700Y62435D01*
X53787Y61530D01*
X54105Y60679D01*
X54633Y59939D01*
X55335Y59360D01*
X56162Y58983D01*
X57059Y58833D01*
X57963Y58920D01*
X58815Y59239D01*
X59555Y59767D01*
X60133Y60468D01*
X60510Y61295D01*
X60660Y62192D01*
X60573Y63097D01*
X60255Y63949D01*
X59727Y64689D01*
X59026Y65267D01*
X58198Y65644D01*
X57301Y65794D01*
D02*
G37*
G36*
X137342Y56254D02*
X136240D01*
X135857Y56095D01*
X135757Y56095D01*
X135374Y56254D01*
X134272D01*
X133889Y56095D01*
X133731Y55713D01*
Y52957D01*
X133889Y52574D01*
X134272Y52416D01*
X135374D01*
X135757Y52574D01*
X135857Y52574D01*
X136240Y52416D01*
X137342D01*
X137725Y52574D01*
X137883Y52957D01*
Y55713D01*
X137725Y56095D01*
X137342Y56254D01*
D02*
G37*
G36*
X114772Y48118D02*
X110228D01*
Y43575D01*
X114772D01*
Y43789D01*
X115272Y43965D01*
X115344Y43916D01*
X116000Y43786D01*
X116656Y43916D01*
X117212Y44288D01*
X117584Y44844D01*
X117714Y45500D01*
X117584Y46156D01*
X117212Y46712D01*
X116656Y47084D01*
X116000Y47214D01*
X115420Y47099D01*
X114772D01*
Y48118D01*
D02*
G37*
G36*
X190453Y44453D02*
X183547D01*
Y37547D01*
X190453D01*
Y44453D01*
D02*
G37*
G36*
X132480Y34989D02*
X131271Y34830D01*
X130143Y34363D01*
X129175Y33620D01*
X128433Y32652D01*
X127966Y31525D01*
X127806Y30315D01*
X127966Y29105D01*
X128433Y27978D01*
X129175Y27010D01*
X130143Y26267D01*
X131271Y25800D01*
X132480Y25641D01*
X133690Y25800D01*
X134817Y26267D01*
X135785Y27010D01*
X136528Y27978D01*
X136995Y29105D01*
X137154Y30315D01*
X136995Y31525D01*
X136528Y32652D01*
X135785Y33620D01*
X134817Y34363D01*
X133690Y34830D01*
X132480Y34989D01*
D02*
G37*
G36*
X114772Y41425D02*
X110228D01*
Y36882D01*
X110951D01*
Y34697D01*
X110143Y34363D01*
X109176Y33620D01*
X108433Y32652D01*
X107966Y31525D01*
X107807Y30315D01*
X107966Y29105D01*
X108433Y27978D01*
X109176Y27010D01*
X110143Y26267D01*
X111271Y25800D01*
X112480Y25641D01*
X113690Y25800D01*
X114817Y26267D01*
X115785Y27010D01*
X116528Y27978D01*
X116995Y29105D01*
X117154Y30315D01*
X116995Y31525D01*
X116528Y32652D01*
X115785Y33620D01*
X114817Y34363D01*
X114010Y34697D01*
Y36882D01*
X114772D01*
Y41425D01*
D02*
G37*
%LPD*%
D10*
X140625Y202441D02*
X164292D01*
X83039Y194807D02*
X132991D01*
X140625Y202441D01*
X177693Y209543D02*
X179043D01*
X181000Y211500D01*
X176913Y207780D02*
X197780D01*
X176906Y206000D02*
X184654D01*
X177500Y209736D02*
Y215000D01*
X82346Y195500D02*
X83039Y194807D01*
X126319Y199319D02*
X131228Y204228D01*
X116181Y199319D02*
X126319D01*
X180890Y202457D02*
X194187Y189160D01*
X183960Y202000D02*
X194154D01*
X177693Y202457D02*
X180890D01*
X181731Y204228D02*
X183960Y202000D01*
X176906Y204228D02*
X181731D01*
X152500Y187319D02*
X161706D01*
X172764Y198377D01*
X162024Y209133D02*
X163385Y207772D01*
X165094D01*
X162024Y209133D02*
Y212103D01*
X161814Y212314D02*
X162024Y212103D01*
X123697Y206000D02*
X165094D01*
X131228Y204228D02*
X165094D01*
X172772Y211906D02*
Y216319D01*
D14*
X130307Y60501D02*
Y63781D01*
X130963Y64437D01*
X132275D01*
X132931Y63781D01*
Y60501D01*
X134243Y64437D02*
X135555D01*
X134899D01*
Y60501D01*
X134243Y61157D01*
D15*
X147006Y218500D02*
X150500D01*
X127500Y238006D02*
X147006Y218500D01*
X200593Y62470D02*
X206098Y56965D01*
X211965D02*
X219500Y64500D01*
Y99500D01*
X232500Y112500D01*
X197228Y85350D02*
Y90980D01*
X198728Y84728D02*
Y90359D01*
X195468Y81468D02*
X198728Y84728D01*
X193500Y81621D02*
X197228Y85350D01*
X198728Y90359D02*
X201362Y92993D01*
X197228Y90980D02*
X199862Y93614D01*
X195000Y81000D02*
X195468Y81468D01*
X195000Y75000D02*
Y81000D01*
X183000Y63000D02*
X195000Y75000D01*
X193500Y76239D02*
Y81621D01*
X181500Y64239D02*
X193500Y76239D01*
X197000Y97000D02*
X197681D01*
X199862Y93614D02*
Y100241D01*
X197000Y97000D02*
Y102328D01*
X201362Y92993D02*
Y99620D01*
X197000Y102328D02*
X199542Y104871D01*
X200739Y101119D02*
Y102739D01*
X199862Y100241D02*
X200739Y101119D01*
Y102739D02*
X201000Y103000D01*
X183000Y50835D02*
Y63000D01*
X181500Y51456D02*
Y64239D01*
X201362Y99620D02*
X203254Y101512D01*
Y108254D01*
X127500Y238006D02*
Y242000D01*
X124000Y245500D02*
X127500Y242000D01*
X112346Y245500D02*
X124000D01*
X206098Y56965D02*
X211965D01*
X152480Y30315D02*
X161165Y39000D01*
X169044D01*
X203254Y108254D02*
X203500Y108500D01*
X199542Y104871D02*
Y107239D01*
X199803Y107500D01*
X232500Y112500D02*
Y143000D01*
X192000Y92181D02*
Y107500D01*
X166500Y136500D02*
Y143000D01*
X179282Y183718D02*
Y199428D01*
Y183718D02*
X179354Y183646D01*
X173618Y181799D02*
Y196147D01*
X173500Y181681D02*
X173618Y181799D01*
X169044Y39000D02*
X181500Y51456D01*
X162480Y30315D02*
X183000Y50835D01*
X69346Y192500D02*
X129904D01*
X130038Y192634D01*
X116000Y199500D02*
X116181Y199319D01*
X120294Y204706D02*
X120294D01*
X123500Y201500D01*
X185695Y128568D02*
X188083Y130956D01*
Y154378D01*
X185326Y128568D02*
X185695D01*
X195083Y188264D02*
Y188368D01*
X194291Y189160D02*
X195083Y188368D01*
Y188264D02*
X195486Y187860D01*
X195319D02*
Y188500D01*
Y183156D02*
Y187860D01*
X194187Y189160D02*
X194291D01*
X197780Y207780D02*
X198000Y208000D01*
X176906Y207772D02*
X176913Y207780D01*
X171017Y161325D02*
X188407D01*
X205000Y144731D01*
X115492Y155118D02*
X119905D01*
X120452Y154571D01*
X121429D01*
X134000Y142000D01*
X194500Y195000D02*
Y200654D01*
X194154Y201000D02*
X194500Y200654D01*
X173618Y196147D02*
X173736Y196264D01*
X172764Y198377D02*
Y200086D01*
X172772Y200094D01*
X179210Y199500D02*
X179282Y199428D01*
X165094Y214594D02*
X170250Y219750D01*
Y233904D01*
X165094Y209756D02*
Y214594D01*
X118697Y211000D02*
X123697Y206000D01*
X99000Y208000D02*
X117000D01*
X120294Y204706D01*
X92500Y214500D02*
X99000Y208000D01*
X92500Y214500D02*
Y228500D01*
X87000Y234000D02*
X92500Y228500D01*
X209000Y137000D02*
X220000Y148000D01*
X239000D01*
X184654Y206000D02*
X186000Y204654D01*
X205000Y127000D02*
Y144731D01*
X188083Y154378D02*
X188205Y154500D01*
D17*
X137795Y19685D02*
X138793Y19689D01*
X139790Y19702D01*
X140787Y19723D01*
X141784Y19752D01*
X142781Y19790D01*
X143777Y19837D01*
X144773Y19891D01*
X145769Y19954D01*
X146764Y20026D01*
X147758Y20106D01*
X148751Y20194D01*
X149744Y20291D01*
X150736Y20396D01*
X151727Y20509D01*
X152717Y20631D01*
X153706Y20762D01*
X154693Y20900D01*
X155680Y21047D01*
X156665Y21202D01*
X157649Y21366D01*
X158632Y21538D01*
X159613Y21718D01*
X160592Y21906D01*
X161570Y22103D01*
X162546Y22308D01*
X163521Y22521D01*
X164493Y22742D01*
X165464Y22972D01*
X166432Y23209D01*
X167399Y23455D01*
X168364Y23709D01*
X169326Y23971D01*
X170286Y24242D01*
X171244Y24520D01*
X172199Y24807D01*
X173152Y25101D01*
X174102Y25404D01*
X175050Y25715D01*
X175996Y26033D01*
X176938Y26360D01*
X177878Y26694D01*
X178814Y27037D01*
X179748Y27387D01*
X180679Y27745D01*
X181607Y28111D01*
X182532Y28485D01*
X183453Y28867D01*
X184371Y29256D01*
X185286Y29654D01*
X186198Y30059D01*
X187106Y30471D01*
X188011Y30891D01*
X188911Y31319D01*
X189809Y31755D01*
X190702Y32198D01*
X191592Y32648D01*
X192478Y33106D01*
X193360Y33572D01*
X194239Y34045D01*
X195113Y34525D01*
X195983Y35013D01*
X196849Y35508D01*
X197710Y36010D01*
X198568Y36520D01*
X199421Y37037D01*
X200270Y37561D01*
X201114Y38092D01*
X201954Y38630D01*
X202789Y39175D01*
X203619Y39728D01*
X204445Y40287D01*
X205266Y40854D01*
X206082Y41427D01*
X206894Y42007D01*
X207700Y42594D01*
X208502Y43187D01*
X209298Y43788D01*
X210089Y44395D01*
X210876Y45009D01*
X211656Y45629D01*
X212432Y46256D01*
X213203Y46890D01*
X213967Y47530D01*
X214727Y48177D01*
X215481Y48829D01*
X216230Y49489D01*
X216973Y50154D01*
X217710Y50826D01*
X218442Y51504D01*
X219167Y52188D01*
X219887Y52878D01*
X220602Y53574D01*
X221310Y54277D01*
X222012Y54985D01*
X222709Y55699D01*
X223399Y56419D01*
X224083Y57145D01*
X224761Y57876D01*
X225433Y58614D01*
X226098Y59357D01*
X226758Y60105D01*
X227410Y60859D01*
X228057Y61619D01*
X228697Y62384D01*
X229330Y63154D01*
X229958Y63930D01*
X230578Y64711D01*
X231192Y65497D01*
X231799Y66288D01*
X232400Y67084D01*
X232994Y67886D01*
X233580Y68692D01*
X234161Y69504D01*
X234734Y70320D01*
X235300Y71141D01*
X235860Y71967D01*
X236412Y72797D01*
X236957Y73632D01*
X237496Y74472D01*
X238027Y75316D01*
X238551Y76165D01*
X239068Y77018D01*
X239578Y77875D01*
X240080Y78737D01*
X240575Y79603D01*
X241063Y80473D01*
X241543Y81347D01*
X242016Y82225D01*
X242482Y83107D01*
X242940Y83993D01*
X243390Y84883D01*
X243833Y85777D01*
X244269Y86674D01*
X244697Y87575D01*
X245117Y88480D01*
X245530Y89388D01*
X245935Y90299D01*
X246332Y91214D01*
X246722Y92132D01*
X247103Y93054D01*
X247477Y93978D01*
X247843Y94906D01*
X248201Y95837D01*
X248552Y96771D01*
X248894Y97708D01*
X249229Y98647D01*
X249556Y99590D01*
X249874Y100535D01*
X250185Y101483D01*
X250487Y102433D01*
X250782Y103386D01*
X251069Y104341D01*
X251347Y105299D01*
X251618Y106259D01*
X251880Y107221D01*
X252134Y108186D01*
X252380Y109153D01*
X252618Y110121D01*
X252847Y111092D01*
X253069Y112065D01*
X253282Y113039D01*
X253487Y114015D01*
X253683Y114993D01*
X253872Y115972D01*
X254052Y116953D01*
X254224Y117936D01*
X254387Y118920D01*
X254543Y119905D01*
X254690Y120892D01*
X254828Y121879D01*
X254959Y122868D01*
X255080Y123858D01*
X255194Y124849D01*
X255299Y125841D01*
X255396Y126834D01*
X255484Y127827D01*
X255564Y128821D01*
X255636Y129816D01*
X255699Y130812D01*
X255754Y131808D01*
X255800Y132804D01*
X255838Y133801D01*
X255868Y134798D01*
X255889Y135795D01*
X255901Y136792D01*
X255906Y137790D01*
Y137795D01*
X255901Y138793D01*
X255889Y139790D01*
X255868Y140787D01*
X255838Y141784D01*
X255800Y142781D01*
X255754Y143778D01*
X255699Y144773D01*
X255636Y145769D01*
X255564Y146764D01*
X255485Y147758D01*
X255396Y148751D01*
X255299Y149744D01*
X255194Y150736D01*
X255081Y151727D01*
X254959Y152717D01*
X254829Y153706D01*
X254690Y154694D01*
X254543Y155680D01*
X254388Y156666D01*
X254225Y157650D01*
X254053Y158632D01*
X253873Y159613D01*
X253684Y160593D01*
X253488Y161571D01*
X253283Y162547D01*
X253070Y163521D01*
X252848Y164494D01*
X252619Y165464D01*
X252381Y166433D01*
X252135Y167400D01*
X251881Y168365D01*
X251619Y169327D01*
X251348Y170287D01*
X251070Y171245D01*
X250783Y172200D01*
X250489Y173153D01*
X250186Y174104D01*
X249876Y175051D01*
X249557Y175997D01*
X249230Y176939D01*
X248896Y177879D01*
X248553Y178816D01*
X248203Y179750D01*
X247845Y180680D01*
X247479Y181608D01*
X247105Y182533D01*
X246723Y183455D01*
X246334Y184373D01*
X245936Y185288D01*
X245532Y186199D01*
X245119Y187107D01*
X244699Y188012D01*
X244271Y188913D01*
X243835Y189810D01*
X243392Y190704D01*
X242942Y191594D01*
X242483Y192480D01*
X242018Y193362D01*
X241545Y194240D01*
X241065Y195114D01*
X240577Y195984D01*
X240082Y196850D01*
X239579Y197712D01*
X239070Y198570D01*
X238553Y199423D01*
X238029Y200271D01*
X237498Y201116D01*
X236959Y201955D01*
X236414Y202790D01*
X235862Y203621D01*
X235302Y204447D01*
X234736Y205268D01*
X234163Y206084D01*
X233582Y206896D01*
X232996Y207702D01*
X232402Y208504D01*
X231801Y209300D01*
X231194Y210091D01*
X230580Y210877D01*
X229960Y211658D01*
X229332Y212434D01*
X228699Y213205D01*
X228059Y213969D01*
X227412Y214729D01*
X226760Y215483D01*
X226100Y216232D01*
X225435Y216975D01*
X224763Y217712D01*
X224085Y218443D01*
X223401Y219169D01*
X222710Y219889D01*
X222014Y220604D01*
X221312Y221312D01*
X220603Y222014D01*
X219889Y222710D01*
X219169Y223401D01*
X218443Y224085D01*
X217712Y224763D01*
X216975Y225435D01*
X216232Y226100D01*
X215483Y226760D01*
X214729Y227412D01*
X213969Y228059D01*
X213204Y228699D01*
X212434Y229333D01*
X211658Y229960D01*
X210877Y230580D01*
X210091Y231194D01*
X209300Y231801D01*
X208504Y232402D01*
X207702Y232996D01*
X206895Y233582D01*
X206084Y234163D01*
X205268Y234736D01*
X204447Y235302D01*
X203621Y235862D01*
X202790Y236414D01*
X201955Y236959D01*
X201115Y237498D01*
X200271Y238029D01*
X199423Y238553D01*
X198570Y239070D01*
X197712Y239579D01*
X196850Y240082D01*
X195984Y240577D01*
X195114Y241065D01*
X194240Y241545D01*
X193362Y242018D01*
X192480Y242483D01*
X191594Y242942D01*
X190704Y243392D01*
X189810Y243835D01*
X188913Y244271D01*
X188012Y244699D01*
X187107Y245119D01*
X186199Y245532D01*
X185288Y245936D01*
X184373Y246334D01*
X183454Y246723D01*
X182533Y247105D01*
X181608Y247479D01*
X180680Y247845D01*
X179749Y248203D01*
X178815Y248553D01*
X177879Y248896D01*
X176939Y249231D01*
X175996Y249557D01*
X175051Y249876D01*
X174103Y250186D01*
X173153Y250489D01*
X172200Y250783D01*
X171245Y251070D01*
X170287Y251348D01*
X169327Y251619D01*
X168364Y251881D01*
X167400Y252135D01*
X166433Y252381D01*
X165464Y252619D01*
X164494Y252848D01*
X163521Y253070D01*
X162547Y253283D01*
X161571Y253488D01*
X160593Y253684D01*
X159613Y253873D01*
X158632Y254053D01*
X157650Y254225D01*
X156666Y254388D01*
X155680Y254543D01*
X154694Y254690D01*
X153706Y254829D01*
X152717Y254959D01*
X151727Y255081D01*
X150736Y255194D01*
X149744Y255299D01*
X148751Y255396D01*
X147758Y255485D01*
X146764Y255564D01*
X145769Y255636D01*
X144773Y255699D01*
X143777Y255754D01*
X142781Y255800D01*
X141784Y255838D01*
X140787Y255868D01*
X139790Y255889D01*
X138793Y255901D01*
X137795Y255906D01*
X136798Y255901D01*
X135801Y255889D01*
X134803Y255868D01*
X133806Y255838D01*
X132809Y255800D01*
X131813Y255754D01*
X130817Y255699D01*
X129822Y255636D01*
X128827Y255564D01*
X127832Y255485D01*
X126839Y255396D01*
X125846Y255299D01*
X124854Y255194D01*
X123863Y255081D01*
X122873Y254959D01*
X121885Y254829D01*
X120897Y254690D01*
X119910Y254543D01*
X118925Y254388D01*
X117941Y254225D01*
X116958Y254053D01*
X115977Y253873D01*
X114998Y253684D01*
X114020Y253488D01*
X113044Y253283D01*
X112069Y253070D01*
X111097Y252848D01*
X110126Y252619D01*
X109157Y252381D01*
X108191Y252135D01*
X107226Y251881D01*
X106264Y251619D01*
X105304Y251348D01*
X104346Y251070D01*
X103390Y250783D01*
X102437Y250489D01*
X101487Y250186D01*
X100539Y249876D01*
X99594Y249557D01*
X98651Y249230D01*
X97712Y248896D01*
X96775Y248553D01*
X95841Y248203D01*
X94910Y247845D01*
X93982Y247479D01*
X93058Y247105D01*
X92136Y246723D01*
X91218Y246334D01*
X90303Y245936D01*
X89391Y245531D01*
X88483Y245119D01*
X87578Y244699D01*
X86677Y244271D01*
X85780Y243835D01*
X84886Y243392D01*
X83997Y242941D01*
X83111Y242483D01*
X82228Y242018D01*
X81350Y241545D01*
X80476Y241065D01*
X79606Y240577D01*
X78740Y240082D01*
X77878Y239579D01*
X77021Y239070D01*
X76168Y238553D01*
X75319Y238029D01*
X74475Y237498D01*
X73635Y236959D01*
X72800Y236414D01*
X71969Y235862D01*
X71144Y235302D01*
X70323Y234736D01*
X69506Y234162D01*
X68695Y233582D01*
X67888Y232995D01*
X67087Y232402D01*
X66291Y231801D01*
X65499Y231194D01*
X64713Y230580D01*
X63932Y229960D01*
X63156Y229332D01*
X62386Y228699D01*
X61621Y228059D01*
X60861Y227412D01*
X60107Y226759D01*
X59359Y226100D01*
X58616Y225435D01*
X57879Y224763D01*
X57147Y224085D01*
X56421Y223401D01*
X55701Y222710D01*
X54987Y222014D01*
X54279Y221312D01*
X53576Y220603D01*
X52880Y219889D01*
X52190Y219169D01*
X51506Y218443D01*
X50828Y217712D01*
X50156Y216974D01*
X49490Y216232D01*
X48831Y215483D01*
X48178Y214729D01*
X47532Y213969D01*
X46891Y213204D01*
X46258Y212434D01*
X45631Y211658D01*
X45010Y210877D01*
X44396Y210091D01*
X43789Y209300D01*
X43189Y208503D01*
X42595Y207702D01*
X42008Y206895D01*
X41428Y206084D01*
X40855Y205268D01*
X40288Y204447D01*
X39729Y203621D01*
X39176Y202790D01*
X38631Y201955D01*
X38093Y201115D01*
X37562Y200271D01*
X37038Y199423D01*
X36521Y198569D01*
X36011Y197712D01*
X35509Y196850D01*
X35014Y195984D01*
X34526Y195114D01*
X34045Y194240D01*
X33573Y193362D01*
X33107Y192480D01*
X32649Y191594D01*
X32198Y190704D01*
X31755Y189810D01*
X31320Y188913D01*
X30892Y188012D01*
X30472Y187107D01*
X30059Y186199D01*
X29654Y185288D01*
X29257Y184373D01*
X28867Y183454D01*
X28486Y182533D01*
X28112Y181608D01*
X27746Y180680D01*
X27387Y179749D01*
X27037Y178815D01*
X26695Y177879D01*
X26360Y176939D01*
X26033Y175996D01*
X25715Y175051D01*
X25404Y174103D01*
X25102Y173153D01*
X24807Y172200D01*
X24521Y171245D01*
X24242Y170287D01*
X23972Y169327D01*
X23709Y168364D01*
X23455Y167400D01*
X23210Y166433D01*
X22972Y165464D01*
X22742Y164494D01*
X22521Y163521D01*
X22308Y162547D01*
X22103Y161571D01*
X21906Y160593D01*
X21718Y159613D01*
X21538Y158632D01*
X21366Y157650D01*
X21202Y156666D01*
X21047Y155680D01*
X20900Y154694D01*
X20762Y153706D01*
X20631Y152717D01*
X20510Y151727D01*
X20396Y150736D01*
X20291Y149744D01*
X20194Y148751D01*
X20106Y147758D01*
X20026Y146764D01*
X19954Y145769D01*
X19891Y144773D01*
X19837Y143777D01*
X19790Y142781D01*
X19752Y141784D01*
X19723Y140787D01*
X19702Y139790D01*
X19689Y138793D01*
X19685Y137795D01*
X19689Y136798D01*
X19702Y135801D01*
X19723Y134803D01*
X19752Y133806D01*
X19790Y132809D01*
X19837Y131813D01*
X19891Y130817D01*
X19954Y129822D01*
X20026Y128827D01*
X20106Y127832D01*
X20194Y126839D01*
X20291Y125846D01*
X20396Y124854D01*
X20510Y123863D01*
X20631Y122873D01*
X20762Y121885D01*
X20900Y120897D01*
X21047Y119910D01*
X21202Y118925D01*
X21366Y117941D01*
X21538Y116958D01*
X21718Y115977D01*
X21906Y114998D01*
X22103Y114020D01*
X22308Y113044D01*
X22521Y112069D01*
X22742Y111097D01*
X22972Y110126D01*
X23210Y109157D01*
X23456Y108191D01*
X23710Y107226D01*
X23972Y106264D01*
X24242Y105304D01*
X24521Y104346D01*
X24807Y103390D01*
X25102Y102437D01*
X25404Y101487D01*
X25715Y100539D01*
X26034Y99594D01*
X26360Y98651D01*
X26695Y97712D01*
X27037Y96775D01*
X27387Y95841D01*
X27746Y94910D01*
X28112Y93982D01*
X28486Y93058D01*
X28868Y92136D01*
X29257Y91218D01*
X29654Y90303D01*
X30059Y89391D01*
X30472Y88483D01*
X30892Y87578D01*
X31320Y86677D01*
X31755Y85780D01*
X32199Y84886D01*
X32649Y83997D01*
X33107Y83111D01*
X33573Y82228D01*
X34046Y81350D01*
X34526Y80476D01*
X35014Y79606D01*
X35509Y78740D01*
X36011Y77878D01*
X36521Y77021D01*
X37038Y76168D01*
X37562Y75319D01*
X38093Y74475D01*
X38631Y73635D01*
X39177Y72800D01*
X39729Y71969D01*
X40288Y71144D01*
X40855Y70323D01*
X41428Y69506D01*
X42008Y68695D01*
X42595Y67888D01*
X43189Y67087D01*
X43789Y66291D01*
X44397Y65499D01*
X45011Y64713D01*
X45631Y63932D01*
X46258Y63156D01*
X46892Y62386D01*
X47532Y61621D01*
X48178Y60861D01*
X48831Y60107D01*
X49490Y59359D01*
X50156Y58616D01*
X50828Y57879D01*
X51506Y57147D01*
X52190Y56421D01*
X52880Y55701D01*
X53576Y54987D01*
X54279Y54279D01*
X54987Y53576D01*
X55701Y52880D01*
X56421Y52190D01*
X57147Y51506D01*
X57879Y50828D01*
X58616Y50156D01*
X59359Y49490D01*
X60107Y48831D01*
X60862Y48178D01*
X61621Y47532D01*
X62386Y46891D01*
X63156Y46258D01*
X63932Y45631D01*
X64713Y45010D01*
X65499Y44396D01*
X66291Y43789D01*
X67087Y43189D01*
X67889Y42595D01*
X68695Y42008D01*
X69507Y41428D01*
X70323Y40855D01*
X71144Y40288D01*
X71970Y39729D01*
X72800Y39176D01*
X73635Y38631D01*
X74475Y38093D01*
X75319Y37562D01*
X76168Y37038D01*
X77021Y36521D01*
X77879Y36011D01*
X78740Y35509D01*
X79606Y35014D01*
X80476Y34526D01*
X81350Y34045D01*
X82229Y33573D01*
X83111Y33107D01*
X83997Y32649D01*
X84887Y32198D01*
X85780Y31755D01*
X86678Y31320D01*
X87579Y30892D01*
X88483Y30472D01*
X89391Y30059D01*
X90303Y29654D01*
X91218Y29257D01*
X92136Y28867D01*
X93058Y28486D01*
X93982Y28112D01*
X94910Y27746D01*
X95841Y27387D01*
X96775Y27037D01*
X97712Y26695D01*
X98652Y26360D01*
X99594Y26033D01*
X100539Y25715D01*
X101487Y25404D01*
X102438Y25102D01*
X103391Y24807D01*
X104346Y24521D01*
X105304Y24242D01*
X106264Y23972D01*
X107226Y23709D01*
X108191Y23455D01*
X109158Y23210D01*
X110126Y22972D01*
X111097Y22742D01*
X112069Y22521D01*
X113044Y22308D01*
X114020Y22103D01*
X114998Y21906D01*
X115977Y21718D01*
X116958Y21538D01*
X117941Y21366D01*
X118925Y21202D01*
X119910Y21047D01*
X120896Y20900D01*
X121884Y20762D01*
X122873Y20631D01*
X123863Y20510D01*
X124854Y20396D01*
X125846Y20291D01*
X126839Y20194D01*
X127832Y20106D01*
X128826Y20026D01*
X129821Y19954D01*
X130817Y19891D01*
X131813Y19837D01*
X132809Y19790D01*
X133806Y19752D01*
X134803Y19723D01*
X135800Y19702D01*
X136797Y19689D01*
X137795Y19685D01*
D18*
X138577Y222244D02*
X135245D01*
X134579Y221578D01*
Y220245D01*
X135245Y219578D01*
X138577D01*
X137911Y218245D02*
X138577Y217579D01*
Y216246D01*
X137911Y215580D01*
X137244D01*
X136578Y216246D01*
Y216913D01*
Y216246D01*
X135912Y215580D01*
X135245D01*
X134579Y216246D01*
Y217579D01*
X135245Y218245D01*
D19*
X162067Y64042D02*
Y61543D01*
X162567Y61043D01*
X163566D01*
X164066Y61543D01*
Y64042D01*
X166565Y61043D02*
Y64042D01*
X165066Y62543D01*
X167065D01*
D23*
X130000Y56500D02*
D03*
Y58468D02*
D03*
Y60437D02*
D03*
Y62406D02*
D03*
Y64374D02*
D03*
X141614D02*
D03*
Y62406D02*
D03*
Y60437D02*
D03*
Y58468D02*
D03*
Y56500D02*
D03*
D27*
X120000Y61669D02*
D03*
Y70331D02*
D03*
D33*
X103654Y245500D02*
D03*
X110346D02*
D03*
X90846Y136500D02*
D03*
X84154D02*
D03*
X206654Y182000D02*
D03*
X213346D02*
D03*
X206654Y176500D02*
D03*
X213346D02*
D03*
X206654Y187500D02*
D03*
X213346D02*
D03*
X206654Y193000D02*
D03*
X213346D02*
D03*
X206654Y198500D02*
D03*
X213346D02*
D03*
X156346Y226000D02*
D03*
X149654D02*
D03*
X200846Y201000D02*
D03*
X194154D02*
D03*
X213346Y171000D02*
D03*
X206654D02*
D03*
X84154Y142000D02*
D03*
X90846D02*
D03*
X213346Y204000D02*
D03*
X206654D02*
D03*
X84154Y125500D02*
D03*
X90846D02*
D03*
X84154Y131000D02*
D03*
X90846D02*
D03*
X156346Y231000D02*
D03*
X149654D02*
D03*
X156346Y236000D02*
D03*
X149654D02*
D03*
X213346Y209500D02*
D03*
X206654D02*
D03*
X112004Y221000D02*
D03*
X118697D02*
D03*
X112004Y216000D02*
D03*
X118697D02*
D03*
X95654Y205000D02*
D03*
X102346D02*
D03*
X68846Y212500D02*
D03*
X62154D02*
D03*
X68846Y207500D02*
D03*
X62154D02*
D03*
Y202000D02*
D03*
X68846D02*
D03*
X49346Y195500D02*
D03*
X42654D02*
D03*
X184654Y151500D02*
D03*
X191346D02*
D03*
X90846Y119000D02*
D03*
X84154D02*
D03*
X167154Y78000D02*
D03*
X173846D02*
D03*
X112004Y211000D02*
D03*
X118697D02*
D03*
X108654Y200500D02*
D03*
X115346D02*
D03*
X75654Y195500D02*
D03*
X82346D02*
D03*
X62654Y192500D02*
D03*
X69346D02*
D03*
D41*
X152201Y46500D02*
D03*
X164799D02*
D03*
D42*
X141012Y49000D02*
D03*
X129988D02*
D03*
D43*
X207146Y216000D02*
D03*
X212854D02*
D03*
D46*
X112500Y45846D02*
D03*
Y39154D02*
D03*
X195500Y177654D02*
D03*
Y184346D02*
D03*
X186000Y211610D02*
D03*
Y204917D02*
D03*
X108500Y226654D02*
D03*
Y233346D02*
D03*
X96500Y232346D02*
D03*
Y225654D02*
D03*
X118500Y233346D02*
D03*
Y226654D02*
D03*
X113500Y233346D02*
D03*
Y226654D02*
D03*
X82500Y216154D02*
D03*
Y222846D02*
D03*
Y209846D02*
D03*
Y203154D02*
D03*
X69000Y217154D02*
D03*
Y223846D02*
D03*
X50500Y207846D02*
D03*
Y201154D02*
D03*
X184500Y145346D02*
D03*
Y138654D02*
D03*
X170000Y240846D02*
D03*
Y234154D02*
D03*
D72*
X102500Y211500D02*
D03*
Y216500D02*
D03*
Y221500D02*
D03*
Y226500D02*
D03*
Y231500D02*
D03*
X123500Y239500D02*
D03*
X118500D02*
D03*
X113500D02*
D03*
X108500D02*
D03*
X103500D02*
D03*
X89131Y202500D02*
D03*
Y207500D02*
D03*
Y212500D02*
D03*
Y217500D02*
D03*
Y222500D02*
D03*
X75500Y202500D02*
D03*
Y207500D02*
D03*
Y212500D02*
D03*
Y217500D02*
D03*
Y222500D02*
D03*
X56000Y213000D02*
D03*
Y208000D02*
D03*
Y203000D02*
D03*
Y198000D02*
D03*
Y193000D02*
D03*
X163000Y221000D02*
D03*
Y226000D02*
D03*
Y231000D02*
D03*
Y236000D02*
D03*
Y241000D02*
D03*
D80*
X135807Y60437D02*
D03*
D85*
X173846Y78000D02*
X190500D01*
X206680Y207500D02*
Y212205D01*
X230953Y190406D02*
X231000Y190453D01*
X186890Y212205D02*
X206680D01*
X230976Y177429D02*
X231000Y177453D01*
X230953Y184094D02*
X231000Y184047D01*
X200846Y201000D02*
X206654D01*
X195500Y177154D02*
X206654D01*
X81859Y222552D02*
X84522D01*
X49728Y200857D02*
Y201154D01*
X132677Y70823D02*
X141843D01*
X195000Y89000D02*
Y104402D01*
X230500Y124870D02*
Y132221D01*
X221130Y120047D02*
X227750Y126667D01*
X221130Y115500D02*
X230500Y124870D01*
X66000Y74000D02*
X112500D01*
X68700Y51000D02*
X119500D01*
X150701Y44000D02*
X152701Y46000D01*
X141614Y64374D02*
Y70595D01*
Y62406D02*
Y64374D01*
Y61024D02*
Y62406D01*
Y70595D02*
X141843Y70823D01*
X103654Y239654D02*
Y245500D01*
X162496Y115492D02*
X170488Y107500D01*
X155118Y115492D02*
X162496D01*
X171454Y110069D02*
X171497Y110112D01*
X174931D01*
X170488Y107500D02*
X178500D01*
X174931Y110112D02*
X175000Y110181D01*
X161067Y120457D02*
X171454Y110069D01*
X142000Y88500D02*
X151000Y97500D01*
X133000Y100500D02*
X180976D01*
X123000Y90500D02*
X133000Y100500D01*
X180976D02*
X188638Y108162D01*
X133165Y41000D02*
X168216D01*
X122480Y30315D02*
X133165Y41000D01*
X230319Y132402D02*
Y132500D01*
X227750Y127431D02*
X227819Y127500D01*
X230319Y132402D02*
X230500Y132221D01*
X227750Y126667D02*
Y127431D01*
X194384Y141435D02*
X195000Y140819D01*
X194384Y141435D02*
Y144931D01*
X194315Y145000D02*
X194384Y144931D01*
X195000Y104598D02*
Y140819D01*
X189638Y124398D02*
X192142Y126902D01*
X189638Y109292D02*
Y124398D01*
X188638Y108292D02*
X189638Y109292D01*
X172542Y119542D02*
X178763Y125763D01*
X184966Y132000D02*
X185000D01*
X178763Y125796D02*
X184966Y132000D01*
X120423Y70754D02*
X132607D01*
X129695Y64882D02*
Y67842D01*
X132607Y70754D01*
X62500Y90500D02*
X69500Y83500D01*
X141000D01*
X112500Y74000D02*
X118000Y79500D01*
X179433Y52217D02*
Y68531D01*
X168216Y41000D02*
X179433Y52217D01*
X119500Y51000D02*
X126500Y44000D01*
X150701D01*
X120000Y70331D02*
X120423Y70754D01*
X68500Y90500D02*
X123000D01*
X206680Y212205D02*
Y215534D01*
X96500Y232346D02*
X100950D01*
X96000D02*
X96500D01*
X116477Y120472D02*
X116500Y120449D01*
Y120472D01*
Y116492D02*
Y120449D01*
Y116492D02*
X116793Y116199D01*
X119765D01*
X115492Y120472D02*
X116477D01*
X119765Y116199D02*
X120472Y115492D01*
X121161Y116181D01*
X123622D01*
X180139Y217472D02*
X186000Y211610D01*
X180069Y217736D02*
X180139Y217667D01*
Y217472D02*
Y217667D01*
X186000Y211610D02*
X186000D01*
X76156Y189953D02*
X134355D01*
X141402Y197000D01*
X73656Y187453D02*
X76156Y189953D01*
X82500Y203154D02*
X88657Y196996D01*
X123166Y196995D02*
X131033D01*
X88657Y196996D02*
X112000D01*
Y202818D01*
Y196996D02*
X122902D01*
X101575Y204228D02*
X102346Y205000D01*
X131033Y196995D02*
X131034Y196994D01*
X118500Y233346D02*
Y239500D01*
X113500Y233346D02*
Y239500D01*
X108500Y233346D02*
Y239500D01*
X178763Y125763D02*
Y125796D01*
X192142Y126902D02*
Y127000D01*
X55500Y181000D02*
X58104D01*
X43000D02*
X55500D01*
X206654Y177154D02*
Y179974D01*
Y176500D02*
Y177154D01*
X102346Y205000D02*
X109818D01*
X112000Y202818D01*
X47228Y210239D02*
X49989Y213000D01*
X56000D01*
X47228Y201075D02*
Y210239D01*
X47011Y200857D02*
X47228Y201075D01*
X42654Y196500D02*
X47011Y200857D01*
X49728D01*
X161506Y164006D02*
X193506D01*
X161500Y164000D02*
X161506Y164006D01*
X83846Y217000D02*
X84346Y217500D01*
X89131D01*
X100950Y225654D02*
X101796Y226500D01*
X96000Y225654D02*
X100950D01*
X167000Y94083D02*
Y94181D01*
Y94083D02*
X167154Y93929D01*
Y78000D02*
Y93929D01*
X152000Y179000D02*
X178500D01*
X193506Y164006D02*
X198000Y168500D01*
X206654Y201000D02*
Y201974D01*
Y198500D02*
Y201000D01*
X120047Y151953D02*
X133500Y138500D01*
X116181Y151969D02*
X116197Y151953D01*
X120047D01*
X178500Y179000D02*
X187000Y187500D01*
X206654Y202026D02*
X206680Y202000D01*
Y215534D02*
X207146Y216000D01*
X206654Y204000D02*
Y207474D01*
Y193000D02*
Y196474D01*
Y187500D02*
Y190974D01*
Y174526D02*
Y176500D01*
Y182000D02*
Y185474D01*
Y180026D02*
Y182000D01*
X211154Y166500D02*
X231000D01*
X206654Y171000D02*
X211154Y166500D01*
X206654Y171000D02*
Y174474D01*
X230976Y166524D02*
X231000Y166500D01*
X230976Y166524D02*
Y177429D01*
X230953Y177500D02*
Y184000D01*
Y184094D02*
Y190406D01*
X188638Y108162D02*
Y108292D01*
X206654Y196526D02*
X206680Y196500D01*
X206654Y196474D02*
X206680Y196500D01*
X206654Y190974D02*
X206680Y191000D01*
X206654Y191026D02*
X206680Y191000D01*
X206654Y207474D02*
X206680Y207500D01*
X206654Y201974D02*
X206680Y202000D01*
X206654Y174474D02*
X206680Y174500D01*
X206654Y174526D02*
X206680Y174500D01*
X206654Y179974D02*
X206680Y180000D01*
X206654Y180026D02*
X206680Y180000D01*
X206654Y185474D02*
X206680Y185500D01*
X206654Y185526D02*
X206680Y185500D01*
X155159Y215257D02*
X155184Y215282D01*
X155114Y215212D02*
X155159Y215257D01*
X149654Y231000D02*
Y236000D01*
Y226500D02*
Y231000D01*
X155114Y213615D02*
Y215212D01*
X149812Y208313D02*
X155114Y213615D01*
X155184Y215282D02*
Y221000D01*
X163000D01*
X149654Y226000D02*
X150425Y225228D01*
X150955D01*
X155184Y221000D01*
X149715Y208382D02*
X149812Y208313D01*
X149487Y208382D02*
X149715D01*
X130020Y208480D02*
X149389D01*
X149487Y208382D01*
X122500Y216000D02*
X130020Y208480D01*
X118697Y216000D02*
X122500D01*
X123500Y231654D02*
Y238317D01*
X92558Y202431D02*
X94489Y200500D01*
X108654D01*
X86100Y209843D02*
X88757Y212500D01*
X82503Y209843D02*
X86100D01*
X88757Y212500D02*
X89131D01*
X82500Y209846D02*
X82503Y209843D01*
X89199Y202431D02*
X92558D01*
X89131Y202500D02*
X89199Y202431D01*
X141221Y192819D02*
X141397Y192995D01*
X133824Y185500D02*
X141143Y192819D01*
X141221D01*
X78000Y185500D02*
X133824D01*
X141397Y192995D02*
X141500D01*
X113500Y226654D02*
X113815D01*
X108500D02*
X113500D01*
X107957D02*
X108500D01*
X156346Y236000D02*
X163000D01*
X100950Y232346D02*
X101796Y231500D01*
X102500D01*
X101796Y226500D02*
X102500D01*
X118697Y216772D02*
X118894Y216575D01*
X118697Y216772D02*
Y221000D01*
X118500Y226654D02*
X123500Y231654D01*
X114043Y226425D02*
X114272Y226654D01*
X113815D02*
X114043Y226425D01*
X107728D02*
X107957Y226654D01*
X114272D02*
X118500D01*
Y221654D02*
Y224807D01*
X107113Y227425D02*
X107728D01*
X108500Y226654D01*
X103039Y231500D02*
X107113Y227425D01*
X102500Y216500D02*
X110154D01*
X102500Y211500D02*
X110154D01*
X102500Y221500D02*
X110154D01*
X206654Y185526D02*
Y187500D01*
Y191026D02*
Y193000D01*
Y196526D02*
Y198500D01*
Y202026D02*
Y204000D01*
X58104Y181000D02*
X96000D01*
X74500Y128654D02*
Y154500D01*
Y128654D02*
X84154Y119000D01*
X74500Y154500D02*
Y161813D01*
X74687Y162000D01*
X74866Y154760D02*
X81776D01*
X74500Y154500D02*
X74606D01*
X74866Y154760D01*
X112500Y45846D02*
X112777Y45569D01*
X74687Y162000D02*
X81535D01*
X81776Y162240D01*
X64700Y55000D02*
X68700Y51000D01*
X64000Y55000D02*
X64700D01*
X115931Y45569D02*
X116000Y45500D01*
X112777Y45569D02*
X115931D01*
X69346Y217500D02*
X75500D01*
X69000Y217154D02*
X69346Y217500D01*
X69000Y223846D02*
X73450D01*
X74796Y222500D02*
X75500D01*
X73450Y223846D02*
X74796Y222500D01*
X60654Y202500D02*
X62154D01*
X58336Y202502D02*
X58338Y202500D01*
X60654D01*
X56000Y203000D02*
X56498Y202502D01*
X58336D01*
X99576Y180066D02*
X113000D01*
X82547Y163038D02*
X99576Y180066D01*
X179433Y68531D02*
X185902Y75000D01*
X186000D01*
X69953Y187453D02*
X73656D01*
X68000Y185500D02*
X69953Y187453D01*
X49846Y195500D02*
X53126D01*
X75500Y196346D02*
Y202500D01*
X89297Y207334D02*
X92320D01*
X95154Y204500D01*
X89131Y207500D02*
X89297Y207334D01*
X84522Y222552D02*
X84574Y222500D01*
X89131D01*
X76204D02*
X81807D01*
X81859Y222552D01*
X50000Y208000D02*
X56000D01*
X56498Y192502D02*
X58336D01*
X58338Y192500D01*
X62654D01*
X56000Y193000D02*
X56498Y192502D01*
X53126Y195500D02*
X55626Y198000D01*
X56000D01*
X112480Y30315D02*
Y39134D01*
X130000Y51488D02*
Y56000D01*
X156346Y231000D02*
X163000D01*
X156346Y226000D02*
X163000D01*
X68846Y207500D02*
X75500D01*
X68846Y212500D02*
X75500D01*
X162000Y241000D02*
X170654D01*
D88*
X146500Y56500D02*
X152201Y50799D01*
Y46500D02*
Y50799D01*
X141614Y56500D02*
X146500D01*
X119500Y51000D02*
X126968Y58468D01*
X128500D01*
X122705Y61169D02*
X123437Y60437D01*
X130000D01*
D89*
X152646Y151354D02*
Y153646D01*
X153384Y154384D01*
X132607Y70754D02*
X132677Y70823D01*
X130000Y64374D02*
X130924D01*
X131225Y64675D01*
X177500Y209736D02*
X177693Y209543D01*
X159364Y154384D02*
X160098Y155118D01*
X153384Y154384D02*
X159364D01*
D92*
X66000Y74000D02*
D03*
X187000Y41000D02*
D03*
D93*
X112480Y30315D02*
D03*
X142480D02*
D03*
X152480D02*
D03*
X162480D02*
D03*
X122480D02*
D03*
X132480D02*
D03*
D94*
X225047Y190500D02*
D03*
Y184000D02*
D03*
Y177500D02*
D03*
D95*
X230953Y190500D02*
D03*
Y184000D02*
D03*
Y177500D02*
D03*
D96*
X87000Y234000D02*
D03*
X43000Y181000D02*
D03*
X233500Y105000D02*
D03*
X187000Y234500D02*
D03*
X68000Y185500D02*
D03*
D97*
X78000D02*
D03*
X57180Y62314D02*
D03*
X50360Y69627D02*
D03*
D98*
X64000Y55000D02*
D03*
D99*
X229854Y84646D02*
D03*
X137795Y244094D02*
D03*
X45736Y84646D02*
D03*
D100*
X137795Y94488D02*
D03*
Y181102D02*
D03*
D101*
X150500Y218500D02*
D03*
X200726Y56274D02*
D03*
X217000Y68500D02*
D03*
X217319Y72976D02*
D03*
X197500Y73500D02*
D03*
X198914Y66414D02*
D03*
X194132Y85338D02*
D03*
X197681Y97000D02*
D03*
X195000Y89000D02*
D03*
X201000Y103000D02*
D03*
X221130Y120047D02*
D03*
X221500Y105500D02*
D03*
X221130Y115500D02*
D03*
X74354Y66146D02*
D03*
X170500Y33500D02*
D03*
Y49000D02*
D03*
X160500Y112811D02*
D03*
X175000Y110181D02*
D03*
X168139Y122958D02*
D03*
X148500Y143000D02*
D03*
X156000Y142000D02*
D03*
X153071Y133071D02*
D03*
X149000Y124795D02*
D03*
X145835Y139000D02*
D03*
X152646Y151354D02*
D03*
X151000Y97500D02*
D03*
X207000Y46500D02*
D03*
X176500Y39000D02*
D03*
X202000Y42000D02*
D03*
X188314Y57594D02*
D03*
X203500Y108500D02*
D03*
X207500Y104500D02*
D03*
X210728Y108500D02*
D03*
X211547Y124787D02*
D03*
X227819Y127500D02*
D03*
X230319Y119500D02*
D03*
Y132500D02*
D03*
X230000Y71500D02*
D03*
X195000Y104500D02*
D03*
X156502Y105681D02*
D03*
X178740Y132500D02*
D03*
X178500Y107500D02*
D03*
X192000D02*
D03*
X172542Y119542D02*
D03*
X127000Y104500D02*
D03*
Y99500D02*
D03*
X148000Y250500D02*
D03*
X153000Y248000D02*
D03*
X126500Y252000D02*
D03*
X77000Y234000D02*
D03*
X57500Y185500D02*
D03*
X32500Y181000D02*
D03*
X37000Y190000D02*
D03*
X49000Y95500D02*
D03*
X34000Y93000D02*
D03*
X128000Y40500D02*
D03*
X106000Y37500D02*
D03*
X106500Y48000D02*
D03*
X138000Y75000D02*
D03*
X127000Y88000D02*
D03*
X149500D02*
D03*
X157500D02*
D03*
X181500Y94500D02*
D03*
X186000D02*
D03*
X229000Y113500D02*
D03*
X234000Y155500D02*
D03*
X225000Y162000D02*
D03*
X243500Y171500D02*
D03*
X244500Y177000D02*
D03*
X242500Y185000D02*
D03*
X237000Y195000D02*
D03*
X231000Y203000D02*
D03*
X197000Y235000D02*
D03*
X190500Y205000D02*
D03*
Y196500D02*
D03*
X183000Y194500D02*
D03*
X131000Y179000D02*
D03*
X108500Y157000D02*
D03*
X115500Y163000D02*
D03*
X185000Y132000D02*
D03*
X166500Y136500D02*
D03*
X211500Y143000D02*
D03*
X203000Y229000D02*
D03*
X212500Y225500D02*
D03*
X143500Y184500D02*
D03*
X179354Y183646D02*
D03*
X179500Y175197D02*
D03*
X173500Y181681D02*
D03*
X127500Y80000D02*
D03*
X141000Y83500D02*
D03*
X118000Y79500D02*
D03*
X118500Y37000D02*
D03*
X175000Y53000D02*
D03*
X158000Y50500D02*
D03*
X146500Y36500D02*
D03*
X213500Y52500D02*
D03*
X167000Y51500D02*
D03*
X132677Y70823D02*
D03*
X142000Y88500D02*
D03*
X132500Y108000D02*
D03*
X139500Y108500D02*
D03*
X111000Y130000D02*
D03*
X112000Y142500D02*
D03*
X180069Y217736D02*
D03*
X181000Y211500D02*
D03*
X177500Y215000D02*
D03*
X130038Y192634D02*
D03*
X131034Y196994D02*
D03*
X123000Y196996D02*
D03*
X123500Y201500D02*
D03*
X194315Y145000D02*
D03*
X185326Y128568D02*
D03*
X199803Y107500D02*
D03*
X159000Y200000D02*
D03*
X155500D02*
D03*
X97500Y214500D02*
D03*
X96000Y218000D02*
D03*
X48000Y187500D02*
D03*
X174500Y243000D02*
D03*
X179500Y233500D02*
D03*
X176500Y225500D02*
D03*
X93500Y158500D02*
D03*
X101500Y164000D02*
D03*
X135000Y131000D02*
D03*
X136000Y150000D02*
D03*
X202000Y154500D02*
D03*
X205000Y151500D02*
D03*
X249000Y160000D02*
D03*
Y151500D02*
D03*
Y145000D02*
D03*
Y137500D02*
D03*
Y129500D02*
D03*
Y123000D02*
D03*
X248500Y112500D02*
D03*
X239500Y93000D02*
D03*
X182000Y33000D02*
D03*
X196500Y42000D02*
D03*
X135500Y48000D02*
D03*
X88000Y63000D02*
D03*
X108000Y56000D02*
D03*
X96000Y69000D02*
D03*
X102500Y79000D02*
D03*
X94000Y97500D02*
D03*
X89500Y97000D02*
D03*
X84000Y96500D02*
D03*
X67500Y178000D02*
D03*
X63500D02*
D03*
X60000Y162000D02*
D03*
X62500Y157500D02*
D03*
X64500Y153500D02*
D03*
X78500Y118500D02*
D03*
X68000Y135000D02*
D03*
X77500Y130500D02*
D03*
X93512Y145261D02*
D03*
X77181Y144000D02*
D03*
X79500Y149000D02*
D03*
X68500Y141500D02*
D03*
X69000Y114000D02*
D03*
X69500Y123000D02*
D03*
X73000Y118500D02*
D03*
X77000Y114000D02*
D03*
X71000Y131000D02*
D03*
X90000Y114000D02*
D03*
X85500D02*
D03*
X82000D02*
D03*
X62500Y90500D02*
D03*
X68500D02*
D03*
X166500Y143000D02*
D03*
X161500Y164000D02*
D03*
X209500Y131000D02*
D03*
X211524Y133024D02*
D03*
X214000Y135055D02*
D03*
X198000Y208000D02*
D03*
X195319Y188500D02*
D03*
X167000Y94181D02*
D03*
X146138Y110659D02*
D03*
X148819Y108360D02*
D03*
X155000Y164500D02*
D03*
X152000Y179000D02*
D03*
X163957Y172531D02*
D03*
X168319Y170000D02*
D03*
X171017Y161325D02*
D03*
X180500Y138500D02*
D03*
X189767Y167201D02*
D03*
X171016Y175197D02*
D03*
X134000Y142000D02*
D03*
X133500Y138500D02*
D03*
X140500Y145000D02*
D03*
X187000Y187500D02*
D03*
X231000Y166500D02*
D03*
X192142Y127000D02*
D03*
Y135500D02*
D03*
X192000Y92181D02*
D03*
X194500Y195000D02*
D03*
X173736Y196264D02*
D03*
X179210Y199500D02*
D03*
X194500Y220500D02*
D03*
X161814Y212314D02*
D03*
X155159Y215257D02*
D03*
X149812Y208313D02*
D03*
X141402Y197000D02*
D03*
X141500Y193000D02*
D03*
X198000Y168500D02*
D03*
X216000Y161710D02*
D03*
X96000Y181000D02*
D03*
X74500Y154500D02*
D03*
X116000Y45500D02*
D03*
X232500Y143000D02*
D03*
X209000Y137000D02*
D03*
X113000Y180066D02*
D03*
X186000Y75000D02*
D03*
X152500Y187319D02*
D03*
X172772Y216319D02*
D03*
X89500Y178000D02*
D03*
X205000Y127000D02*
D03*
X188205Y154500D02*
D03*
X180000Y114500D02*
D03*
X239000Y148000D02*
D03*
X146500Y180000D02*
D03*
X134500Y123500D02*
D03*
D102*
X140516Y220181D02*
D03*
Y216244D02*
D03*
Y212307D02*
D03*
X136579Y220181D02*
D03*
Y216244D02*
D03*
Y212307D02*
D03*
X132642Y220181D02*
D03*
Y216244D02*
D03*
Y212307D02*
D03*
X169535Y62090D02*
D03*
X165598D02*
D03*
Y67996D02*
D03*
X169535D02*
D03*
X167567Y65043D02*
D03*
X135807Y60437D02*
D03*
X137776Y57484D02*
D03*
X133839D02*
D03*
Y63390D02*
D03*
X137776D02*
D03*
D103*
X203331Y65209D02*
D03*
X204724Y66601D02*
D03*
X206116Y67993D02*
D03*
X207507Y69385D02*
D03*
X213075Y74952D02*
D03*
X211683Y73560D02*
D03*
X210291Y72169D02*
D03*
X208899Y70777D02*
D03*
X201940Y63817D02*
D03*
X200548Y62425D02*
D03*
D104*
X222652Y69774D02*
D03*
X205726Y52848D02*
D03*
D105*
X90860Y148000D02*
D03*
X87486D02*
D03*
X71313Y162000D02*
D03*
X74687D02*
D03*
D106*
X190260Y78224D02*
D03*
X197740Y78224D02*
D03*
X194000Y68776D02*
D03*
D107*
X123622Y159409D02*
D03*
X126772D02*
D03*
X136220D02*
D03*
X133071D02*
D03*
X129921D02*
D03*
X148819D02*
D03*
X151969D02*
D03*
X145669D02*
D03*
X142520D02*
D03*
X139370Y116181D02*
D03*
X142520D02*
D03*
X145669D02*
D03*
X151969D02*
D03*
X148819D02*
D03*
X129921D02*
D03*
X133071D02*
D03*
X136220D02*
D03*
X126772D02*
D03*
X123622D02*
D03*
D108*
X155118Y160098D02*
D03*
Y115492D02*
D03*
X120472Y160098D02*
D03*
Y115492D02*
D03*
D109*
X139370Y158130D02*
D03*
D110*
X116181Y151969D02*
D03*
Y148819D02*
D03*
Y139370D02*
D03*
Y142520D02*
D03*
Y145669D02*
D03*
Y126772D02*
D03*
Y123622D02*
D03*
Y129921D02*
D03*
Y133071D02*
D03*
Y136220D02*
D03*
X159409D02*
D03*
Y133071D02*
D03*
Y129921D02*
D03*
Y123622D02*
D03*
Y126772D02*
D03*
Y145669D02*
D03*
Y142520D02*
D03*
Y139370D02*
D03*
Y148819D02*
D03*
Y151969D02*
D03*
D111*
X160098Y155118D02*
D03*
Y120472D02*
D03*
X115492Y155118D02*
D03*
Y120472D02*
D03*
D112*
X147157Y71000D02*
D03*
X141843D02*
D03*
D113*
X167457Y212693D02*
D03*
X174543D02*
D03*
X167457Y199307D02*
D03*
X174543D02*
D03*
D114*
X171000Y206000D02*
D03*
D115*
Y211906D02*
D03*
X172772D02*
D03*
X169228D02*
D03*
Y200094D02*
D03*
X172772D02*
D03*
X171000D02*
D03*
D116*
X176906Y206000D02*
D03*
Y207772D02*
D03*
Y204228D02*
D03*
X165094D02*
D03*
Y207772D02*
D03*
Y206000D02*
D03*
D117*
X177693Y209543D02*
D03*
Y202457D02*
D03*
X164307Y209543D02*
D03*
D118*
Y202457D02*
D03*
D119*
X81776Y154760D02*
D03*
Y158500D02*
D03*
Y162240D02*
D03*
X91224D02*
D03*
Y154760D02*
D03*
D120*
X194000Y69052D02*
X196276D01*
X216743Y68500D02*
X217000D01*
X212683Y72560D02*
X216743Y68500D01*
X205638Y71254D02*
Y84183D01*
X209000Y73460D02*
X210291Y72169D01*
X207319Y83487D02*
X209677Y85845D01*
X209000Y82090D02*
X211358Y84448D01*
X205638Y71254D02*
X207507Y69385D01*
X203957Y84880D02*
X206315Y87238D01*
X205638Y84183D02*
X207996Y86541D01*
X203957Y70151D02*
Y84880D01*
X207319Y72357D02*
Y83487D01*
X207507Y69385D02*
Y69385D01*
X209000Y73460D02*
Y82090D01*
X207319Y72357D02*
X208899Y70777D01*
X210291Y72169D02*
X211291Y71169D01*
X203957Y70151D02*
X206116Y67993D01*
X202000Y69324D02*
X204724Y66601D01*
X200319Y68221D02*
X203331Y65209D01*
X200319Y85997D02*
X202953Y88630D01*
X200319Y68221D02*
Y85997D01*
X202000Y85300D02*
X204634Y87934D01*
X202000Y69324D02*
Y85300D01*
X196276Y69052D02*
X198914Y66414D01*
X211291Y71169D02*
Y71169D01*
X199000Y66500D02*
X199256D01*
X201940Y63817D01*
X206315Y87238D02*
Y97569D01*
X207996Y86541D02*
Y96872D01*
X209677Y85845D02*
Y96176D01*
X211358Y84448D02*
Y95480D01*
X202953Y88630D02*
Y98961D01*
X204634Y87934D02*
Y98265D01*
X211358Y95480D02*
X218043Y102165D01*
X209677Y96176D02*
X216362Y102861D01*
X207996Y96872D02*
X214681Y103557D01*
X206315Y97569D02*
X213000Y104254D01*
X204634Y98265D02*
X210728Y104359D01*
X202953Y98961D02*
X207500Y103508D01*
Y104500D01*
X211524Y133024D02*
X211524D01*
X216362Y128186D01*
Y102861D02*
Y128186D01*
X210728Y104359D02*
Y108500D01*
X211547Y124468D02*
X213000Y123015D01*
X214000Y135000D02*
X218043Y130957D01*
X214681Y103557D02*
Y125819D01*
X218043Y102165D02*
Y130957D01*
X209500Y131000D02*
X214681Y125819D01*
X213000Y104254D02*
Y123015D01*
X211547Y124468D02*
Y124787D01*
X214000Y135000D02*
Y135055D01*
D121*
X155000Y164500D02*
X161000Y158500D01*
X139370Y152483D02*
X142877D01*
X160500Y112742D02*
Y112811D01*
X159409Y126772D02*
X164325D01*
X168139Y122958D01*
X159409Y123622D02*
X163706D01*
X172828Y114500D01*
X148500Y140104D02*
Y143000D01*
Y132965D02*
Y140104D01*
X153071Y133071D02*
Y142289D01*
X142877Y152483D02*
X153071Y142289D01*
X154126Y129921D02*
X159409D01*
X149000Y124795D02*
X154126Y129921D01*
X153071Y133071D02*
X159409D01*
X175071D01*
X172828Y114500D02*
X180000D01*
X138772Y126772D02*
X145835Y133835D01*
Y139000D01*
X139370Y123835D02*
X148500Y132965D01*
X139370Y158130D02*
Y163370D01*
Y152483D02*
Y158130D01*
X179940Y103000D02*
X185595Y108655D01*
X126772Y109228D02*
X133000Y103000D01*
X179940D01*
X137588Y105681D02*
X147472D01*
X156500Y105679D02*
X156502Y105681D01*
X147472D02*
X147474Y105679D01*
X156500D01*
X175071Y133071D02*
X180500Y138500D01*
X180575Y138575D01*
X165210Y175197D02*
X171016D01*
X165195Y175197D02*
X165210Y175181D01*
X120177Y175197D02*
X165195D01*
X171016Y175181D02*
X179333D01*
X179431Y175279D01*
X129937Y110661D02*
X132500Y108098D01*
X129921Y116181D02*
X129937Y116165D01*
Y110661D02*
Y116165D01*
X132500Y108000D02*
Y108098D01*
X136220Y107049D02*
X137588Y105681D01*
X136220Y107049D02*
Y110821D01*
Y116181D01*
X139370D02*
Y123835D01*
X139500Y108500D02*
Y108598D01*
X139370Y108728D02*
X139500Y108598D01*
X139370Y108728D02*
Y116181D01*
X186292Y109481D02*
Y125765D01*
X185595Y108784D02*
X186292Y109481D01*
Y125765D02*
X192072Y131545D01*
X90846Y119000D02*
X95468Y123622D01*
X116181D01*
X134280D01*
X159409Y145669D02*
X184177D01*
X148819Y108360D02*
Y116181D01*
X146069Y110728D02*
X146138Y110659D01*
X144178Y110728D02*
X146069D01*
X161000Y158500D02*
X188000D01*
X155118Y160143D02*
Y164329D01*
X139370Y163370D02*
X140732Y164732D01*
X154661D01*
X154894Y164500D02*
X155000D01*
X154661Y164732D02*
X154894Y164500D01*
X168212Y170000D02*
X168319D01*
X129937Y164472D02*
X135138Y169674D01*
Y169843D02*
X168319Y169803D01*
X129921Y159409D02*
X129937Y159425D01*
Y164472D01*
X137068Y167201D02*
X189767D01*
X120472Y163972D02*
X129032Y172531D01*
X163957D01*
X99740Y154760D02*
X120177Y175197D01*
X133087Y163220D02*
X137068Y167201D01*
X133087Y162856D02*
Y163220D01*
X133071Y159409D02*
Y162840D01*
X133087Y162856D01*
X159409Y151969D02*
X184185D01*
X184654Y151500D01*
X184422Y138575D02*
X184500Y138654D01*
X180575Y138575D02*
X184422D01*
X188000Y158500D02*
X191030Y155470D01*
X120472Y160098D02*
Y163972D01*
X90846Y148000D02*
Y154480D01*
Y142000D02*
Y148000D01*
X99740Y154760D02*
X105681Y148819D01*
X91224Y154760D02*
X99740D01*
X91126D02*
X91224D01*
X90846Y154480D02*
X91126Y154760D01*
X192072Y131545D02*
Y135431D01*
X192142Y135500D01*
X185595Y108655D02*
Y108784D01*
X153513Y110843D02*
X158600D01*
X151984Y112371D02*
X153513Y110843D01*
X158600D02*
X160500Y112742D01*
X134333Y123569D02*
X134382Y123618D01*
X90846Y136500D02*
Y142000D01*
Y131000D02*
Y136500D01*
Y125500D02*
Y131000D01*
X105681Y136047D02*
Y148819D01*
Y136047D02*
X108657Y133071D01*
X116181D01*
X191030Y151816D02*
Y155470D01*
Y151816D02*
X191346Y151500D01*
X151984Y112371D02*
Y116165D01*
X151969Y116181D02*
X151984Y116165D01*
X142535Y112371D02*
X144178Y110728D01*
X134280Y123622D02*
X134333Y123569D01*
X105681Y148819D02*
X116181D01*
X142520Y116181D02*
X142535Y116165D01*
Y112371D02*
Y116165D01*
X126772Y109228D02*
Y116181D01*
X116181Y126772D02*
X138772D01*
X115862Y145988D02*
Y148500D01*
X116181Y148819D01*
X115862Y145988D02*
X116181Y145669D01*
D122*
X68370Y223716D02*
X69000Y224346D01*
X62154Y208000D02*
X62783Y207370D01*
X62154Y208000D02*
Y212500D01*
Y207500D02*
Y208000D01*
X63111Y207370D02*
X67851Y202630D01*
X62783Y207370D02*
X63111D01*
X67851Y202630D02*
X68717D01*
X68846Y202500D01*
X62154Y219843D02*
X66027Y223716D01*
X68370D01*
X62154Y212500D02*
Y219843D01*
X56000Y213000D02*
X61654D01*
D123*
X134823Y54335D02*
D03*
X136791D02*
D03*
D124*
Y66539D02*
D03*
X134823D02*
D03*
M02*
