G04*
G04 #@! TF.GenerationSoftware,Altium Limited,Altium Designer,22.4.2 (48)*
G04*
G04 Layer_Color=65535*
%FSLAX25Y25*%
%MOIN*%
G70*
G04*
G04 #@! TF.SameCoordinates,A5219701-5F61-4D45-AD81-8ED9BC4A77AE*
G04*
G04*
G04 #@! TF.FilePolarity,Positive*
G04*
G01*
G75*
%ADD10C,0.00984*%
%ADD11C,0.00394*%
%ADD12C,0.00394*%
%ADD13C,0.00591*%
%ADD14C,0.00787*%
%ADD15C,0.01000*%
%ADD16C,0.00600*%
%ADD17C,0.00004*%
%ADD18C,0.00700*%
%ADD19C,0.00400*%
D10*
X146618Y228941D02*
X145880Y229367D01*
Y228515D01*
X146618Y228941D01*
X74563Y74000D02*
X73825Y74426D01*
Y73574D01*
X74563Y74000D01*
X145177Y54941D02*
X144439Y55367D01*
Y54515D01*
X145177Y54941D01*
X58524Y97933D02*
X57785Y98359D01*
Y97507D01*
X58524Y97933D01*
X179421Y41000D02*
X178683Y41426D01*
Y40574D01*
X179421Y41000D01*
X87492Y242071D02*
X86754Y242497D01*
Y241645D01*
X87492Y242071D01*
X43492Y189071D02*
X42754Y189497D01*
Y188645D01*
X43492Y189071D01*
X233992Y113071D02*
X233254Y113497D01*
Y112645D01*
X233992Y113071D01*
X187492Y242571D02*
X186754Y242997D01*
Y242145D01*
X187492Y242571D01*
D11*
X232976Y127953D02*
Y127559D01*
Y127953D01*
X252465Y125197D02*
Y150394D01*
X235535Y154134D02*
X244000D01*
X235535Y151181D02*
Y154134D01*
Y121457D02*
Y125197D01*
Y121457D02*
X244000D01*
X68137Y50390D02*
X67177Y49496D01*
X67848Y48776D01*
X68104Y49463D01*
X68344Y49687D01*
X68808Y49671D01*
X69255Y49191D01*
X69239Y48728D01*
X68759Y48280D01*
X68296Y48296D01*
X68616Y50838D02*
X69511Y49878D01*
X70438Y49846D01*
X70471Y50773D01*
X69576Y51732D01*
X58177Y57496D02*
X59519Y56056D01*
X60239Y56727D01*
X60255Y57191D01*
X59360Y58151D01*
X58897Y58167D01*
X58177Y57496D01*
X59617Y58838D02*
X60096Y59285D01*
X59856Y59061D01*
X61199Y57622D01*
X60959Y57398D01*
X61438Y57846D01*
X62158Y58517D02*
X60816Y59956D01*
X63117Y59412D01*
X61775Y60851D01*
X52360Y65650D02*
X51897Y65667D01*
X51417Y65219D01*
X51401Y64756D01*
X52296Y63796D01*
X52759Y63780D01*
X53239Y64227D01*
X53255Y64691D01*
X52808Y65171D01*
X52328Y64723D01*
X53959Y64899D02*
X52617Y66338D01*
X54918Y65793D01*
X53576Y67232D01*
X54056Y67680D02*
X55398Y66241D01*
X56117Y66912D01*
X56134Y67375D01*
X55239Y68335D01*
X54775Y68351D01*
X54056Y67680D01*
D12*
X159496Y71106D02*
D03*
D13*
X178279Y113386D02*
X177860Y114256D01*
X176918Y114471D01*
X176162Y113869D01*
Y112903D01*
X176918Y112300D01*
X177860Y112515D01*
X178279Y113386D01*
X212606Y186756D02*
X213394D01*
X212606Y181244D02*
X213394D01*
X212606Y180256D02*
X213394D01*
X212606Y174744D02*
X213394D01*
X212606Y193256D02*
X213394D01*
X212606Y187744D02*
X213394D01*
X163106Y176031D02*
X163894D01*
X163106Y179968D02*
X163894D01*
X216929Y117717D02*
Y121260D01*
X213386Y117717D02*
X216929D01*
X213386Y157874D02*
X216929D01*
Y154331D02*
Y157874D01*
X176772D02*
X180315D01*
X176772Y154331D02*
Y157874D01*
Y117717D02*
Y121260D01*
Y117717D02*
X180315D01*
X163106Y187303D02*
X163894D01*
X163106Y191240D02*
X163894D01*
X163106Y182032D02*
X163894D01*
X163106Y185969D02*
X163894D01*
X234106Y162469D02*
X234894D01*
X234106Y158532D02*
X234894D01*
X227032Y151106D02*
Y151894D01*
X230969Y151106D02*
Y151894D01*
X188969Y178106D02*
Y178894D01*
X185032Y178106D02*
Y178894D01*
X155531Y207106D02*
Y207894D01*
X159468Y207106D02*
Y207894D01*
D14*
X145595Y226382D02*
X146716D01*
Y225260D02*
Y226382D01*
Y206106D02*
Y207228D01*
X145595Y206106D02*
X146716D01*
X126441D02*
X127563D01*
X126441D02*
Y207228D01*
Y226382D02*
X127563D01*
X126441Y225260D02*
Y226382D01*
X71512Y68488D02*
Y79512D01*
X60488Y68488D02*
X71512D01*
X60488D02*
Y79512D01*
X71512D01*
X158071Y58484D02*
Y60059D01*
X146260D02*
X158071D01*
X146260Y58484D02*
X158071D01*
X146260D02*
Y60059D01*
X174260Y71106D02*
Y71736D01*
Y58350D02*
Y58980D01*
X160874Y58350D02*
Y58980D01*
Y71106D02*
Y71736D01*
X163039D01*
X172095D02*
X174260D01*
X172095Y58350D02*
X174260D01*
X160874D02*
X163039D01*
X103508Y180685D02*
X116106D01*
X103508Y190823D02*
Y191315D01*
Y180685D02*
Y181177D01*
X112858Y191315D02*
X116106D01*
X103508D02*
X106756D01*
X116106Y190823D02*
Y191315D01*
Y180685D02*
Y181177D01*
X28346Y102165D02*
X54783D01*
X126280D02*
X129134D01*
Y163543D02*
Y173425D01*
Y102165D02*
Y112047D01*
X28346Y173425D02*
X54783D01*
X126280D02*
X129134D01*
X28346Y102165D02*
Y173425D01*
X158547Y48654D02*
Y55347D01*
X164453Y48654D02*
Y55347D01*
X181488Y35488D02*
Y46512D01*
X192512D01*
Y35488D02*
Y46512D01*
X181488Y35488D02*
X192512D01*
X183902Y79697D02*
X188232D01*
X183902Y86390D02*
X188232D01*
X164335Y74457D02*
X168665D01*
X164335Y81543D02*
X168665D01*
X81488Y228488D02*
Y239512D01*
Y228488D02*
X92512D01*
Y239512D01*
X81488D02*
X92512D01*
X37488Y175488D02*
Y186512D01*
Y175488D02*
X48512D01*
Y186512D01*
X37488D02*
X48512D01*
X227988Y99488D02*
Y110512D01*
Y99488D02*
X239012D01*
Y110512D01*
X227988D02*
X239012D01*
X181488Y228988D02*
Y240012D01*
Y228988D02*
X192512D01*
Y240012D01*
X181488D02*
X192512D01*
X83000Y180500D02*
Y190500D01*
X63000Y180500D02*
X83000D01*
X63000D02*
Y190500D01*
X83000D01*
X50607Y76694D02*
X71067Y54753D01*
X43293Y69874D02*
X50607Y76694D01*
X43293Y69874D02*
X63753Y47933D01*
X71067Y54753D01*
X75201Y95823D02*
Y96315D01*
Y85685D02*
Y86177D01*
X84551Y85685D02*
X87799D01*
X75201D02*
X78449D01*
X87799Y95823D02*
Y96315D01*
Y85685D02*
Y86177D01*
X75201Y96315D02*
X87799D01*
X147799Y234712D02*
Y231432D01*
X148455Y230776D01*
X149767D01*
X150423Y231432D01*
Y234712D01*
X151735Y234056D02*
X152391Y234712D01*
X153703D01*
X154358Y234056D01*
Y233400D01*
X153703Y232744D01*
X153047D01*
X153703D01*
X154358Y232088D01*
Y231432D01*
X153703Y230776D01*
X152391D01*
X151735Y231432D01*
X103787Y63067D02*
X104443Y63723D01*
X105755D01*
X106411Y63067D01*
Y62411D01*
X105755Y61755D01*
X105099D01*
X105755D01*
X106411Y61099D01*
Y60443D01*
X105755Y59787D01*
X104443D01*
X103787Y60443D01*
X107723Y63723D02*
Y61099D01*
X109035Y59787D01*
X110347Y61099D01*
Y63723D01*
X111659Y63067D02*
X112315Y63723D01*
X113627D01*
X114283Y63067D01*
Y62411D01*
X113627Y61755D01*
X112971D01*
X113627D01*
X114283Y61099D01*
Y60443D01*
X113627Y59787D01*
X112315D01*
X111659Y60443D01*
X62287Y195723D02*
X64911D01*
X63599D01*
Y191787D01*
X66223Y195723D02*
X68847Y191787D01*
Y195723D02*
X66223Y191787D01*
X74095D02*
Y195723D01*
X76063D01*
X76718Y195067D01*
Y193755D01*
X76063Y193099D01*
X74095D01*
X75406D02*
X76718Y191787D01*
X78030Y195723D02*
X80654Y191787D01*
Y195723D02*
X78030Y191787D01*
X111433Y40411D02*
X110777Y39755D01*
Y38443D01*
X111433Y37787D01*
X112089D01*
X112745Y38443D01*
Y39755D01*
X113401Y40411D01*
X114057D01*
X114713Y39755D01*
Y38443D01*
X114057Y37787D01*
X110777Y41723D02*
X114713D01*
Y43691D01*
X114057Y44347D01*
X111433D01*
X110777Y43691D01*
Y41723D01*
X114713Y45659D02*
X112089D01*
X110777Y46971D01*
X112089Y48283D01*
X114713D01*
X112745D01*
Y45659D01*
X121333Y40411D02*
X120677Y39755D01*
Y38443D01*
X121333Y37787D01*
X121989D01*
X122645Y38443D01*
Y39755D01*
X123301Y40411D01*
X123957D01*
X124613Y39755D01*
Y38443D01*
X123957Y37787D01*
X121333Y44347D02*
X120677Y43691D01*
Y42379D01*
X121333Y41723D01*
X123957D01*
X124613Y42379D01*
Y43691D01*
X123957Y44347D01*
X120677Y45659D02*
X124613D01*
Y48283D01*
X164213Y37787D02*
X160277D01*
Y39755D01*
X160933Y40411D01*
X162245D01*
X162901Y39755D01*
Y37787D01*
Y39099D02*
X164213Y40411D01*
X160277Y41723D02*
X164213Y44347D01*
X160277D02*
X164213Y41723D01*
X150377Y37787D02*
Y40411D01*
Y39099D01*
X154313D01*
X150377Y41723D02*
X154313Y44347D01*
X150377D02*
X154313Y41723D01*
X141133Y40411D02*
X140477Y39755D01*
Y38443D01*
X141133Y37787D01*
X143757D01*
X144413Y38443D01*
Y39755D01*
X143757Y40411D01*
X142445D01*
Y39099D01*
X144413Y41723D02*
X140477D01*
X144413Y44347D01*
X140477D01*
Y45659D02*
X144413D01*
Y47627D01*
X143757Y48283D01*
X141133D01*
X140477Y47627D01*
Y45659D01*
X130577Y37787D02*
X133201D01*
X134513Y39099D01*
X133201Y40411D01*
X130577D01*
Y41723D02*
Y43035D01*
Y42379D01*
X134513D01*
Y41723D01*
Y43035D01*
Y45003D02*
X130577D01*
X134513Y47627D01*
X130577D01*
X94411Y86879D02*
X91787D01*
Y82943D01*
X94411D01*
X91787Y84911D02*
X93099D01*
X98347Y86223D02*
X97691Y86879D01*
X96379D01*
X95723Y86223D01*
Y85567D01*
X96379Y84911D01*
X97691D01*
X98347Y84255D01*
Y83599D01*
X97691Y82943D01*
X96379D01*
X95723Y83599D01*
X99659Y82943D02*
Y86879D01*
X101627D01*
X102283Y86223D01*
Y84911D01*
X101627Y84255D01*
X99659D01*
X103595Y82287D02*
X106218D01*
X107530Y82943D02*
Y86879D01*
X109498D01*
X110154Y86223D01*
Y84911D01*
X109498Y84255D01*
X107530D01*
X108842D02*
X110154Y82943D01*
X114090Y86223D02*
X113434Y86879D01*
X112122D01*
X111466Y86223D01*
Y85567D01*
X112122Y84911D01*
X113434D01*
X114090Y84255D01*
Y83599D01*
X113434Y82943D01*
X112122D01*
X111466Y83599D01*
X115402Y86879D02*
X118026D01*
X116714D01*
Y82943D01*
X102287Y195787D02*
Y199723D01*
X104255D01*
X104911Y199067D01*
Y197755D01*
X104255Y197099D01*
X102287D01*
X106223Y195787D02*
Y199723D01*
X108191D01*
X108847Y199067D01*
Y197755D01*
X108191Y197099D01*
X106223D01*
X107535D02*
X108847Y195787D01*
X112127Y199723D02*
X110815D01*
X110159Y199067D01*
Y196443D01*
X110815Y195787D01*
X112127D01*
X112783Y196443D01*
Y199067D01*
X112127Y199723D01*
X116718Y199067D02*
X116062Y199723D01*
X114751D01*
X114095Y199067D01*
Y196443D01*
X114751Y195787D01*
X116062D01*
X116718Y196443D01*
Y197755D01*
X115407D01*
X66344Y66968D02*
X65032D01*
X65688D01*
Y63688D01*
X65032Y63032D01*
X64376D01*
X63720Y63688D01*
X67656Y66968D02*
X70280D01*
Y66312D01*
X67656Y63688D01*
Y63032D01*
X115704Y233968D02*
X114392D01*
X115048D01*
Y230688D01*
X114392Y230032D01*
X113736D01*
X113080Y230688D01*
X117016Y230032D02*
X118328D01*
X117672D01*
Y233968D01*
X117016Y233312D01*
X120296D02*
X120952Y233968D01*
X122264D01*
X122920Y233312D01*
Y230688D01*
X122264Y230032D01*
X120952D01*
X120296Y230688D01*
Y233312D01*
X151220Y73468D02*
Y70188D01*
X151876Y69532D01*
X153188D01*
X153844Y70188D01*
Y73468D01*
X157124Y69532D02*
Y73468D01*
X155156Y71500D01*
X157780D01*
X120752Y63723D02*
Y59787D01*
X122720D01*
X123376Y60443D01*
Y61099D01*
X122720Y61755D01*
X120752D01*
X122720D01*
X123376Y62411D01*
Y63067D01*
X122720Y63723D01*
X120752D01*
X124688Y59787D02*
Y62411D01*
X126000Y63723D01*
X127312Y62411D01*
Y59787D01*
Y61755D01*
X124688D01*
X128624Y63723D02*
X131248D01*
X129936D01*
Y59787D01*
X138886Y64472D02*
Y60536D01*
X141509D01*
X145445D02*
X142821D01*
X145445Y63160D01*
Y63816D01*
X144789Y64472D01*
X143477D01*
X142821Y63816D01*
X163876Y87044D02*
X163220Y87700D01*
X161908D01*
X161252Y87044D01*
Y84420D01*
X161908Y83764D01*
X163220D01*
X163876Y84420D01*
X167156Y83764D02*
Y87700D01*
X165188Y85732D01*
X167812D01*
X171748Y83764D02*
X169124D01*
X171748Y86388D01*
Y87044D01*
X171092Y87700D01*
X169780D01*
X169124Y87044D01*
X150032Y50812D02*
X149376Y51468D01*
X148064D01*
X147408Y50812D01*
Y48188D01*
X148064Y47532D01*
X149376D01*
X150032Y48188D01*
X153312Y47532D02*
Y51468D01*
X151344Y49500D01*
X153968D01*
X155280Y47532D02*
X156592D01*
X155936D01*
Y51468D01*
X155280Y50812D01*
X183376Y91812D02*
X182720Y92468D01*
X181408D01*
X180752Y91812D01*
Y89188D01*
X181408Y88532D01*
X182720D01*
X183376Y89188D01*
X186656Y88532D02*
Y92468D01*
X184688Y90500D01*
X187312D01*
X188624Y91812D02*
X189280Y92468D01*
X190592D01*
X191248Y91812D01*
Y89188D01*
X190592Y88532D01*
X189280D01*
X188624Y89188D01*
Y91812D01*
X170752Y187532D02*
Y191468D01*
X172720D01*
X173376Y190812D01*
Y189500D01*
X172720Y188844D01*
X170752D01*
X172064D02*
X173376Y187532D01*
X174688Y190812D02*
X175344Y191468D01*
X176656D01*
X177312Y190812D01*
Y190156D01*
X176656Y189500D01*
X176000D01*
X176656D01*
X177312Y188844D01*
Y188188D01*
X176656Y187532D01*
X175344D01*
X174688Y188188D01*
X178624Y190812D02*
X179280Y191468D01*
X180592D01*
X181248Y190812D01*
Y188188D01*
X180592Y187532D01*
X179280D01*
X178624Y188188D01*
Y190812D01*
X145252Y181532D02*
Y185468D01*
X147220D01*
X147876Y184812D01*
Y183500D01*
X147220Y182844D01*
X145252D01*
X146564D02*
X147876Y181532D01*
X151812D02*
X149188D01*
X151812Y184156D01*
Y184812D01*
X151156Y185468D01*
X149844D01*
X149188Y184812D01*
X153124Y182188D02*
X153780Y181532D01*
X155092D01*
X155748Y182188D01*
Y184812D01*
X155092Y185468D01*
X153780D01*
X153124Y184812D01*
Y184156D01*
X153780Y183500D01*
X155748D01*
X146204Y203468D02*
X144892D01*
X145548D01*
Y200188D01*
X144892Y199532D01*
X144236D01*
X143580Y200188D01*
X147516Y199532D02*
X148828D01*
X148172D01*
Y203468D01*
X147516Y202812D01*
X153420Y203468D02*
X152108Y202812D01*
X150796Y201500D01*
Y200188D01*
X151452Y199532D01*
X152764D01*
X153420Y200188D01*
Y200844D01*
X152764Y201500D01*
X150796D01*
X146204Y190468D02*
X144892D01*
X145548D01*
Y187188D01*
X144892Y186532D01*
X144236D01*
X143580Y187188D01*
X147516Y186532D02*
X148828D01*
X148172D01*
Y190468D01*
X147516Y189812D01*
X153420Y190468D02*
X150796D01*
Y188500D01*
X152108Y189156D01*
X152764D01*
X153420Y188500D01*
Y187188D01*
X152764Y186532D01*
X151452D01*
X150796Y187188D01*
X195000Y175600D02*
Y179536D01*
X196968D01*
X197624Y178880D01*
Y177568D01*
X196968Y176912D01*
X195000D01*
X196312D02*
X197624Y175600D01*
X201560D02*
X198936D01*
X201560Y178224D01*
Y178880D01*
X200904Y179536D01*
X199592D01*
X198936Y178880D01*
X202871D02*
X203527Y179536D01*
X204839D01*
X205495Y178880D01*
Y178224D01*
X204839Y177568D01*
X205495Y176912D01*
Y176256D01*
X204839Y175600D01*
X203527D01*
X202871Y176256D01*
Y176912D01*
X203527Y177568D01*
X202871Y178224D01*
Y178880D01*
X203527Y177568D02*
X204839D01*
X195000Y182100D02*
Y186036D01*
X196968D01*
X197624Y185380D01*
Y184068D01*
X196968Y183412D01*
X195000D01*
X196312D02*
X197624Y182100D01*
X201560D02*
X198936D01*
X201560Y184724D01*
Y185380D01*
X200904Y186036D01*
X199592D01*
X198936Y185380D01*
X202871Y186036D02*
X205495D01*
Y185380D01*
X202871Y182756D01*
Y182100D01*
X195000Y188600D02*
Y192536D01*
X196968D01*
X197624Y191880D01*
Y190568D01*
X196968Y189912D01*
X195000D01*
X196312D02*
X197624Y188600D01*
X201560D02*
X198936D01*
X201560Y191224D01*
Y191880D01*
X200904Y192536D01*
X199592D01*
X198936Y191880D01*
X205495Y192536D02*
X204183Y191880D01*
X202871Y190568D01*
Y189256D01*
X203527Y188600D01*
X204839D01*
X205495Y189256D01*
Y189912D01*
X204839Y190568D01*
X202871D01*
X218784Y173468D02*
Y169532D01*
X221408D01*
X225344Y173468D02*
X222720D01*
Y169532D01*
X225344D01*
X222720Y171500D02*
X224032D01*
X226656Y173468D02*
Y169532D01*
X228624D01*
X229280Y170188D01*
Y172812D01*
X228624Y173468D01*
X226656D01*
X230592Y172812D02*
X231248Y173468D01*
X232560D01*
X233215Y172812D01*
Y172156D01*
X232560Y171500D01*
X231904D01*
X232560D01*
X233215Y170844D01*
Y170188D01*
X232560Y169532D01*
X231248D01*
X230592Y170188D01*
X238968Y188215D02*
X235032D01*
Y185592D01*
X238968Y181656D02*
Y184280D01*
X235032D01*
Y181656D01*
X237000Y184280D02*
Y182968D01*
X238968Y180344D02*
X235032D01*
Y178376D01*
X235688Y177720D01*
X238312D01*
X238968Y178376D01*
Y180344D01*
X235032Y173784D02*
Y176408D01*
X237656Y173784D01*
X238312D01*
X238968Y174440D01*
Y175752D01*
X238312Y176408D01*
X219940Y198468D02*
Y194532D01*
X222564D01*
X226500Y198468D02*
X223876D01*
Y194532D01*
X226500D01*
X223876Y196500D02*
X225188D01*
X227812Y198468D02*
Y194532D01*
X229780D01*
X230436Y195188D01*
Y197812D01*
X229780Y198468D01*
X227812D01*
X231748Y194532D02*
X233060D01*
X232404D01*
Y198468D01*
X231748Y197812D01*
X60704Y221468D02*
X59392D01*
X60048D01*
Y218188D01*
X59392Y217532D01*
X58736D01*
X58080Y218188D01*
X62016Y217532D02*
X63328D01*
X62672D01*
Y221468D01*
X62016Y220812D01*
X67264Y217532D02*
Y221468D01*
X65296Y219500D01*
X67920D01*
X72204Y230468D02*
X70892D01*
X71548D01*
Y227188D01*
X70892Y226532D01*
X70236D01*
X69580Y227188D01*
X73516Y226532D02*
X74828D01*
X74172D01*
Y230468D01*
X73516Y229812D01*
X76796D02*
X77452Y230468D01*
X78764D01*
X79420Y229812D01*
Y229156D01*
X78764Y228500D01*
X78108D01*
X78764D01*
X79420Y227844D01*
Y227188D01*
X78764Y226532D01*
X77452D01*
X76796Y227188D01*
X87204Y197468D02*
X85892D01*
X86548D01*
Y194188D01*
X85892Y193532D01*
X85236D01*
X84580Y194188D01*
X88516Y193532D02*
X89828D01*
X89172D01*
Y197468D01*
X88516Y196812D01*
X94420Y193532D02*
X91796D01*
X94420Y196156D01*
Y196812D01*
X93764Y197468D01*
X92452D01*
X91796Y196812D01*
X100860Y206968D02*
X99548D01*
X100204D01*
Y203688D01*
X99548Y203032D01*
X98892D01*
X98236Y203688D01*
X102172Y203032D02*
X103484D01*
X102828D01*
Y206968D01*
X102172Y206312D01*
X105452Y203032D02*
X106764D01*
X106108D01*
Y206968D01*
X105452Y206312D01*
X161844Y249968D02*
X160532D01*
X161188D01*
Y246688D01*
X160532Y246032D01*
X159876D01*
X159220Y246688D01*
X163156D02*
X163812Y246032D01*
X165124D01*
X165780Y246688D01*
Y249312D01*
X165124Y249968D01*
X163812D01*
X163156Y249312D01*
Y248656D01*
X163812Y248000D01*
X165780D01*
X161752Y205032D02*
Y208968D01*
X163720D01*
X164376Y208312D01*
Y207000D01*
X163720Y206344D01*
X161752D01*
X163064D02*
X164376Y205032D01*
X168312D02*
X165688D01*
X168312Y207656D01*
Y208312D01*
X167656Y208968D01*
X166344D01*
X165688Y208312D01*
X172248Y208968D02*
X169624D01*
Y207000D01*
X170936Y207656D01*
X171592D01*
X172248Y207000D01*
Y205688D01*
X171592Y205032D01*
X170280D01*
X169624Y205688D01*
X217736Y155532D02*
Y159468D01*
X219704D01*
X220360Y158812D01*
Y157500D01*
X219704Y156844D01*
X217736D01*
X219048D02*
X220360Y155532D01*
X221672D02*
X222984D01*
X222328D01*
Y159468D01*
X221672Y158812D01*
X224952Y155532D02*
X226264D01*
X225608D01*
Y159468D01*
X224952Y158812D01*
X170580Y176032D02*
Y179968D01*
X172548D01*
X173204Y179312D01*
Y178000D01*
X172548Y177344D01*
X170580D01*
X171892D02*
X173204Y176032D01*
X174516D02*
X175828D01*
X175172D01*
Y179968D01*
X174516Y179312D01*
X177796D02*
X178452Y179968D01*
X179764D01*
X180420Y179312D01*
Y176688D01*
X179764Y176032D01*
X178452D01*
X177796Y176688D01*
Y179312D01*
X245468Y157720D02*
X241532D01*
Y159688D01*
X242188Y160344D01*
X243500D01*
X244156Y159688D01*
Y157720D01*
Y159032D02*
X245468Y160344D01*
X244812Y161656D02*
X245468Y162312D01*
Y163624D01*
X244812Y164280D01*
X242188D01*
X241532Y163624D01*
Y162312D01*
X242188Y161656D01*
X242844D01*
X243500Y162312D01*
Y164280D01*
X161134Y113279D02*
Y114591D01*
Y113935D01*
X165069D01*
Y113279D01*
Y114591D01*
X161790Y119183D02*
X161134Y118527D01*
Y117215D01*
X161790Y116559D01*
X164413D01*
X165069Y117215D01*
Y118527D01*
X164413Y119183D01*
X165069Y120495D02*
Y121807D01*
Y121151D01*
X161134D01*
X161790Y120495D01*
X188968Y186080D02*
X185032D01*
Y188048D01*
X185688Y188704D01*
X187000D01*
X187656Y188048D01*
Y186080D01*
Y187392D02*
X188968Y188704D01*
Y190016D02*
Y191328D01*
Y190672D01*
X185032D01*
X185688Y190016D01*
X185032Y195920D02*
X185688Y194608D01*
X187000Y193296D01*
X188312D01*
X188968Y193952D01*
Y195264D01*
X188312Y195920D01*
X187656D01*
X187000Y195264D01*
Y193296D01*
X188844Y226968D02*
X187532D01*
X188188D01*
Y223688D01*
X187532Y223032D01*
X186876D01*
X186220Y223688D01*
X190156Y226312D02*
X190812Y226968D01*
X192124D01*
X192780Y226312D01*
Y225656D01*
X192124Y225000D01*
X192780Y224344D01*
Y223688D01*
X192124Y223032D01*
X190812D01*
X190156Y223688D01*
Y224344D01*
X190812Y225000D01*
X190156Y225656D01*
Y226312D01*
X190812Y225000D02*
X192124D01*
X232844Y98468D02*
X231532D01*
X232188D01*
Y95188D01*
X231532Y94532D01*
X230876D01*
X230220Y95188D01*
X236780Y98468D02*
X235468Y97812D01*
X234156Y96500D01*
Y95188D01*
X234812Y94532D01*
X236124D01*
X236780Y95188D01*
Y95844D01*
X236124Y96500D01*
X234156D01*
X196344Y48468D02*
X195032D01*
X195688D01*
Y45188D01*
X195032Y44532D01*
X194376D01*
X193720Y45188D01*
X200280Y48468D02*
X197656D01*
Y46500D01*
X198968Y47156D01*
X199624D01*
X200280Y46500D01*
Y45188D01*
X199624Y44532D01*
X198312D01*
X197656Y45188D01*
X52344Y181968D02*
X51032D01*
X51688D01*
Y178688D01*
X51032Y178032D01*
X50376D01*
X49720Y178688D01*
X55624Y178032D02*
Y181968D01*
X53656Y180000D01*
X56280D01*
X94844Y244468D02*
X93532D01*
X94188D01*
Y241188D01*
X93532Y240532D01*
X92876D01*
X92220Y241188D01*
X98780Y240532D02*
X96156D01*
X98780Y243156D01*
Y243812D01*
X98124Y244468D01*
X96812D01*
X96156Y243812D01*
X96688Y185376D02*
X96032Y184720D01*
Y183408D01*
X96688Y182752D01*
X97344D01*
X98000Y183408D01*
Y184720D01*
X98656Y185376D01*
X99312D01*
X99968Y184720D01*
Y183408D01*
X99312Y182752D01*
X96032Y186688D02*
X99968D01*
X98656Y188000D01*
X99968Y189312D01*
X96032D01*
X99968Y193248D02*
Y190624D01*
X97344Y193248D01*
X96688D01*
X96032Y192592D01*
Y191280D01*
X96688Y190624D01*
X94032Y91812D02*
X93376Y92468D01*
X92064D01*
X91408Y91812D01*
Y91156D01*
X92064Y90500D01*
X93376D01*
X94032Y89844D01*
Y89188D01*
X93376Y88532D01*
X92064D01*
X91408Y89188D01*
X95344Y92468D02*
Y88532D01*
X96656Y89844D01*
X97968Y88532D01*
Y92468D01*
X99280Y88532D02*
X100592D01*
X99936D01*
Y92468D01*
X99280Y91812D01*
X126720Y185532D02*
Y189468D01*
X128688D01*
X129344Y188812D01*
Y187500D01*
X128688Y186844D01*
X126720D01*
X128032D02*
X129344Y185532D01*
X133280D02*
X130656D01*
X133280Y188156D01*
Y188812D01*
X132624Y189468D01*
X131312D01*
X130656Y188812D01*
X53876Y92032D02*
Y95968D01*
X55844D01*
X56500Y95312D01*
Y94000D01*
X55844Y93344D01*
X53876D01*
X55188D02*
X56500Y92032D01*
X57812D02*
X59124D01*
X58468D01*
Y95968D01*
X57812Y95312D01*
X53271Y77377D02*
X56149Y80061D01*
X57491Y78622D01*
X57459Y77695D01*
X56499Y76800D01*
X55572Y76833D01*
X54230Y78272D01*
X58354Y76736D02*
X59281Y76703D01*
X60175Y75744D01*
X60143Y74817D01*
X59663Y74369D01*
X58736Y74401D01*
X58289Y74881D01*
X58736Y74401D01*
X58704Y73474D01*
X58224Y73027D01*
X57297Y73059D01*
X56402Y74019D01*
X56435Y74946D01*
X84720Y182032D02*
Y185968D01*
X86688D01*
X87344Y185312D01*
Y184000D01*
X86688Y183344D01*
X84720D01*
X91280Y182032D02*
X88656D01*
X91280Y184656D01*
Y185312D01*
X90624Y185968D01*
X89312D01*
X88656Y185312D01*
X100376Y30532D02*
Y34468D01*
X102344D01*
X103000Y33812D01*
Y32500D01*
X102344Y31844D01*
X100376D01*
X104312Y30532D02*
X105624D01*
X104968D01*
Y34468D01*
X104312Y33812D01*
X131408Y165532D02*
Y169468D01*
X132720Y168156D01*
X134032Y169468D01*
Y165532D01*
X135344Y169468D02*
Y165532D01*
X137312D01*
X137968Y166188D01*
Y168812D01*
X137312Y169468D01*
X135344D01*
X139280Y165532D02*
X140592D01*
X139936D01*
Y169468D01*
X139280Y168812D01*
X55688Y86000D02*
X55032Y85344D01*
Y84032D01*
X55688Y83376D01*
X58312D01*
X58968Y84032D01*
Y85344D01*
X58312Y86000D01*
X58968Y87312D02*
Y88624D01*
Y87968D01*
X55032D01*
X55688Y87312D01*
X130307Y60501D02*
Y63781D01*
X130963Y64437D01*
X132275D01*
X132931Y63781D01*
Y60501D01*
X134243Y64437D02*
X135555D01*
X134899D01*
Y60501D01*
X134243Y61157D01*
D15*
X107480Y25315D02*
X167480D01*
X107480Y35315D02*
X167480D01*
Y25315D02*
Y35315D01*
X107480Y25315D02*
Y35315D01*
X112500Y58227D02*
X126500D01*
Y50227D02*
Y58227D01*
X112500Y50227D02*
X126500D01*
X112500D02*
Y58227D01*
X239001Y119999D02*
X237002D01*
X238001D01*
Y115001D01*
X237002Y114001D01*
X236002D01*
X235002Y115001D01*
X241001Y114001D02*
X243000D01*
X242000D01*
Y119999D01*
X241001Y118999D01*
X245999Y119999D02*
X249998D01*
Y118999D01*
X245999Y115001D01*
Y114001D01*
D16*
X105500Y208500D02*
Y234500D01*
X104508D02*
X105500D01*
X99500Y208500D02*
Y234500D01*
Y208500D02*
X100492D01*
X104508D02*
X105500D01*
X99500Y234500D02*
X100492D01*
X126500Y241508D02*
Y242500D01*
X100500Y236500D02*
Y237492D01*
Y241508D02*
Y242500D01*
X126500D01*
Y236500D02*
Y237492D01*
X100500Y236500D02*
X126500D01*
X92131Y199500D02*
Y225500D01*
X91139D02*
X92131D01*
X86131Y199500D02*
Y225500D01*
Y199500D02*
X87123D01*
X91139D02*
X92131D01*
X86131Y225500D02*
X87123D01*
X78500Y199500D02*
Y225500D01*
X77508D02*
X78500D01*
X72500Y199500D02*
Y225500D01*
Y199500D02*
X73492D01*
X77508D02*
X78500D01*
X72500Y225500D02*
X73492D01*
X53000Y216000D02*
X53992D01*
X58008Y190000D02*
X59000D01*
X53000D02*
X53992D01*
X53000D02*
Y216000D01*
X58008D02*
X59000D01*
Y190000D02*
Y216000D01*
X165008Y218000D02*
X166000D01*
X160000Y244000D02*
X160992D01*
X165008D02*
X166000D01*
Y218000D02*
Y244000D01*
X160000Y218000D02*
X160992D01*
X160000D02*
Y244000D01*
D17*
X137795Y19685D02*
X138793Y19689D01*
X139790Y19702D01*
X140787Y19723D01*
X141784Y19752D01*
X142781Y19790D01*
X143777Y19837D01*
X144773Y19891D01*
X145769Y19954D01*
X146764Y20026D01*
X147758Y20106D01*
X148751Y20194D01*
X149744Y20291D01*
X150736Y20396D01*
X151727Y20509D01*
X152717Y20631D01*
X153706Y20762D01*
X154693Y20900D01*
X155680Y21047D01*
X156665Y21202D01*
X157649Y21366D01*
X158632Y21538D01*
X159613Y21718D01*
X160592Y21906D01*
X161570Y22103D01*
X162546Y22308D01*
X163521Y22521D01*
X164493Y22742D01*
X165464Y22972D01*
X166432Y23209D01*
X167399Y23455D01*
X168364Y23709D01*
X169326Y23971D01*
X170286Y24242D01*
X171244Y24520D01*
X172199Y24807D01*
X173152Y25101D01*
X174102Y25404D01*
X175050Y25715D01*
X175996Y26033D01*
X176938Y26360D01*
X177878Y26694D01*
X178814Y27037D01*
X179748Y27387D01*
X180679Y27745D01*
X181607Y28111D01*
X182532Y28485D01*
X183453Y28867D01*
X184371Y29256D01*
X185286Y29654D01*
X186198Y30059D01*
X187106Y30471D01*
X188011Y30891D01*
X188911Y31319D01*
X189809Y31755D01*
X190702Y32198D01*
X191592Y32648D01*
X192478Y33106D01*
X193360Y33572D01*
X194239Y34045D01*
X195113Y34525D01*
X195983Y35013D01*
X196849Y35508D01*
X197710Y36010D01*
X198568Y36520D01*
X199421Y37037D01*
X200270Y37561D01*
X201114Y38092D01*
X201954Y38630D01*
X202789Y39175D01*
X203619Y39728D01*
X204445Y40287D01*
X205266Y40854D01*
X206082Y41427D01*
X206894Y42007D01*
X207700Y42594D01*
X208502Y43187D01*
X209298Y43788D01*
X210089Y44395D01*
X210876Y45009D01*
X211656Y45629D01*
X212432Y46256D01*
X213203Y46890D01*
X213967Y47530D01*
X214727Y48177D01*
X215481Y48829D01*
X216230Y49489D01*
X216973Y50154D01*
X217710Y50826D01*
X218442Y51504D01*
X219167Y52188D01*
X219887Y52878D01*
X220602Y53574D01*
X221310Y54277D01*
X222012Y54985D01*
X222709Y55699D01*
X223399Y56419D01*
X224083Y57145D01*
X224761Y57876D01*
X225433Y58614D01*
X226098Y59357D01*
X226758Y60105D01*
X227410Y60859D01*
X228057Y61619D01*
X228697Y62384D01*
X229330Y63154D01*
X229958Y63930D01*
X230578Y64711D01*
X231192Y65497D01*
X231799Y66288D01*
X232400Y67084D01*
X232994Y67886D01*
X233580Y68692D01*
X234161Y69504D01*
X234734Y70320D01*
X235300Y71141D01*
X235860Y71967D01*
X236412Y72797D01*
X236957Y73632D01*
X237496Y74472D01*
X238027Y75316D01*
X238551Y76165D01*
X239068Y77018D01*
X239578Y77875D01*
X240080Y78737D01*
X240575Y79603D01*
X241063Y80473D01*
X241543Y81347D01*
X242016Y82225D01*
X242482Y83107D01*
X242940Y83993D01*
X243390Y84883D01*
X243833Y85777D01*
X244269Y86674D01*
X244697Y87575D01*
X245117Y88480D01*
X245530Y89388D01*
X245935Y90299D01*
X246332Y91214D01*
X246722Y92132D01*
X247103Y93054D01*
X247477Y93978D01*
X247843Y94906D01*
X248201Y95837D01*
X248552Y96771D01*
X248894Y97708D01*
X249229Y98647D01*
X249556Y99590D01*
X249874Y100535D01*
X250185Y101483D01*
X250487Y102433D01*
X250782Y103386D01*
X251069Y104341D01*
X251347Y105299D01*
X251618Y106259D01*
X251880Y107221D01*
X252134Y108186D01*
X252380Y109153D01*
X252618Y110121D01*
X252847Y111092D01*
X253069Y112065D01*
X253282Y113039D01*
X253487Y114015D01*
X253683Y114993D01*
X253872Y115972D01*
X254052Y116953D01*
X254224Y117936D01*
X254387Y118920D01*
X254543Y119905D01*
X254690Y120892D01*
X254828Y121879D01*
X254959Y122868D01*
X255080Y123858D01*
X255194Y124849D01*
X255299Y125841D01*
X255396Y126834D01*
X255484Y127827D01*
X255564Y128821D01*
X255636Y129816D01*
X255699Y130812D01*
X255754Y131808D01*
X255800Y132804D01*
X255838Y133801D01*
X255868Y134798D01*
X255889Y135795D01*
X255901Y136792D01*
X255906Y137790D01*
Y137795D01*
X255901Y138793D01*
X255889Y139790D01*
X255868Y140787D01*
X255838Y141784D01*
X255800Y142781D01*
X255754Y143778D01*
X255699Y144773D01*
X255636Y145769D01*
X255564Y146764D01*
X255485Y147758D01*
X255396Y148751D01*
X255299Y149744D01*
X255194Y150736D01*
X255081Y151727D01*
X254959Y152717D01*
X254829Y153706D01*
X254690Y154694D01*
X254543Y155680D01*
X254388Y156666D01*
X254225Y157650D01*
X254053Y158632D01*
X253873Y159613D01*
X253684Y160593D01*
X253488Y161571D01*
X253283Y162547D01*
X253070Y163521D01*
X252848Y164494D01*
X252619Y165464D01*
X252381Y166433D01*
X252135Y167400D01*
X251881Y168365D01*
X251619Y169327D01*
X251348Y170287D01*
X251070Y171245D01*
X250783Y172200D01*
X250489Y173153D01*
X250186Y174104D01*
X249876Y175051D01*
X249557Y175997D01*
X249230Y176939D01*
X248896Y177879D01*
X248553Y178816D01*
X248203Y179750D01*
X247845Y180680D01*
X247479Y181608D01*
X247105Y182533D01*
X246723Y183455D01*
X246334Y184373D01*
X245936Y185288D01*
X245532Y186199D01*
X245119Y187107D01*
X244699Y188012D01*
X244271Y188913D01*
X243835Y189810D01*
X243392Y190704D01*
X242942Y191594D01*
X242483Y192480D01*
X242018Y193362D01*
X241545Y194240D01*
X241065Y195114D01*
X240577Y195984D01*
X240082Y196850D01*
X239579Y197712D01*
X239070Y198570D01*
X238553Y199423D01*
X238029Y200271D01*
X237498Y201116D01*
X236959Y201955D01*
X236414Y202790D01*
X235862Y203621D01*
X235302Y204447D01*
X234736Y205268D01*
X234163Y206084D01*
X233582Y206896D01*
X232996Y207702D01*
X232402Y208504D01*
X231801Y209300D01*
X231194Y210091D01*
X230580Y210877D01*
X229960Y211658D01*
X229332Y212434D01*
X228699Y213205D01*
X228059Y213969D01*
X227412Y214729D01*
X226760Y215483D01*
X226100Y216232D01*
X225435Y216975D01*
X224763Y217712D01*
X224085Y218443D01*
X223401Y219169D01*
X222710Y219889D01*
X222014Y220604D01*
X221312Y221312D01*
X220603Y222014D01*
X219889Y222710D01*
X219169Y223401D01*
X218443Y224085D01*
X217712Y224763D01*
X216975Y225435D01*
X216232Y226100D01*
X215483Y226760D01*
X214729Y227412D01*
X213969Y228059D01*
X213204Y228699D01*
X212434Y229333D01*
X211658Y229960D01*
X210877Y230580D01*
X210091Y231194D01*
X209300Y231801D01*
X208504Y232402D01*
X207702Y232996D01*
X206895Y233582D01*
X206084Y234163D01*
X205268Y234736D01*
X204447Y235302D01*
X203621Y235862D01*
X202790Y236414D01*
X201955Y236959D01*
X201115Y237498D01*
X200271Y238029D01*
X199423Y238553D01*
X198570Y239070D01*
X197712Y239579D01*
X196850Y240082D01*
X195984Y240577D01*
X195114Y241065D01*
X194240Y241545D01*
X193362Y242018D01*
X192480Y242483D01*
X191594Y242942D01*
X190704Y243392D01*
X189810Y243835D01*
X188913Y244271D01*
X188012Y244699D01*
X187107Y245119D01*
X186199Y245532D01*
X185288Y245936D01*
X184373Y246334D01*
X183454Y246723D01*
X182533Y247105D01*
X181608Y247479D01*
X180680Y247845D01*
X179749Y248203D01*
X178815Y248553D01*
X177879Y248896D01*
X176939Y249231D01*
X175996Y249557D01*
X175051Y249876D01*
X174103Y250186D01*
X173153Y250489D01*
X172200Y250783D01*
X171245Y251070D01*
X170287Y251348D01*
X169327Y251619D01*
X168364Y251881D01*
X167400Y252135D01*
X166433Y252381D01*
X165464Y252619D01*
X164494Y252848D01*
X163521Y253070D01*
X162547Y253283D01*
X161571Y253488D01*
X160593Y253684D01*
X159613Y253873D01*
X158632Y254053D01*
X157650Y254225D01*
X156666Y254388D01*
X155680Y254543D01*
X154694Y254690D01*
X153706Y254829D01*
X152717Y254959D01*
X151727Y255081D01*
X150736Y255194D01*
X149744Y255299D01*
X148751Y255396D01*
X147758Y255485D01*
X146764Y255564D01*
X145769Y255636D01*
X144773Y255699D01*
X143777Y255754D01*
X142781Y255800D01*
X141784Y255838D01*
X140787Y255868D01*
X139790Y255889D01*
X138793Y255901D01*
X137795Y255906D01*
X136798Y255901D01*
X135801Y255889D01*
X134803Y255868D01*
X133806Y255838D01*
X132809Y255800D01*
X131813Y255754D01*
X130817Y255699D01*
X129822Y255636D01*
X128827Y255564D01*
X127832Y255485D01*
X126839Y255396D01*
X125846Y255299D01*
X124854Y255194D01*
X123863Y255081D01*
X122873Y254959D01*
X121885Y254829D01*
X120897Y254690D01*
X119910Y254543D01*
X118925Y254388D01*
X117941Y254225D01*
X116958Y254053D01*
X115977Y253873D01*
X114998Y253684D01*
X114020Y253488D01*
X113044Y253283D01*
X112069Y253070D01*
X111097Y252848D01*
X110126Y252619D01*
X109157Y252381D01*
X108191Y252135D01*
X107226Y251881D01*
X106264Y251619D01*
X105304Y251348D01*
X104346Y251070D01*
X103390Y250783D01*
X102437Y250489D01*
X101487Y250186D01*
X100539Y249876D01*
X99594Y249557D01*
X98651Y249230D01*
X97712Y248896D01*
X96775Y248553D01*
X95841Y248203D01*
X94910Y247845D01*
X93982Y247479D01*
X93058Y247105D01*
X92136Y246723D01*
X91218Y246334D01*
X90303Y245936D01*
X89391Y245531D01*
X88483Y245119D01*
X87578Y244699D01*
X86677Y244271D01*
X85780Y243835D01*
X84886Y243392D01*
X83997Y242941D01*
X83111Y242483D01*
X82228Y242018D01*
X81350Y241545D01*
X80476Y241065D01*
X79606Y240577D01*
X78740Y240082D01*
X77878Y239579D01*
X77021Y239070D01*
X76168Y238553D01*
X75319Y238029D01*
X74475Y237498D01*
X73635Y236959D01*
X72800Y236414D01*
X71969Y235862D01*
X71144Y235302D01*
X70323Y234736D01*
X69506Y234162D01*
X68695Y233582D01*
X67888Y232995D01*
X67087Y232402D01*
X66291Y231801D01*
X65499Y231194D01*
X64713Y230580D01*
X63932Y229960D01*
X63156Y229332D01*
X62386Y228699D01*
X61621Y228059D01*
X60861Y227412D01*
X60107Y226759D01*
X59359Y226100D01*
X58616Y225435D01*
X57879Y224763D01*
X57147Y224085D01*
X56421Y223401D01*
X55701Y222710D01*
X54987Y222014D01*
X54279Y221312D01*
X53576Y220603D01*
X52880Y219889D01*
X52190Y219169D01*
X51506Y218443D01*
X50828Y217712D01*
X50156Y216974D01*
X49490Y216232D01*
X48831Y215483D01*
X48178Y214729D01*
X47532Y213969D01*
X46891Y213204D01*
X46258Y212434D01*
X45631Y211658D01*
X45010Y210877D01*
X44396Y210091D01*
X43789Y209300D01*
X43189Y208503D01*
X42595Y207702D01*
X42008Y206895D01*
X41428Y206084D01*
X40855Y205268D01*
X40288Y204447D01*
X39729Y203621D01*
X39176Y202790D01*
X38631Y201955D01*
X38093Y201115D01*
X37562Y200271D01*
X37038Y199423D01*
X36521Y198569D01*
X36011Y197712D01*
X35509Y196850D01*
X35014Y195984D01*
X34526Y195114D01*
X34045Y194240D01*
X33573Y193362D01*
X33107Y192480D01*
X32649Y191594D01*
X32198Y190704D01*
X31755Y189810D01*
X31320Y188913D01*
X30892Y188012D01*
X30472Y187107D01*
X30059Y186199D01*
X29654Y185288D01*
X29257Y184373D01*
X28867Y183454D01*
X28486Y182533D01*
X28112Y181608D01*
X27746Y180680D01*
X27387Y179749D01*
X27037Y178815D01*
X26695Y177879D01*
X26360Y176939D01*
X26033Y175996D01*
X25715Y175051D01*
X25404Y174103D01*
X25102Y173153D01*
X24807Y172200D01*
X24521Y171245D01*
X24242Y170287D01*
X23972Y169327D01*
X23709Y168364D01*
X23455Y167400D01*
X23210Y166433D01*
X22972Y165464D01*
X22742Y164494D01*
X22521Y163521D01*
X22308Y162547D01*
X22103Y161571D01*
X21906Y160593D01*
X21718Y159613D01*
X21538Y158632D01*
X21366Y157650D01*
X21202Y156666D01*
X21047Y155680D01*
X20900Y154694D01*
X20762Y153706D01*
X20631Y152717D01*
X20510Y151727D01*
X20396Y150736D01*
X20291Y149744D01*
X20194Y148751D01*
X20106Y147758D01*
X20026Y146764D01*
X19954Y145769D01*
X19891Y144773D01*
X19837Y143777D01*
X19790Y142781D01*
X19752Y141784D01*
X19723Y140787D01*
X19702Y139790D01*
X19689Y138793D01*
X19685Y137795D01*
X19689Y136798D01*
X19702Y135801D01*
X19723Y134803D01*
X19752Y133806D01*
X19790Y132809D01*
X19837Y131813D01*
X19891Y130817D01*
X19954Y129822D01*
X20026Y128827D01*
X20106Y127832D01*
X20194Y126839D01*
X20291Y125846D01*
X20396Y124854D01*
X20510Y123863D01*
X20631Y122873D01*
X20762Y121885D01*
X20900Y120897D01*
X21047Y119910D01*
X21202Y118925D01*
X21366Y117941D01*
X21538Y116958D01*
X21718Y115977D01*
X21906Y114998D01*
X22103Y114020D01*
X22308Y113044D01*
X22521Y112069D01*
X22742Y111097D01*
X22972Y110126D01*
X23210Y109157D01*
X23456Y108191D01*
X23710Y107226D01*
X23972Y106264D01*
X24242Y105304D01*
X24521Y104346D01*
X24807Y103390D01*
X25102Y102437D01*
X25404Y101487D01*
X25715Y100539D01*
X26034Y99594D01*
X26360Y98651D01*
X26695Y97712D01*
X27037Y96775D01*
X27387Y95841D01*
X27746Y94910D01*
X28112Y93982D01*
X28486Y93058D01*
X28868Y92136D01*
X29257Y91218D01*
X29654Y90303D01*
X30059Y89391D01*
X30472Y88483D01*
X30892Y87578D01*
X31320Y86677D01*
X31755Y85780D01*
X32199Y84886D01*
X32649Y83997D01*
X33107Y83111D01*
X33573Y82228D01*
X34046Y81350D01*
X34526Y80476D01*
X35014Y79606D01*
X35509Y78740D01*
X36011Y77878D01*
X36521Y77021D01*
X37038Y76168D01*
X37562Y75319D01*
X38093Y74475D01*
X38631Y73635D01*
X39177Y72800D01*
X39729Y71969D01*
X40288Y71144D01*
X40855Y70323D01*
X41428Y69506D01*
X42008Y68695D01*
X42595Y67888D01*
X43189Y67087D01*
X43789Y66291D01*
X44397Y65499D01*
X45011Y64713D01*
X45631Y63932D01*
X46258Y63156D01*
X46892Y62386D01*
X47532Y61621D01*
X48178Y60861D01*
X48831Y60107D01*
X49490Y59359D01*
X50156Y58616D01*
X50828Y57879D01*
X51506Y57147D01*
X52190Y56421D01*
X52880Y55701D01*
X53576Y54987D01*
X54279Y54279D01*
X54987Y53576D01*
X55701Y52880D01*
X56421Y52190D01*
X57147Y51506D01*
X57879Y50828D01*
X58616Y50156D01*
X59359Y49490D01*
X60107Y48831D01*
X60862Y48178D01*
X61621Y47532D01*
X62386Y46891D01*
X63156Y46258D01*
X63932Y45631D01*
X64713Y45010D01*
X65499Y44396D01*
X66291Y43789D01*
X67087Y43189D01*
X67889Y42595D01*
X68695Y42008D01*
X69507Y41428D01*
X70323Y40855D01*
X71144Y40288D01*
X71970Y39729D01*
X72800Y39176D01*
X73635Y38631D01*
X74475Y38093D01*
X75319Y37562D01*
X76168Y37038D01*
X77021Y36521D01*
X77879Y36011D01*
X78740Y35509D01*
X79606Y35014D01*
X80476Y34526D01*
X81350Y34045D01*
X82229Y33573D01*
X83111Y33107D01*
X83997Y32649D01*
X84887Y32198D01*
X85780Y31755D01*
X86678Y31320D01*
X87579Y30892D01*
X88483Y30472D01*
X89391Y30059D01*
X90303Y29654D01*
X91218Y29257D01*
X92136Y28867D01*
X93058Y28486D01*
X93982Y28112D01*
X94910Y27746D01*
X95841Y27387D01*
X96775Y27037D01*
X97712Y26695D01*
X98652Y26360D01*
X99594Y26033D01*
X100539Y25715D01*
X101487Y25404D01*
X102438Y25102D01*
X103391Y24807D01*
X104346Y24521D01*
X105304Y24242D01*
X106264Y23972D01*
X107226Y23709D01*
X108191Y23455D01*
X109158Y23210D01*
X110126Y22972D01*
X111097Y22742D01*
X112069Y22521D01*
X113044Y22308D01*
X114020Y22103D01*
X114998Y21906D01*
X115977Y21718D01*
X116958Y21538D01*
X117941Y21366D01*
X118925Y21202D01*
X119910Y21047D01*
X120896Y20900D01*
X121884Y20762D01*
X122873Y20631D01*
X123863Y20510D01*
X124854Y20396D01*
X125846Y20291D01*
X126839Y20194D01*
X127832Y20106D01*
X128826Y20026D01*
X129821Y19954D01*
X130817Y19891D01*
X131813Y19837D01*
X132809Y19790D01*
X133806Y19752D01*
X134803Y19723D01*
X135800Y19702D01*
X136797Y19689D01*
X137795Y19685D01*
D18*
X138577Y222244D02*
X135245D01*
X134579Y221578D01*
Y220245D01*
X135245Y219578D01*
X138577D01*
X137911Y218245D02*
X138577Y217579D01*
Y216246D01*
X137911Y215580D01*
X137244D01*
X136578Y216246D01*
Y216913D01*
Y216246D01*
X135912Y215580D01*
X135245D01*
X134579Y216246D01*
Y217579D01*
X135245Y218245D01*
D19*
X162067Y64042D02*
Y61543D01*
X162567Y61043D01*
X163566D01*
X164066Y61543D01*
Y64042D01*
X166565Y61043D02*
Y64042D01*
X165066Y62543D01*
X167065D01*
M02*
