G04*
G04 #@! TF.GenerationSoftware,Altium Limited,Altium Designer,22.4.2 (48)*
G04*
G04 Layer_Color=32768*
%FSLAX25Y25*%
%MOIN*%
G70*
G04*
G04 #@! TF.SameCoordinates,A5219701-5F61-4D45-AD81-8ED9BC4A77AE*
G04*
G04*
G04 #@! TF.FilePolarity,Positive*
G04*
G01*
G75*
%ADD11C,0.00394*%
%ADD14C,0.00787*%
%ADD16C,0.00600*%
%ADD17C,0.00004*%
%ADD18C,0.00700*%
%ADD19C,0.00400*%
%ADD154C,0.00197*%
D11*
X136579Y214276D02*
Y218213D01*
X134610Y216244D02*
X138547D01*
X209108Y66392D02*
X211892Y63608D01*
X209108D02*
X211892Y66392D01*
X105819Y245500D02*
X108181D01*
X107000Y244319D02*
Y246681D01*
X101094Y243138D02*
Y247862D01*
X112906D01*
Y243138D02*
Y247862D01*
X101094Y243138D02*
X112906D01*
X257583Y117323D02*
Y158268D01*
X228842D02*
X257583D01*
X228842Y117323D02*
X257583D01*
X228842D02*
Y158268D01*
X152165Y57303D02*
Y61240D01*
X150197Y59272D02*
X154134D01*
X86319Y136500D02*
X88681D01*
X87500Y135319D02*
Y137681D01*
X93406Y134138D02*
Y138862D01*
X81594D02*
X93406D01*
X81594Y134138D02*
X93406D01*
X81594D02*
Y138862D01*
X118032Y66000D02*
X121969D01*
X120000Y64032D02*
Y67969D01*
X114862Y36594D02*
Y48406D01*
X110138D02*
X114862D01*
X110138Y36594D02*
Y48406D01*
Y36594D02*
X114862D01*
X111319Y42500D02*
X113681D01*
X112500Y41319D02*
Y43681D01*
X205913Y180850D02*
Y187150D01*
Y180850D02*
X220087D01*
Y187150D01*
X205913D02*
X220087D01*
X213000Y182032D02*
Y185969D01*
X211032Y184000D02*
X214969D01*
X205913Y174350D02*
Y180650D01*
Y174350D02*
X220087D01*
Y180650D01*
X205913D02*
X220087D01*
X213000Y175532D02*
Y179469D01*
X211032Y177500D02*
X214969D01*
X204094Y184362D02*
X215906D01*
X204094Y179638D02*
Y184362D01*
Y179638D02*
X215906D01*
Y184362D01*
X210000Y180819D02*
Y183181D01*
X208819Y182000D02*
X211181D01*
X204094Y178862D02*
X215906D01*
X204094Y174138D02*
Y178862D01*
Y174138D02*
X215906D01*
Y178862D01*
X210000Y175319D02*
Y177681D01*
X208819Y176500D02*
X211181D01*
X205913Y187350D02*
Y193650D01*
Y187350D02*
X220087D01*
Y193650D01*
X205913D02*
X220087D01*
X213000Y188532D02*
Y192469D01*
X211032Y190500D02*
X214969D01*
X204094Y189862D02*
X215906D01*
X204094Y185138D02*
Y189862D01*
Y185138D02*
X215906D01*
Y189862D01*
X210000Y186319D02*
Y188681D01*
X208819Y187500D02*
X211181D01*
X204094Y195362D02*
X215906D01*
X204094Y190638D02*
Y195362D01*
Y190638D02*
X215906D01*
Y195362D01*
X210000Y191819D02*
Y194181D01*
X208819Y193000D02*
X211181D01*
X204094Y200862D02*
X215906D01*
X204094Y196138D02*
Y200862D01*
Y196138D02*
X215906D01*
Y200862D01*
X210000Y197319D02*
Y199681D01*
X208819Y198500D02*
X211181D01*
X193138Y175094D02*
Y186906D01*
Y175094D02*
X197862D01*
Y186906D01*
X193138D02*
X197862D01*
X194319Y181000D02*
X196681D01*
X195500Y179819D02*
Y182181D01*
X188362Y202358D02*
Y214169D01*
X183638D02*
X188362D01*
X183638Y202358D02*
Y214169D01*
Y202358D02*
X188362D01*
X184819Y208264D02*
X187181D01*
X186000Y207083D02*
Y209445D01*
X151819Y226000D02*
X154181D01*
X153000Y224819D02*
Y227181D01*
X158906Y223638D02*
Y228362D01*
X147094Y223638D02*
X158906D01*
X147094D02*
Y228362D01*
X158906D01*
X106138Y224094D02*
Y235906D01*
Y224094D02*
X110862D01*
Y235906D01*
X106138D02*
X110862D01*
X107319Y230000D02*
X109681D01*
X108500Y228819D02*
Y231181D01*
X191594Y198638D02*
X203406D01*
Y203362D01*
X191594D02*
X203406D01*
X191594Y198638D02*
Y203362D01*
X197500Y199819D02*
Y202181D01*
X196319Y201000D02*
X198681D01*
X187307Y66020D02*
Y80980D01*
Y66020D02*
X200693D01*
Y80980D01*
X187307D02*
X200693D01*
X192032Y73500D02*
X195969D01*
X194000Y71531D02*
Y75468D01*
X157594Y180362D02*
X169406D01*
Y175638D02*
Y180362D01*
X157594Y175638D02*
X169406D01*
X157594D02*
Y180362D01*
X163500Y176819D02*
Y179181D01*
X162319Y178000D02*
X164681D01*
X98862Y223094D02*
Y234906D01*
X94138D02*
X98862D01*
X94138Y223094D02*
Y234906D01*
Y223094D02*
X98862D01*
X95319Y229000D02*
X97681D01*
X96500Y227819D02*
Y230181D01*
X169291Y110236D02*
X224409D01*
Y165354D01*
X169291D02*
X224409D01*
X169291Y110236D02*
Y165354D01*
X187008Y137795D02*
X206693D01*
X196850Y127953D02*
Y147638D01*
X137795Y127953D02*
Y147638D01*
X127953Y137795D02*
X147638D01*
X163780Y111811D02*
Y163780D01*
X111811Y111811D02*
X163780D01*
X111811D02*
Y163780D01*
X163780D01*
X184098Y83043D02*
X188035D01*
X186067Y81075D02*
Y85012D01*
X147000Y196016D02*
Y197984D01*
X146016Y197000D02*
X147984D01*
X162319Y189272D02*
X164681D01*
X163500Y188091D02*
Y190453D01*
X169406Y186909D02*
Y191634D01*
X157594D02*
X169406D01*
X157594Y186909D02*
Y191634D01*
Y186909D02*
X169406D01*
X162319Y184000D02*
X164681D01*
X163500Y182819D02*
Y185181D01*
X169406Y181638D02*
Y186362D01*
X157594D02*
X169406D01*
X157594Y181638D02*
Y186362D01*
Y181638D02*
X169406D01*
X147000Y192016D02*
Y193984D01*
X146016Y193000D02*
X147984D01*
X65500Y84728D02*
Y88272D01*
X63728Y86500D02*
X67272D01*
X210000Y214228D02*
Y217772D01*
X208228Y216000D02*
X211772D01*
X158500Y44532D02*
Y48469D01*
X156531Y46500D02*
X160469D01*
X208819Y171000D02*
X211181D01*
X210000Y169819D02*
Y172181D01*
X215906Y168638D02*
Y173362D01*
X204094Y168638D02*
X215906D01*
X204094D02*
Y173362D01*
X215906D01*
X86319Y142000D02*
X88681D01*
X87500Y140819D02*
Y143181D01*
X81594Y139638D02*
Y144362D01*
X93406D01*
Y139638D02*
Y144362D01*
X81594Y139638D02*
X93406D01*
X208819Y204000D02*
X211181D01*
X210000Y202819D02*
Y205181D01*
X215906Y201638D02*
Y206362D01*
X204094Y201638D02*
X215906D01*
X204094D02*
Y206362D01*
X215906D01*
X86319Y125500D02*
X88681D01*
X87500Y124319D02*
Y126681D01*
X81594Y123138D02*
Y127862D01*
X93406D01*
Y123138D02*
Y127862D01*
X81594Y123138D02*
X93406D01*
X86319Y131000D02*
X88681D01*
X87500Y129819D02*
Y132181D01*
X81594Y128638D02*
Y133362D01*
X93406D01*
Y128638D02*
Y133362D01*
X81594Y128638D02*
X93406D01*
X151819Y231000D02*
X154181D01*
X153000Y229819D02*
Y232181D01*
X158906Y228638D02*
Y233362D01*
X147094Y228638D02*
X158906D01*
X147094D02*
Y233362D01*
X158906D01*
X151819Y236000D02*
X154181D01*
X153000Y234819D02*
Y237181D01*
X158906Y233638D02*
Y238362D01*
X147094Y233638D02*
X158906D01*
X147094D02*
Y238362D01*
X158906D01*
X118500Y228819D02*
Y231181D01*
X117319Y230000D02*
X119681D01*
X116138Y235906D02*
X120862D01*
Y224094D02*
Y235906D01*
X116138Y224094D02*
X120862D01*
X116138D02*
Y235906D01*
X113500Y228819D02*
Y231181D01*
X112319Y230000D02*
X114681D01*
X111138Y235906D02*
X115862D01*
Y224094D02*
Y235906D01*
X111138Y224094D02*
X115862D01*
X111138D02*
Y235906D01*
X208819Y209500D02*
X211181D01*
X210000Y208319D02*
Y210681D01*
X215906Y207138D02*
Y211862D01*
X204094Y207138D02*
X215906D01*
X204094D02*
Y211862D01*
X215906D01*
X114170Y221000D02*
X116532D01*
X115350Y219819D02*
Y222181D01*
X109445Y218638D02*
Y223362D01*
X121256D01*
Y218638D02*
Y223362D01*
X109445Y218638D02*
X121256D01*
X114170Y216000D02*
X116532D01*
X115350Y214819D02*
Y217181D01*
X109445Y213638D02*
Y218362D01*
X121256D01*
Y213638D02*
Y218362D01*
X109445Y213638D02*
X121256D01*
X82500Y218319D02*
Y220681D01*
X81319Y219500D02*
X83681D01*
X80138Y213594D02*
X84862D01*
X80138D02*
Y225406D01*
X84862D01*
Y213594D02*
Y225406D01*
X82500Y205319D02*
Y207681D01*
X81319Y206500D02*
X83681D01*
X80138Y212406D02*
X84862D01*
Y200594D02*
Y212406D01*
X80138Y200594D02*
X84862D01*
X80138D02*
Y212406D01*
X97819Y205000D02*
X100181D01*
X99000Y203819D02*
Y206181D01*
X93094Y202638D02*
Y207362D01*
X104906D01*
Y202638D02*
Y207362D01*
X93094Y202638D02*
X104906D01*
X69000Y219319D02*
Y221681D01*
X67819Y220500D02*
X70181D01*
X66638Y214594D02*
X71362D01*
X66638D02*
Y226406D01*
X71362D01*
Y214594D02*
Y226406D01*
X64319Y212500D02*
X66681D01*
X65500Y211319D02*
Y213681D01*
X71406Y210138D02*
Y214862D01*
X59594Y210138D02*
X71406D01*
X59594D02*
Y214862D01*
X71406D01*
X64319Y207500D02*
X66681D01*
X65500Y206319D02*
Y208681D01*
X71406Y205138D02*
Y209862D01*
X59594Y205138D02*
X71406D01*
X59594D02*
Y209862D01*
X71406D01*
X50500Y203319D02*
Y205681D01*
X49319Y204500D02*
X51681D01*
X48138Y210406D02*
X52862D01*
Y198594D02*
Y210406D01*
X48138Y198594D02*
X52862D01*
X48138D02*
Y210406D01*
X64319Y202000D02*
X66681D01*
X65500Y200819D02*
Y203181D01*
X59594Y199638D02*
Y204362D01*
X71406D01*
Y199638D02*
Y204362D01*
X59594Y199638D02*
X71406D01*
X44819Y195500D02*
X47181D01*
X46000Y194319D02*
Y196681D01*
X51906Y193138D02*
Y197862D01*
X40094Y193138D02*
X51906D01*
X40094D02*
Y197862D01*
X51906D01*
X167063Y206000D02*
X174937D01*
X171000Y202063D02*
Y209937D01*
X163126Y213874D02*
X178874D01*
X163126Y198126D02*
Y213874D01*
Y198126D02*
X178874D01*
Y213874D01*
X63630Y95000D02*
X67370D01*
X65500Y93130D02*
Y96870D01*
X123000Y186130D02*
Y189870D01*
X121130Y188000D02*
X124870D01*
X228594Y158138D02*
X240406D01*
X228594D02*
Y162862D01*
X240406D01*
Y158138D02*
Y162862D01*
X234500Y159319D02*
Y161681D01*
X233319Y160500D02*
X235681D01*
X229000Y150319D02*
Y152681D01*
X227819Y151500D02*
X230181D01*
X226638Y145594D02*
X231362D01*
Y157406D01*
X226638D02*
X231362D01*
X226638Y145594D02*
Y157406D01*
X186819Y151500D02*
X189181D01*
X188000Y150319D02*
Y152681D01*
X182094Y149138D02*
Y153862D01*
X193906D01*
Y149138D02*
Y153862D01*
X182094Y149138D02*
X193906D01*
X184500Y140819D02*
Y143181D01*
X183319Y142000D02*
X185681D01*
X182138Y147906D02*
X186862D01*
Y136094D02*
Y147906D01*
X182138Y136094D02*
X186862D01*
X182138D02*
Y147906D01*
X86319Y119000D02*
X88681D01*
X87500Y117819D02*
Y120181D01*
X93406Y116638D02*
Y121362D01*
X81594Y116638D02*
X93406D01*
X81594D02*
Y121362D01*
X93406D01*
X169319Y78000D02*
X171681D01*
X170500Y76819D02*
Y79181D01*
X164594Y75638D02*
Y80362D01*
X176406D01*
Y75638D02*
Y80362D01*
X164594Y75638D02*
X176406D01*
X187000Y177319D02*
Y179681D01*
X185819Y178500D02*
X188181D01*
X184638Y184406D02*
X189362D01*
X184638Y172594D02*
Y184406D01*
Y172594D02*
X189362D01*
Y184406D01*
X170000Y236319D02*
Y238681D01*
X168819Y237500D02*
X171181D01*
X167638Y243406D02*
X172362D01*
Y231594D02*
Y243406D01*
X167638Y231594D02*
X172362D01*
X167638D02*
Y243406D01*
X114170Y211000D02*
X116532D01*
X115350Y209819D02*
Y212181D01*
X109445Y208638D02*
Y213362D01*
X121256D01*
Y208638D02*
Y213362D01*
X109445Y208638D02*
X121256D01*
X110819Y200500D02*
X113181D01*
X112000Y199319D02*
Y201681D01*
X106094Y198138D02*
Y202862D01*
X117906D01*
Y198138D02*
Y202862D01*
X106094Y198138D02*
X117906D01*
X77819Y195500D02*
X80181D01*
X79000Y194319D02*
Y196681D01*
X73094Y193138D02*
Y197862D01*
X84906D01*
Y193138D02*
Y197862D01*
X73094Y193138D02*
X84906D01*
X64819Y192500D02*
X67181D01*
X66000Y191319D02*
Y193681D01*
X60094Y190138D02*
Y194862D01*
X71906D01*
Y190138D02*
Y194862D01*
X60094Y190138D02*
X71906D01*
X157500Y206319D02*
Y208681D01*
X156319Y207500D02*
X158681D01*
X155138Y201594D02*
X159862D01*
Y213406D01*
X155138D02*
X159862D01*
X155138Y201594D02*
Y213406D01*
X84532Y158500D02*
X88469D01*
X86500Y156531D02*
Y160469D01*
D14*
X130307Y60501D02*
Y63781D01*
X130963Y64437D01*
X132275D01*
X132931Y63781D01*
Y60501D01*
X134243Y64437D02*
X135555D01*
X134899D01*
Y60501D01*
X134243Y61157D01*
D16*
X99000Y208000D02*
X106000D01*
Y235000D01*
X99000D02*
X106000D01*
X99000Y208000D02*
Y235000D01*
X100000Y243000D02*
X127000D01*
Y236000D02*
Y243000D01*
X100000Y236000D02*
X127000D01*
X100000D02*
Y243000D01*
X85631Y199000D02*
X92631D01*
Y226000D01*
X85631D02*
X92631D01*
X85631Y199000D02*
Y226000D01*
X72000Y199000D02*
X79000D01*
Y226000D01*
X72000D02*
X79000D01*
X72000Y199000D02*
Y226000D01*
X52500Y189500D02*
Y216500D01*
X59500D01*
Y189500D02*
Y216500D01*
X52500Y189500D02*
X59500D01*
X166500Y217500D02*
Y244500D01*
X159500Y217500D02*
X166500D01*
X159500D02*
Y244500D01*
X166500D01*
D17*
X137795Y19685D02*
X138793Y19689D01*
X139790Y19702D01*
X140787Y19723D01*
X141784Y19752D01*
X142781Y19790D01*
X143777Y19837D01*
X144773Y19891D01*
X145769Y19954D01*
X146764Y20026D01*
X147758Y20106D01*
X148751Y20194D01*
X149744Y20291D01*
X150736Y20396D01*
X151727Y20509D01*
X152717Y20631D01*
X153706Y20762D01*
X154693Y20900D01*
X155680Y21047D01*
X156665Y21202D01*
X157649Y21366D01*
X158632Y21538D01*
X159613Y21718D01*
X160592Y21906D01*
X161570Y22103D01*
X162546Y22308D01*
X163521Y22521D01*
X164493Y22742D01*
X165464Y22972D01*
X166432Y23209D01*
X167399Y23455D01*
X168364Y23709D01*
X169326Y23971D01*
X170286Y24242D01*
X171244Y24520D01*
X172199Y24807D01*
X173152Y25101D01*
X174102Y25404D01*
X175050Y25715D01*
X175996Y26033D01*
X176938Y26360D01*
X177878Y26694D01*
X178814Y27037D01*
X179748Y27387D01*
X180679Y27745D01*
X181607Y28111D01*
X182532Y28485D01*
X183453Y28867D01*
X184371Y29256D01*
X185286Y29654D01*
X186198Y30059D01*
X187106Y30471D01*
X188011Y30891D01*
X188911Y31319D01*
X189809Y31755D01*
X190702Y32198D01*
X191592Y32648D01*
X192478Y33106D01*
X193360Y33572D01*
X194239Y34045D01*
X195113Y34525D01*
X195983Y35013D01*
X196849Y35508D01*
X197710Y36010D01*
X198568Y36520D01*
X199421Y37037D01*
X200270Y37561D01*
X201114Y38092D01*
X201954Y38630D01*
X202789Y39175D01*
X203619Y39728D01*
X204445Y40287D01*
X205266Y40854D01*
X206082Y41427D01*
X206894Y42007D01*
X207700Y42594D01*
X208502Y43187D01*
X209298Y43788D01*
X210089Y44395D01*
X210876Y45009D01*
X211656Y45629D01*
X212432Y46256D01*
X213203Y46890D01*
X213967Y47530D01*
X214727Y48177D01*
X215481Y48829D01*
X216230Y49489D01*
X216973Y50154D01*
X217710Y50826D01*
X218442Y51504D01*
X219167Y52188D01*
X219887Y52878D01*
X220602Y53574D01*
X221310Y54277D01*
X222012Y54985D01*
X222709Y55699D01*
X223399Y56419D01*
X224083Y57145D01*
X224761Y57876D01*
X225433Y58614D01*
X226098Y59357D01*
X226758Y60105D01*
X227410Y60859D01*
X228057Y61619D01*
X228697Y62384D01*
X229330Y63154D01*
X229958Y63930D01*
X230578Y64711D01*
X231192Y65497D01*
X231799Y66288D01*
X232400Y67084D01*
X232994Y67886D01*
X233580Y68692D01*
X234161Y69504D01*
X234734Y70320D01*
X235300Y71141D01*
X235860Y71967D01*
X236412Y72797D01*
X236957Y73632D01*
X237496Y74472D01*
X238027Y75316D01*
X238551Y76165D01*
X239068Y77018D01*
X239578Y77875D01*
X240080Y78737D01*
X240575Y79603D01*
X241063Y80473D01*
X241543Y81347D01*
X242016Y82225D01*
X242482Y83107D01*
X242940Y83993D01*
X243390Y84883D01*
X243833Y85777D01*
X244269Y86674D01*
X244697Y87575D01*
X245117Y88480D01*
X245530Y89388D01*
X245935Y90299D01*
X246332Y91214D01*
X246722Y92132D01*
X247103Y93054D01*
X247477Y93978D01*
X247843Y94906D01*
X248201Y95837D01*
X248552Y96771D01*
X248894Y97708D01*
X249229Y98647D01*
X249556Y99590D01*
X249874Y100535D01*
X250185Y101483D01*
X250487Y102433D01*
X250782Y103386D01*
X251069Y104341D01*
X251347Y105299D01*
X251618Y106259D01*
X251880Y107221D01*
X252134Y108186D01*
X252380Y109153D01*
X252618Y110121D01*
X252847Y111092D01*
X253069Y112065D01*
X253282Y113039D01*
X253487Y114015D01*
X253683Y114993D01*
X253872Y115972D01*
X254052Y116953D01*
X254224Y117936D01*
X254387Y118920D01*
X254543Y119905D01*
X254690Y120892D01*
X254828Y121879D01*
X254959Y122868D01*
X255080Y123858D01*
X255194Y124849D01*
X255299Y125841D01*
X255396Y126834D01*
X255484Y127827D01*
X255564Y128821D01*
X255636Y129816D01*
X255699Y130812D01*
X255754Y131808D01*
X255800Y132804D01*
X255838Y133801D01*
X255868Y134798D01*
X255889Y135795D01*
X255901Y136792D01*
X255906Y137790D01*
Y137795D01*
X255901Y138793D01*
X255889Y139790D01*
X255868Y140787D01*
X255838Y141784D01*
X255800Y142781D01*
X255754Y143778D01*
X255699Y144773D01*
X255636Y145769D01*
X255564Y146764D01*
X255485Y147758D01*
X255396Y148751D01*
X255299Y149744D01*
X255194Y150736D01*
X255081Y151727D01*
X254959Y152717D01*
X254829Y153706D01*
X254690Y154694D01*
X254543Y155680D01*
X254388Y156666D01*
X254225Y157650D01*
X254053Y158632D01*
X253873Y159613D01*
X253684Y160593D01*
X253488Y161571D01*
X253283Y162547D01*
X253070Y163521D01*
X252848Y164494D01*
X252619Y165464D01*
X252381Y166433D01*
X252135Y167400D01*
X251881Y168365D01*
X251619Y169327D01*
X251348Y170287D01*
X251070Y171245D01*
X250783Y172200D01*
X250489Y173153D01*
X250186Y174104D01*
X249876Y175051D01*
X249557Y175997D01*
X249230Y176939D01*
X248896Y177879D01*
X248553Y178816D01*
X248203Y179750D01*
X247845Y180680D01*
X247479Y181608D01*
X247105Y182533D01*
X246723Y183455D01*
X246334Y184373D01*
X245936Y185288D01*
X245532Y186199D01*
X245119Y187107D01*
X244699Y188012D01*
X244271Y188913D01*
X243835Y189810D01*
X243392Y190704D01*
X242942Y191594D01*
X242483Y192480D01*
X242018Y193362D01*
X241545Y194240D01*
X241065Y195114D01*
X240577Y195984D01*
X240082Y196850D01*
X239579Y197712D01*
X239070Y198570D01*
X238553Y199423D01*
X238029Y200271D01*
X237498Y201116D01*
X236959Y201955D01*
X236414Y202790D01*
X235862Y203621D01*
X235302Y204447D01*
X234736Y205268D01*
X234163Y206084D01*
X233582Y206896D01*
X232996Y207702D01*
X232402Y208504D01*
X231801Y209300D01*
X231194Y210091D01*
X230580Y210877D01*
X229960Y211658D01*
X229332Y212434D01*
X228699Y213205D01*
X228059Y213969D01*
X227412Y214729D01*
X226760Y215483D01*
X226100Y216232D01*
X225435Y216975D01*
X224763Y217712D01*
X224085Y218443D01*
X223401Y219169D01*
X222710Y219889D01*
X222014Y220604D01*
X221312Y221312D01*
X220603Y222014D01*
X219889Y222710D01*
X219169Y223401D01*
X218443Y224085D01*
X217712Y224763D01*
X216975Y225435D01*
X216232Y226100D01*
X215483Y226760D01*
X214729Y227412D01*
X213969Y228059D01*
X213204Y228699D01*
X212434Y229333D01*
X211658Y229960D01*
X210877Y230580D01*
X210091Y231194D01*
X209300Y231801D01*
X208504Y232402D01*
X207702Y232996D01*
X206895Y233582D01*
X206084Y234163D01*
X205268Y234736D01*
X204447Y235302D01*
X203621Y235862D01*
X202790Y236414D01*
X201955Y236959D01*
X201115Y237498D01*
X200271Y238029D01*
X199423Y238553D01*
X198570Y239070D01*
X197712Y239579D01*
X196850Y240082D01*
X195984Y240577D01*
X195114Y241065D01*
X194240Y241545D01*
X193362Y242018D01*
X192480Y242483D01*
X191594Y242942D01*
X190704Y243392D01*
X189810Y243835D01*
X188913Y244271D01*
X188012Y244699D01*
X187107Y245119D01*
X186199Y245532D01*
X185288Y245936D01*
X184373Y246334D01*
X183454Y246723D01*
X182533Y247105D01*
X181608Y247479D01*
X180680Y247845D01*
X179749Y248203D01*
X178815Y248553D01*
X177879Y248896D01*
X176939Y249231D01*
X175996Y249557D01*
X175051Y249876D01*
X174103Y250186D01*
X173153Y250489D01*
X172200Y250783D01*
X171245Y251070D01*
X170287Y251348D01*
X169327Y251619D01*
X168364Y251881D01*
X167400Y252135D01*
X166433Y252381D01*
X165464Y252619D01*
X164494Y252848D01*
X163521Y253070D01*
X162547Y253283D01*
X161571Y253488D01*
X160593Y253684D01*
X159613Y253873D01*
X158632Y254053D01*
X157650Y254225D01*
X156666Y254388D01*
X155680Y254543D01*
X154694Y254690D01*
X153706Y254829D01*
X152717Y254959D01*
X151727Y255081D01*
X150736Y255194D01*
X149744Y255299D01*
X148751Y255396D01*
X147758Y255485D01*
X146764Y255564D01*
X145769Y255636D01*
X144773Y255699D01*
X143777Y255754D01*
X142781Y255800D01*
X141784Y255838D01*
X140787Y255868D01*
X139790Y255889D01*
X138793Y255901D01*
X137795Y255906D01*
X136798Y255901D01*
X135801Y255889D01*
X134803Y255868D01*
X133806Y255838D01*
X132809Y255800D01*
X131813Y255754D01*
X130817Y255699D01*
X129822Y255636D01*
X128827Y255564D01*
X127832Y255485D01*
X126839Y255396D01*
X125846Y255299D01*
X124854Y255194D01*
X123863Y255081D01*
X122873Y254959D01*
X121885Y254829D01*
X120897Y254690D01*
X119910Y254543D01*
X118925Y254388D01*
X117941Y254225D01*
X116958Y254053D01*
X115977Y253873D01*
X114998Y253684D01*
X114020Y253488D01*
X113044Y253283D01*
X112069Y253070D01*
X111097Y252848D01*
X110126Y252619D01*
X109157Y252381D01*
X108191Y252135D01*
X107226Y251881D01*
X106264Y251619D01*
X105304Y251348D01*
X104346Y251070D01*
X103390Y250783D01*
X102437Y250489D01*
X101487Y250186D01*
X100539Y249876D01*
X99594Y249557D01*
X98651Y249230D01*
X97712Y248896D01*
X96775Y248553D01*
X95841Y248203D01*
X94910Y247845D01*
X93982Y247479D01*
X93058Y247105D01*
X92136Y246723D01*
X91218Y246334D01*
X90303Y245936D01*
X89391Y245531D01*
X88483Y245119D01*
X87578Y244699D01*
X86677Y244271D01*
X85780Y243835D01*
X84886Y243392D01*
X83997Y242941D01*
X83111Y242483D01*
X82228Y242018D01*
X81350Y241545D01*
X80476Y241065D01*
X79606Y240577D01*
X78740Y240082D01*
X77878Y239579D01*
X77021Y239070D01*
X76168Y238553D01*
X75319Y238029D01*
X74475Y237498D01*
X73635Y236959D01*
X72800Y236414D01*
X71969Y235862D01*
X71144Y235302D01*
X70323Y234736D01*
X69506Y234162D01*
X68695Y233582D01*
X67888Y232995D01*
X67087Y232402D01*
X66291Y231801D01*
X65499Y231194D01*
X64713Y230580D01*
X63932Y229960D01*
X63156Y229332D01*
X62386Y228699D01*
X61621Y228059D01*
X60861Y227412D01*
X60107Y226759D01*
X59359Y226100D01*
X58616Y225435D01*
X57879Y224763D01*
X57147Y224085D01*
X56421Y223401D01*
X55701Y222710D01*
X54987Y222014D01*
X54279Y221312D01*
X53576Y220603D01*
X52880Y219889D01*
X52190Y219169D01*
X51506Y218443D01*
X50828Y217712D01*
X50156Y216974D01*
X49490Y216232D01*
X48831Y215483D01*
X48178Y214729D01*
X47532Y213969D01*
X46891Y213204D01*
X46258Y212434D01*
X45631Y211658D01*
X45010Y210877D01*
X44396Y210091D01*
X43789Y209300D01*
X43189Y208503D01*
X42595Y207702D01*
X42008Y206895D01*
X41428Y206084D01*
X40855Y205268D01*
X40288Y204447D01*
X39729Y203621D01*
X39176Y202790D01*
X38631Y201955D01*
X38093Y201115D01*
X37562Y200271D01*
X37038Y199423D01*
X36521Y198569D01*
X36011Y197712D01*
X35509Y196850D01*
X35014Y195984D01*
X34526Y195114D01*
X34045Y194240D01*
X33573Y193362D01*
X33107Y192480D01*
X32649Y191594D01*
X32198Y190704D01*
X31755Y189810D01*
X31320Y188913D01*
X30892Y188012D01*
X30472Y187107D01*
X30059Y186199D01*
X29654Y185288D01*
X29257Y184373D01*
X28867Y183454D01*
X28486Y182533D01*
X28112Y181608D01*
X27746Y180680D01*
X27387Y179749D01*
X27037Y178815D01*
X26695Y177879D01*
X26360Y176939D01*
X26033Y175996D01*
X25715Y175051D01*
X25404Y174103D01*
X25102Y173153D01*
X24807Y172200D01*
X24521Y171245D01*
X24242Y170287D01*
X23972Y169327D01*
X23709Y168364D01*
X23455Y167400D01*
X23210Y166433D01*
X22972Y165464D01*
X22742Y164494D01*
X22521Y163521D01*
X22308Y162547D01*
X22103Y161571D01*
X21906Y160593D01*
X21718Y159613D01*
X21538Y158632D01*
X21366Y157650D01*
X21202Y156666D01*
X21047Y155680D01*
X20900Y154694D01*
X20762Y153706D01*
X20631Y152717D01*
X20510Y151727D01*
X20396Y150736D01*
X20291Y149744D01*
X20194Y148751D01*
X20106Y147758D01*
X20026Y146764D01*
X19954Y145769D01*
X19891Y144773D01*
X19837Y143777D01*
X19790Y142781D01*
X19752Y141784D01*
X19723Y140787D01*
X19702Y139790D01*
X19689Y138793D01*
X19685Y137795D01*
X19689Y136798D01*
X19702Y135801D01*
X19723Y134803D01*
X19752Y133806D01*
X19790Y132809D01*
X19837Y131813D01*
X19891Y130817D01*
X19954Y129822D01*
X20026Y128827D01*
X20106Y127832D01*
X20194Y126839D01*
X20291Y125846D01*
X20396Y124854D01*
X20510Y123863D01*
X20631Y122873D01*
X20762Y121885D01*
X20900Y120897D01*
X21047Y119910D01*
X21202Y118925D01*
X21366Y117941D01*
X21538Y116958D01*
X21718Y115977D01*
X21906Y114998D01*
X22103Y114020D01*
X22308Y113044D01*
X22521Y112069D01*
X22742Y111097D01*
X22972Y110126D01*
X23210Y109157D01*
X23456Y108191D01*
X23710Y107226D01*
X23972Y106264D01*
X24242Y105304D01*
X24521Y104346D01*
X24807Y103390D01*
X25102Y102437D01*
X25404Y101487D01*
X25715Y100539D01*
X26034Y99594D01*
X26360Y98651D01*
X26695Y97712D01*
X27037Y96775D01*
X27387Y95841D01*
X27746Y94910D01*
X28112Y93982D01*
X28486Y93058D01*
X28868Y92136D01*
X29257Y91218D01*
X29654Y90303D01*
X30059Y89391D01*
X30472Y88483D01*
X30892Y87578D01*
X31320Y86677D01*
X31755Y85780D01*
X32199Y84886D01*
X32649Y83997D01*
X33107Y83111D01*
X33573Y82228D01*
X34046Y81350D01*
X34526Y80476D01*
X35014Y79606D01*
X35509Y78740D01*
X36011Y77878D01*
X36521Y77021D01*
X37038Y76168D01*
X37562Y75319D01*
X38093Y74475D01*
X38631Y73635D01*
X39177Y72800D01*
X39729Y71969D01*
X40288Y71144D01*
X40855Y70323D01*
X41428Y69506D01*
X42008Y68695D01*
X42595Y67888D01*
X43189Y67087D01*
X43789Y66291D01*
X44397Y65499D01*
X45011Y64713D01*
X45631Y63932D01*
X46258Y63156D01*
X46892Y62386D01*
X47532Y61621D01*
X48178Y60861D01*
X48831Y60107D01*
X49490Y59359D01*
X50156Y58616D01*
X50828Y57879D01*
X51506Y57147D01*
X52190Y56421D01*
X52880Y55701D01*
X53576Y54987D01*
X54279Y54279D01*
X54987Y53576D01*
X55701Y52880D01*
X56421Y52190D01*
X57147Y51506D01*
X57879Y50828D01*
X58616Y50156D01*
X59359Y49490D01*
X60107Y48831D01*
X60862Y48178D01*
X61621Y47532D01*
X62386Y46891D01*
X63156Y46258D01*
X63932Y45631D01*
X64713Y45010D01*
X65499Y44396D01*
X66291Y43789D01*
X67087Y43189D01*
X67889Y42595D01*
X68695Y42008D01*
X69507Y41428D01*
X70323Y40855D01*
X71144Y40288D01*
X71970Y39729D01*
X72800Y39176D01*
X73635Y38631D01*
X74475Y38093D01*
X75319Y37562D01*
X76168Y37038D01*
X77021Y36521D01*
X77879Y36011D01*
X78740Y35509D01*
X79606Y35014D01*
X80476Y34526D01*
X81350Y34045D01*
X82229Y33573D01*
X83111Y33107D01*
X83997Y32649D01*
X84887Y32198D01*
X85780Y31755D01*
X86678Y31320D01*
X87579Y30892D01*
X88483Y30472D01*
X89391Y30059D01*
X90303Y29654D01*
X91218Y29257D01*
X92136Y28867D01*
X93058Y28486D01*
X93982Y28112D01*
X94910Y27746D01*
X95841Y27387D01*
X96775Y27037D01*
X97712Y26695D01*
X98652Y26360D01*
X99594Y26033D01*
X100539Y25715D01*
X101487Y25404D01*
X102438Y25102D01*
X103391Y24807D01*
X104346Y24521D01*
X105304Y24242D01*
X106264Y23972D01*
X107226Y23709D01*
X108191Y23455D01*
X109158Y23210D01*
X110126Y22972D01*
X111097Y22742D01*
X112069Y22521D01*
X113044Y22308D01*
X114020Y22103D01*
X114998Y21906D01*
X115977Y21718D01*
X116958Y21538D01*
X117941Y21366D01*
X118925Y21202D01*
X119910Y21047D01*
X120896Y20900D01*
X121884Y20762D01*
X122873Y20631D01*
X123863Y20510D01*
X124854Y20396D01*
X125846Y20291D01*
X126839Y20194D01*
X127832Y20106D01*
X128826Y20026D01*
X129821Y19954D01*
X130817Y19891D01*
X131813Y19837D01*
X132809Y19790D01*
X133806Y19752D01*
X134803Y19723D01*
X135800Y19702D01*
X136797Y19689D01*
X137795Y19685D01*
D18*
X138577Y222244D02*
X135245D01*
X134579Y221578D01*
Y220245D01*
X135245Y219578D01*
X138577D01*
X137911Y218245D02*
X138577Y217579D01*
Y216246D01*
X137911Y215580D01*
X137244D01*
X136578Y216246D01*
Y216913D01*
Y216246D01*
X135912Y215580D01*
X135245D01*
X134579Y216246D01*
Y217579D01*
X135245Y218245D01*
D19*
X162067Y64042D02*
Y61543D01*
X162567Y61043D01*
X163566D01*
X164066Y61543D01*
Y64042D01*
X166565Y61043D02*
Y64042D01*
X165066Y62543D01*
X167065D01*
D154*
X124768Y228055D02*
X148390D01*
X124768Y204433D02*
X148390D01*
Y228055D01*
X124768Y204433D02*
Y228055D01*
X195955Y60338D02*
X215164Y79547D01*
X195955Y60338D02*
X206673Y49620D01*
X215164Y79547D02*
X225883Y68828D01*
X206673Y49619D02*
X225882Y68827D01*
X158465Y52579D02*
Y65965D01*
X145866D02*
X158465D01*
X145866Y52579D02*
X158465D01*
X145866D02*
Y65965D01*
X113701Y59307D02*
Y72693D01*
X126299D01*
Y59307D02*
Y72693D01*
X113701Y59307D02*
X126299D01*
X159693Y57169D02*
X175441D01*
X159693Y72917D02*
X175441D01*
Y57169D02*
Y72917D01*
X159693Y57169D02*
Y72917D01*
X197090Y77335D02*
Y88752D01*
X175043Y77335D02*
Y88752D01*
Y77335D02*
X197090D01*
X175043Y88752D02*
X197090D01*
X150634Y195524D02*
Y198476D01*
X143827D02*
X150634D01*
X143827Y195524D02*
X150634D01*
X143827D02*
Y198476D01*
X150634Y191524D02*
Y194476D01*
X143827D02*
X150634D01*
X143827Y191524D02*
X150634D01*
X143827D02*
Y194476D01*
X58807Y82366D02*
X72193D01*
X58807Y90634D02*
X72193D01*
Y82366D02*
Y90634D01*
X58807Y82366D02*
Y90634D01*
X203307Y211866D02*
X216693D01*
X203307Y220134D02*
X216693D01*
X203307Y211866D02*
Y220134D01*
X216693Y211866D02*
Y220134D01*
X147476Y40791D02*
X169524D01*
X147476Y52209D02*
X169524D01*
X147476Y40791D02*
Y52209D01*
X169524Y40791D02*
Y52209D01*
X72193Y90866D02*
Y99134D01*
X58807Y90866D02*
Y99134D01*
Y90866D02*
X72193D01*
X58807Y99134D02*
X72193D01*
X118866Y181307D02*
X127134D01*
X118866Y194693D02*
X127134D01*
X118866Y181307D02*
Y194693D01*
X127134Y181307D02*
Y194693D01*
X127933Y52563D02*
Y68311D01*
X143681Y52563D02*
Y68311D01*
X127933Y52563D02*
X143681D01*
X127933Y68311D02*
X143681D01*
X79610Y152201D02*
Y164799D01*
X93390Y152201D02*
Y164799D01*
X79610Y152201D02*
X93390D01*
X79610Y164799D02*
X93390D01*
M02*
