G04*
G04 #@! TF.GenerationSoftware,Altium Limited,Altium Designer,22.4.2 (48)*
G04*
G04 Layer_Color=32896*
%FSLAX25Y25*%
%MOIN*%
G70*
G04*
G04 #@! TF.SameCoordinates,A5219701-5F61-4D45-AD81-8ED9BC4A77AE*
G04*
G04*
G04 #@! TF.FilePolarity,Positive*
G04*
G01*
G75*
%ADD10C,0.00984*%
%ADD11C,0.00394*%
%ADD12C,0.00394*%
%ADD13C,0.00591*%
%ADD14C,0.00787*%
%ADD17C,0.00004*%
%ADD18C,0.00700*%
%ADD19C,0.00400*%
%ADD120C,0.01181*%
%ADD152C,0.00236*%
D10*
X211062Y77458D02*
X210324Y77884D01*
Y77032D01*
X211062Y77458D01*
X113012Y70331D02*
X112274Y70757D01*
Y69905D01*
X113012Y70331D01*
X82268Y151315D02*
X81529Y151741D01*
Y150889D01*
X82268Y151315D01*
D11*
X99500Y236000D02*
X100500Y235000D01*
X115500Y224000D02*
X116000Y223500D01*
X120500D01*
X100500Y235000D02*
X106000D01*
X65624Y195016D02*
Y196984D01*
X64640D01*
X64312Y196656D01*
Y196000D01*
X64640Y195672D01*
X65624D01*
X64968D02*
X64312Y195016D01*
X62344D02*
X63656D01*
X62344Y196328D01*
Y196656D01*
X62672Y196984D01*
X63328D01*
X63656Y196656D01*
X60704Y195016D02*
Y196984D01*
X61688Y196000D01*
X60376D01*
X69812Y199156D02*
X70140Y199484D01*
X70796D01*
X71124Y199156D01*
Y197844D01*
X70796Y197516D01*
X70140D01*
X69812Y197844D01*
X69156Y199156D02*
X68828Y199484D01*
X68172D01*
X67844Y199156D01*
Y198828D01*
X68172Y198500D01*
X68500D01*
X68172D01*
X67844Y198172D01*
Y197844D01*
X68172Y197516D01*
X68828D01*
X69156Y197844D01*
X67188Y199484D02*
X65876D01*
Y199156D01*
X67188Y197844D01*
Y197516D01*
X46656Y201688D02*
X46984Y201360D01*
Y200704D01*
X46656Y200376D01*
X45344D01*
X45016Y200704D01*
Y201360D01*
X45344Y201688D01*
X46656Y202344D02*
X46984Y202672D01*
Y203328D01*
X46656Y203656D01*
X46328D01*
X46000Y203328D01*
Y203000D01*
Y203328D01*
X45672Y203656D01*
X45344D01*
X45016Y203328D01*
Y202672D01*
X45344Y202344D01*
X46984Y205624D02*
X46656Y204968D01*
X46000Y204312D01*
X45344D01*
X45016Y204640D01*
Y205296D01*
X45344Y205624D01*
X45672D01*
X46000Y205296D01*
Y204312D01*
X64312Y217156D02*
X64640Y217484D01*
X65296D01*
X65624Y217156D01*
Y215844D01*
X65296Y215516D01*
X64640D01*
X64312Y215844D01*
X63656Y217156D02*
X63328Y217484D01*
X62672D01*
X62344Y217156D01*
Y216828D01*
X62672Y216500D01*
X63000D01*
X62672D01*
X62344Y216172D01*
Y215844D01*
X62672Y215516D01*
X63328D01*
X63656Y215844D01*
X60704Y215516D02*
Y217484D01*
X61688Y216500D01*
X60376D01*
X70312Y228156D02*
X70640Y228484D01*
X71296D01*
X71624Y228156D01*
Y226844D01*
X71296Y226516D01*
X70640D01*
X70312Y226844D01*
X69656Y228156D02*
X69328Y228484D01*
X68672D01*
X68344Y228156D01*
Y227828D01*
X68672Y227500D01*
X69000D01*
X68672D01*
X68344Y227172D01*
Y226844D01*
X68672Y226516D01*
X69328D01*
X69656Y226844D01*
X67688Y228156D02*
X67360Y228484D01*
X66704D01*
X66376Y228156D01*
Y227828D01*
X66704Y227500D01*
X67032D01*
X66704D01*
X66376Y227172D01*
Y226844D01*
X66704Y226516D01*
X67360D01*
X67688Y226844D01*
X125312Y216656D02*
X125640Y216984D01*
X126296D01*
X126624Y216656D01*
Y215344D01*
X126296Y215016D01*
X125640D01*
X125312Y215344D01*
X123344Y215016D02*
X124656D01*
X123344Y216328D01*
Y216656D01*
X123672Y216984D01*
X124328D01*
X124656Y216656D01*
X122688Y215344D02*
X122360Y215016D01*
X121704D01*
X121376Y215344D01*
Y216656D01*
X121704Y216984D01*
X122360D01*
X122688Y216656D01*
Y216328D01*
X122360Y216000D01*
X121376D01*
X125312Y221656D02*
X125640Y221984D01*
X126296D01*
X126624Y221656D01*
Y220344D01*
X126296Y220016D01*
X125640D01*
X125312Y220344D01*
X123344Y220016D02*
X124656D01*
X123344Y221328D01*
Y221656D01*
X123672Y221984D01*
X124328D01*
X124656Y221656D01*
X122688D02*
X122360Y221984D01*
X121704D01*
X121376Y221656D01*
Y221328D01*
X121704Y221000D01*
X121376Y220672D01*
Y220344D01*
X121704Y220016D01*
X122360D01*
X122688Y220344D01*
Y220672D01*
X122360Y221000D01*
X122688Y221328D01*
Y221656D01*
X122360Y221000D02*
X121704D01*
X125312Y224656D02*
X125640Y224984D01*
X126296D01*
X126624Y224656D01*
Y223344D01*
X126296Y223016D01*
X125640D01*
X125312Y223344D01*
X123344Y223016D02*
X124656D01*
X123344Y224328D01*
Y224656D01*
X123672Y224984D01*
X124328D01*
X124656Y224656D01*
X121704Y223016D02*
Y224984D01*
X122688Y224000D01*
X121376D01*
X121844Y231812D02*
X121516Y232140D01*
Y232796D01*
X121844Y233124D01*
X123156D01*
X123484Y232796D01*
Y232140D01*
X123156Y231812D01*
X123484Y229844D02*
Y231156D01*
X122172Y229844D01*
X121844D01*
X121516Y230172D01*
Y230828D01*
X121844Y231156D01*
Y229188D02*
X121516Y228860D01*
Y228204D01*
X121844Y227876D01*
X122172D01*
X122500Y228204D01*
Y228532D01*
Y228204D01*
X122828Y227876D01*
X123156D01*
X123484Y228204D01*
Y228860D01*
X123156Y229188D01*
X219648Y193656D02*
X219976Y193984D01*
X220632D01*
X220960Y193656D01*
Y192344D01*
X220632Y192016D01*
X219976D01*
X219648Y192344D01*
X218992Y192016D02*
X218336D01*
X218664D01*
Y193984D01*
X218992Y193656D01*
X217352D02*
X217024Y193984D01*
X216368D01*
X216040Y193656D01*
Y193328D01*
X216368Y193000D01*
X216696D01*
X216368D01*
X216040Y192672D01*
Y192344D01*
X216368Y192016D01*
X217024D01*
X217352Y192344D01*
X219648Y188156D02*
X219976Y188484D01*
X220632D01*
X220960Y188156D01*
Y186844D01*
X220632Y186516D01*
X219976D01*
X219648Y186844D01*
X218992Y186516D02*
X218336D01*
X218664D01*
Y188484D01*
X218992Y188156D01*
X216040Y186516D02*
X217352D01*
X216040Y187828D01*
Y188156D01*
X216368Y188484D01*
X217024D01*
X217352Y188156D01*
X219648Y182656D02*
X219976Y182984D01*
X220632D01*
X220960Y182656D01*
Y181344D01*
X220632Y181016D01*
X219976D01*
X219648Y181344D01*
X218992Y181016D02*
X218336D01*
X218664D01*
Y182984D01*
X218992Y182656D01*
X217352Y181016D02*
X216696D01*
X217024D01*
Y182984D01*
X217352Y182656D01*
X219648Y177156D02*
X219976Y177484D01*
X220632D01*
X220960Y177156D01*
Y175844D01*
X220632Y175516D01*
X219976D01*
X219648Y175844D01*
X218992Y175516D02*
X218336D01*
X218664D01*
Y177484D01*
X218992Y177156D01*
X217352D02*
X217024Y177484D01*
X216368D01*
X216040Y177156D01*
Y175844D01*
X216368Y175516D01*
X217024D01*
X217352Y175844D01*
Y177156D01*
D12*
X127736Y54374D02*
D03*
D13*
X106606Y243532D02*
X107394D01*
X106606Y247469D02*
X107394D01*
X87106Y138469D02*
X87894D01*
X87106Y134532D02*
X87894D01*
X110532Y42106D02*
Y42894D01*
X114469Y42106D02*
Y42894D01*
X209606Y180032D02*
X210394D01*
X209606Y183969D02*
X210394D01*
X209606Y174532D02*
X210394D01*
X209606Y178469D02*
X210394D01*
X209606Y185532D02*
X210394D01*
X209606Y189469D02*
X210394D01*
X209606Y191032D02*
X210394D01*
X209606Y194969D02*
X210394D01*
X209606Y196532D02*
X210394D01*
X209606Y200469D02*
X210394D01*
X197469Y180606D02*
Y181394D01*
X193532Y180606D02*
Y181394D01*
X184032Y207870D02*
Y208658D01*
X187969Y207870D02*
Y208658D01*
X152606Y227969D02*
X153394D01*
X152606Y224032D02*
X153394D01*
X110469Y229606D02*
Y230394D01*
X106532Y229606D02*
Y230394D01*
X197106Y202968D02*
X197894D01*
X197106Y199031D02*
X197894D01*
X197937Y70350D02*
X200299D01*
X187701D02*
X190063D01*
X200299D02*
Y74287D01*
X187701Y70350D02*
Y74681D01*
X94532Y228606D02*
Y229394D01*
X98469Y228606D02*
Y229394D01*
X160787Y157480D02*
Y160787D01*
X157480D02*
X160787D01*
Y114803D02*
Y118110D01*
X157480Y114803D02*
X160787D01*
X114803D02*
X118110D01*
X114803D02*
Y118110D01*
Y157480D02*
Y160787D01*
X118110D01*
X209606Y172969D02*
X210394D01*
X209606Y169032D02*
X210394D01*
X87106Y140032D02*
X87894D01*
X87106Y143969D02*
X87894D01*
X209606Y205969D02*
X210394D01*
X209606Y202032D02*
X210394D01*
X87106Y123532D02*
X87894D01*
X87106Y127469D02*
X87894D01*
X87106Y129032D02*
X87894D01*
X87106Y132969D02*
X87894D01*
X152606Y232969D02*
X153394D01*
X152606Y229032D02*
X153394D01*
X152606Y237969D02*
X153394D01*
X152606Y234032D02*
X153394D01*
X116532Y229606D02*
Y230394D01*
X120469Y229606D02*
Y230394D01*
X111532Y229606D02*
Y230394D01*
X115469Y229606D02*
Y230394D01*
X209606Y211469D02*
X210394D01*
X209606Y207532D02*
X210394D01*
X114957Y219032D02*
X115744D01*
X114957Y222969D02*
X115744D01*
X114957Y214031D02*
X115744D01*
X114957Y217968D02*
X115744D01*
X84469Y219106D02*
Y219894D01*
X80532Y219106D02*
Y219894D01*
Y206106D02*
Y206894D01*
X84469Y206106D02*
Y206894D01*
X98606Y203032D02*
X99394D01*
X98606Y206969D02*
X99394D01*
X70969Y220106D02*
Y220894D01*
X67032Y220106D02*
Y220894D01*
X65106Y214469D02*
X65894D01*
X65106Y210532D02*
X65894D01*
X65106Y209469D02*
X65894D01*
X65106Y205532D02*
X65894D01*
X48532Y204106D02*
Y204894D01*
X52469Y204106D02*
Y204894D01*
X65106Y200032D02*
X65894D01*
X65106Y203969D02*
X65894D01*
X45606Y197469D02*
X46394D01*
X45606Y193532D02*
X46394D01*
X164701Y211512D02*
Y212299D01*
X165488D01*
X176512D02*
X177299D01*
Y211512D02*
Y212299D01*
X176512Y199701D02*
X177299D01*
Y200488D01*
X164701Y199701D02*
Y200488D01*
Y199701D02*
X165488D01*
X187606Y149532D02*
X188394D01*
X187606Y153469D02*
X188394D01*
X182531Y141606D02*
Y142394D01*
X186468Y141606D02*
Y142394D01*
X87106Y120969D02*
X87894D01*
X87106Y117032D02*
X87894D01*
X170106Y76032D02*
X170894D01*
X170106Y79969D02*
X170894D01*
X168032Y237106D02*
Y237894D01*
X171969Y237106D02*
Y237894D01*
X114957Y209032D02*
X115744D01*
X114957Y212969D02*
X115744D01*
X111606Y198532D02*
X112394D01*
X111606Y202469D02*
X112394D01*
X78606Y193532D02*
X79394D01*
X78606Y197469D02*
X79394D01*
X65606Y190532D02*
X66394D01*
X65606Y194469D02*
X66394D01*
D14*
X208985Y52489D02*
X223011Y66515D01*
X215302Y78850D02*
X221102Y73050D01*
X213771Y77319D02*
X215302Y78850D01*
X196651Y60198D02*
X198182Y61728D01*
X196650Y60198D02*
X202450Y54398D01*
X86275Y145298D02*
X92072D01*
X86275Y150702D02*
X92072D01*
X114094Y66787D02*
X125906D01*
X114094Y65213D02*
X125906D01*
Y66787D01*
X114094Y65213D02*
Y66787D01*
X156335Y43154D02*
X160665D01*
X156335Y49846D02*
X160665D01*
X141154Y73953D02*
X147846D01*
X141154Y68047D02*
X147846D01*
X133335Y52543D02*
X137665D01*
X133335Y45457D02*
X137665D01*
X70101Y164702D02*
X75899D01*
X70101Y159298D02*
X75899D01*
X129114Y67130D02*
X131279D01*
X140335D02*
X142500D01*
X140335Y53744D02*
X142500D01*
X129114D02*
X131279D01*
X129114D02*
Y54374D01*
Y66500D02*
Y67130D01*
X142500Y66500D02*
Y67130D01*
Y53744D02*
Y54374D01*
X85122Y152594D02*
X87878D01*
X85122Y164406D02*
X87878D01*
X85122Y152594D02*
Y164406D01*
X87878Y152594D02*
Y164406D01*
X101796Y132312D02*
X102452Y132968D01*
X103764D01*
X104420Y132312D01*
Y129688D01*
X103764Y129032D01*
X102452D01*
X101796Y129688D01*
X100484Y129032D02*
X99172D01*
X99828D01*
Y132968D01*
X100484Y132312D01*
X97204D02*
X96548Y132968D01*
X95236D01*
X94580Y132312D01*
Y131656D01*
X95236Y131000D01*
X94580Y130344D01*
Y129688D01*
X95236Y129032D01*
X96548D01*
X97204Y129688D01*
Y130344D01*
X96548Y131000D01*
X97204Y131656D01*
Y132312D01*
X96548Y131000D02*
X95236D01*
X212433Y84944D02*
X213745D01*
X213089D01*
Y81665D01*
X213745Y81008D01*
X214401D01*
X215057Y81665D01*
X211121Y81008D02*
X209809D01*
X210465D01*
Y84944D01*
X211121Y84288D01*
X155624Y221812D02*
X156280Y222468D01*
X157592D01*
X158248Y221812D01*
Y219188D01*
X157592Y218532D01*
X156280D01*
X155624Y219188D01*
X151688Y218532D02*
X154312D01*
X151688Y221156D01*
Y221812D01*
X152344Y222468D01*
X153656D01*
X154312Y221812D01*
X150376D02*
X149720Y222468D01*
X148408D01*
X147752Y221812D01*
Y219188D01*
X148408Y218532D01*
X149720D01*
X150376Y219188D01*
Y221812D01*
X101796Y143812D02*
X102452Y144468D01*
X103764D01*
X104420Y143812D01*
Y141188D01*
X103764Y140532D01*
X102452D01*
X101796Y141188D01*
X100484Y140532D02*
X99172D01*
X99828D01*
Y144468D01*
X100484Y143812D01*
X95236Y140532D02*
Y144468D01*
X97204Y142500D01*
X94580D01*
X90248Y188532D02*
Y192468D01*
X88280D01*
X87624Y191812D01*
Y190500D01*
X88280Y189844D01*
X90248D01*
X88936D02*
X87624Y188532D01*
X83688D02*
X86312D01*
X83688Y191156D01*
Y191812D01*
X84344Y192468D01*
X85656D01*
X86312Y191812D01*
X82376D02*
X81720Y192468D01*
X80408D01*
X79752Y191812D01*
Y191156D01*
X80408Y190500D01*
X81064D01*
X80408D01*
X79752Y189844D01*
Y189188D01*
X80408Y188532D01*
X81720D01*
X82376Y189188D01*
X117748Y204032D02*
Y207968D01*
X115780D01*
X115124Y207312D01*
Y206000D01*
X115780Y205344D01*
X117748D01*
X116436D02*
X115124Y204032D01*
X111188D02*
X113812D01*
X111188Y206656D01*
Y207312D01*
X111844Y207968D01*
X113156D01*
X113812Y207312D01*
X107252Y204032D02*
X109876D01*
X107252Y206656D01*
Y207312D01*
X107908Y207968D01*
X109220D01*
X109876Y207312D01*
X131092Y209032D02*
Y212968D01*
X129124D01*
X128468Y212312D01*
Y211000D01*
X129124Y210344D01*
X131092D01*
X129780D02*
X128468Y209032D01*
X124532D02*
X127156D01*
X124532Y211656D01*
Y212312D01*
X125188Y212968D01*
X126500D01*
X127156Y212312D01*
X123220Y209032D02*
X121908D01*
X122564D01*
Y212968D01*
X123220Y212312D01*
X125748Y244532D02*
Y248468D01*
X123780D01*
X123124Y247812D01*
Y246500D01*
X123780Y245844D01*
X125748D01*
X124436D02*
X123124Y244532D01*
X119188D02*
X121812D01*
X119188Y247156D01*
Y247812D01*
X119844Y248468D01*
X121156D01*
X121812Y247812D01*
X117876D02*
X117220Y248468D01*
X115908D01*
X115252Y247812D01*
Y245188D01*
X115908Y244532D01*
X117220D01*
X117876Y245188D01*
Y247812D01*
X202420Y204032D02*
Y207968D01*
X200452D01*
X199796Y207312D01*
Y206000D01*
X200452Y205344D01*
X202420D01*
X201108D02*
X199796Y204032D01*
X198484D02*
X197172D01*
X197828D01*
Y207968D01*
X198484Y207312D01*
X195204Y204688D02*
X194548Y204032D01*
X193236D01*
X192580Y204688D01*
Y207312D01*
X193236Y207968D01*
X194548D01*
X195204Y207312D01*
Y206656D01*
X194548Y206000D01*
X192580D01*
X161420Y208968D02*
X160108D01*
X160764D01*
Y205032D01*
X161420D01*
X160108D01*
X155516Y208312D02*
X156172Y208968D01*
X157484D01*
X158140Y208312D01*
Y205688D01*
X157484Y205032D01*
X156172D01*
X155516Y205688D01*
X154204Y208312D02*
X153548Y208968D01*
X152236D01*
X151580Y208312D01*
Y207656D01*
X152236Y207000D01*
X152892D01*
X152236D01*
X151580Y206344D01*
Y205688D01*
X152236Y205032D01*
X153548D01*
X154204Y205688D01*
X160367Y171912D02*
X159055D01*
X159711D01*
Y167976D01*
X160367D01*
X159055D01*
X154464Y171256D02*
X155120Y171912D01*
X156432D01*
X157088Y171256D01*
Y168632D01*
X156432Y167976D01*
X155120D01*
X154464Y168632D01*
X150528Y167976D02*
X153152D01*
X150528Y170600D01*
Y171256D01*
X151184Y171912D01*
X152496D01*
X153152Y171256D01*
X49124Y191812D02*
X49780Y192468D01*
X51092D01*
X51748Y191812D01*
Y189188D01*
X51092Y188532D01*
X49780D01*
X49124Y189188D01*
X47812Y191812D02*
X47156Y192468D01*
X45844D01*
X45188Y191812D01*
Y191156D01*
X45844Y190500D01*
X46500D01*
X45844D01*
X45188Y189844D01*
Y189188D01*
X45844Y188532D01*
X47156D01*
X47812Y189188D01*
X43876Y191812D02*
X43220Y192468D01*
X41908D01*
X41252Y191812D01*
Y191156D01*
X41908Y190500D01*
X41252Y189844D01*
Y189188D01*
X41908Y188532D01*
X43220D01*
X43876Y189188D01*
Y189844D01*
X43220Y190500D01*
X43876Y191156D01*
Y191812D01*
X43220Y190500D02*
X41908D01*
X101624Y201312D02*
X102280Y201968D01*
X103592D01*
X104248Y201312D01*
Y198688D01*
X103592Y198032D01*
X102280D01*
X101624Y198688D01*
X100312Y201312D02*
X99656Y201968D01*
X98344D01*
X97688Y201312D01*
Y200656D01*
X98344Y200000D01*
X99000D01*
X98344D01*
X97688Y199344D01*
Y198688D01*
X98344Y198032D01*
X99656D01*
X100312Y198688D01*
X93752Y198032D02*
X96376D01*
X93752Y200656D01*
Y201312D01*
X94408Y201968D01*
X95720D01*
X96376Y201312D01*
X90624Y229312D02*
X91280Y229968D01*
X92592D01*
X93248Y229312D01*
Y226688D01*
X92592Y226032D01*
X91280D01*
X90624Y226688D01*
X86688Y226032D02*
X89312D01*
X86688Y228656D01*
Y229312D01*
X87344Y229968D01*
X88656D01*
X89312Y229312D01*
X85376Y229968D02*
X82752D01*
Y229312D01*
X85376Y226688D01*
Y226032D01*
X225124Y210592D02*
X225780Y211248D01*
X227092D01*
X227748Y210592D01*
Y207968D01*
X227092Y207312D01*
X225780D01*
X225124Y207968D01*
X221188Y207312D02*
X223812D01*
X221188Y209936D01*
Y210592D01*
X221844Y211248D01*
X223156D01*
X223812Y210592D01*
X217252Y211248D02*
X218564Y210592D01*
X219876Y209280D01*
Y207968D01*
X219220Y207312D01*
X217908D01*
X217252Y207968D01*
Y208624D01*
X217908Y209280D01*
X219876D01*
X95188Y243124D02*
X94532Y243780D01*
Y245092D01*
X95188Y245748D01*
X97812D01*
X98468Y245092D01*
Y243780D01*
X97812Y243124D01*
X98468Y239188D02*
Y241812D01*
X95844Y239188D01*
X95188D01*
X94532Y239844D01*
Y241156D01*
X95188Y241812D01*
X94532Y235252D02*
Y237876D01*
X96500D01*
X95844Y236564D01*
Y235908D01*
X96500Y235252D01*
X97812D01*
X98468Y235908D01*
Y237220D01*
X97812Y237876D01*
X101796Y138312D02*
X102452Y138968D01*
X103764D01*
X104420Y138312D01*
Y135688D01*
X103764Y135032D01*
X102452D01*
X101796Y135688D01*
X100484Y135032D02*
X99172D01*
X99828D01*
Y138968D01*
X100484Y138312D01*
X97204Y135688D02*
X96548Y135032D01*
X95236D01*
X94580Y135688D01*
Y138312D01*
X95236Y138968D01*
X96548D01*
X97204Y138312D01*
Y137656D01*
X96548Y137000D01*
X94580D01*
X143468Y232312D02*
X144124Y232968D01*
X145436D01*
X146092Y232312D01*
Y229688D01*
X145436Y229032D01*
X144124D01*
X143468Y229688D01*
X139532Y229032D02*
X142156D01*
X139532Y231656D01*
Y232312D01*
X140188Y232968D01*
X141500D01*
X142156Y232312D01*
X138220Y229032D02*
X136908D01*
X137564D01*
Y232968D01*
X138220Y232312D01*
X155624Y242812D02*
X156280Y243468D01*
X157592D01*
X158248Y242812D01*
Y240188D01*
X157592Y239532D01*
X156280D01*
X155624Y240188D01*
X151688Y239532D02*
X154312D01*
X151688Y242156D01*
Y242812D01*
X152344Y243468D01*
X153656D01*
X154312Y242812D01*
X147752Y239532D02*
X150376D01*
X147752Y242156D01*
Y242812D01*
X148408Y243468D01*
X149720D01*
X150376Y242812D01*
X105032Y39220D02*
X108968D01*
Y41188D01*
X108312Y41844D01*
X107000D01*
X106344Y41188D01*
Y39220D01*
Y40532D02*
X105032Y41844D01*
X108312Y43156D02*
X108968Y43812D01*
Y45124D01*
X108312Y45780D01*
X107656D01*
X107000Y45124D01*
X106344Y45780D01*
X105688D01*
X105032Y45124D01*
Y43812D01*
X105688Y43156D01*
X106344D01*
X107000Y43812D01*
X107656Y43156D01*
X108312D01*
X107000Y43812D02*
Y45124D01*
X173532Y232580D02*
X177468D01*
Y234548D01*
X176812Y235204D01*
X175500D01*
X174844Y234548D01*
Y232580D01*
Y233892D02*
X173532Y235204D01*
Y236516D02*
Y237828D01*
Y237172D01*
X177468D01*
X176812Y236516D01*
X177468Y239796D02*
Y242420D01*
X176812D01*
X174188Y239796D01*
X173532D01*
X187968Y224683D02*
X184032D01*
Y222715D01*
X184688Y222060D01*
X186000D01*
X186656Y222715D01*
Y224683D01*
Y223372D02*
X187968Y222060D01*
Y220748D02*
Y219436D01*
Y220092D01*
X184032D01*
X184688Y220748D01*
Y217468D02*
X184032Y216812D01*
Y215500D01*
X184688Y214844D01*
X185344D01*
X186000Y215500D01*
X186656Y214844D01*
X187312D01*
X187968Y215500D01*
Y216812D01*
X187312Y217468D01*
X186656D01*
X186000Y216812D01*
X185344Y217468D01*
X184688D01*
X186000Y216812D02*
Y215500D01*
X159656Y40812D02*
X160312Y41468D01*
X161624D01*
X162280Y40812D01*
Y38188D01*
X161624Y37532D01*
X160312D01*
X159656Y38188D01*
X156376Y37532D02*
Y41468D01*
X158344Y39500D01*
X155720D01*
X87968Y166720D02*
X84688D01*
X84032Y167376D01*
Y168688D01*
X84688Y169344D01*
X87968D01*
X84032Y173280D02*
Y170656D01*
X86656Y173280D01*
X87312D01*
X87968Y172624D01*
Y171312D01*
X87312Y170656D01*
X123624Y77468D02*
Y73532D01*
X121000D01*
X119688D02*
X118376D01*
X119032D01*
Y77468D01*
X119688Y76812D01*
X136156Y43312D02*
X136812Y43968D01*
X138124D01*
X138780Y43312D01*
Y40688D01*
X138124Y40032D01*
X136812D01*
X136156Y40688D01*
X132220Y43968D02*
X133532Y43312D01*
X134844Y42000D01*
Y40688D01*
X134188Y40032D01*
X132876D01*
X132220Y40688D01*
Y41344D01*
X132876Y42000D01*
X134844D01*
X191968Y146920D02*
X188032D01*
Y144952D01*
X188688Y144296D01*
X190000D01*
X190656Y144952D01*
Y146920D01*
Y145608D02*
X191968Y144296D01*
Y142984D02*
Y141672D01*
Y142328D01*
X188032D01*
X188688Y142984D01*
Y139704D02*
X188032Y139048D01*
Y137736D01*
X188688Y137080D01*
X189344D01*
X190000Y137736D01*
Y138392D01*
Y137736D01*
X190656Y137080D01*
X191312D01*
X191968Y137736D01*
Y139048D01*
X191312Y139704D01*
X174920Y81532D02*
Y85468D01*
X172952D01*
X172296Y84812D01*
Y83500D01*
X172952Y82844D01*
X174920D01*
X173608D02*
X172296Y81532D01*
X170984D02*
X169672D01*
X170328D01*
Y85468D01*
X170984Y84812D01*
X165080Y85468D02*
X167704D01*
Y83500D01*
X166392Y84156D01*
X165736D01*
X165080Y83500D01*
Y82188D01*
X165736Y81532D01*
X167048D01*
X167704Y82188D01*
X103920Y117032D02*
Y120968D01*
X101952D01*
X101296Y120312D01*
Y119000D01*
X101952Y118344D01*
X103920D01*
X102608D02*
X101296Y117032D01*
X99984D02*
X98672D01*
X99328D01*
Y120968D01*
X99984Y120312D01*
X94736Y117032D02*
Y120968D01*
X96704Y119000D01*
X94080D01*
X181968Y160420D02*
X178032D01*
Y158452D01*
X178688Y157796D01*
X180000D01*
X180656Y158452D01*
Y160420D01*
Y159108D02*
X181968Y157796D01*
Y156484D02*
Y155172D01*
Y155828D01*
X178032D01*
X178688Y156484D01*
X181968Y150580D02*
Y153204D01*
X179344Y150580D01*
X178688D01*
X178032Y151236D01*
Y152548D01*
X178688Y153204D01*
X149624Y67468D02*
Y64188D01*
X148968Y63532D01*
X147656D01*
X147000Y64188D01*
Y67468D01*
X145688Y63532D02*
X144376D01*
X145032D01*
Y67468D01*
X145688Y66812D01*
X188532Y178220D02*
X192468D01*
Y180188D01*
X191812Y180844D01*
X190500D01*
X189844Y180188D01*
Y178220D01*
Y179532D02*
X188532Y180844D01*
X192468Y182156D02*
Y184780D01*
X191812D01*
X189188Y182156D01*
X188532D01*
X187240Y64412D02*
Y67036D01*
X187896Y67692D01*
X189208D01*
X189864Y67036D01*
Y64412D01*
X189208Y63756D01*
X187896D01*
X188552Y65068D02*
X187240Y63756D01*
X187896D02*
X187240Y64412D01*
X185928Y63756D02*
X184616D01*
X185272D01*
Y67692D01*
X185928Y67036D01*
X101796Y126812D02*
X102452Y127468D01*
X103764D01*
X104420Y126812D01*
Y124188D01*
X103764Y123532D01*
X102452D01*
X101796Y124188D01*
X100484Y123532D02*
X99172D01*
X99828D01*
Y127468D01*
X100484Y126812D01*
X97204Y127468D02*
X94580D01*
Y126812D01*
X97204Y124188D01*
Y123532D01*
X224468Y205266D02*
X225124Y205922D01*
X226436D01*
X227092Y205266D01*
Y202642D01*
X226436Y201986D01*
X225124D01*
X224468Y202642D01*
X223156Y201986D02*
X221844D01*
X222500D01*
Y205922D01*
X223156Y205266D01*
X217252Y205922D02*
X218564Y205266D01*
X219876Y203954D01*
Y202642D01*
X219220Y201986D01*
X217908D01*
X217252Y202642D01*
Y203298D01*
X217908Y203954D01*
X219876D01*
X224468Y199940D02*
X225124Y200596D01*
X226436D01*
X227092Y199940D01*
Y197316D01*
X226436Y196660D01*
X225124D01*
X224468Y197316D01*
X223156Y196660D02*
X221844D01*
X222500D01*
Y200596D01*
X223156Y199940D01*
X217252Y200596D02*
X219876D01*
Y198628D01*
X218564Y199284D01*
X217908D01*
X217252Y198628D01*
Y197316D01*
X217908Y196660D01*
X219220D01*
X219876Y197316D01*
X67312Y161844D02*
X67968Y161188D01*
Y159876D01*
X67312Y159220D01*
X64688D01*
X64032Y159876D01*
Y161188D01*
X64688Y161844D01*
X67312Y163156D02*
X67968Y163812D01*
Y165124D01*
X67312Y165780D01*
X66656D01*
X66000Y165124D01*
X65344Y165780D01*
X64688D01*
X64032Y165124D01*
Y163812D01*
X64688Y163156D01*
X65344D01*
X66000Y163812D01*
X66656Y163156D01*
X67312D01*
X66000Y163812D02*
Y165124D01*
X98656Y149312D02*
X99312Y149968D01*
X100624D01*
X101280Y149312D01*
Y146688D01*
X100624Y146032D01*
X99312D01*
X98656Y146688D01*
X97344Y149968D02*
X94720D01*
Y149312D01*
X97344Y146688D01*
Y146032D01*
X136656Y72312D02*
X137312Y72968D01*
X138624D01*
X139280Y72312D01*
Y69688D01*
X138624Y69032D01*
X137312D01*
X136656Y69688D01*
X132720Y72968D02*
X135344D01*
Y71000D01*
X134032Y71656D01*
X133376D01*
X132720Y71000D01*
Y69688D01*
X133376Y69032D01*
X134688D01*
X135344Y69688D01*
X200656Y218312D02*
X201312Y218968D01*
X202624D01*
X203280Y218312D01*
Y215688D01*
X202624Y215032D01*
X201312D01*
X200656Y215688D01*
X196720Y215032D02*
X199344D01*
X196720Y217656D01*
Y218312D01*
X197376Y218968D01*
X198688D01*
X199344Y218312D01*
X220656Y172312D02*
X221312Y172968D01*
X222624D01*
X223280Y172312D01*
Y169688D01*
X222624Y169032D01*
X221312D01*
X220656Y169688D01*
X219344D02*
X218688Y169032D01*
X217376D01*
X216720Y169688D01*
Y172312D01*
X217376Y172968D01*
X218688D01*
X219344Y172312D01*
Y171656D01*
X218688Y171000D01*
X216720D01*
X130307Y60501D02*
Y63781D01*
X130963Y64437D01*
X132275D01*
X132931Y63781D01*
Y60501D01*
X134243Y64437D02*
X135555D01*
X134899D01*
Y60501D01*
X134243Y61157D01*
D17*
X137795Y19685D02*
X138793Y19689D01*
X139790Y19702D01*
X140787Y19723D01*
X141784Y19752D01*
X142781Y19790D01*
X143777Y19837D01*
X144773Y19891D01*
X145769Y19954D01*
X146764Y20026D01*
X147758Y20106D01*
X148751Y20194D01*
X149744Y20291D01*
X150736Y20396D01*
X151727Y20509D01*
X152717Y20631D01*
X153706Y20762D01*
X154693Y20900D01*
X155680Y21047D01*
X156665Y21202D01*
X157649Y21366D01*
X158632Y21538D01*
X159613Y21718D01*
X160592Y21906D01*
X161570Y22103D01*
X162546Y22308D01*
X163521Y22521D01*
X164493Y22742D01*
X165464Y22972D01*
X166432Y23209D01*
X167399Y23455D01*
X168364Y23709D01*
X169326Y23971D01*
X170286Y24242D01*
X171244Y24520D01*
X172199Y24807D01*
X173152Y25101D01*
X174102Y25404D01*
X175050Y25715D01*
X175996Y26033D01*
X176938Y26360D01*
X177878Y26694D01*
X178814Y27037D01*
X179748Y27387D01*
X180679Y27745D01*
X181607Y28111D01*
X182532Y28485D01*
X183453Y28867D01*
X184371Y29256D01*
X185286Y29654D01*
X186198Y30059D01*
X187106Y30471D01*
X188011Y30891D01*
X188911Y31319D01*
X189809Y31755D01*
X190702Y32198D01*
X191592Y32648D01*
X192478Y33106D01*
X193360Y33572D01*
X194239Y34045D01*
X195113Y34525D01*
X195983Y35013D01*
X196849Y35508D01*
X197710Y36010D01*
X198568Y36520D01*
X199421Y37037D01*
X200270Y37561D01*
X201114Y38092D01*
X201954Y38630D01*
X202789Y39175D01*
X203619Y39728D01*
X204445Y40287D01*
X205266Y40854D01*
X206082Y41427D01*
X206894Y42007D01*
X207700Y42594D01*
X208502Y43187D01*
X209298Y43788D01*
X210089Y44395D01*
X210876Y45009D01*
X211656Y45629D01*
X212432Y46256D01*
X213203Y46890D01*
X213967Y47530D01*
X214727Y48177D01*
X215481Y48829D01*
X216230Y49489D01*
X216973Y50154D01*
X217710Y50826D01*
X218442Y51504D01*
X219167Y52188D01*
X219887Y52878D01*
X220602Y53574D01*
X221310Y54277D01*
X222012Y54985D01*
X222709Y55699D01*
X223399Y56419D01*
X224083Y57145D01*
X224761Y57876D01*
X225433Y58614D01*
X226098Y59357D01*
X226758Y60105D01*
X227410Y60859D01*
X228057Y61619D01*
X228697Y62384D01*
X229330Y63154D01*
X229958Y63930D01*
X230578Y64711D01*
X231192Y65497D01*
X231799Y66288D01*
X232400Y67084D01*
X232994Y67886D01*
X233580Y68692D01*
X234161Y69504D01*
X234734Y70320D01*
X235300Y71141D01*
X235860Y71967D01*
X236412Y72797D01*
X236957Y73632D01*
X237496Y74472D01*
X238027Y75316D01*
X238551Y76165D01*
X239068Y77018D01*
X239578Y77875D01*
X240080Y78737D01*
X240575Y79603D01*
X241063Y80473D01*
X241543Y81347D01*
X242016Y82225D01*
X242482Y83107D01*
X242940Y83993D01*
X243390Y84883D01*
X243833Y85777D01*
X244269Y86674D01*
X244697Y87575D01*
X245117Y88480D01*
X245530Y89388D01*
X245935Y90299D01*
X246332Y91214D01*
X246722Y92132D01*
X247103Y93054D01*
X247477Y93978D01*
X247843Y94906D01*
X248201Y95837D01*
X248552Y96771D01*
X248894Y97708D01*
X249229Y98647D01*
X249556Y99590D01*
X249874Y100535D01*
X250185Y101483D01*
X250487Y102433D01*
X250782Y103386D01*
X251069Y104341D01*
X251347Y105299D01*
X251618Y106259D01*
X251880Y107221D01*
X252134Y108186D01*
X252380Y109153D01*
X252618Y110121D01*
X252847Y111092D01*
X253069Y112065D01*
X253282Y113039D01*
X253487Y114015D01*
X253683Y114993D01*
X253872Y115972D01*
X254052Y116953D01*
X254224Y117936D01*
X254387Y118920D01*
X254543Y119905D01*
X254690Y120892D01*
X254828Y121879D01*
X254959Y122868D01*
X255080Y123858D01*
X255194Y124849D01*
X255299Y125841D01*
X255396Y126834D01*
X255484Y127827D01*
X255564Y128821D01*
X255636Y129816D01*
X255699Y130812D01*
X255754Y131808D01*
X255800Y132804D01*
X255838Y133801D01*
X255868Y134798D01*
X255889Y135795D01*
X255901Y136792D01*
X255906Y137790D01*
Y137795D01*
X255901Y138793D01*
X255889Y139790D01*
X255868Y140787D01*
X255838Y141784D01*
X255800Y142781D01*
X255754Y143778D01*
X255699Y144773D01*
X255636Y145769D01*
X255564Y146764D01*
X255485Y147758D01*
X255396Y148751D01*
X255299Y149744D01*
X255194Y150736D01*
X255081Y151727D01*
X254959Y152717D01*
X254829Y153706D01*
X254690Y154694D01*
X254543Y155680D01*
X254388Y156666D01*
X254225Y157650D01*
X254053Y158632D01*
X253873Y159613D01*
X253684Y160593D01*
X253488Y161571D01*
X253283Y162547D01*
X253070Y163521D01*
X252848Y164494D01*
X252619Y165464D01*
X252381Y166433D01*
X252135Y167400D01*
X251881Y168365D01*
X251619Y169327D01*
X251348Y170287D01*
X251070Y171245D01*
X250783Y172200D01*
X250489Y173153D01*
X250186Y174104D01*
X249876Y175051D01*
X249557Y175997D01*
X249230Y176939D01*
X248896Y177879D01*
X248553Y178816D01*
X248203Y179750D01*
X247845Y180680D01*
X247479Y181608D01*
X247105Y182533D01*
X246723Y183455D01*
X246334Y184373D01*
X245936Y185288D01*
X245532Y186199D01*
X245119Y187107D01*
X244699Y188012D01*
X244271Y188913D01*
X243835Y189810D01*
X243392Y190704D01*
X242942Y191594D01*
X242483Y192480D01*
X242018Y193362D01*
X241545Y194240D01*
X241065Y195114D01*
X240577Y195984D01*
X240082Y196850D01*
X239579Y197712D01*
X239070Y198570D01*
X238553Y199423D01*
X238029Y200271D01*
X237498Y201116D01*
X236959Y201955D01*
X236414Y202790D01*
X235862Y203621D01*
X235302Y204447D01*
X234736Y205268D01*
X234163Y206084D01*
X233582Y206896D01*
X232996Y207702D01*
X232402Y208504D01*
X231801Y209300D01*
X231194Y210091D01*
X230580Y210877D01*
X229960Y211658D01*
X229332Y212434D01*
X228699Y213205D01*
X228059Y213969D01*
X227412Y214729D01*
X226760Y215483D01*
X226100Y216232D01*
X225435Y216975D01*
X224763Y217712D01*
X224085Y218443D01*
X223401Y219169D01*
X222710Y219889D01*
X222014Y220604D01*
X221312Y221312D01*
X220603Y222014D01*
X219889Y222710D01*
X219169Y223401D01*
X218443Y224085D01*
X217712Y224763D01*
X216975Y225435D01*
X216232Y226100D01*
X215483Y226760D01*
X214729Y227412D01*
X213969Y228059D01*
X213204Y228699D01*
X212434Y229333D01*
X211658Y229960D01*
X210877Y230580D01*
X210091Y231194D01*
X209300Y231801D01*
X208504Y232402D01*
X207702Y232996D01*
X206895Y233582D01*
X206084Y234163D01*
X205268Y234736D01*
X204447Y235302D01*
X203621Y235862D01*
X202790Y236414D01*
X201955Y236959D01*
X201115Y237498D01*
X200271Y238029D01*
X199423Y238553D01*
X198570Y239070D01*
X197712Y239579D01*
X196850Y240082D01*
X195984Y240577D01*
X195114Y241065D01*
X194240Y241545D01*
X193362Y242018D01*
X192480Y242483D01*
X191594Y242942D01*
X190704Y243392D01*
X189810Y243835D01*
X188913Y244271D01*
X188012Y244699D01*
X187107Y245119D01*
X186199Y245532D01*
X185288Y245936D01*
X184373Y246334D01*
X183454Y246723D01*
X182533Y247105D01*
X181608Y247479D01*
X180680Y247845D01*
X179749Y248203D01*
X178815Y248553D01*
X177879Y248896D01*
X176939Y249231D01*
X175996Y249557D01*
X175051Y249876D01*
X174103Y250186D01*
X173153Y250489D01*
X172200Y250783D01*
X171245Y251070D01*
X170287Y251348D01*
X169327Y251619D01*
X168364Y251881D01*
X167400Y252135D01*
X166433Y252381D01*
X165464Y252619D01*
X164494Y252848D01*
X163521Y253070D01*
X162547Y253283D01*
X161571Y253488D01*
X160593Y253684D01*
X159613Y253873D01*
X158632Y254053D01*
X157650Y254225D01*
X156666Y254388D01*
X155680Y254543D01*
X154694Y254690D01*
X153706Y254829D01*
X152717Y254959D01*
X151727Y255081D01*
X150736Y255194D01*
X149744Y255299D01*
X148751Y255396D01*
X147758Y255485D01*
X146764Y255564D01*
X145769Y255636D01*
X144773Y255699D01*
X143777Y255754D01*
X142781Y255800D01*
X141784Y255838D01*
X140787Y255868D01*
X139790Y255889D01*
X138793Y255901D01*
X137795Y255906D01*
X136798Y255901D01*
X135801Y255889D01*
X134803Y255868D01*
X133806Y255838D01*
X132809Y255800D01*
X131813Y255754D01*
X130817Y255699D01*
X129822Y255636D01*
X128827Y255564D01*
X127832Y255485D01*
X126839Y255396D01*
X125846Y255299D01*
X124854Y255194D01*
X123863Y255081D01*
X122873Y254959D01*
X121885Y254829D01*
X120897Y254690D01*
X119910Y254543D01*
X118925Y254388D01*
X117941Y254225D01*
X116958Y254053D01*
X115977Y253873D01*
X114998Y253684D01*
X114020Y253488D01*
X113044Y253283D01*
X112069Y253070D01*
X111097Y252848D01*
X110126Y252619D01*
X109157Y252381D01*
X108191Y252135D01*
X107226Y251881D01*
X106264Y251619D01*
X105304Y251348D01*
X104346Y251070D01*
X103390Y250783D01*
X102437Y250489D01*
X101487Y250186D01*
X100539Y249876D01*
X99594Y249557D01*
X98651Y249230D01*
X97712Y248896D01*
X96775Y248553D01*
X95841Y248203D01*
X94910Y247845D01*
X93982Y247479D01*
X93058Y247105D01*
X92136Y246723D01*
X91218Y246334D01*
X90303Y245936D01*
X89391Y245531D01*
X88483Y245119D01*
X87578Y244699D01*
X86677Y244271D01*
X85780Y243835D01*
X84886Y243392D01*
X83997Y242941D01*
X83111Y242483D01*
X82228Y242018D01*
X81350Y241545D01*
X80476Y241065D01*
X79606Y240577D01*
X78740Y240082D01*
X77878Y239579D01*
X77021Y239070D01*
X76168Y238553D01*
X75319Y238029D01*
X74475Y237498D01*
X73635Y236959D01*
X72800Y236414D01*
X71969Y235862D01*
X71144Y235302D01*
X70323Y234736D01*
X69506Y234162D01*
X68695Y233582D01*
X67888Y232995D01*
X67087Y232402D01*
X66291Y231801D01*
X65499Y231194D01*
X64713Y230580D01*
X63932Y229960D01*
X63156Y229332D01*
X62386Y228699D01*
X61621Y228059D01*
X60861Y227412D01*
X60107Y226759D01*
X59359Y226100D01*
X58616Y225435D01*
X57879Y224763D01*
X57147Y224085D01*
X56421Y223401D01*
X55701Y222710D01*
X54987Y222014D01*
X54279Y221312D01*
X53576Y220603D01*
X52880Y219889D01*
X52190Y219169D01*
X51506Y218443D01*
X50828Y217712D01*
X50156Y216974D01*
X49490Y216232D01*
X48831Y215483D01*
X48178Y214729D01*
X47532Y213969D01*
X46891Y213204D01*
X46258Y212434D01*
X45631Y211658D01*
X45010Y210877D01*
X44396Y210091D01*
X43789Y209300D01*
X43189Y208503D01*
X42595Y207702D01*
X42008Y206895D01*
X41428Y206084D01*
X40855Y205268D01*
X40288Y204447D01*
X39729Y203621D01*
X39176Y202790D01*
X38631Y201955D01*
X38093Y201115D01*
X37562Y200271D01*
X37038Y199423D01*
X36521Y198569D01*
X36011Y197712D01*
X35509Y196850D01*
X35014Y195984D01*
X34526Y195114D01*
X34045Y194240D01*
X33573Y193362D01*
X33107Y192480D01*
X32649Y191594D01*
X32198Y190704D01*
X31755Y189810D01*
X31320Y188913D01*
X30892Y188012D01*
X30472Y187107D01*
X30059Y186199D01*
X29654Y185288D01*
X29257Y184373D01*
X28867Y183454D01*
X28486Y182533D01*
X28112Y181608D01*
X27746Y180680D01*
X27387Y179749D01*
X27037Y178815D01*
X26695Y177879D01*
X26360Y176939D01*
X26033Y175996D01*
X25715Y175051D01*
X25404Y174103D01*
X25102Y173153D01*
X24807Y172200D01*
X24521Y171245D01*
X24242Y170287D01*
X23972Y169327D01*
X23709Y168364D01*
X23455Y167400D01*
X23210Y166433D01*
X22972Y165464D01*
X22742Y164494D01*
X22521Y163521D01*
X22308Y162547D01*
X22103Y161571D01*
X21906Y160593D01*
X21718Y159613D01*
X21538Y158632D01*
X21366Y157650D01*
X21202Y156666D01*
X21047Y155680D01*
X20900Y154694D01*
X20762Y153706D01*
X20631Y152717D01*
X20510Y151727D01*
X20396Y150736D01*
X20291Y149744D01*
X20194Y148751D01*
X20106Y147758D01*
X20026Y146764D01*
X19954Y145769D01*
X19891Y144773D01*
X19837Y143777D01*
X19790Y142781D01*
X19752Y141784D01*
X19723Y140787D01*
X19702Y139790D01*
X19689Y138793D01*
X19685Y137795D01*
X19689Y136798D01*
X19702Y135801D01*
X19723Y134803D01*
X19752Y133806D01*
X19790Y132809D01*
X19837Y131813D01*
X19891Y130817D01*
X19954Y129822D01*
X20026Y128827D01*
X20106Y127832D01*
X20194Y126839D01*
X20291Y125846D01*
X20396Y124854D01*
X20510Y123863D01*
X20631Y122873D01*
X20762Y121885D01*
X20900Y120897D01*
X21047Y119910D01*
X21202Y118925D01*
X21366Y117941D01*
X21538Y116958D01*
X21718Y115977D01*
X21906Y114998D01*
X22103Y114020D01*
X22308Y113044D01*
X22521Y112069D01*
X22742Y111097D01*
X22972Y110126D01*
X23210Y109157D01*
X23456Y108191D01*
X23710Y107226D01*
X23972Y106264D01*
X24242Y105304D01*
X24521Y104346D01*
X24807Y103390D01*
X25102Y102437D01*
X25404Y101487D01*
X25715Y100539D01*
X26034Y99594D01*
X26360Y98651D01*
X26695Y97712D01*
X27037Y96775D01*
X27387Y95841D01*
X27746Y94910D01*
X28112Y93982D01*
X28486Y93058D01*
X28868Y92136D01*
X29257Y91218D01*
X29654Y90303D01*
X30059Y89391D01*
X30472Y88483D01*
X30892Y87578D01*
X31320Y86677D01*
X31755Y85780D01*
X32199Y84886D01*
X32649Y83997D01*
X33107Y83111D01*
X33573Y82228D01*
X34046Y81350D01*
X34526Y80476D01*
X35014Y79606D01*
X35509Y78740D01*
X36011Y77878D01*
X36521Y77021D01*
X37038Y76168D01*
X37562Y75319D01*
X38093Y74475D01*
X38631Y73635D01*
X39177Y72800D01*
X39729Y71969D01*
X40288Y71144D01*
X40855Y70323D01*
X41428Y69506D01*
X42008Y68695D01*
X42595Y67888D01*
X43189Y67087D01*
X43789Y66291D01*
X44397Y65499D01*
X45011Y64713D01*
X45631Y63932D01*
X46258Y63156D01*
X46892Y62386D01*
X47532Y61621D01*
X48178Y60861D01*
X48831Y60107D01*
X49490Y59359D01*
X50156Y58616D01*
X50828Y57879D01*
X51506Y57147D01*
X52190Y56421D01*
X52880Y55701D01*
X53576Y54987D01*
X54279Y54279D01*
X54987Y53576D01*
X55701Y52880D01*
X56421Y52190D01*
X57147Y51506D01*
X57879Y50828D01*
X58616Y50156D01*
X59359Y49490D01*
X60107Y48831D01*
X60862Y48178D01*
X61621Y47532D01*
X62386Y46891D01*
X63156Y46258D01*
X63932Y45631D01*
X64713Y45010D01*
X65499Y44396D01*
X66291Y43789D01*
X67087Y43189D01*
X67889Y42595D01*
X68695Y42008D01*
X69507Y41428D01*
X70323Y40855D01*
X71144Y40288D01*
X71970Y39729D01*
X72800Y39176D01*
X73635Y38631D01*
X74475Y38093D01*
X75319Y37562D01*
X76168Y37038D01*
X77021Y36521D01*
X77879Y36011D01*
X78740Y35509D01*
X79606Y35014D01*
X80476Y34526D01*
X81350Y34045D01*
X82229Y33573D01*
X83111Y33107D01*
X83997Y32649D01*
X84887Y32198D01*
X85780Y31755D01*
X86678Y31320D01*
X87579Y30892D01*
X88483Y30472D01*
X89391Y30059D01*
X90303Y29654D01*
X91218Y29257D01*
X92136Y28867D01*
X93058Y28486D01*
X93982Y28112D01*
X94910Y27746D01*
X95841Y27387D01*
X96775Y27037D01*
X97712Y26695D01*
X98652Y26360D01*
X99594Y26033D01*
X100539Y25715D01*
X101487Y25404D01*
X102438Y25102D01*
X103391Y24807D01*
X104346Y24521D01*
X105304Y24242D01*
X106264Y23972D01*
X107226Y23709D01*
X108191Y23455D01*
X109158Y23210D01*
X110126Y22972D01*
X111097Y22742D01*
X112069Y22521D01*
X113044Y22308D01*
X114020Y22103D01*
X114998Y21906D01*
X115977Y21718D01*
X116958Y21538D01*
X117941Y21366D01*
X118925Y21202D01*
X119910Y21047D01*
X120896Y20900D01*
X121884Y20762D01*
X122873Y20631D01*
X123863Y20510D01*
X124854Y20396D01*
X125846Y20291D01*
X126839Y20194D01*
X127832Y20106D01*
X128826Y20026D01*
X129821Y19954D01*
X130817Y19891D01*
X131813Y19837D01*
X132809Y19790D01*
X133806Y19752D01*
X134803Y19723D01*
X135800Y19702D01*
X136797Y19689D01*
X137795Y19685D01*
D18*
X138577Y222244D02*
X135245D01*
X134579Y221578D01*
Y220245D01*
X135245Y219578D01*
X138577D01*
X137911Y218245D02*
X138577Y217579D01*
Y216246D01*
X137911Y215580D01*
X137244D01*
X136578Y216246D01*
Y216913D01*
Y216246D01*
X135912Y215580D01*
X135245D01*
X134579Y216246D01*
Y217579D01*
X135245Y218245D01*
D19*
X162067Y64042D02*
Y61543D01*
X162567Y61043D01*
X163566D01*
X164066Y61543D01*
Y64042D01*
X166565Y61043D02*
Y64042D01*
X165066Y62543D01*
X167065D01*
D120*
X163323Y199307D02*
X162732Y199898D01*
X162142Y199307D01*
X162732Y198716D01*
X163323Y199307D01*
D152*
X65106Y208287D02*
X64910Y208484D01*
Y208877D01*
X65106Y209074D01*
X65894D01*
X66090Y208877D01*
Y208484D01*
X65894Y208287D01*
X65106Y207894D02*
X64910Y207697D01*
Y207303D01*
X65106Y207106D01*
X65303D01*
X65500Y207303D01*
Y207500D01*
Y207303D01*
X65697Y207106D01*
X65894D01*
X66090Y207303D01*
Y207697D01*
X65894Y207894D01*
X64910Y205926D02*
Y206713D01*
X65500D01*
X65303Y206319D01*
Y206122D01*
X65500Y205926D01*
X65894D01*
X66090Y206122D01*
Y206516D01*
X65894Y206713D01*
X83090Y206894D02*
X83287Y207090D01*
X83681D01*
X83877Y206894D01*
Y206106D01*
X83681Y205910D01*
X83287D01*
X83090Y206106D01*
X82697Y206894D02*
X82500Y207090D01*
X82106D01*
X81910Y206894D01*
Y206697D01*
X82106Y206500D01*
X82303D01*
X82106D01*
X81910Y206303D01*
Y206106D01*
X82106Y205910D01*
X82500D01*
X82697Y206106D01*
X81516Y205910D02*
X81122D01*
X81319D01*
Y207090D01*
X81516Y206894D01*
X83287Y219894D02*
X83484Y220090D01*
X83877D01*
X84074Y219894D01*
Y219106D01*
X83877Y218910D01*
X83484D01*
X83287Y219106D01*
X82894Y219894D02*
X82697Y220090D01*
X82303D01*
X82106Y219894D01*
Y219697D01*
X82303Y219500D01*
X82500D01*
X82303D01*
X82106Y219303D01*
Y219106D01*
X82303Y218910D01*
X82697D01*
X82894Y219106D01*
X81713Y219894D02*
X81516Y220090D01*
X81122D01*
X80926Y219894D01*
Y219106D01*
X81122Y218910D01*
X81516D01*
X81713Y219106D01*
Y219894D01*
M02*
