G04*
G04 #@! TF.GenerationSoftware,Altium Limited,Altium Designer,22.4.2 (48)*
G04*
G04 Layer_Color=16711935*
%FSLAX25Y25*%
%MOIN*%
G70*
G04*
G04 #@! TF.SameCoordinates,A5219701-5F61-4D45-AD81-8ED9BC4A77AE*
G04*
G04*
G04 #@! TF.FilePolarity,Positive*
G04*
G01*
G75*
%ADD11C,0.00394*%
%ADD14C,0.00787*%
%ADD17C,0.00004*%
%ADD18C,0.00700*%
%ADD19C,0.00400*%
%ADD153C,0.00100*%
D11*
X144846Y222543D02*
X144583Y223528D01*
X143862Y224248D01*
X142878Y224512D01*
X141894Y224248D01*
X141173Y223528D01*
X140909Y222543D01*
X141173Y221559D01*
X141894Y220838D01*
X142878Y220575D01*
X143862Y220838D01*
X144583Y221559D01*
X144846Y222543D01*
X166976Y67602D02*
X166713Y68587D01*
X165992Y69307D01*
X165008Y69571D01*
X164024Y69307D01*
X163303Y68587D01*
X163039Y67602D01*
X163303Y66618D01*
X164024Y65898D01*
X165008Y65634D01*
X165992Y65898D01*
X166713Y66618D01*
X166976Y67602D01*
X135216Y57878D02*
X134953Y58862D01*
X134232Y59583D01*
X133248Y59846D01*
X132264Y59583D01*
X131543Y58862D01*
X131279Y57878D01*
X131543Y56894D01*
X132264Y56173D01*
X133248Y55909D01*
X134232Y56173D01*
X134953Y56894D01*
X135216Y57878D01*
X128937Y94488D02*
X128993Y93496D01*
X129159Y92517D01*
X129434Y91562D01*
X129814Y90645D01*
X130295Y89775D01*
X130870Y88965D01*
X131532Y88225D01*
X132272Y87563D01*
X133082Y86988D01*
X133952Y86507D01*
X134870Y86127D01*
X135824Y85852D01*
X136803Y85686D01*
X137795Y85630D01*
X138787Y85686D01*
X139766Y85852D01*
X140721Y86127D01*
X141639Y86507D01*
X142508Y86988D01*
X143318Y87563D01*
X144059Y88224D01*
X144721Y88965D01*
X145296Y89775D01*
X145776Y90645D01*
X146156Y91562D01*
X146431Y92517D01*
X146598Y93496D01*
X146653Y94488D01*
Y181102D02*
X146598Y182094D01*
X146431Y183073D01*
X146156Y184028D01*
X145776Y184946D01*
X145296Y185815D01*
X144721Y186625D01*
X144059Y187366D01*
X143318Y188028D01*
X142508Y188603D01*
X141639Y189083D01*
X140721Y189463D01*
X139766Y189739D01*
X138787Y189905D01*
X137795Y189961D01*
X136803Y189905D01*
X135824Y189739D01*
X134870Y189463D01*
X133952Y189083D01*
X133082Y188603D01*
X132272Y188028D01*
X131532Y187366D01*
X130870Y186625D01*
X130295Y185815D01*
X129814Y184946D01*
X129434Y184028D01*
X129159Y183073D01*
X128993Y182094D01*
X128937Y181102D01*
X126736Y226087D02*
X146421D01*
X126736Y206402D02*
X146421D01*
Y226087D01*
X126736Y206402D02*
Y226087D01*
X213076Y76624D02*
X214496Y75204D01*
X200299Y61007D02*
X214496Y75204D01*
X198880Y62425D02*
X200299Y61007D01*
X196651Y60198D02*
X198879Y62425D01*
X213076Y76624D02*
X215302Y78850D01*
X215304D02*
X224073Y70081D01*
X222987Y68995D02*
X224073Y70081D01*
X222987Y68995D02*
X224240Y67742D01*
X207759Y51262D02*
X224240Y67742D01*
X206507Y52514D02*
X207759Y51262D01*
X205421Y51428D02*
X206507Y52514D01*
X196651Y60198D02*
X205421Y51428D01*
X207063Y51958D02*
X223544Y68438D01*
X103850Y243925D02*
Y247075D01*
X110150Y243925D02*
Y247075D01*
X103850Y243925D02*
X110150D01*
X103850Y247075D02*
X110150D01*
X158071Y53366D02*
Y65177D01*
X146260Y53366D02*
X158071D01*
X146260Y65177D02*
X158071D01*
X146260Y53366D02*
Y65177D01*
X90650Y134925D02*
Y138075D01*
X84350Y134925D02*
X90650D01*
X84350D02*
Y138075D01*
X90650D01*
X114094Y60094D02*
Y71906D01*
X125906D01*
Y60094D02*
Y71906D01*
X114094Y60094D02*
X125906D01*
X110925Y39350D02*
Y45650D01*
X114075Y39350D02*
Y45650D01*
X110925D02*
X114075D01*
X110925Y39350D02*
X114075D01*
X161465Y58941D02*
X173669D01*
X161465Y71146D02*
X173669D01*
Y58941D02*
Y71146D01*
X161465Y58941D02*
Y71146D01*
X209063Y181638D02*
Y186362D01*
X216937Y181638D02*
Y186362D01*
X209063D02*
X216937D01*
X209063Y181638D02*
X216937D01*
X209063Y175138D02*
Y179862D01*
X216937Y175138D02*
Y179862D01*
X209063D02*
X216937D01*
X209063Y175138D02*
X216937D01*
X206850Y180425D02*
X213150D01*
X206850Y183575D02*
X213150D01*
X206850Y180425D02*
Y183575D01*
X213150Y180425D02*
Y183575D01*
X206850Y174925D02*
X213150D01*
X206850Y178075D02*
X213150D01*
X206850Y174925D02*
Y178075D01*
X213150Y174925D02*
Y178075D01*
X209063Y188138D02*
Y192862D01*
X216937Y188138D02*
Y192862D01*
X209063D02*
X216937D01*
X209063Y188138D02*
X216937D01*
X206850Y185925D02*
X213150D01*
X206850Y189075D02*
X213150D01*
X206850Y185925D02*
Y189075D01*
X213150Y185925D02*
Y189075D01*
X206850Y191425D02*
X213150D01*
X206850Y194575D02*
X213150D01*
X206850Y191425D02*
Y194575D01*
X213150Y191425D02*
Y194575D01*
X206850Y196925D02*
X213150D01*
X206850Y200075D02*
X213150D01*
X206850Y196925D02*
Y200075D01*
X213150Y196925D02*
Y200075D01*
X197075Y177850D02*
Y184150D01*
X193925Y177850D02*
Y184150D01*
Y177850D02*
X197075D01*
X193925Y184150D02*
X197075D01*
X184425Y205114D02*
Y211413D01*
X187575Y205114D02*
Y211413D01*
X184425D02*
X187575D01*
X184425Y205114D02*
X187575D01*
X156150Y224425D02*
Y227575D01*
X149850Y224425D02*
Y227575D01*
X156150D01*
X149850Y224425D02*
X156150D01*
X110075Y226850D02*
Y233150D01*
X106925Y226850D02*
Y233150D01*
Y226850D02*
X110075D01*
X106925Y233150D02*
X110075D01*
X194350Y202575D02*
X200650D01*
X194350Y199425D02*
X200650D01*
Y202575D01*
X194350Y199425D02*
Y202575D01*
X188094Y76256D02*
X199906D01*
Y70744D02*
Y76256D01*
X188094Y70744D02*
X199906D01*
X188094D02*
Y76256D01*
X160350Y176425D02*
X166650D01*
X160350Y179575D02*
X166650D01*
Y176425D02*
Y179575D01*
X160350Y176425D02*
Y179575D01*
X94925Y225850D02*
Y232150D01*
X98075Y225850D02*
Y232150D01*
X94925D02*
X98075D01*
X94925Y225850D02*
X98075D01*
X177165Y118110D02*
X216535D01*
X177165D02*
Y157480D01*
X216535D01*
Y118110D02*
Y157480D01*
X115295Y160295D02*
X160295D01*
X115295Y115295D02*
Y160295D01*
Y115295D02*
X160295D01*
Y160295D01*
X192760Y79500D02*
Y86587D01*
X179374Y79500D02*
Y86587D01*
Y79500D02*
X192760D01*
X179374Y86587D02*
X192760D01*
X150240Y195917D02*
Y198083D01*
X144220D02*
X150240D01*
X144220Y195917D02*
Y198083D01*
Y195917D02*
X150240D01*
X166650Y187697D02*
Y190847D01*
X160350Y187697D02*
Y190847D01*
Y187697D02*
X166650D01*
X160350Y190847D02*
X166650D01*
Y182425D02*
Y185575D01*
X160350Y182425D02*
Y185575D01*
Y182425D02*
X166650D01*
X160350Y185575D02*
X166650D01*
X150240Y191917D02*
Y194083D01*
X144220D02*
X150240D01*
X144220Y191917D02*
Y194083D01*
Y191917D02*
X150240D01*
X62154Y84728D02*
X68846D01*
X62154Y88272D02*
X68846D01*
Y84728D02*
Y88272D01*
X62154Y84728D02*
Y88272D01*
X206654Y214228D02*
X213346D01*
X206654Y217772D02*
X213346D01*
X206654Y214228D02*
Y217772D01*
X213346Y214228D02*
Y217772D01*
X151807Y42957D02*
X165193D01*
X151807Y50043D02*
X165193D01*
X151807Y42957D02*
Y50043D01*
X165193Y42957D02*
Y50043D01*
X213150Y169425D02*
Y172575D01*
X206850Y169425D02*
Y172575D01*
X213150D01*
X206850Y169425D02*
X213150D01*
X84350Y140425D02*
Y143575D01*
X90650Y140425D02*
Y143575D01*
X84350Y140425D02*
X90650D01*
X84350Y143575D02*
X90650D01*
X213150Y202425D02*
Y205575D01*
X206850Y202425D02*
Y205575D01*
X213150D01*
X206850Y202425D02*
X213150D01*
X84350Y123925D02*
Y127075D01*
X90650Y123925D02*
Y127075D01*
X84350Y123925D02*
X90650D01*
X84350Y127075D02*
X90650D01*
X84350Y129425D02*
Y132575D01*
X90650Y129425D02*
Y132575D01*
X84350Y129425D02*
X90650D01*
X84350Y132575D02*
X90650D01*
X156150Y229425D02*
Y232575D01*
X149850Y229425D02*
Y232575D01*
X156150D01*
X149850Y229425D02*
X156150D01*
Y234425D02*
Y237575D01*
X149850Y234425D02*
Y237575D01*
X156150D01*
X149850Y234425D02*
X156150D01*
X116925Y233150D02*
X120075D01*
X116925Y226850D02*
X120075D01*
X116925D02*
Y233150D01*
X120075Y226850D02*
Y233150D01*
X111925D02*
X115075D01*
X111925Y226850D02*
X115075D01*
X111925D02*
Y233150D01*
X115075Y226850D02*
Y233150D01*
X213150Y207925D02*
Y211075D01*
X206850Y207925D02*
Y211075D01*
X213150D01*
X206850Y207925D02*
X213150D01*
X112201Y219425D02*
Y222575D01*
X118500Y219425D02*
Y222575D01*
X112201Y219425D02*
X118500D01*
X112201Y222575D02*
X118500D01*
X112201Y214425D02*
Y217575D01*
X118500Y214425D02*
Y217575D01*
X112201Y214425D02*
X118500D01*
X112201Y217575D02*
X118500D01*
X80925Y216350D02*
X84075D01*
X80925Y222650D02*
X84075D01*
Y216350D02*
Y222650D01*
X80925Y216350D02*
Y222650D01*
Y209650D02*
X84075D01*
X80925Y203350D02*
X84075D01*
X80925D02*
Y209650D01*
X84075Y203350D02*
Y209650D01*
X95850Y203425D02*
Y206575D01*
X102150Y203425D02*
Y206575D01*
X95850Y203425D02*
X102150D01*
X95850Y206575D02*
X102150D01*
X67425Y217350D02*
X70575D01*
X67425Y223650D02*
X70575D01*
Y217350D02*
Y223650D01*
X67425Y217350D02*
Y223650D01*
X68650Y210925D02*
Y214075D01*
X62350Y210925D02*
Y214075D01*
X68650D01*
X62350Y210925D02*
X68650D01*
Y205925D02*
Y209075D01*
X62350Y205925D02*
Y209075D01*
X68650D01*
X62350Y205925D02*
X68650D01*
X48925Y207650D02*
X52075D01*
X48925Y201350D02*
X52075D01*
X48925D02*
Y207650D01*
X52075Y201350D02*
Y207650D01*
X62350Y200425D02*
Y203575D01*
X68650Y200425D02*
Y203575D01*
X62350Y200425D02*
X68650D01*
X62350Y203575D02*
X68650D01*
X49150Y193925D02*
Y197075D01*
X42850Y193925D02*
Y197075D01*
X49150D01*
X42850Y193925D02*
X49150D01*
X164898Y199898D02*
Y212102D01*
X177102D01*
Y199898D02*
Y212102D01*
X164898Y199898D02*
X177102D01*
X68945Y93130D02*
Y96870D01*
X62055Y93130D02*
Y96870D01*
Y93130D02*
X68945D01*
X62055Y96870D02*
X68945D01*
X121130Y184555D02*
X124870D01*
X121130Y191445D02*
X124870D01*
X121130Y184555D02*
Y191445D01*
X124870Y184555D02*
Y191445D01*
X231350Y162075D02*
X237650D01*
X231350Y158925D02*
X237650D01*
X231350D02*
Y162075D01*
X237650Y158925D02*
Y162075D01*
X227425Y148350D02*
X230575D01*
X227425Y154650D02*
X230575D01*
X227425Y148350D02*
Y154650D01*
X230575Y148350D02*
Y154650D01*
X184850Y149925D02*
Y153075D01*
X191150Y149925D02*
Y153075D01*
X184850Y149925D02*
X191150D01*
X184850Y153075D02*
X191150D01*
X182925Y145150D02*
X186075D01*
X182925Y138850D02*
X186075D01*
X182925D02*
Y145150D01*
X186075Y138850D02*
Y145150D01*
X90650Y117425D02*
Y120575D01*
X84350Y117425D02*
Y120575D01*
X90650D01*
X84350Y117425D02*
X90650D01*
X167350Y76425D02*
Y79575D01*
X173650Y76425D02*
Y79575D01*
X167350Y76425D02*
X173650D01*
X167350Y79575D02*
X173650D01*
X185425Y181650D02*
X188575D01*
X185425Y175350D02*
X188575D01*
Y181650D01*
X185425Y175350D02*
Y181650D01*
X168425Y240650D02*
X171575D01*
X168425Y234350D02*
X171575D01*
X168425D02*
Y240650D01*
X171575Y234350D02*
Y240650D01*
X112201Y209425D02*
Y212575D01*
X118500Y209425D02*
Y212575D01*
X112201Y209425D02*
X118500D01*
X112201Y212575D02*
X118500D01*
X108850Y198925D02*
Y202075D01*
X115150Y198925D02*
Y202075D01*
X108850Y198925D02*
X115150D01*
X108850Y202075D02*
X115150D01*
X75850Y193925D02*
Y197075D01*
X82150Y193925D02*
Y197075D01*
X75850Y193925D02*
X82150D01*
X75850Y197075D02*
X82150D01*
X62850Y190925D02*
Y194075D01*
X69150Y190925D02*
Y194075D01*
X62850Y190925D02*
X69150D01*
X62850Y194075D02*
X69150D01*
X155925Y204350D02*
X159075D01*
X155925Y210650D02*
X159075D01*
X155925Y204350D02*
Y210650D01*
X159075Y204350D02*
Y210650D01*
X129705Y54335D02*
Y66539D01*
X141909Y54335D02*
Y66539D01*
X129705Y54335D02*
X141909D01*
X129705Y66539D02*
X141909D01*
X83213Y152614D02*
Y164386D01*
X89787Y152614D02*
Y164386D01*
X83213Y152614D02*
X89787D01*
X83213Y164386D02*
X89787D01*
X102362Y112598D02*
X112598Y102362D01*
X102362Y112598D02*
Y162992D01*
X112598Y173228D01*
X162992D01*
X173228Y162992D01*
Y112598D02*
Y162992D01*
X162992Y102362D02*
X173228Y112598D01*
X112598Y102362D02*
X162992D01*
X96457Y96457D02*
X128937D01*
X96457D02*
Y179134D01*
X128937D01*
Y181102D01*
X146654Y179134D02*
Y181102D01*
Y179134D02*
X179134D01*
Y96457D02*
Y179134D01*
X146654Y96457D02*
X179134D01*
X146654Y94488D02*
Y96457D01*
X128937Y94488D02*
Y96457D01*
D14*
X235535Y154134D02*
X252465D01*
Y121457D02*
Y154134D01*
X235535Y121457D02*
X252465D01*
X235535D02*
Y154134D01*
X130307Y60501D02*
Y63781D01*
X130963Y64437D01*
X132275D01*
X132931Y63781D01*
Y60501D01*
X134243Y64437D02*
X135555D01*
X134899D01*
Y60501D01*
X134243Y61157D01*
D17*
X137795Y19685D02*
X138793Y19689D01*
X139790Y19702D01*
X140787Y19723D01*
X141784Y19752D01*
X142781Y19790D01*
X143777Y19837D01*
X144773Y19891D01*
X145769Y19954D01*
X146764Y20026D01*
X147758Y20106D01*
X148751Y20194D01*
X149744Y20291D01*
X150736Y20396D01*
X151727Y20509D01*
X152717Y20631D01*
X153706Y20762D01*
X154693Y20900D01*
X155680Y21047D01*
X156665Y21202D01*
X157649Y21366D01*
X158632Y21538D01*
X159613Y21718D01*
X160592Y21906D01*
X161570Y22103D01*
X162546Y22308D01*
X163521Y22521D01*
X164493Y22742D01*
X165464Y22972D01*
X166432Y23209D01*
X167399Y23455D01*
X168364Y23709D01*
X169326Y23971D01*
X170286Y24242D01*
X171244Y24520D01*
X172199Y24807D01*
X173152Y25101D01*
X174102Y25404D01*
X175050Y25715D01*
X175996Y26033D01*
X176938Y26360D01*
X177878Y26694D01*
X178814Y27037D01*
X179748Y27387D01*
X180679Y27745D01*
X181607Y28111D01*
X182532Y28485D01*
X183453Y28867D01*
X184371Y29256D01*
X185286Y29654D01*
X186198Y30059D01*
X187106Y30471D01*
X188011Y30891D01*
X188911Y31319D01*
X189809Y31755D01*
X190702Y32198D01*
X191592Y32648D01*
X192478Y33106D01*
X193360Y33572D01*
X194239Y34045D01*
X195113Y34525D01*
X195983Y35013D01*
X196849Y35508D01*
X197710Y36010D01*
X198568Y36520D01*
X199421Y37037D01*
X200270Y37561D01*
X201114Y38092D01*
X201954Y38630D01*
X202789Y39175D01*
X203619Y39728D01*
X204445Y40287D01*
X205266Y40854D01*
X206082Y41427D01*
X206894Y42007D01*
X207700Y42594D01*
X208502Y43187D01*
X209298Y43788D01*
X210089Y44395D01*
X210876Y45009D01*
X211656Y45629D01*
X212432Y46256D01*
X213203Y46890D01*
X213967Y47530D01*
X214727Y48177D01*
X215481Y48829D01*
X216230Y49489D01*
X216973Y50154D01*
X217710Y50826D01*
X218442Y51504D01*
X219167Y52188D01*
X219887Y52878D01*
X220602Y53574D01*
X221310Y54277D01*
X222012Y54985D01*
X222709Y55699D01*
X223399Y56419D01*
X224083Y57145D01*
X224761Y57876D01*
X225433Y58614D01*
X226098Y59357D01*
X226758Y60105D01*
X227410Y60859D01*
X228057Y61619D01*
X228697Y62384D01*
X229330Y63154D01*
X229958Y63930D01*
X230578Y64711D01*
X231192Y65497D01*
X231799Y66288D01*
X232400Y67084D01*
X232994Y67886D01*
X233580Y68692D01*
X234161Y69504D01*
X234734Y70320D01*
X235300Y71141D01*
X235860Y71967D01*
X236412Y72797D01*
X236957Y73632D01*
X237496Y74472D01*
X238027Y75316D01*
X238551Y76165D01*
X239068Y77018D01*
X239578Y77875D01*
X240080Y78737D01*
X240575Y79603D01*
X241063Y80473D01*
X241543Y81347D01*
X242016Y82225D01*
X242482Y83107D01*
X242940Y83993D01*
X243390Y84883D01*
X243833Y85777D01*
X244269Y86674D01*
X244697Y87575D01*
X245117Y88480D01*
X245530Y89388D01*
X245935Y90299D01*
X246332Y91214D01*
X246722Y92132D01*
X247103Y93054D01*
X247477Y93978D01*
X247843Y94906D01*
X248201Y95837D01*
X248552Y96771D01*
X248894Y97708D01*
X249229Y98647D01*
X249556Y99590D01*
X249874Y100535D01*
X250185Y101483D01*
X250487Y102433D01*
X250782Y103386D01*
X251069Y104341D01*
X251347Y105299D01*
X251618Y106259D01*
X251880Y107221D01*
X252134Y108186D01*
X252380Y109153D01*
X252618Y110121D01*
X252847Y111092D01*
X253069Y112065D01*
X253282Y113039D01*
X253487Y114015D01*
X253683Y114993D01*
X253872Y115972D01*
X254052Y116953D01*
X254224Y117936D01*
X254387Y118920D01*
X254543Y119905D01*
X254690Y120892D01*
X254828Y121879D01*
X254959Y122868D01*
X255080Y123858D01*
X255194Y124849D01*
X255299Y125841D01*
X255396Y126834D01*
X255484Y127827D01*
X255564Y128821D01*
X255636Y129816D01*
X255699Y130812D01*
X255754Y131808D01*
X255800Y132804D01*
X255838Y133801D01*
X255868Y134798D01*
X255889Y135795D01*
X255901Y136792D01*
X255906Y137790D01*
Y137795D01*
X255901Y138793D01*
X255889Y139790D01*
X255868Y140787D01*
X255838Y141784D01*
X255800Y142781D01*
X255754Y143778D01*
X255699Y144773D01*
X255636Y145769D01*
X255564Y146764D01*
X255485Y147758D01*
X255396Y148751D01*
X255299Y149744D01*
X255194Y150736D01*
X255081Y151727D01*
X254959Y152717D01*
X254829Y153706D01*
X254690Y154694D01*
X254543Y155680D01*
X254388Y156666D01*
X254225Y157650D01*
X254053Y158632D01*
X253873Y159613D01*
X253684Y160593D01*
X253488Y161571D01*
X253283Y162547D01*
X253070Y163521D01*
X252848Y164494D01*
X252619Y165464D01*
X252381Y166433D01*
X252135Y167400D01*
X251881Y168365D01*
X251619Y169327D01*
X251348Y170287D01*
X251070Y171245D01*
X250783Y172200D01*
X250489Y173153D01*
X250186Y174104D01*
X249876Y175051D01*
X249557Y175997D01*
X249230Y176939D01*
X248896Y177879D01*
X248553Y178816D01*
X248203Y179750D01*
X247845Y180680D01*
X247479Y181608D01*
X247105Y182533D01*
X246723Y183455D01*
X246334Y184373D01*
X245936Y185288D01*
X245532Y186199D01*
X245119Y187107D01*
X244699Y188012D01*
X244271Y188913D01*
X243835Y189810D01*
X243392Y190704D01*
X242942Y191594D01*
X242483Y192480D01*
X242018Y193362D01*
X241545Y194240D01*
X241065Y195114D01*
X240577Y195984D01*
X240082Y196850D01*
X239579Y197712D01*
X239070Y198570D01*
X238553Y199423D01*
X238029Y200271D01*
X237498Y201116D01*
X236959Y201955D01*
X236414Y202790D01*
X235862Y203621D01*
X235302Y204447D01*
X234736Y205268D01*
X234163Y206084D01*
X233582Y206896D01*
X232996Y207702D01*
X232402Y208504D01*
X231801Y209300D01*
X231194Y210091D01*
X230580Y210877D01*
X229960Y211658D01*
X229332Y212434D01*
X228699Y213205D01*
X228059Y213969D01*
X227412Y214729D01*
X226760Y215483D01*
X226100Y216232D01*
X225435Y216975D01*
X224763Y217712D01*
X224085Y218443D01*
X223401Y219169D01*
X222710Y219889D01*
X222014Y220604D01*
X221312Y221312D01*
X220603Y222014D01*
X219889Y222710D01*
X219169Y223401D01*
X218443Y224085D01*
X217712Y224763D01*
X216975Y225435D01*
X216232Y226100D01*
X215483Y226760D01*
X214729Y227412D01*
X213969Y228059D01*
X213204Y228699D01*
X212434Y229333D01*
X211658Y229960D01*
X210877Y230580D01*
X210091Y231194D01*
X209300Y231801D01*
X208504Y232402D01*
X207702Y232996D01*
X206895Y233582D01*
X206084Y234163D01*
X205268Y234736D01*
X204447Y235302D01*
X203621Y235862D01*
X202790Y236414D01*
X201955Y236959D01*
X201115Y237498D01*
X200271Y238029D01*
X199423Y238553D01*
X198570Y239070D01*
X197712Y239579D01*
X196850Y240082D01*
X195984Y240577D01*
X195114Y241065D01*
X194240Y241545D01*
X193362Y242018D01*
X192480Y242483D01*
X191594Y242942D01*
X190704Y243392D01*
X189810Y243835D01*
X188913Y244271D01*
X188012Y244699D01*
X187107Y245119D01*
X186199Y245532D01*
X185288Y245936D01*
X184373Y246334D01*
X183454Y246723D01*
X182533Y247105D01*
X181608Y247479D01*
X180680Y247845D01*
X179749Y248203D01*
X178815Y248553D01*
X177879Y248896D01*
X176939Y249231D01*
X175996Y249557D01*
X175051Y249876D01*
X174103Y250186D01*
X173153Y250489D01*
X172200Y250783D01*
X171245Y251070D01*
X170287Y251348D01*
X169327Y251619D01*
X168364Y251881D01*
X167400Y252135D01*
X166433Y252381D01*
X165464Y252619D01*
X164494Y252848D01*
X163521Y253070D01*
X162547Y253283D01*
X161571Y253488D01*
X160593Y253684D01*
X159613Y253873D01*
X158632Y254053D01*
X157650Y254225D01*
X156666Y254388D01*
X155680Y254543D01*
X154694Y254690D01*
X153706Y254829D01*
X152717Y254959D01*
X151727Y255081D01*
X150736Y255194D01*
X149744Y255299D01*
X148751Y255396D01*
X147758Y255485D01*
X146764Y255564D01*
X145769Y255636D01*
X144773Y255699D01*
X143777Y255754D01*
X142781Y255800D01*
X141784Y255838D01*
X140787Y255868D01*
X139790Y255889D01*
X138793Y255901D01*
X137795Y255906D01*
X136798Y255901D01*
X135801Y255889D01*
X134803Y255868D01*
X133806Y255838D01*
X132809Y255800D01*
X131813Y255754D01*
X130817Y255699D01*
X129822Y255636D01*
X128827Y255564D01*
X127832Y255485D01*
X126839Y255396D01*
X125846Y255299D01*
X124854Y255194D01*
X123863Y255081D01*
X122873Y254959D01*
X121885Y254829D01*
X120897Y254690D01*
X119910Y254543D01*
X118925Y254388D01*
X117941Y254225D01*
X116958Y254053D01*
X115977Y253873D01*
X114998Y253684D01*
X114020Y253488D01*
X113044Y253283D01*
X112069Y253070D01*
X111097Y252848D01*
X110126Y252619D01*
X109157Y252381D01*
X108191Y252135D01*
X107226Y251881D01*
X106264Y251619D01*
X105304Y251348D01*
X104346Y251070D01*
X103390Y250783D01*
X102437Y250489D01*
X101487Y250186D01*
X100539Y249876D01*
X99594Y249557D01*
X98651Y249230D01*
X97712Y248896D01*
X96775Y248553D01*
X95841Y248203D01*
X94910Y247845D01*
X93982Y247479D01*
X93058Y247105D01*
X92136Y246723D01*
X91218Y246334D01*
X90303Y245936D01*
X89391Y245531D01*
X88483Y245119D01*
X87578Y244699D01*
X86677Y244271D01*
X85780Y243835D01*
X84886Y243392D01*
X83997Y242941D01*
X83111Y242483D01*
X82228Y242018D01*
X81350Y241545D01*
X80476Y241065D01*
X79606Y240577D01*
X78740Y240082D01*
X77878Y239579D01*
X77021Y239070D01*
X76168Y238553D01*
X75319Y238029D01*
X74475Y237498D01*
X73635Y236959D01*
X72800Y236414D01*
X71969Y235862D01*
X71144Y235302D01*
X70323Y234736D01*
X69506Y234162D01*
X68695Y233582D01*
X67888Y232995D01*
X67087Y232402D01*
X66291Y231801D01*
X65499Y231194D01*
X64713Y230580D01*
X63932Y229960D01*
X63156Y229332D01*
X62386Y228699D01*
X61621Y228059D01*
X60861Y227412D01*
X60107Y226759D01*
X59359Y226100D01*
X58616Y225435D01*
X57879Y224763D01*
X57147Y224085D01*
X56421Y223401D01*
X55701Y222710D01*
X54987Y222014D01*
X54279Y221312D01*
X53576Y220603D01*
X52880Y219889D01*
X52190Y219169D01*
X51506Y218443D01*
X50828Y217712D01*
X50156Y216974D01*
X49490Y216232D01*
X48831Y215483D01*
X48178Y214729D01*
X47532Y213969D01*
X46891Y213204D01*
X46258Y212434D01*
X45631Y211658D01*
X45010Y210877D01*
X44396Y210091D01*
X43789Y209300D01*
X43189Y208503D01*
X42595Y207702D01*
X42008Y206895D01*
X41428Y206084D01*
X40855Y205268D01*
X40288Y204447D01*
X39729Y203621D01*
X39176Y202790D01*
X38631Y201955D01*
X38093Y201115D01*
X37562Y200271D01*
X37038Y199423D01*
X36521Y198569D01*
X36011Y197712D01*
X35509Y196850D01*
X35014Y195984D01*
X34526Y195114D01*
X34045Y194240D01*
X33573Y193362D01*
X33107Y192480D01*
X32649Y191594D01*
X32198Y190704D01*
X31755Y189810D01*
X31320Y188913D01*
X30892Y188012D01*
X30472Y187107D01*
X30059Y186199D01*
X29654Y185288D01*
X29257Y184373D01*
X28867Y183454D01*
X28486Y182533D01*
X28112Y181608D01*
X27746Y180680D01*
X27387Y179749D01*
X27037Y178815D01*
X26695Y177879D01*
X26360Y176939D01*
X26033Y175996D01*
X25715Y175051D01*
X25404Y174103D01*
X25102Y173153D01*
X24807Y172200D01*
X24521Y171245D01*
X24242Y170287D01*
X23972Y169327D01*
X23709Y168364D01*
X23455Y167400D01*
X23210Y166433D01*
X22972Y165464D01*
X22742Y164494D01*
X22521Y163521D01*
X22308Y162547D01*
X22103Y161571D01*
X21906Y160593D01*
X21718Y159613D01*
X21538Y158632D01*
X21366Y157650D01*
X21202Y156666D01*
X21047Y155680D01*
X20900Y154694D01*
X20762Y153706D01*
X20631Y152717D01*
X20510Y151727D01*
X20396Y150736D01*
X20291Y149744D01*
X20194Y148751D01*
X20106Y147758D01*
X20026Y146764D01*
X19954Y145769D01*
X19891Y144773D01*
X19837Y143777D01*
X19790Y142781D01*
X19752Y141784D01*
X19723Y140787D01*
X19702Y139790D01*
X19689Y138793D01*
X19685Y137795D01*
X19689Y136798D01*
X19702Y135801D01*
X19723Y134803D01*
X19752Y133806D01*
X19790Y132809D01*
X19837Y131813D01*
X19891Y130817D01*
X19954Y129822D01*
X20026Y128827D01*
X20106Y127832D01*
X20194Y126839D01*
X20291Y125846D01*
X20396Y124854D01*
X20510Y123863D01*
X20631Y122873D01*
X20762Y121885D01*
X20900Y120897D01*
X21047Y119910D01*
X21202Y118925D01*
X21366Y117941D01*
X21538Y116958D01*
X21718Y115977D01*
X21906Y114998D01*
X22103Y114020D01*
X22308Y113044D01*
X22521Y112069D01*
X22742Y111097D01*
X22972Y110126D01*
X23210Y109157D01*
X23456Y108191D01*
X23710Y107226D01*
X23972Y106264D01*
X24242Y105304D01*
X24521Y104346D01*
X24807Y103390D01*
X25102Y102437D01*
X25404Y101487D01*
X25715Y100539D01*
X26034Y99594D01*
X26360Y98651D01*
X26695Y97712D01*
X27037Y96775D01*
X27387Y95841D01*
X27746Y94910D01*
X28112Y93982D01*
X28486Y93058D01*
X28868Y92136D01*
X29257Y91218D01*
X29654Y90303D01*
X30059Y89391D01*
X30472Y88483D01*
X30892Y87578D01*
X31320Y86677D01*
X31755Y85780D01*
X32199Y84886D01*
X32649Y83997D01*
X33107Y83111D01*
X33573Y82228D01*
X34046Y81350D01*
X34526Y80476D01*
X35014Y79606D01*
X35509Y78740D01*
X36011Y77878D01*
X36521Y77021D01*
X37038Y76168D01*
X37562Y75319D01*
X38093Y74475D01*
X38631Y73635D01*
X39177Y72800D01*
X39729Y71969D01*
X40288Y71144D01*
X40855Y70323D01*
X41428Y69506D01*
X42008Y68695D01*
X42595Y67888D01*
X43189Y67087D01*
X43789Y66291D01*
X44397Y65499D01*
X45011Y64713D01*
X45631Y63932D01*
X46258Y63156D01*
X46892Y62386D01*
X47532Y61621D01*
X48178Y60861D01*
X48831Y60107D01*
X49490Y59359D01*
X50156Y58616D01*
X50828Y57879D01*
X51506Y57147D01*
X52190Y56421D01*
X52880Y55701D01*
X53576Y54987D01*
X54279Y54279D01*
X54987Y53576D01*
X55701Y52880D01*
X56421Y52190D01*
X57147Y51506D01*
X57879Y50828D01*
X58616Y50156D01*
X59359Y49490D01*
X60107Y48831D01*
X60862Y48178D01*
X61621Y47532D01*
X62386Y46891D01*
X63156Y46258D01*
X63932Y45631D01*
X64713Y45010D01*
X65499Y44396D01*
X66291Y43789D01*
X67087Y43189D01*
X67889Y42595D01*
X68695Y42008D01*
X69507Y41428D01*
X70323Y40855D01*
X71144Y40288D01*
X71970Y39729D01*
X72800Y39176D01*
X73635Y38631D01*
X74475Y38093D01*
X75319Y37562D01*
X76168Y37038D01*
X77021Y36521D01*
X77879Y36011D01*
X78740Y35509D01*
X79606Y35014D01*
X80476Y34526D01*
X81350Y34045D01*
X82229Y33573D01*
X83111Y33107D01*
X83997Y32649D01*
X84887Y32198D01*
X85780Y31755D01*
X86678Y31320D01*
X87579Y30892D01*
X88483Y30472D01*
X89391Y30059D01*
X90303Y29654D01*
X91218Y29257D01*
X92136Y28867D01*
X93058Y28486D01*
X93982Y28112D01*
X94910Y27746D01*
X95841Y27387D01*
X96775Y27037D01*
X97712Y26695D01*
X98652Y26360D01*
X99594Y26033D01*
X100539Y25715D01*
X101487Y25404D01*
X102438Y25102D01*
X103391Y24807D01*
X104346Y24521D01*
X105304Y24242D01*
X106264Y23972D01*
X107226Y23709D01*
X108191Y23455D01*
X109158Y23210D01*
X110126Y22972D01*
X111097Y22742D01*
X112069Y22521D01*
X113044Y22308D01*
X114020Y22103D01*
X114998Y21906D01*
X115977Y21718D01*
X116958Y21538D01*
X117941Y21366D01*
X118925Y21202D01*
X119910Y21047D01*
X120896Y20900D01*
X121884Y20762D01*
X122873Y20631D01*
X123863Y20510D01*
X124854Y20396D01*
X125846Y20291D01*
X126839Y20194D01*
X127832Y20106D01*
X128826Y20026D01*
X129821Y19954D01*
X130817Y19891D01*
X131813Y19837D01*
X132809Y19790D01*
X133806Y19752D01*
X134803Y19723D01*
X135800Y19702D01*
X136797Y19689D01*
X137795Y19685D01*
D18*
X138577Y222244D02*
X135245D01*
X134579Y221578D01*
Y220245D01*
X135245Y219578D01*
X138577D01*
X137911Y218245D02*
X138577Y217579D01*
Y216246D01*
X137911Y215580D01*
X137244D01*
X136578Y216246D01*
Y216913D01*
Y216246D01*
X135912Y215580D01*
X135245D01*
X134579Y216246D01*
Y217579D01*
X135245Y218245D01*
D19*
X162067Y64042D02*
Y61543D01*
X162567Y61043D01*
X163566D01*
X164066Y61543D01*
Y64042D01*
X166565Y61043D02*
Y64042D01*
X165066Y62543D01*
X167065D01*
D153*
X106700Y209000D02*
Y234000D01*
X98300D02*
X106700D01*
X98300Y209000D02*
Y234000D01*
Y209000D02*
X106700D01*
X101000Y235300D02*
Y243700D01*
X126000D01*
Y235300D02*
Y243700D01*
X101000Y235300D02*
X126000D01*
X93331Y200000D02*
Y225000D01*
X84931D02*
X93331D01*
X84931Y200000D02*
Y225000D01*
Y200000D02*
X93331D01*
X79700D02*
Y225000D01*
X71300D02*
X79700D01*
X71300Y200000D02*
Y225000D01*
Y200000D02*
X79700D01*
X51800Y190500D02*
X60200D01*
X51800D02*
Y215500D01*
X60200D01*
Y190500D02*
Y215500D01*
X158800Y243500D02*
X167200D01*
Y218500D02*
Y243500D01*
X158800Y218500D02*
X167200D01*
X158800D02*
Y243500D01*
M02*
