<?xml version="1.0" encoding="UTF-8" standalone="no"?>
<!-- Created with Inkscape (http://www.inkscape.org/) -->

<svg
   xmlns:dc="http://purl.org/dc/elements/1.1/"
   xmlns:cc="http://creativecommons.org/ns#"
   xmlns:rdf="http://www.w3.org/1999/02/22-rdf-syntax-ns#"
   xmlns:svg="http://www.w3.org/2000/svg"
   xmlns="http://www.w3.org/2000/svg"
   xmlns:sodipodi="http://sodipodi.sourceforge.net/DTD/sodipodi-0.dtd"
   xmlns:inkscape="http://www.inkscape.org/namespaces/inkscape"
   width="210mm"
   height="297mm"
   viewBox="0 0 210 297"
   version="1.1"
   id="svg8"
   inkscape:version="0.92.3 (2405546, 2018-03-11)"
   sodipodi:docname="page.svg">
  <defs
     id="defs2" />
  <sodipodi:namedview
     id="base"
     pagecolor="#ffffff"
     bordercolor="#666666"
     borderopacity="1.0"
     inkscape:pageopacity="0.0"
     inkscape:pageshadow="2"
     inkscape:zoom="1.0983215"
     inkscape:cx="347.01199"
     inkscape:cy="273.18952"
     inkscape:document-units="mm"
     inkscape:current-layer="layer1"
     showgrid="false"
     inkscape:window-width="1920"
     inkscape:window-height="1013"
     inkscape:window-x="0"
     inkscape:window-y="38"
     inkscape:window-maximized="1" />
  <metadata
     id="metadata5">
    <rdf:RDF>
      <cc:Work
         rdf:about="">
        <dc:format>image/svg+xml</dc:format>
        <dc:type
           rdf:resource="http://purl.org/dc/dcmitype/StillImage" />
        <dc:title />
      </cc:Work>
    </rdf:RDF>
  </metadata>
  <g
     inkscape:label="Layer 1"
     inkscape:groupmode="layer"
     id="layer1">
    <path
       style="fill:none;stroke:#ff1616;stroke-width:1;stroke-linecap:butt;stroke-linejoin:miter;stroke-opacity:1;stroke-miterlimit:4;stroke-dasharray:none"
       d="m 44.447541,249.01238 c 0,0 63.356759,-123.06799 62.934579,-187.623687 -0.0743,-11.36059 -0.43431,-28.112926 -11.013552,-32.253967 -10.270376,-4.020142 -21.15282,8.317653 -22.420448,19.273713 -7.260395,62.751311 -3.54007,216.337591 -3.54007,216.337591 0,0 -0.160937,-52.05023 13.373597,-70.40806 5.185004,-7.03278 14.866911,-11.14346 23.600463,-11.40689 10.34332,-0.31198 23.01399,3.16354 28.7139,11.80024 10.18407,15.43126 -5.37314,37.5501 -0.78668,55.46109 1.12152,4.37973 2.29116,10.74277 6.6868,11.80023 7.17729,1.72665 18.48703,-12.19358 18.48703,-12.19358"
       id="path815"
       inkscape:connector-curvature="0"
       sodipodi:nodetypes="cssscsssssc" />
  </g>
</svg>
