G04*
G04 #@! TF.GenerationSoftware,Altium Limited,Altium Designer,22.4.2 (48)*
G04*
G04 Layer_Color=16711935*
%FSLAX25Y25*%
%MOIN*%
G70*
G04*
G04 #@! TF.SameCoordinates,33176103-96A9-485D-B847-577AE089F5E8*
G04*
G04*
G04 #@! TF.FilePolarity,Positive*
G04*
G01*
G75*
%ADD55C,0.00004*%
D55*
X199171Y255906D02*
X203797Y255541D01*
X208380Y254815D01*
X212893Y253732D01*
X217306Y252298D01*
X221593Y250522D01*
X225728Y248416D01*
X229685Y245991D01*
X233439Y243263D01*
X236968Y240249D01*
X240249Y236968D01*
X243263Y233439D01*
X245991Y229685D01*
X248416Y225728D01*
X250522Y221593D01*
X252298Y217306D01*
X253732Y212893D01*
X254815Y208380D01*
X255541Y203797D01*
X255906Y199171D01*
Y196850D02*
Y199171D01*
Y194530D02*
Y196850D01*
X255541Y189904D02*
X255906Y194530D01*
X254815Y185320D02*
X255541Y189904D01*
X253732Y180808D02*
X254815Y185320D01*
X252298Y176395D02*
X253732Y180808D01*
X250522Y172107D02*
X252298Y176395D01*
X248416Y167973D02*
X250522Y172107D01*
X245991Y164016D02*
X248416Y167973D01*
X243263Y160262D02*
X245991Y164016D01*
X240249Y156733D02*
X243263Y160262D01*
X236968Y153451D02*
X240249Y156733D01*
X233439Y150438D02*
X236968Y153451D01*
X229685Y147710D02*
X233439Y150438D01*
X225728Y145285D02*
X229685Y147710D01*
X221593Y143179D02*
X225728Y145285D01*
X217306Y141403D02*
X221593Y143179D01*
X212893Y139969D02*
X217306Y141403D01*
X208380Y138885D02*
X212893Y139969D01*
X203797Y138159D02*
X208380Y138885D01*
X199171Y137795D02*
X203797Y138159D01*
X196850Y137795D02*
X199171D01*
X194530D02*
X196850D01*
X189904Y138159D02*
X194530Y137795D01*
X185320Y138885D02*
X189904Y138159D01*
X180808Y139969D02*
X185320Y138885D01*
X176395Y141403D02*
X180808Y139969D01*
X172107Y143179D02*
X176395Y141403D01*
X167973Y145285D02*
X172107Y143179D01*
X164016Y147710D02*
X167973Y145285D01*
X160262Y150438D02*
X164016Y147710D01*
X156733Y153451D02*
X160262Y150438D01*
X153451Y156733D02*
X156733Y153451D01*
X150438Y160262D02*
X153451Y156733D01*
X147710Y164016D02*
X150438Y160262D01*
X145285Y167973D02*
X147710Y164016D01*
X143179Y172107D02*
X145285Y167973D01*
X141403Y176395D02*
X143179Y172107D01*
X139969Y180808D02*
X141403Y176395D01*
X138885Y185320D02*
X139969Y180808D01*
X138159Y189904D02*
X138885Y185320D01*
X137795Y194530D02*
X138159Y189904D01*
X137795Y194530D02*
Y196850D01*
Y199171D01*
X138159Y203797D01*
X138885Y208380D01*
X139969Y212893D01*
X141403Y217306D01*
X143179Y221593D01*
X145285Y225728D01*
X147710Y229685D01*
X150438Y233439D01*
X153451Y236968D01*
X156733Y240249D01*
X160262Y243263D01*
X164016Y245991D01*
X167973Y248416D01*
X172107Y250522D01*
X176395Y252298D01*
X180808Y253732D01*
X185320Y254815D01*
X189904Y255541D01*
X194530Y255906D01*
X199171D01*
X200164Y314961D02*
X206782Y314589D01*
X193537Y314961D02*
X200164D01*
X186919Y314589D02*
X193537Y314961D01*
X180333Y313847D02*
X186919Y314589D01*
X173799Y312737D02*
X180333Y313847D01*
X167338Y311262D02*
X173799Y312737D01*
X160969Y309427D02*
X167338Y311262D01*
X154713Y307238D02*
X160969Y309427D01*
X148590Y304702D02*
X154713Y307238D01*
X142619Y301826D02*
X148590Y304702D01*
X136818Y298620D02*
X142619Y301826D01*
X131206Y295094D02*
X136818Y298620D01*
X125801Y291259D02*
X131206Y295094D01*
X120619Y287127D02*
X125801Y291259D01*
X115677Y282710D02*
X120619Y287127D01*
X110991Y278024D02*
X115677Y282710D01*
X106574Y273082D02*
X110991Y278024D01*
X102442Y267900D02*
X106574Y273082D01*
X98607Y262495D02*
X102442Y267900D01*
X95081Y256883D02*
X98607Y262495D01*
X91875Y251082D02*
X95081Y256883D01*
X88999Y245111D02*
X91875Y251082D01*
X86463Y238988D02*
X88999Y245111D01*
X84274Y232732D02*
X86463Y238988D01*
X82439Y226363D02*
X84274Y232732D01*
X80964Y219902D02*
X82439Y226363D01*
X79854Y213368D02*
X80964Y219902D01*
X79112Y206782D02*
X79854Y213368D01*
X78740Y200164D02*
X79112Y206782D01*
X78740Y196850D02*
Y200164D01*
Y193537D02*
Y196850D01*
Y193537D02*
X79112Y186919D01*
X79854Y180333D01*
X80964Y173799D01*
X82439Y167338D01*
X84274Y160969D01*
X86463Y154713D01*
X88999Y148590D01*
X91875Y142619D01*
X95081Y136818D01*
X98607Y131206D01*
X102442Y125801D01*
X106574Y120619D01*
X110991Y115677D01*
X115677Y110991D01*
X120619Y106574D01*
X125801Y102442D01*
X131206Y98607D01*
X136818Y95081D01*
X142619Y91875D01*
X148590Y88999D01*
X154713Y86463D01*
X160969Y84274D01*
X167338Y82439D01*
X173799Y80964D01*
X180333Y79854D01*
X186919Y79112D01*
X193537Y78740D01*
X200164D01*
X206782Y79112D01*
X213368Y79854D01*
X219902Y80964D01*
X226363Y82439D01*
X232732Y84274D01*
X238988Y86463D01*
X245111Y88999D01*
X251082Y91875D01*
X256883Y95081D01*
X257415Y95415D01*
X298286Y136286D01*
X298620Y136818D01*
X301826Y142619D01*
X304702Y148590D01*
X307238Y154713D01*
X309427Y160969D01*
X311262Y167338D01*
X312737Y173799D01*
X313847Y180333D01*
X314589Y186919D01*
X314961Y193537D01*
Y196850D01*
Y200164D01*
X314589Y206782D02*
X314961Y200164D01*
X313847Y213368D02*
X314589Y206782D01*
X312737Y219902D02*
X313847Y213368D01*
X311262Y226363D02*
X312737Y219902D01*
X309427Y232732D02*
X311262Y226363D01*
X307238Y238988D02*
X309427Y232732D01*
X304702Y245111D02*
X307238Y238988D01*
X301826Y251082D02*
X304702Y245111D01*
X298620Y256883D02*
X301826Y251082D01*
X295094Y262495D02*
X298620Y256883D01*
X291259Y267900D02*
X295094Y262495D01*
X287127Y273082D02*
X291259Y267900D01*
X282710Y278024D02*
X287127Y273082D01*
X278024Y282710D02*
X282710Y278024D01*
X273082Y287127D02*
X278024Y282710D01*
X267900Y291259D02*
X273082Y287127D01*
X262495Y295094D02*
X267900Y291259D01*
X256883Y298620D02*
X262495Y295094D01*
X251082Y301826D02*
X256883Y298620D01*
X245111Y304702D02*
X251082Y301826D01*
X238988Y307238D02*
X245111Y304702D01*
X232732Y309427D02*
X238988Y307238D01*
X226363Y311262D02*
X232732Y309427D01*
X219902Y312737D02*
X226363Y311262D01*
X213368Y313847D02*
X219902Y312737D01*
X206782Y314589D02*
X213368Y313847D01*
X199171Y255906D02*
X203797Y255541D01*
X208380Y254815D01*
X212893Y253732D01*
X217306Y252298D01*
X221593Y250522D01*
X225728Y248416D01*
X229685Y245991D01*
X233439Y243263D01*
X236968Y240249D01*
X240249Y236968D01*
X243263Y233439D01*
X245991Y229685D01*
X248416Y225728D01*
X250522Y221593D01*
X252298Y217306D01*
X253732Y212893D01*
X254815Y208380D01*
X255541Y203797D01*
X255906Y199171D01*
Y196850D02*
Y199171D01*
Y194530D02*
Y196850D01*
X255541Y189904D02*
X255906Y194530D01*
X254815Y185320D02*
X255541Y189904D01*
X253732Y180808D02*
X254815Y185320D01*
X252298Y176395D02*
X253732Y180808D01*
X250522Y172107D02*
X252298Y176395D01*
X248416Y167973D02*
X250522Y172107D01*
X245991Y164016D02*
X248416Y167973D01*
X243263Y160262D02*
X245991Y164016D01*
X240249Y156733D02*
X243263Y160262D01*
X236968Y153451D02*
X240249Y156733D01*
X233439Y150438D02*
X236968Y153451D01*
X229685Y147710D02*
X233439Y150438D01*
X225728Y145285D02*
X229685Y147710D01*
X221593Y143179D02*
X225728Y145285D01*
X217306Y141403D02*
X221593Y143179D01*
X212893Y139969D02*
X217306Y141403D01*
X208380Y138885D02*
X212893Y139969D01*
X203797Y138159D02*
X208380Y138885D01*
X199171Y137795D02*
X203797Y138159D01*
X196850Y137795D02*
X199171D01*
X194530D02*
X196850D01*
X189904Y138159D02*
X194530Y137795D01*
X185320Y138885D02*
X189904Y138159D01*
X180808Y139969D02*
X185320Y138885D01*
X176395Y141403D02*
X180808Y139969D01*
X172107Y143179D02*
X176395Y141403D01*
X167973Y145285D02*
X172107Y143179D01*
X164016Y147710D02*
X167973Y145285D01*
X160262Y150438D02*
X164016Y147710D01*
X156733Y153451D02*
X160262Y150438D01*
X153451Y156733D02*
X156733Y153451D01*
X150438Y160262D02*
X153451Y156733D01*
X147710Y164016D02*
X150438Y160262D01*
X145285Y167973D02*
X147710Y164016D01*
X143179Y172107D02*
X145285Y167973D01*
X141403Y176395D02*
X143179Y172107D01*
X139969Y180808D02*
X141403Y176395D01*
X138885Y185320D02*
X139969Y180808D01*
X138159Y189904D02*
X138885Y185320D01*
X137795Y194530D02*
X138159Y189904D01*
X137795Y194530D02*
Y196850D01*
Y199171D01*
X138159Y203797D01*
X138885Y208380D01*
X139969Y212893D01*
X141403Y217306D01*
X143179Y221593D01*
X145285Y225728D01*
X147710Y229685D01*
X150438Y233439D01*
X153451Y236968D01*
X156733Y240249D01*
X160262Y243263D01*
X164016Y245991D01*
X167973Y248416D01*
X172107Y250522D01*
X176395Y252298D01*
X180808Y253732D01*
X185320Y254815D01*
X189904Y255541D01*
X194530Y255906D01*
X199171D01*
X200164Y314961D02*
X206782Y314589D01*
X193537Y314961D02*
X200164D01*
X186919Y314589D02*
X193537Y314961D01*
X180333Y313847D02*
X186919Y314589D01*
X173799Y312737D02*
X180333Y313847D01*
X167338Y311262D02*
X173799Y312737D01*
X160969Y309427D02*
X167338Y311262D01*
X154713Y307238D02*
X160969Y309427D01*
X148590Y304702D02*
X154713Y307238D01*
X142619Y301826D02*
X148590Y304702D01*
X136818Y298620D02*
X142619Y301826D01*
X131206Y295094D02*
X136818Y298620D01*
X125801Y291259D02*
X131206Y295094D01*
X120619Y287127D02*
X125801Y291259D01*
X115677Y282710D02*
X120619Y287127D01*
X110991Y278024D02*
X115677Y282710D01*
X106574Y273082D02*
X110991Y278024D01*
X102442Y267900D02*
X106574Y273082D01*
X98607Y262495D02*
X102442Y267900D01*
X95081Y256883D02*
X98607Y262495D01*
X91875Y251082D02*
X95081Y256883D01*
X88999Y245111D02*
X91875Y251082D01*
X86463Y238988D02*
X88999Y245111D01*
X84274Y232732D02*
X86463Y238988D01*
X82439Y226363D02*
X84274Y232732D01*
X80964Y219902D02*
X82439Y226363D01*
X79854Y213368D02*
X80964Y219902D01*
X79112Y206782D02*
X79854Y213368D01*
X78740Y200164D02*
X79112Y206782D01*
X78740Y196850D02*
Y200164D01*
Y193537D02*
Y196850D01*
Y193537D02*
X79112Y186919D01*
X79854Y180333D01*
X80964Y173799D01*
X82439Y167338D01*
X84274Y160969D01*
X86463Y154713D01*
X88999Y148590D01*
X91875Y142619D01*
X95081Y136818D01*
X98607Y131206D01*
X102442Y125801D01*
X106574Y120619D01*
X110991Y115677D01*
X115677Y110991D01*
X120619Y106574D01*
X125801Y102442D01*
X131206Y98607D01*
X136818Y95081D01*
X142619Y91875D01*
X148590Y88999D01*
X154713Y86463D01*
X160969Y84274D01*
X167338Y82439D01*
X173799Y80964D01*
X180333Y79854D01*
X186919Y79112D01*
X193537Y78740D01*
X200164D01*
X206782Y79112D01*
X213368Y79854D01*
X219902Y80964D01*
X226363Y82439D01*
X232732Y84274D01*
X238988Y86463D01*
X245111Y88999D01*
X251082Y91875D01*
X256883Y95081D01*
X257415Y95415D01*
X298286Y136286D01*
X298620Y136818D01*
X301826Y142619D01*
X304702Y148590D01*
X307238Y154713D01*
X309427Y160969D01*
X311262Y167338D01*
X312737Y173799D01*
X313847Y180333D01*
X314589Y186919D01*
X314961Y193537D01*
Y196850D01*
Y200164D01*
X314589Y206782D02*
X314961Y200164D01*
X313847Y213368D02*
X314589Y206782D01*
X312737Y219902D02*
X313847Y213368D01*
X311262Y226363D02*
X312737Y219902D01*
X309427Y232732D02*
X311262Y226363D01*
X307238Y238988D02*
X309427Y232732D01*
X304702Y245111D02*
X307238Y238988D01*
X301826Y251082D02*
X304702Y245111D01*
X298620Y256883D02*
X301826Y251082D01*
X295094Y262495D02*
X298620Y256883D01*
X291259Y267900D02*
X295094Y262495D01*
X287127Y273082D02*
X291259Y267900D01*
X282710Y278024D02*
X287127Y273082D01*
X278024Y282710D02*
X282710Y278024D01*
X273082Y287127D02*
X278024Y282710D01*
X267900Y291259D02*
X273082Y287127D01*
X262495Y295094D02*
X267900Y291259D01*
X256883Y298620D02*
X262495Y295094D01*
X251082Y301826D02*
X256883Y298620D01*
X245111Y304702D02*
X251082Y301826D01*
X238988Y307238D02*
X245111Y304702D01*
X232732Y309427D02*
X238988Y307238D01*
X226363Y311262D02*
X232732Y309427D01*
X219902Y312737D02*
X226363Y311262D01*
X213368Y313847D02*
X219902Y312737D01*
X206782Y314589D02*
X213368Y313847D01*
M02*
