G04*
G04 #@! TF.GenerationSoftware,Altium Limited,Altium Designer,22.4.2 (48)*
G04*
G04 Layer_Color=16711935*
%FSLAX25Y25*%
%MOIN*%
G70*
G04*
G04 #@! TF.SameCoordinates,33176103-96A9-485D-B847-577AE089F5E8*
G04*
G04*
G04 #@! TF.FilePolarity,Positive*
G04*
G01*
G75*
%ADD11C,0.01181*%
D11*
X176646Y120545D02*
X182613Y117100D01*
X174776Y117306D02*
X180742Y113861D01*
X174776Y117306D02*
X176646Y120545D01*
X180742Y113861D02*
X182613Y117100D01*
X171646Y111885D02*
X177613Y108440D01*
X169776Y108646D02*
X175742Y105201D01*
X169776Y108646D02*
X171646Y111885D01*
X175742Y105201D02*
X177613Y108440D01*
X194237Y106851D02*
X198328Y104489D01*
X190300Y100032D02*
X194391Y97669D01*
X198328Y104489D01*
X190300Y100032D02*
X194237Y106851D01*
X118098Y250828D02*
X122035Y244008D01*
X114006Y248465D02*
X117943Y241646D01*
X114006Y248465D02*
X118098Y250828D01*
X117943Y241646D02*
X122035Y244008D01*
X131251Y258250D02*
X137218Y261695D01*
X129381Y261489D02*
X135348Y264934D01*
X137218Y261695D01*
X129381Y261489D02*
X131251Y258250D01*
X136251Y249590D02*
X142218Y253035D01*
X134381Y252829D02*
X140348Y256274D01*
X142218Y253035D01*
X134381Y252829D02*
X136251Y249590D01*
X253859Y126144D02*
X267556Y139841D01*
X252217Y125617D02*
X253301Y126701D01*
X253303Y126701D02*
X254555Y125448D01*
X266999Y140398D02*
X268252Y139145D01*
X266999Y140398D02*
X268085Y141483D01*
X254555Y125448D02*
X268252Y139145D01*
X257089Y148025D02*
X259316Y150253D01*
X257089Y148025D02*
X258508Y146606D01*
X247095Y135192D02*
X258508Y146606D01*
X245675Y136612D02*
X247095Y135192D01*
X243448Y134386D02*
X245674Y136612D01*
X259316Y150253D02*
X268085Y141483D01*
X243448Y134386D02*
X252217Y125617D01*
X285458Y221098D02*
X289198D01*
X285458Y214209D02*
X289198D01*
Y221098D01*
X285458Y214209D02*
Y221098D01*
X275458D02*
X279198D01*
X275458Y214209D02*
X279198D01*
Y221098D01*
X275458Y214209D02*
Y221098D01*
X277891Y236291D02*
X285765D01*
X277891Y241016D02*
X285765D01*
Y236291D02*
Y241016D01*
X277891Y236291D02*
Y241016D01*
M02*
