G04*
G04 #@! TF.GenerationSoftware,Altium Limited,Altium Designer,22.4.2 (48)*
G04*
G04 Layer_Color=65535*
%FSLAX25Y25*%
%MOIN*%
G70*
G04*
G04 #@! TF.SameCoordinates,33176103-96A9-485D-B847-577AE089F5E8*
G04*
G04*
G04 #@! TF.FilePolarity,Positive*
G04*
G01*
G75*
%ADD11C,0.01181*%
D11*
X132610Y278606D02*
X171854Y301263D01*
X132610Y278606D02*
X152689Y243828D01*
X191933Y266486D01*
X171854Y301263D02*
X191933Y266486D01*
X119628Y122346D02*
X158872Y99689D01*
X178951Y134466D01*
X139707Y157124D02*
X178951Y134466D01*
X119628Y122346D02*
X139707Y157124D01*
X183191Y132466D02*
X196509Y124777D01*
X192572Y117957D02*
X196509Y124777D01*
X179254Y125647D02*
X192572Y117957D01*
X179254Y125647D02*
X183191Y132466D01*
X166406Y103893D02*
X179724Y96204D01*
X175787Y89385D02*
X179724Y96204D01*
X162469Y97074D02*
X175787Y89385D01*
X162469Y97074D02*
X166406Y103893D01*
X135186Y233126D02*
X148505Y240816D01*
X131249Y239945D02*
X135186Y233126D01*
X131249Y239945D02*
X144568Y247635D01*
X148505Y240816D01*
X118686Y261705D02*
X132005Y269394D01*
X114749Y268524D02*
X118686Y261705D01*
X114749Y268524D02*
X128068Y276214D01*
X132005Y269394D01*
X294882Y214311D02*
X302756D01*
Y229689D01*
X294882D02*
X302756D01*
X294882Y214311D02*
Y229689D01*
X261891Y214464D02*
X269765D01*
Y229843D01*
X261891D02*
X269765D01*
X261891Y214464D02*
Y229843D01*
X262249Y163929D02*
X302406D01*
X262249D02*
Y209244D01*
X302406D01*
Y163929D02*
Y209244D01*
M02*
