G04*
G04 #@! TF.GenerationSoftware,Altium Limited,Altium Designer,22.4.2 (48)*
G04*
G04 Layer_Color=65535*
%FSLAX25Y25*%
%MOIN*%
G70*
G04*
G04 #@! TF.SameCoordinates,33176103-96A9-485D-B847-577AE089F5E8*
G04*
G04*
G04 #@! TF.FilePolarity,Positive*
G04*
G01*
G75*
%ADD10C,0.00984*%
%ADD11C,0.01181*%
%ADD12C,0.01000*%
D10*
X134054Y273177D02*
G03*
X134054Y273177I-492J0D01*
G01*
X163589Y103227D02*
G03*
X163589Y103227I-492J0D01*
G01*
X245332Y139118D02*
G03*
X245332Y139118I-492J0D01*
G01*
X297721Y211134D02*
G03*
X297721Y211134I-492J0D01*
G01*
D11*
X139904Y281271D02*
X140218Y281452D01*
X139904Y281271D02*
X158644Y248812D01*
X158958Y248993D01*
X152603Y104854D02*
X152916Y104673D01*
X171657Y137132D01*
X171343Y137313D02*
X171657Y137132D01*
X184751Y122927D02*
X187468Y121359D01*
X188295Y129065D02*
X191012Y127496D01*
X167967Y94355D02*
X170684Y92786D01*
X171510Y100492D02*
X174227Y98923D01*
X196504Y100541D02*
X196898Y101223D01*
X191731Y103297D02*
X192124Y103979D01*
X120210Y247956D02*
X120604Y247274D01*
X115437Y245200D02*
X115831Y244518D01*
X136747Y242665D02*
X139464Y244233D01*
X140290Y236527D02*
X143007Y238096D01*
X120247Y271244D02*
X122964Y272812D01*
X123790Y265106D02*
X126507Y266675D01*
X259316Y150253D02*
X265115Y144453D01*
X257785Y148722D02*
X259315Y150253D01*
X243448Y134386D02*
X249248Y128586D01*
X243449Y134386D02*
X244979Y135916D01*
X255782Y126676D02*
X267025Y137918D01*
X295276Y220431D02*
Y223569D01*
X302362Y220431D02*
Y223569D01*
X262284Y220585D02*
Y223722D01*
X269371Y220585D02*
Y223722D01*
X263587Y201232D02*
Y201594D01*
X301068D01*
Y201232D02*
Y201594D01*
X281434Y235898D02*
X282221D01*
X281434Y241409D02*
X282221D01*
D12*
X209098Y99134D02*
X207098Y95671D01*
X209829Y96403D02*
X206366Y98403D01*
X206099Y93940D02*
X204099Y90477D01*
X107403Y234366D02*
X105403Y237829D01*
X104671Y235098D02*
X108134Y237098D01*
X104403Y239561D02*
X102404Y243024D01*
X276500Y254499D02*
X280499D01*
X278499Y256499D02*
Y252500D01*
X282498Y254499D02*
X286497D01*
X253800Y222123D02*
X252800Y221123D01*
Y219124D01*
X253800Y218124D01*
X257798D01*
X258798Y219124D01*
Y221123D01*
X257798Y222123D01*
X258798Y224122D02*
Y226122D01*
Y225122D01*
X252800D01*
X253800Y224122D01*
X181737Y306320D02*
X177408Y303821D01*
X177042Y302455D01*
X178042Y300724D01*
X179407Y300358D01*
X183736Y302857D01*
X183870Y300626D02*
X185236Y300260D01*
X186235Y298528D01*
X185870Y297163D01*
X185004Y296663D01*
X183638Y297029D01*
X183138Y297894D01*
X183638Y297029D01*
X183272Y295663D01*
X182406Y295163D01*
X181041Y295529D01*
X180041Y297261D01*
X180407Y298626D01*
X112941Y127908D02*
X117270Y125408D01*
X118635Y125774D01*
X119635Y127506D01*
X119269Y128871D01*
X114940Y131371D01*
X123134Y133566D02*
X121134Y130103D01*
X119671Y135565D01*
X118805Y136065D01*
X117439Y135699D01*
X116440Y133968D01*
X116806Y132602D01*
X303999Y153501D02*
Y158499D01*
X302999Y159499D01*
X301000D01*
X300000Y158499D01*
Y153501D01*
X298001Y159499D02*
X296001D01*
X297001D01*
Y153501D01*
X298001Y154501D01*
X125968Y260588D02*
X128967Y255394D01*
X126370Y253894D01*
X125004Y254260D01*
X124004Y255992D01*
X124370Y257357D01*
X126968Y258857D01*
X125236Y257857D02*
X122505Y258589D01*
X120310Y250395D02*
X121541Y252261D01*
X122273Y254992D01*
X121273Y256723D01*
X119908Y257089D01*
X118176Y256090D01*
X117810Y254724D01*
X118310Y253858D01*
X119676Y253492D01*
X122273Y254992D01*
X130968Y252088D02*
X133967Y246894D01*
X131370Y245394D01*
X130004Y245760D01*
X129005Y247492D01*
X129370Y248857D01*
X131968Y250357D01*
X130236Y249357D02*
X127505Y250089D01*
X125310Y241895D02*
X128773Y243895D01*
X127273Y246492D01*
X126041Y244626D01*
X125176Y244127D01*
X123810Y244493D01*
X122810Y246224D01*
X123176Y247590D01*
X124908Y248589D01*
X126273Y248223D01*
X178596Y103187D02*
X181685Y108328D01*
X184256Y106783D01*
X184598Y105412D01*
X183568Y103698D01*
X182196Y103356D01*
X179625Y104901D01*
X181339Y103871D02*
X182023Y101127D01*
X186308Y98553D02*
X189397Y103694D01*
X185282Y102668D01*
X188709Y100609D01*
X183096Y111187D02*
X186185Y116328D01*
X188756Y114783D01*
X189098Y113412D01*
X188068Y111698D01*
X186696Y111356D01*
X184125Y112900D01*
X185839Y111871D02*
X186523Y109127D01*
X190811Y112382D02*
X192183Y112724D01*
X193897Y111694D01*
X194239Y110322D01*
X193724Y109466D01*
X192352Y109124D01*
X191495Y109638D01*
X192352Y109124D01*
X192694Y107752D01*
X192179Y106895D01*
X190808Y106553D01*
X189094Y107583D01*
X188752Y108954D01*
X289712Y224581D02*
X283714D01*
Y227579D01*
X284714Y228579D01*
X286713D01*
X287713Y227579D01*
Y224581D01*
Y226580D02*
X289712Y228579D01*
Y234577D02*
Y230578D01*
X285713Y234577D01*
X284714D01*
X283714Y233577D01*
Y231578D01*
X284714Y230578D01*
X279668Y224977D02*
X273670D01*
Y227976D01*
X274669Y228976D01*
X276669D01*
X277668Y227976D01*
Y224977D01*
Y226977D02*
X279668Y228976D01*
Y230975D02*
Y232975D01*
Y231975D01*
X273670D01*
X274669Y230975D01*
X99404Y256329D02*
X104598Y259328D01*
X103866Y256597D01*
X106597Y255865D01*
X101403Y252866D01*
X106731Y253634D02*
X108097Y253268D01*
X109097Y251536D01*
X108731Y250171D01*
X107865Y249671D01*
X106499Y250037D01*
X106000Y250903D01*
X106499Y250037D01*
X106133Y248671D01*
X105268Y248172D01*
X103902Y248537D01*
X102902Y250269D01*
X103268Y251635D01*
X188671Y87504D02*
X191760Y92645D01*
X192444Y89902D01*
X195188Y90586D01*
X192098Y85444D01*
X197240Y82355D02*
X193812Y84414D01*
X199299Y85782D01*
X199814Y86639D01*
X199472Y88011D01*
X197758Y89041D01*
X196387Y88699D01*
X272826Y250152D02*
Y244155D01*
X270827Y246154D01*
X268828Y244155D01*
Y250152D01*
X266828D02*
X264829D01*
X265828D01*
Y244155D01*
X266828Y245154D01*
X270500Y153999D02*
X268501D01*
X269500D01*
Y149001D01*
X268501Y148001D01*
X267501D01*
X266501Y149001D01*
X272499Y148001D02*
X274499D01*
X273499D01*
Y153999D01*
X272499Y152999D01*
X122004Y232260D02*
X123370Y231894D01*
X125101Y232894D01*
X125467Y234259D01*
X123468Y237722D01*
X122102Y238088D01*
X120371Y237089D01*
X120005Y235723D01*
X118273Y234723D02*
X116908Y235089D01*
X115176Y234090D01*
X114810Y232724D01*
X116810Y229261D01*
X118175Y228895D01*
X119907Y229895D01*
X120273Y231260D01*
X119773Y232126D01*
X118407Y232492D01*
X115810Y230993D01*
X111870Y265857D02*
X112236Y267223D01*
X111237Y268954D01*
X109871Y269320D01*
X106408Y267321D01*
X106042Y265955D01*
X107042Y264224D01*
X108407Y263858D01*
X112870Y264126D02*
X114236Y263760D01*
X115235Y262028D01*
X114869Y260663D01*
X114004Y260163D01*
X112638Y260529D01*
X112272Y259163D01*
X111407Y258663D01*
X110041Y259029D01*
X109041Y260761D01*
X109407Y262126D01*
X110273Y262626D01*
X111638Y262260D01*
X112004Y263626D01*
X112870Y264126D01*
X111638Y262260D02*
X112638Y260529D01*
X132870Y230357D02*
X133236Y231723D01*
X132237Y233454D01*
X130871Y233820D01*
X127408Y231821D01*
X127042Y230455D01*
X128042Y228724D01*
X129407Y228358D01*
X134736Y229125D02*
X136735Y225662D01*
X135870Y225163D01*
X130407Y226626D01*
X129541Y226126D01*
X203741Y112610D02*
X203399Y113982D01*
X201685Y115012D01*
X200313Y114670D01*
X198254Y111242D01*
X198596Y109870D01*
X200310Y108841D01*
X201681Y109183D01*
X209397Y110378D02*
X207168Y110551D01*
X204425Y109867D01*
X203395Y108153D01*
X203737Y106781D01*
X205451Y105751D01*
X206823Y106093D01*
X207338Y106950D01*
X206996Y108322D01*
X204425Y109867D01*
X202634Y130231D02*
X202268Y131597D01*
X200537Y132597D01*
X199171Y132231D01*
X197172Y128768D01*
X197538Y127402D01*
X199269Y126402D01*
X200635Y126768D01*
X208328Y128098D02*
X204865Y130097D01*
X203366Y127500D01*
X205597Y127366D01*
X206463Y126866D01*
X206829Y125501D01*
X205829Y123769D01*
X204464Y123403D01*
X202732Y124403D01*
X202366Y125769D01*
X166879Y90832D02*
X166513Y92198D01*
X164782Y93197D01*
X163416Y92831D01*
X161417Y89368D01*
X161783Y88003D01*
X163514Y87003D01*
X164880Y87369D01*
X168709Y84004D02*
X171708Y89198D01*
X167611Y88101D01*
X171074Y86101D01*
X267827Y235154D02*
X268827Y234154D01*
X270826D01*
X271826Y235154D01*
Y239153D01*
X270826Y240153D01*
X268827D01*
X267827Y239153D01*
X265828Y235154D02*
X264828Y234154D01*
X262829D01*
X261829Y235154D01*
Y236154D01*
X262829Y237154D01*
X263829D01*
X262829D01*
X261829Y238153D01*
Y239153D01*
X262829Y240153D01*
X264828D01*
X265828Y239153D01*
X293164Y235908D02*
X292164Y234908D01*
Y232909D01*
X293164Y231909D01*
X297163D01*
X298162Y232909D01*
Y234908D01*
X297163Y235908D01*
X298162Y241906D02*
Y237907D01*
X294164Y241906D01*
X293164D01*
X292164Y240906D01*
Y238907D01*
X293164Y237907D01*
M02*
