G04*
G04 #@! TF.GenerationSoftware,Altium Limited,Altium Designer,22.4.2 (48)*
G04*
G04 Layer_Physical_Order=1*
G04 Layer_Color=255*
%FSLAX25Y25*%
%MOIN*%
G70*
G04*
G04 #@! TF.SameCoordinates,33176103-96A9-485D-B847-577AE089F5E8*
G04*
G04*
G04 #@! TF.FilePolarity,Positive*
G04*
G01*
G75*
%ADD11C,0.01181*%
G04:AMPARAMS|DCode=13|XSize=36.61mil|YSize=53.94mil|CornerRadius=0mil|HoleSize=0mil|Usage=FLASHONLY|Rotation=300.000|XOffset=0mil|YOffset=0mil|HoleType=Round|Shape=Rectangle|*
%AMROTATEDRECTD13*
4,1,4,-0.03251,0.00237,0.01420,0.02934,0.03251,-0.00237,-0.01420,-0.02934,-0.03251,0.00237,0.0*
%
%ADD13ROTATEDRECTD13*%

G04:AMPARAMS|DCode=14|XSize=393.7mil|YSize=354.33mil|CornerRadius=0mil|HoleSize=0mil|Usage=FLASHONLY|Rotation=300.000|XOffset=0mil|YOffset=0mil|HoleType=Round|Shape=Rectangle|*
%AMROTATEDRECTD14*
4,1,4,-0.25186,0.08189,0.05501,0.25906,0.25186,-0.08189,-0.05501,-0.25906,-0.25186,0.08189,0.0*
%
%ADD14ROTATEDRECTD14*%

G04:AMPARAMS|DCode=15|XSize=36.61mil|YSize=53.94mil|CornerRadius=0mil|HoleSize=0mil|Usage=FLASHONLY|Rotation=60.000|XOffset=0mil|YOffset=0mil|HoleType=Round|Shape=Rectangle|*
%AMROTATEDRECTD15*
4,1,4,0.01420,-0.02934,-0.03251,-0.00237,-0.01420,0.02934,0.03251,0.00237,0.01420,-0.02934,0.0*
%
%ADD15ROTATEDRECTD15*%

G04:AMPARAMS|DCode=16|XSize=393.7mil|YSize=354.33mil|CornerRadius=0mil|HoleSize=0mil|Usage=FLASHONLY|Rotation=60.000|XOffset=0mil|YOffset=0mil|HoleType=Round|Shape=Rectangle|*
%AMROTATEDRECTD16*
4,1,4,0.05501,-0.25906,-0.25186,-0.08189,-0.05501,0.25906,0.25186,0.08189,0.05501,-0.25906,0.0*
%
%ADD16ROTATEDRECTD16*%

G04:AMPARAMS|DCode=17|XSize=45.46mil|YSize=67.17mil|CornerRadius=0mil|HoleSize=0mil|Usage=FLASHONLY|Rotation=330.000|XOffset=0mil|YOffset=0mil|HoleType=Round|Shape=Rectangle|*
%AMROTATEDRECTD17*
4,1,4,-0.03648,-0.01772,-0.00289,0.04045,0.03648,0.01772,0.00289,-0.04045,-0.03648,-0.01772,0.0*
%
%ADD17ROTATEDRECTD17*%

G04:AMPARAMS|DCode=18|XSize=41.34mil|YSize=45.28mil|CornerRadius=0mil|HoleSize=0mil|Usage=FLASHONLY|Rotation=240.000|XOffset=0mil|YOffset=0mil|HoleType=Round|Shape=Rectangle|*
%AMROTATEDRECTD18*
4,1,4,-0.00927,0.02922,0.02994,0.00658,0.00927,-0.02922,-0.02994,-0.00658,-0.00927,0.02922,0.0*
%
%ADD18ROTATEDRECTD18*%

G04:AMPARAMS|DCode=19|XSize=51.18mil|YSize=47.24mil|CornerRadius=0mil|HoleSize=0mil|Usage=FLASHONLY|Rotation=330.000|XOffset=0mil|YOffset=0mil|HoleType=Round|Shape=Rectangle|*
%AMROTATEDRECTD19*
4,1,4,-0.03397,-0.00766,-0.01035,0.03325,0.03397,0.00766,0.01035,-0.03325,-0.03397,-0.00766,0.0*
%
%ADD19ROTATEDRECTD19*%

G04:AMPARAMS|DCode=20|XSize=51.18mil|YSize=47.24mil|CornerRadius=0mil|HoleSize=0mil|Usage=FLASHONLY|Rotation=210.000|XOffset=0mil|YOffset=0mil|HoleType=Round|Shape=Rectangle|*
%AMROTATEDRECTD20*
4,1,4,0.01035,0.03325,0.03397,-0.00766,-0.01035,-0.03325,-0.03397,0.00766,0.01035,0.03325,0.0*
%
%ADD20ROTATEDRECTD20*%

G04:AMPARAMS|DCode=21|XSize=41.34mil|YSize=45.28mil|CornerRadius=0mil|HoleSize=0mil|Usage=FLASHONLY|Rotation=120.000|XOffset=0mil|YOffset=0mil|HoleType=Round|Shape=Rectangle|*
%AMROTATEDRECTD21*
4,1,4,0.02994,-0.00658,-0.00927,-0.02922,-0.02994,0.00658,0.00927,0.02922,0.02994,-0.00658,0.0*
%
%ADD21ROTATEDRECTD21*%

G04:AMPARAMS|DCode=22|XSize=45.46mil|YSize=67.17mil|CornerRadius=0mil|HoleSize=0mil|Usage=FLASHONLY|Rotation=210.000|XOffset=0mil|YOffset=0mil|HoleType=Round|Shape=Rectangle|*
%AMROTATEDRECTD22*
4,1,4,0.00289,0.04045,0.03648,-0.01772,-0.00289,-0.04045,-0.03648,0.01772,0.00289,0.04045,0.0*
%
%ADD22ROTATEDRECTD22*%

G04:AMPARAMS|DCode=23|XSize=11.81mil|YSize=27.56mil|CornerRadius=0mil|HoleSize=0mil|Usage=FLASHONLY|Rotation=45.000|XOffset=0mil|YOffset=0mil|HoleType=Round|Shape=Rectangle|*
%AMROTATEDRECTD23*
4,1,4,0.00557,-0.01392,-0.01392,0.00557,-0.00557,0.01392,0.01392,-0.00557,0.00557,-0.01392,0.0*
%
%ADD23ROTATEDRECTD23*%

G04:AMPARAMS|DCode=24|XSize=11.81mil|YSize=39.37mil|CornerRadius=0mil|HoleSize=0mil|Usage=FLASHONLY|Rotation=45.000|XOffset=0mil|YOffset=0mil|HoleType=Round|Shape=Rectangle|*
%AMROTATEDRECTD24*
4,1,4,0.00974,-0.01810,-0.01810,0.00974,-0.00974,0.01810,0.01810,-0.00974,0.00974,-0.01810,0.0*
%
%ADD24ROTATEDRECTD24*%

%ADD25R,0.04134X0.04528*%
%ADD26R,0.06717X0.04546*%
%ADD27R,0.39370X0.35433*%
%ADD28R,0.03661X0.05394*%
%ADD29R,0.04724X0.05118*%
%ADD46C,0.02362*%
%ADD47C,0.03543*%
G04:AMPARAMS|DCode=48|XSize=49.21mil|YSize=49.21mil|CornerRadius=12.3mil|HoleSize=0mil|Usage=FLASHONLY|Rotation=240.000|XOffset=0mil|YOffset=0mil|HoleType=Round|Shape=RoundedRectangle|*
%AMROUNDEDRECTD48*
21,1,0.04921,0.02461,0,0,240.0*
21,1,0.02461,0.04921,0,0,240.0*
1,1,0.02461,-0.01681,-0.00450*
1,1,0.02461,-0.00450,0.01681*
1,1,0.02461,0.01681,0.00450*
1,1,0.02461,0.00450,-0.01681*
%
%ADD48ROUNDEDRECTD48*%
%ADD49P,0.06960X4X285.0*%
G04:AMPARAMS|DCode=50|XSize=49.21mil|YSize=49.21mil|CornerRadius=12.3mil|HoleSize=0mil|Usage=FLASHONLY|Rotation=120.000|XOffset=0mil|YOffset=0mil|HoleType=Round|Shape=RoundedRectangle|*
%AMROUNDEDRECTD50*
21,1,0.04921,0.02461,0,0,120.0*
21,1,0.02461,0.04921,0,0,120.0*
1,1,0.02461,0.00450,0.01681*
1,1,0.02461,0.01681,-0.00450*
1,1,0.02461,-0.00450,-0.01681*
1,1,0.02461,-0.01681,0.00450*
%
%ADD50ROUNDEDRECTD50*%
%ADD51P,0.06960X4X165.0*%
%ADD52R,0.04921X0.04921*%
G04:AMPARAMS|DCode=53|XSize=49.21mil|YSize=49.21mil|CornerRadius=12.3mil|HoleSize=0mil|Usage=FLASHONLY|Rotation=0.000|XOffset=0mil|YOffset=0mil|HoleType=Round|Shape=RoundedRectangle|*
%AMROUNDEDRECTD53*
21,1,0.04921,0.02461,0,0,0.0*
21,1,0.02461,0.04921,0,0,0.0*
1,1,0.02461,0.01230,-0.01230*
1,1,0.02461,-0.01230,-0.01230*
1,1,0.02461,-0.01230,0.01230*
1,1,0.02461,0.01230,0.01230*
%
%ADD53ROUNDEDRECTD53*%
%ADD54C,0.16142*%
G36*
X206714Y313789D02*
X213255Y313052D01*
X219745Y311949D01*
X226163Y310484D01*
X232488Y308662D01*
X238701Y306488D01*
X244783Y303969D01*
X250713Y301113D01*
X256475Y297929D01*
X262049Y294426D01*
X267417Y290617D01*
X272564Y286513D01*
X277472Y282127D01*
X282127Y277472D01*
X286513Y272564D01*
X290617Y267417D01*
X294426Y262049D01*
X297929Y256475D01*
X301113Y250713D01*
X303969Y244783D01*
X306488Y238701D01*
X308662Y232488D01*
X310484Y226163D01*
X311949Y219745D01*
X313052Y213255D01*
X313789Y206714D01*
X314158Y200142D01*
Y196850D01*
Y193559D01*
X313789Y186987D01*
X313052Y180446D01*
X311949Y173956D01*
X310484Y167538D01*
X308662Y161213D01*
X306488Y154999D01*
X303969Y148918D01*
X301113Y142987D01*
X297929Y137226D01*
X297655Y136790D01*
X256911Y96046D01*
X256475Y95772D01*
X250713Y92588D01*
X244783Y89732D01*
X238701Y87213D01*
X232488Y85039D01*
X226163Y83217D01*
X219745Y81752D01*
X213255Y80649D01*
X206714Y79912D01*
X200142Y79543D01*
X193559D01*
X186987Y79912D01*
X180446Y80649D01*
X173956Y81752D01*
X167538Y83217D01*
X161213Y85039D01*
X154999Y87213D01*
X148918Y89732D01*
X142987Y92588D01*
X137226Y95772D01*
X131652Y99274D01*
X126284Y103084D01*
X121137Y107188D01*
X116229Y111574D01*
X111574Y116229D01*
X107188Y121137D01*
X103084Y126284D01*
X99274Y131652D01*
X95772Y137226D01*
X92588Y142987D01*
X89732Y148918D01*
X87213Y154999D01*
X85039Y161213D01*
X83217Y167538D01*
X81752Y173956D01*
X80649Y180446D01*
X79912Y186987D01*
X79543Y193559D01*
Y196850D01*
Y200142D01*
X79912Y206714D01*
X80649Y213255D01*
X81752Y219745D01*
X83217Y226163D01*
X85039Y232488D01*
X87213Y238701D01*
X89732Y244783D01*
X92588Y250713D01*
X95772Y256475D01*
X99274Y262049D01*
X103084Y267417D01*
X107188Y272564D01*
X111574Y277472D01*
X116229Y282127D01*
X121137Y286513D01*
X126284Y290617D01*
X131652Y294426D01*
X137226Y297929D01*
X142987Y301113D01*
X148918Y303969D01*
X154999Y306488D01*
X161213Y308662D01*
X167538Y310484D01*
X173956Y311949D01*
X180446Y313052D01*
X186987Y313789D01*
X193559Y314158D01*
X200142D01*
X206714Y313789D01*
D02*
G37*
%LPC*%
G36*
X196850Y311762D02*
X195170Y311596D01*
X193555Y311106D01*
X192066Y310311D01*
X190761Y309239D01*
X189690Y307934D01*
X188894Y306445D01*
X188403Y304830D01*
X188238Y303150D01*
X188403Y301469D01*
X188894Y299854D01*
X189690Y298365D01*
X190761Y297060D01*
X192066Y295989D01*
X193555Y295193D01*
X195170Y294703D01*
X196850Y294537D01*
X198531Y294703D01*
X200146Y295193D01*
X201635Y295989D01*
X202940Y297060D01*
X204011Y298365D01*
X204807Y299854D01*
X205297Y301469D01*
X205463Y303150D01*
X205297Y304830D01*
X204807Y306445D01*
X204011Y307934D01*
X202940Y309239D01*
X201635Y310311D01*
X200146Y311106D01*
X198531Y311596D01*
X196850Y311762D01*
D02*
G37*
G36*
X171893Y301408D02*
X156334Y292425D01*
X166301Y275161D01*
X181861Y284144D01*
X171893Y301408D01*
D02*
G37*
G36*
X139429Y279369D02*
X133892Y276173D01*
X133899Y276160D01*
X129947Y273878D01*
X129464Y274007D01*
X128199Y276199D01*
X123396Y273426D01*
X127088Y267031D01*
X127255Y266742D01*
X126965Y266383D01*
X123814Y264564D01*
X123191Y264781D01*
X121554Y267618D01*
X119152Y266231D01*
X116751Y264845D01*
X118388Y262009D01*
X118555Y261720D01*
X118265Y261360D01*
X117354Y260834D01*
X117354Y260834D01*
X116675Y260238D01*
X116275Y259428D01*
Y259428D01*
X114263Y251919D01*
X111972Y250596D01*
X112737Y249270D01*
X110264Y247843D01*
X110090Y247929D01*
X109403Y247974D01*
X108751Y247752D01*
X106620Y246522D01*
X106103Y246068D01*
X105798Y245451D01*
X105753Y244764D01*
X105974Y244112D01*
X107205Y241981D01*
X107659Y241464D01*
X108241Y241177D01*
X108294Y241008D01*
X108336Y240654D01*
X108091Y240513D01*
X111052Y235385D01*
X116180Y238346D01*
X115858Y238904D01*
X117700Y239967D01*
X118183Y239838D01*
X118771Y238819D01*
X121062Y240142D01*
X126772Y238612D01*
X126772Y238612D01*
X127674Y238553D01*
X128530Y238843D01*
X128530Y238843D01*
X130921Y240224D01*
X131204Y239810D01*
X133001Y236699D01*
X135402Y238086D01*
X137803Y239472D01*
X136007Y242583D01*
X135999Y242597D01*
X135791Y243036D01*
X139620Y245247D01*
X139904Y244833D01*
X143755Y238164D01*
X148557Y240936D01*
X147134Y243403D01*
X147263Y243886D01*
X149539Y245200D01*
X151216Y246167D01*
X151223Y246155D01*
X156760Y249352D01*
X154510Y253249D01*
X154260Y253682D01*
X154179Y253822D01*
X152010Y257579D01*
X151760Y258012D01*
X151679Y258152D01*
X149510Y261909D01*
X149429Y262049D01*
X149185Y262471D01*
X148220Y264144D01*
X145451Y262546D01*
X142682Y260947D01*
X143642Y259285D01*
X143723Y259145D01*
X143593Y258663D01*
X142962Y258298D01*
X142433Y257993D01*
X142308Y258210D01*
X137521Y255446D01*
X139896Y251332D01*
X140088Y251000D01*
X139755Y250673D01*
X139528Y250542D01*
X138887Y250749D01*
X137920Y252424D01*
X135527Y251042D01*
X133133Y249660D01*
X134100Y247986D01*
X134292Y247654D01*
X133959Y247327D01*
X127044Y243335D01*
X122530Y244544D01*
X121207Y246836D01*
X118813Y245453D01*
X118342Y245484D01*
X117487Y245193D01*
X117486Y245193D01*
X113848Y243093D01*
X113365Y243222D01*
X113219Y243474D01*
X113219Y243474D01*
X112849Y243837D01*
X112848Y243881D01*
X112916Y244025D01*
X116850Y246296D01*
X116850Y246296D01*
X117529Y246892D01*
X117738Y247315D01*
X120132Y248697D01*
X118809Y250989D01*
X120501Y257302D01*
X126275Y260636D01*
X126916Y260429D01*
X127883Y258754D01*
X130277Y260136D01*
X132670Y261518D01*
X131703Y263192D01*
X131512Y263524D01*
X131844Y263851D01*
X132071Y263982D01*
X132713Y263775D01*
X135088Y259661D01*
X139875Y262424D01*
X139750Y262642D01*
X140670Y263173D01*
X141048Y263504D01*
X141107Y263495D01*
X141408Y263155D01*
X141473Y263042D01*
X142432Y261380D01*
X145201Y262979D01*
X147970Y264577D01*
X147010Y266239D01*
X146760Y266672D01*
X146679Y266812D01*
X144510Y270569D01*
X144429Y270709D01*
X144194Y271117D01*
X142010Y274900D01*
X141760Y275333D01*
X141679Y275472D01*
X139429Y279369D01*
D02*
G37*
G36*
X119499Y271176D02*
X117314Y269915D01*
X119119Y266790D01*
X121304Y268051D01*
X119499Y271176D01*
D02*
G37*
G36*
X155901Y292175D02*
X140341Y283192D01*
X150309Y265927D01*
X165868Y274911D01*
X155901Y292175D01*
D02*
G37*
G36*
X116881Y269665D02*
X114697Y268403D01*
X116501Y265278D01*
X118686Y266540D01*
X116881Y269665D01*
D02*
G37*
G36*
X132920Y261085D02*
X130743Y259828D01*
X131902Y257821D01*
X134079Y259078D01*
X132920Y261085D01*
D02*
G37*
G36*
X182111Y283711D02*
X166551Y274728D01*
X176519Y257463D01*
X192078Y266447D01*
X182111Y283711D01*
D02*
G37*
G36*
X130310Y259578D02*
X128133Y258321D01*
X129292Y256314D01*
X131469Y257571D01*
X130310Y259578D01*
D02*
G37*
G36*
X136512Y254864D02*
X134335Y253607D01*
X135493Y251600D01*
X137670Y252857D01*
X136512Y254864D01*
D02*
G37*
G36*
X286011Y250648D02*
X283550D01*
X282875Y250514D01*
X282335Y250153D01*
X282163Y250191D01*
X281835Y250332D01*
Y250614D01*
X275914D01*
Y244693D01*
X276559D01*
Y241713D01*
X275028D01*
Y239067D01*
X270690Y234728D01*
X270188Y233977D01*
X270011Y233091D01*
X270011Y233090D01*
Y230314D01*
X269686Y229949D01*
X269511Y229949D01*
X266078D01*
Y227176D01*
Y224403D01*
X269511D01*
X269686Y224403D01*
X270011Y224038D01*
Y220269D01*
X269686Y219904D01*
X269511Y219904D01*
X261969D01*
Y214358D01*
X265012D01*
Y209350D01*
X264997D01*
Y202957D01*
X269497D01*
X269997Y202957D01*
X270158Y202957D01*
X274497D01*
X274997Y202957D01*
X275158Y202957D01*
X279497D01*
X279997Y202957D01*
X280158Y202957D01*
X282078D01*
Y206154D01*
Y209350D01*
X280158D01*
X279997Y209350D01*
X279644Y209704D01*
Y211543D01*
X279894D01*
Y217071D01*
X274761Y217071D01*
X274644Y217522D01*
Y217785D01*
X274761Y218236D01*
X275144Y218236D01*
X277078D01*
Y221000D01*
Y223764D01*
X274761Y223764D01*
X274644Y224215D01*
Y232131D01*
X278107Y235595D01*
X280753D01*
Y238360D01*
X281015Y238752D01*
X281191Y239638D01*
X281191Y239638D01*
Y244693D01*
X281835D01*
Y244693D01*
X282335Y244832D01*
X282373Y244811D01*
X282464Y244680D01*
Y239638D01*
X282464Y239638D01*
X282464Y239638D01*
Y239638D01*
X282543Y239240D01*
X282641Y238752D01*
X282641Y238752D01*
X282641Y238752D01*
X282902Y238360D01*
Y235594D01*
X285548D01*
X290012Y231131D01*
Y224215D01*
X289895Y223764D01*
X289511Y223764D01*
X287578D01*
Y221000D01*
Y218236D01*
X289895Y218236D01*
X290012Y217785D01*
Y217522D01*
X289895Y217071D01*
X289511Y217071D01*
X284761D01*
Y211543D01*
X285012D01*
Y209704D01*
X284658Y209350D01*
X284497Y209350D01*
X282578D01*
Y206154D01*
Y202957D01*
X284497D01*
X284997Y202957D01*
X285158Y202957D01*
X289497D01*
X289997Y202957D01*
X290158Y202957D01*
X294497D01*
X294997Y202957D01*
X295158Y202957D01*
X299658D01*
Y209350D01*
X299644D01*
Y214204D01*
X302678D01*
Y219750D01*
X295144D01*
X294960Y219750D01*
X294644Y220119D01*
Y223881D01*
X294960Y224250D01*
X295144Y224250D01*
X298569D01*
Y227023D01*
Y229796D01*
X295144D01*
X294960Y229796D01*
X294644Y230165D01*
Y232091D01*
X294467Y232977D01*
X294467Y232977D01*
X293965Y233728D01*
X293965Y233728D01*
X288627Y239067D01*
Y241712D01*
X287097D01*
Y245068D01*
X287258Y245176D01*
X287641Y245748D01*
X287775Y246423D01*
Y248884D01*
X287641Y249559D01*
X287258Y250131D01*
X286686Y250514D01*
X286011Y250648D01*
D02*
G37*
G36*
X133902Y253357D02*
X131725Y252100D01*
X132883Y250093D01*
X135060Y251350D01*
X133902Y253357D01*
D02*
G37*
G36*
X166118Y274478D02*
X150559Y265494D01*
X160526Y248230D01*
X176086Y257213D01*
X166118Y274478D01*
D02*
G37*
G36*
X138053Y239039D02*
X135869Y237777D01*
X137673Y234652D01*
X139858Y235914D01*
X138053Y239039D01*
D02*
G37*
G36*
X135435Y237527D02*
X133251Y236266D01*
X135055Y233141D01*
X137240Y234402D01*
X135435Y237527D01*
D02*
G37*
G36*
X265578Y229949D02*
X261969D01*
Y227426D01*
X265578D01*
Y229949D01*
D02*
G37*
G36*
X299069Y229796D02*
Y227273D01*
X302678D01*
Y229796D01*
X299069D01*
D02*
G37*
G36*
X265578Y226926D02*
X261969D01*
Y224403D01*
X265578D01*
Y226926D01*
D02*
G37*
G36*
X302678Y226773D02*
X299069D01*
Y224250D01*
X302678D01*
Y226773D01*
D02*
G37*
G36*
X287078Y223764D02*
X284761D01*
Y221250D01*
X287078D01*
Y223764D01*
D02*
G37*
G36*
X277578D02*
Y221250D01*
X279894D01*
Y223764D01*
X277578D01*
D02*
G37*
G36*
X279894Y220750D02*
X277578D01*
Y218236D01*
X279894D01*
Y220750D01*
D02*
G37*
G36*
X287078D02*
X284761D01*
Y218236D01*
X287078D01*
Y220750D01*
D02*
G37*
G36*
X235000Y264214D02*
X234344Y264084D01*
X233788Y263712D01*
X233416Y263156D01*
X233286Y262500D01*
X233416Y261844D01*
X233788Y261288D01*
X234344Y260916D01*
X235000Y260786D01*
X235118Y260809D01*
X256707Y239220D01*
Y204766D01*
X256207Y204727D01*
X255608Y208506D01*
X255597Y208536D01*
X255596Y208568D01*
X254513Y213080D01*
X254499Y213109D01*
X254496Y213141D01*
X253062Y217554D01*
X253046Y217582D01*
X253040Y217613D01*
X251264Y221901D01*
X251246Y221927D01*
X251238Y221958D01*
X249131Y226093D01*
X249111Y226118D01*
X249100Y226148D01*
X246675Y230104D01*
X246654Y230128D01*
X246640Y230157D01*
X243913Y233911D01*
X243889Y233933D01*
X243874Y233961D01*
X240860Y237489D01*
X240835Y237509D01*
X240817Y237536D01*
X237536Y240817D01*
X237509Y240835D01*
X237489Y240860D01*
X233961Y243874D01*
X233933Y243889D01*
X233911Y243913D01*
X230157Y246640D01*
X230128Y246654D01*
X230104Y246675D01*
X226148Y249100D01*
X226118Y249111D01*
X226093Y249131D01*
X221958Y251238D01*
X221927Y251246D01*
X221901Y251264D01*
X217613Y253040D01*
X217582Y253046D01*
X217554Y253062D01*
X213141Y254496D01*
X213109Y254499D01*
X213080Y254513D01*
X208568Y255596D01*
X208536Y255597D01*
X208506Y255608D01*
X203923Y256334D01*
X203891Y256333D01*
X203860Y256342D01*
X199234Y256706D01*
X199202Y256702D01*
X199171Y256708D01*
X194530D01*
X194499Y256702D01*
X194467Y256706D01*
X189841Y256342D01*
X189810Y256333D01*
X189778Y256334D01*
X185195Y255608D01*
X185165Y255597D01*
X185133Y255596D01*
X180621Y254513D01*
X180592Y254499D01*
X180560Y254496D01*
X176146Y253062D01*
X176119Y253046D01*
X176087Y253040D01*
X171800Y251264D01*
X171774Y251246D01*
X171743Y251238D01*
X167608Y249131D01*
X167583Y249111D01*
X167553Y249100D01*
X163596Y246675D01*
X163573Y246654D01*
X163544Y246640D01*
X159790Y243913D01*
X159768Y243889D01*
X159740Y243874D01*
X156211Y240860D01*
X156192Y240835D01*
X156165Y240817D01*
X152884Y237536D01*
X152866Y237509D01*
X152841Y237489D01*
X149827Y233961D01*
X149811Y233933D01*
X149788Y233911D01*
X147061Y230157D01*
X147047Y230128D01*
X147025Y230104D01*
X144601Y226148D01*
X144590Y226118D01*
X144570Y226093D01*
X142463Y221958D01*
X142455Y221927D01*
X142437Y221901D01*
X140661Y217613D01*
X140655Y217582D01*
X140639Y217554D01*
X139205Y213141D01*
X139201Y213109D01*
X139188Y213080D01*
X138105Y208568D01*
X138103Y208536D01*
X138092Y208506D01*
X137366Y203923D01*
X137368Y203891D01*
X137359Y203860D01*
X136995Y199234D01*
X136999Y199202D01*
X136992Y199171D01*
Y196850D01*
X136992Y194530D01*
X136999Y194499D01*
X136995Y194467D01*
X137359Y189841D01*
X137368Y189810D01*
X137366Y189778D01*
X138092Y185195D01*
X138103Y185165D01*
X138105Y185133D01*
X139188Y180621D01*
X139201Y180592D01*
X139205Y180560D01*
X140639Y176146D01*
X140655Y176119D01*
X140661Y176087D01*
X142437Y171800D01*
X142455Y171774D01*
X142463Y171743D01*
X144570Y167608D01*
X144590Y167583D01*
X144601Y167553D01*
X147025Y163596D01*
X147047Y163573D01*
X147061Y163544D01*
X149788Y159790D01*
X149811Y159768D01*
X149827Y159740D01*
X152841Y156211D01*
X152866Y156192D01*
X152884Y156165D01*
X156165Y152884D01*
X156192Y152866D01*
X156211Y152841D01*
X159740Y149827D01*
X159768Y149811D01*
X159790Y149788D01*
X163544Y147061D01*
X163573Y147047D01*
X163596Y147025D01*
X167553Y144601D01*
X167583Y144590D01*
X167608Y144570D01*
X171743Y142463D01*
X171774Y142455D01*
X171800Y142437D01*
X176087Y140661D01*
X176119Y140655D01*
X176147Y140639D01*
X180560Y139205D01*
X180592Y139201D01*
X180621Y139188D01*
X185133Y138105D01*
X185165Y138103D01*
X185195Y138092D01*
X189778Y137366D01*
X189810Y137368D01*
X189841Y137359D01*
X194467Y136995D01*
X194499Y136999D01*
X194530Y136992D01*
X196850D01*
X199171Y136992D01*
X199202Y136999D01*
X199234Y136995D01*
X203860Y137359D01*
X203891Y137368D01*
X203923Y137366D01*
X208506Y138092D01*
X208536Y138103D01*
X208568Y138105D01*
X213080Y139188D01*
X213109Y139201D01*
X213141Y139205D01*
X217554Y140639D01*
X217582Y140655D01*
X217613Y140661D01*
X221901Y142437D01*
X221927Y142455D01*
X221958Y142463D01*
X226093Y144570D01*
X226118Y144590D01*
X226148Y144601D01*
X230104Y147025D01*
X230128Y147047D01*
X230157Y147061D01*
X233911Y149788D01*
X233933Y149811D01*
X233961Y149827D01*
X237489Y152841D01*
X237509Y152866D01*
X237536Y152884D01*
X240817Y156165D01*
X240835Y156192D01*
X240860Y156211D01*
X243874Y159740D01*
X243889Y159768D01*
X243913Y159790D01*
X246640Y163544D01*
X246654Y163573D01*
X246675Y163596D01*
X249100Y167553D01*
X249111Y167583D01*
X249131Y167608D01*
X251238Y171743D01*
X251246Y171774D01*
X251264Y171800D01*
X253040Y176087D01*
X253046Y176119D01*
X253062Y176147D01*
X254496Y180560D01*
X254499Y180592D01*
X254513Y180621D01*
X255596Y185133D01*
X255597Y185165D01*
X255608Y185195D01*
X256207Y188974D01*
X256707Y188935D01*
Y172357D01*
X249714Y165364D01*
X249473Y165003D01*
X249388Y164577D01*
X249388Y164577D01*
Y145201D01*
X248888Y144993D01*
X247595Y146286D01*
X247595Y146286D01*
X247235Y146527D01*
X246809Y146612D01*
X246809Y146612D01*
X236500D01*
X236074Y146527D01*
X235714Y146286D01*
X235714Y146286D01*
X224618Y135191D01*
X224500Y135214D01*
X223844Y135084D01*
X223288Y134712D01*
X222916Y134156D01*
X222786Y133500D01*
X222916Y132844D01*
X223288Y132288D01*
X223844Y131916D01*
X224500Y131786D01*
X225156Y131916D01*
X225712Y132288D01*
X226084Y132844D01*
X226214Y133500D01*
X226190Y133618D01*
X236851Y144278D01*
X237262Y144237D01*
X237494Y143772D01*
X237416Y143656D01*
X237286Y143000D01*
X237416Y142344D01*
X237788Y141788D01*
X238344Y141416D01*
X239000Y141286D01*
X239656Y141416D01*
X240212Y141788D01*
X240279Y141888D01*
X246039D01*
X248002Y139925D01*
X246788Y138711D01*
X246788Y138711D01*
X245246Y137169D01*
X246498Y135917D01*
X246559Y135826D01*
X246650Y135765D01*
X247902Y134513D01*
X247908Y134519D01*
X248714Y133714D01*
X248714Y133714D01*
X249075Y133473D01*
X249500Y133388D01*
X255661D01*
X255661Y133388D01*
X256087Y133473D01*
X256448Y133714D01*
X264517Y141783D01*
X265717Y140583D01*
X266488Y141355D01*
X267260Y142126D01*
X266059Y143326D01*
X278622Y155888D01*
X300377D01*
X300377Y155888D01*
X300803Y155973D01*
X301164Y156214D01*
X307786Y162836D01*
X307786Y162836D01*
X308027Y163197D01*
X308112Y163623D01*
X308112Y163623D01*
Y208721D01*
X308212Y208788D01*
X308584Y209344D01*
X308714Y210000D01*
X308584Y210656D01*
X308212Y211212D01*
X307656Y211584D01*
X307000Y211714D01*
X306344Y211584D01*
X305788Y211212D01*
X305416Y210656D01*
X305286Y210000D01*
X305416Y209344D01*
X305788Y208788D01*
X305888Y208721D01*
Y205196D01*
X305388Y204928D01*
X305156Y205084D01*
X304500Y205214D01*
X303844Y205084D01*
X303288Y204712D01*
X302916Y204156D01*
X302786Y203500D01*
X302916Y202844D01*
X303288Y202288D01*
X303388Y202221D01*
Y163961D01*
X299220Y159793D01*
X277181D01*
X276756Y159708D01*
X276395Y159467D01*
X276395Y159467D01*
X254539Y137612D01*
X251654D01*
X251463Y138074D01*
X253620Y140231D01*
X253620Y140231D01*
X254861Y141473D01*
X254862Y141473D01*
X257796Y144407D01*
X257796Y144407D01*
X258240Y144851D01*
X256912Y146179D01*
X257089Y146356D01*
X256912Y146533D01*
X257683Y147304D01*
X256532Y148455D01*
X256074Y147997D01*
X255612Y148188D01*
Y156039D01*
X258882Y159309D01*
X259000Y159286D01*
X259656Y159416D01*
X260212Y159788D01*
X260584Y160344D01*
X260714Y161000D01*
X260584Y161656D01*
X260212Y162212D01*
X259656Y162584D01*
X259000Y162714D01*
X258344Y162584D01*
X257788Y162212D01*
X257416Y161656D01*
X257286Y161000D01*
X257310Y160882D01*
X254112Y157684D01*
X253612Y157891D01*
Y163739D01*
X260286Y170414D01*
X260286Y170414D01*
X260527Y170774D01*
X260612Y171200D01*
Y245600D01*
X260612Y245600D01*
X260527Y246025D01*
X260286Y246386D01*
X249490Y257182D01*
X249514Y257300D01*
X249384Y257956D01*
X249012Y258512D01*
X248456Y258884D01*
X247800Y259014D01*
X247144Y258884D01*
X246588Y258512D01*
X246216Y257956D01*
X246086Y257300D01*
X246216Y256644D01*
X246588Y256088D01*
X247144Y255716D01*
X247800Y255586D01*
X247918Y255609D01*
X258388Y245139D01*
Y241338D01*
X257926Y241146D01*
X236690Y262382D01*
X236714Y262500D01*
X236584Y263156D01*
X236212Y263712D01*
X235656Y264084D01*
X235000Y264214D01*
D02*
G37*
G36*
X302513Y200256D02*
X282578D01*
Y182289D01*
X302513D01*
Y200256D01*
D02*
G37*
G36*
X282078D02*
X262143D01*
Y182289D01*
X282078D01*
Y200256D01*
D02*
G37*
G36*
X302513Y181789D02*
X282578D01*
Y163823D01*
X302513D01*
Y181789D01*
D02*
G37*
G36*
X282078D02*
X262143D01*
Y163823D01*
X282078D01*
Y181789D01*
D02*
G37*
G36*
X258036Y146950D02*
X257442Y146356D01*
X258593Y145205D01*
X259188Y145799D01*
X258036Y146950D01*
D02*
G37*
G36*
X267613Y141772D02*
X267019Y141178D01*
X268587Y139609D01*
X269182Y140203D01*
X267613Y141772D01*
D02*
G37*
G36*
X266665Y140824D02*
X266071Y140230D01*
X267640Y138661D01*
X268234Y139255D01*
X266665Y140824D01*
D02*
G37*
G36*
X288909Y152707D02*
X287229Y152541D01*
X285614Y152051D01*
X284125Y151255D01*
X282820Y150184D01*
X281749Y148879D01*
X280953Y147390D01*
X280463Y145775D01*
X280297Y144094D01*
X280463Y142414D01*
X280953Y140799D01*
X281749Y139310D01*
X282820Y138005D01*
X284125Y136934D01*
X285614Y136138D01*
X287229Y135648D01*
X288909Y135482D01*
X290590Y135648D01*
X292205Y136138D01*
X293694Y136934D01*
X294999Y138005D01*
X296070Y139310D01*
X296866Y140799D01*
X297356Y142414D01*
X297522Y144094D01*
X297356Y145775D01*
X296866Y147390D01*
X296070Y148879D01*
X294999Y150184D01*
X293694Y151255D01*
X292205Y152051D01*
X290590Y152541D01*
X288909Y152707D01*
D02*
G37*
G36*
X104791Y152313D02*
X103111Y152148D01*
X101496Y151658D01*
X100007Y150862D01*
X98702Y149791D01*
X97631Y148486D01*
X96835Y146997D01*
X96345Y145381D01*
X96179Y143701D01*
X96345Y142021D01*
X96835Y140405D01*
X97631Y138916D01*
X98702Y137611D01*
X100007Y136540D01*
X101496Y135744D01*
X103111Y135254D01*
X104791Y135089D01*
X106472Y135254D01*
X108087Y135744D01*
X109576Y136540D01*
X110881Y137611D01*
X111952Y138916D01*
X112748Y140405D01*
X113238Y142021D01*
X113404Y143701D01*
X113238Y145381D01*
X112748Y146997D01*
X111952Y148486D01*
X110881Y149791D01*
X109576Y150862D01*
X108087Y151658D01*
X106472Y152148D01*
X104791Y152313D01*
D02*
G37*
G36*
X139668Y157269D02*
X129700Y140005D01*
X145260Y131021D01*
X155227Y148286D01*
X139668Y157269D01*
D02*
G37*
G36*
X251549Y129552D02*
X250954Y128958D01*
X252523Y127389D01*
X253117Y127983D01*
X251549Y129552D01*
D02*
G37*
G36*
X250601Y128604D02*
X250006Y128010D01*
X251575Y126441D01*
X252169Y127036D01*
X250601Y128604D01*
D02*
G37*
G36*
X253471Y127630D02*
X252876Y127036D01*
X254445Y125467D01*
X255040Y126061D01*
X253471Y127630D01*
D02*
G37*
G36*
X252523Y126682D02*
X251929Y126088D01*
X253497Y124519D01*
X254092Y125113D01*
X252523Y126682D01*
D02*
G37*
G36*
X191759Y127428D02*
X189955Y124303D01*
X192140Y123042D01*
X193944Y126167D01*
X191759Y127428D01*
D02*
G37*
G36*
X155660Y148036D02*
X145693Y130772D01*
X161252Y121788D01*
X171220Y139052D01*
X155660Y148036D01*
D02*
G37*
G36*
X194377Y125917D02*
X192573Y122792D01*
X194758Y121530D01*
X196562Y124655D01*
X194377Y125917D01*
D02*
G37*
G36*
X179074Y116695D02*
X177915Y114689D01*
X180092Y113432D01*
X181251Y115438D01*
X179074Y116695D01*
D02*
G37*
G36*
X129450Y139572D02*
X119483Y122308D01*
X135042Y113324D01*
X145010Y130588D01*
X129450Y139572D01*
D02*
G37*
G36*
X181684Y115188D02*
X180525Y113182D01*
X182702Y111925D01*
X183861Y113931D01*
X181684Y115188D01*
D02*
G37*
G36*
X175482Y110474D02*
X174324Y108468D01*
X176501Y107211D01*
X177659Y109217D01*
X175482Y110474D01*
D02*
G37*
G36*
X178092Y108967D02*
X176934Y106961D01*
X179111Y105704D01*
X180269Y107711D01*
X178092Y108967D01*
D02*
G37*
G36*
X145443Y130339D02*
X135475Y113074D01*
X151035Y104091D01*
X161002Y121355D01*
X145443Y130339D01*
D02*
G37*
G36*
X172132Y135230D02*
X169882Y131333D01*
X169801Y131193D01*
X169551Y130760D01*
X167382Y127003D01*
X167132Y126570D01*
X167051Y126430D01*
X164882Y122673D01*
X164801Y122533D01*
X164551Y122100D01*
X163591Y120438D01*
X166360Y118839D01*
X169128Y117241D01*
X170095Y118916D01*
X170652Y119172D01*
X170959Y118994D01*
X171058Y118846D01*
X171785Y118361D01*
X172119Y118035D01*
X172119Y118035D01*
X176906Y115271D01*
X179281Y119386D01*
X179473Y119717D01*
X179922Y119593D01*
X180149Y119462D01*
X180291Y118803D01*
X179324Y117128D01*
X181717Y115746D01*
X184111Y114364D01*
X185078Y116039D01*
X185269Y116371D01*
X185719Y116246D01*
X192027Y112604D01*
X193525Y107012D01*
X192202Y104720D01*
X194597Y103338D01*
X194805Y102915D01*
X194805Y102915D01*
X194806Y102915D01*
X195108Y102650D01*
X195485Y102319D01*
X195485Y102319D01*
X195485Y102319D01*
X198690Y100468D01*
X198820Y99985D01*
X198674Y99734D01*
D01*
X198545Y99231D01*
X198508Y99208D01*
X198349Y99195D01*
X194848Y101217D01*
X194848Y101217D01*
X194848Y101217D01*
X194410Y101365D01*
X193993Y101507D01*
X193992Y101507D01*
X193992Y101507D01*
X193576Y101480D01*
X193522Y101476D01*
X191128Y102859D01*
X189805Y100567D01*
X184570Y99165D01*
X178035Y102937D01*
X177894Y103596D01*
X178861Y105271D01*
X176467Y106653D01*
X174074Y108035D01*
X173107Y106360D01*
X172915Y106028D01*
X172466Y106153D01*
X172239Y106284D01*
X172098Y106943D01*
X174473Y111057D01*
X169686Y113821D01*
X169561Y113604D01*
X167968Y114523D01*
X167838Y115006D01*
X167919Y115146D01*
X168878Y116808D01*
X166110Y118406D01*
X163341Y120005D01*
X162382Y118343D01*
X162132Y117910D01*
X162051Y117770D01*
X159882Y114013D01*
X159801Y113873D01*
X159551Y113440D01*
X157382Y109682D01*
X157301Y109543D01*
X157051Y109110D01*
X154801Y105212D01*
X160338Y102015D01*
X160345Y102028D01*
X163991Y99923D01*
X162416Y97195D01*
X167219Y94422D01*
X171044Y101047D01*
X171078Y101105D01*
X171434Y101399D01*
X175051Y99311D01*
X174941Y98798D01*
X173170Y95730D01*
X175572Y94344D01*
X177973Y92958D01*
X179744Y96025D01*
X179777Y96083D01*
X180134Y96377D01*
X183084Y94673D01*
X183084Y94673D01*
X183940Y94383D01*
X184842Y94442D01*
X184842Y94442D01*
X191273Y96165D01*
X193564Y94842D01*
X194152Y95861D01*
X194635Y95991D01*
X196369Y94990D01*
X196381Y94796D01*
X196686Y94178D01*
X197203Y93725D01*
X199334Y92494D01*
X199986Y92273D01*
X200673Y92318D01*
X201290Y92623D01*
X201744Y93140D01*
X202975Y95271D01*
X203196Y95923D01*
X203153Y96570D01*
X203273Y96701D01*
X203558Y96914D01*
X203802Y96773D01*
X206763Y101901D01*
X201635Y104861D01*
X201313Y104303D01*
X199904Y105117D01*
X199775Y105600D01*
X200363Y106619D01*
X198072Y107942D01*
X196253Y114730D01*
Y114730D01*
X195853Y115541D01*
X195174Y116137D01*
X192830Y117489D01*
X192776Y118098D01*
X194508Y121097D01*
X192106Y122484D01*
X189705Y123870D01*
X187973Y120871D01*
X187901Y120745D01*
X187419Y120613D01*
X184130Y122512D01*
X184076Y123121D01*
X187862Y129678D01*
X183060Y132451D01*
X181524Y129791D01*
X177661Y132021D01*
X177669Y132033D01*
X172132Y135230D01*
D02*
G37*
G36*
X172920Y95297D02*
X171116Y92172D01*
X173301Y90911D01*
X175105Y94036D01*
X172920Y95297D01*
D02*
G37*
G36*
X175538Y93786D02*
X173734Y90661D01*
X175919Y89399D01*
X177723Y92524D01*
X175538Y93786D01*
D02*
G37*
%LPD*%
D11*
X224500Y133500D02*
X236500Y145500D01*
X246809D01*
X254500Y146000D02*
Y156500D01*
X259000Y161000D01*
X252500Y145377D02*
X254305Y143572D01*
X252500Y145377D02*
Y164200D01*
X259500Y171200D01*
X254500Y146000D02*
X255536Y144964D01*
X255697D01*
X239000Y143000D02*
X246500D01*
X250500Y164577D02*
X257819Y171896D01*
X250500Y144593D02*
Y164577D01*
Y144593D02*
X252913Y142180D01*
X257819Y171896D02*
Y239681D01*
X235000Y262500D02*
X257819Y239681D01*
X300377Y157000D02*
X307000Y163623D01*
X278161Y157000D02*
X300377D01*
X255661Y134500D02*
X278161Y157000D01*
X277181Y158681D02*
X299681D01*
X304500Y163500D01*
X255000Y136500D02*
X277181Y158681D01*
X249500Y134500D02*
X255661D01*
X307000Y163623D02*
Y210000D01*
X250241Y136500D02*
X255000D01*
X248737Y138004D02*
X250241Y136500D01*
X247345Y136612D02*
X247388D01*
X249500Y134500D01*
X304500Y163500D02*
Y203500D01*
X259500Y171200D02*
Y245600D01*
X247800Y257300D02*
X259500Y245600D01*
X246809Y145500D02*
X251521Y140788D01*
X246500Y143000D02*
X250104Y139396D01*
X250129D01*
X145932Y258432D02*
X147826D01*
X144000Y256500D02*
X145932Y258432D01*
D13*
X152826Y249772D02*
D03*
X150326Y254102D02*
D03*
X147826Y258432D02*
D03*
X145326Y262762D02*
D03*
X142826Y267092D02*
D03*
X140326Y271422D02*
D03*
X137826Y275753D02*
D03*
D14*
X166210Y274819D02*
D03*
D15*
X173735Y131613D02*
D03*
X171235Y127283D02*
D03*
X168735Y122953D02*
D03*
X166235Y118623D02*
D03*
X163735Y114293D02*
D03*
X161235Y109963D02*
D03*
X158735Y105632D02*
D03*
D16*
X145351Y130680D02*
D03*
D17*
X183532Y127723D02*
D03*
X192231Y122700D02*
D03*
X166747Y99150D02*
D03*
X175447Y94127D02*
D03*
D18*
X175796Y118876D02*
D03*
X181592Y115530D02*
D03*
X170796Y110216D02*
D03*
X176592Y106869D02*
D03*
D19*
X196283Y105670D02*
D03*
X192346Y98850D02*
D03*
D20*
X116052Y249646D02*
D03*
X119989Y242827D02*
D03*
D21*
X136198Y263266D02*
D03*
X130402Y259919D02*
D03*
X141198Y254605D02*
D03*
X135402Y251259D02*
D03*
D22*
X144227Y242892D02*
D03*
X135527Y237869D02*
D03*
X127727Y271471D02*
D03*
X119027Y266448D02*
D03*
D23*
X257089Y146356D02*
D03*
X254305Y143572D02*
D03*
X252913Y142180D02*
D03*
X247345Y136612D02*
D03*
X248737Y138004D02*
D03*
X250129Y139396D02*
D03*
X251521Y140788D02*
D03*
X255697Y144964D02*
D03*
D24*
X252523Y127036D02*
D03*
X266665Y141178D02*
D03*
D25*
X287328Y221000D02*
D03*
Y214307D02*
D03*
X277328Y221000D02*
D03*
Y214307D02*
D03*
D26*
X298819Y227023D02*
D03*
Y216977D02*
D03*
X265828Y227176D02*
D03*
Y217131D02*
D03*
D27*
X282328Y182039D02*
D03*
D28*
X297328Y206154D02*
D03*
X292328D02*
D03*
X287328D02*
D03*
X282328D02*
D03*
X277328D02*
D03*
X272328D02*
D03*
X267328D02*
D03*
D29*
X285765Y238653D02*
D03*
X277891Y238654D02*
D03*
D46*
X224500Y133500D02*
D03*
X172696Y120484D02*
D03*
X259000Y161000D02*
D03*
X132000Y272500D02*
D03*
X148500Y247000D02*
D03*
X163000Y103000D02*
D03*
X178000Y129000D02*
D03*
X267500Y213000D02*
D03*
X277328Y209569D02*
D03*
X287328D02*
D03*
X297328Y212828D02*
D03*
X239000Y143000D02*
D03*
X162203Y253413D02*
D03*
X159841Y257504D02*
D03*
X157478Y261595D02*
D03*
X155116Y265687D02*
D03*
X152754Y269778D02*
D03*
X150392Y273870D02*
D03*
X148030Y277961D02*
D03*
X145667Y282053D02*
D03*
X166294Y255775D02*
D03*
X163932Y259866D02*
D03*
X161570Y263958D02*
D03*
X159208Y268049D02*
D03*
X156846Y272141D02*
D03*
X154483Y276232D02*
D03*
X152121Y280324D02*
D03*
X149759Y284415D02*
D03*
X170386Y258137D02*
D03*
X168024Y262228D02*
D03*
X165661Y266320D02*
D03*
X163299Y270411D02*
D03*
X160937Y274503D02*
D03*
X158575Y278594D02*
D03*
X156213Y282686D02*
D03*
X153850Y286777D02*
D03*
X174477Y260499D02*
D03*
X172115Y264591D02*
D03*
X169753Y268682D02*
D03*
X167391Y272774D02*
D03*
X165028Y276865D02*
D03*
X162666Y280956D02*
D03*
X160304Y285048D02*
D03*
X157942Y289139D02*
D03*
X178569Y262861D02*
D03*
X176207Y266953D02*
D03*
X173844Y271044D02*
D03*
X171482Y275136D02*
D03*
X169120Y279227D02*
D03*
X166758Y283319D02*
D03*
X164396Y287410D02*
D03*
X162033Y291502D02*
D03*
X182660Y265224D02*
D03*
X180298Y269315D02*
D03*
X177936Y273407D02*
D03*
X175574Y277498D02*
D03*
X173211Y281589D02*
D03*
X170849Y285681D02*
D03*
X168487Y289772D02*
D03*
X166125Y293864D02*
D03*
X186752Y267586D02*
D03*
X184389Y271677D02*
D03*
X182027Y275769D02*
D03*
X179665Y279860D02*
D03*
X177303Y283952D02*
D03*
X174941Y288043D02*
D03*
X172578Y292135D02*
D03*
X170216Y296226D02*
D03*
X139512Y265179D02*
D03*
X235000Y262500D02*
D03*
X167265Y112254D02*
D03*
X304500Y203500D02*
D03*
X307000Y210000D02*
D03*
X247800Y257300D02*
D03*
X144000Y256500D02*
D03*
X165893Y137913D02*
D03*
X163531Y133822D02*
D03*
X161169Y129730D02*
D03*
X158807Y125639D02*
D03*
X156445Y121548D02*
D03*
X154082Y117456D02*
D03*
X151720Y113365D02*
D03*
X149358Y109273D02*
D03*
X161802Y140276D02*
D03*
X159440Y136184D02*
D03*
X157078Y132093D02*
D03*
X154715Y128001D02*
D03*
X152353Y123910D02*
D03*
X149991Y119818D02*
D03*
X147629Y115727D02*
D03*
X145267Y111635D02*
D03*
X157710Y142638D02*
D03*
X155348Y138546D02*
D03*
X152986Y134455D02*
D03*
X150624Y130363D02*
D03*
X148262Y126272D02*
D03*
X145899Y122181D02*
D03*
X143537Y118089D02*
D03*
X141175Y113998D02*
D03*
X153619Y145000D02*
D03*
X151257Y140909D02*
D03*
X148895Y136817D02*
D03*
X146532Y132726D02*
D03*
X144170Y128634D02*
D03*
X141808Y124543D02*
D03*
X139446Y120451D02*
D03*
X137084Y116360D02*
D03*
X149528Y147362D02*
D03*
X147165Y143271D02*
D03*
X144803Y139179D02*
D03*
X142441Y135088D02*
D03*
X140079Y130996D02*
D03*
X137717Y126905D02*
D03*
X135354Y122813D02*
D03*
X132992Y118722D02*
D03*
X145436Y149724D02*
D03*
X143074Y145633D02*
D03*
X140712Y141542D02*
D03*
X138350Y137450D02*
D03*
X135987Y133359D02*
D03*
X133625Y129267D02*
D03*
X131263Y125176D02*
D03*
X128901Y121084D02*
D03*
X141345Y152087D02*
D03*
X138982Y147995D02*
D03*
X136620Y143904D02*
D03*
X134258Y139812D02*
D03*
X131896Y135721D02*
D03*
X129534Y131629D02*
D03*
X127171Y127538D02*
D03*
X124809Y123446D02*
D03*
X298863Y167866D02*
D03*
X294139D02*
D03*
X289414D02*
D03*
X284690D02*
D03*
X279965D02*
D03*
X275241D02*
D03*
X270517D02*
D03*
X265792D02*
D03*
X298863Y172591D02*
D03*
X294139D02*
D03*
X289414D02*
D03*
X284690D02*
D03*
X279965D02*
D03*
X275241D02*
D03*
X270517D02*
D03*
X265792D02*
D03*
X298863Y177315D02*
D03*
X294139D02*
D03*
X289414D02*
D03*
X284690D02*
D03*
X279965D02*
D03*
X275241D02*
D03*
X270517D02*
D03*
X265792D02*
D03*
X298863Y182039D02*
D03*
X294139D02*
D03*
X289414D02*
D03*
X284690D02*
D03*
X279965D02*
D03*
X275241D02*
D03*
X270517D02*
D03*
X265792D02*
D03*
X298863Y186764D02*
D03*
X294139D02*
D03*
X289414D02*
D03*
X284690D02*
D03*
X279965D02*
D03*
X275241D02*
D03*
X270517D02*
D03*
X265792D02*
D03*
X298863Y191488D02*
D03*
X294139D02*
D03*
X289414D02*
D03*
X284690D02*
D03*
X279965D02*
D03*
X275241D02*
D03*
X270517D02*
D03*
X265792D02*
D03*
X298863Y196213D02*
D03*
X294139D02*
D03*
X289414D02*
D03*
X284690D02*
D03*
X279965D02*
D03*
X275241D02*
D03*
X270517D02*
D03*
X265792D02*
D03*
D47*
X172775Y120563D02*
Y120620D01*
X172768Y120624D02*
X175796Y118876D01*
X172696Y120484D02*
X172775Y120563D01*
X172265Y120915D02*
X172768Y120624D01*
X132048Y272417D02*
X137826Y275753D01*
X129559Y270980D02*
X132048Y272417D01*
X148381Y247206D02*
X152826Y249772D01*
X144834Y245158D02*
X148381Y247206D01*
X173735Y131613D02*
X178065Y129113D01*
X181442Y127163D01*
X163074Y103127D02*
X166158Y101346D01*
X158735Y105632D02*
X163074Y103127D01*
X267328Y206154D02*
Y215631D01*
X265828Y217131D02*
X267328Y215631D01*
X297328Y212828D02*
Y216328D01*
Y206154D02*
Y212828D01*
Y216328D02*
X297977Y216977D01*
X298819D01*
X292328Y206154D02*
Y232091D01*
X285765Y238653D02*
X292328Y232091D01*
X136198Y263266D02*
X139512Y265179D01*
X168735Y122953D02*
X172265Y120915D01*
X167265Y112254D02*
X170796Y110216D01*
X163735Y114293D02*
X167265Y112254D01*
X277328Y210230D02*
Y214307D01*
Y206154D02*
Y210230D01*
X287328D02*
Y214307D01*
Y206154D02*
Y210230D01*
X141198Y254605D02*
X144120Y256292D01*
X127727Y271471D02*
X129559Y270980D01*
X144227Y242892D02*
X144834Y245158D01*
X166158Y101346D02*
X166747Y99150D01*
X181442Y127163D02*
X183532Y127723D01*
X272328Y206154D02*
Y233091D01*
X277891Y238654D01*
X278875Y239638D01*
Y247654D01*
X284780Y239638D02*
X285765Y238653D01*
X284780Y239638D02*
Y247653D01*
X194016Y114131D02*
X196283Y105670D01*
X171235Y127283D02*
X194016Y114131D01*
X196283Y105670D02*
X196643Y104325D01*
X202719Y100817D01*
X184242Y96679D02*
X192346Y98850D01*
X161235Y109963D02*
X184242Y96679D01*
X192346Y98850D02*
X193690Y99211D01*
X199766Y95703D01*
X112136Y239430D02*
X118645Y243188D01*
X119989Y242827D01*
X127372Y240849D01*
X150326Y254102D01*
X109183Y244544D02*
X115692Y248302D01*
X116052Y249646D01*
X118512Y258828D01*
X140326Y271422D01*
X146406Y257612D02*
X147826Y258432D01*
X144120Y256292D02*
X146406Y257612D01*
D48*
X199766Y95703D02*
D03*
D49*
X202719Y100817D02*
D03*
D50*
X109183Y244544D02*
D03*
D51*
X112136Y239430D02*
D03*
D52*
X278875Y247654D02*
D03*
D53*
X284780Y247653D02*
D03*
D54*
X104791Y143701D02*
D03*
X196850Y303150D02*
D03*
X288909Y144094D02*
D03*
M02*
