G04*
G04 #@! TF.GenerationSoftware,Altium Limited,Altium Designer,22.4.2 (48)*
G04*
G04 Layer_Color=32768*
%FSLAX25Y25*%
%MOIN*%
G70*
G04*
G04 #@! TF.SameCoordinates,33176103-96A9-485D-B847-577AE089F5E8*
G04*
G04*
G04 #@! TF.FilePolarity,Positive*
G04*
G01*
G75*
%ADD11C,0.01181*%
D11*
X177759Y115583D02*
X179629Y118823D01*
X177075Y118138D02*
X180314Y116268D01*
X174112Y124622D02*
X187410Y116944D01*
X169979Y117462D02*
X183276Y109784D01*
X169979Y117462D02*
X174112Y124622D01*
X183276Y109784D02*
X187410Y116944D01*
X172759Y106923D02*
X174629Y110162D01*
X172075Y109478D02*
X175314Y107608D01*
X169112Y115961D02*
X182410Y108284D01*
X164979Y108801D02*
X178276Y101124D01*
X164979Y108801D02*
X169112Y115961D01*
X178276Y101124D02*
X182410Y108284D01*
X195130Y109972D02*
X200585Y106822D01*
X188043Y97698D02*
X195130Y109972D01*
X188043Y97698D02*
X193499Y94548D01*
X200585Y106822D01*
X192609Y103244D02*
X196019Y101276D01*
X193330Y100555D02*
X195298Y103965D01*
X117036Y247942D02*
X119005Y244532D01*
X116316Y245253D02*
X119725Y247221D01*
X111750Y250799D02*
X118836Y238525D01*
X111750Y250799D02*
X117205Y253949D01*
X124291Y241674D01*
X118836Y238525D02*
X124291Y241674D01*
X132365Y263212D02*
X134235Y259973D01*
X131680Y260657D02*
X134919Y262527D01*
X128718Y254174D02*
X142015Y261851D01*
X124584Y261334D02*
X137881Y269011D01*
X142015Y261851D01*
X124584Y261334D02*
X128718Y254174D01*
X137365Y254552D02*
X139235Y251313D01*
X136680Y251997D02*
X139919Y253867D01*
X133718Y245513D02*
X147015Y253191D01*
X129584Y252674D02*
X142881Y260351D01*
X147015Y253191D01*
X129584Y252674D02*
X133718Y245513D01*
X254514Y136403D02*
X257297Y139187D01*
X254514Y139187D02*
X257297Y136403D01*
X253470Y123807D02*
X269895Y140231D01*
X242752Y134525D02*
X253470Y123807D01*
X259176Y150949D02*
X269895Y140231D01*
X242752Y134525D02*
X259176Y150949D01*
X283194Y225331D02*
X291461D01*
X283194Y209976D02*
X291461D01*
Y225331D01*
X283194Y209976D02*
Y225331D01*
X287328Y215783D02*
Y219524D01*
X285458Y217654D02*
X289198D01*
X273194Y225331D02*
X281461D01*
X273194Y209976D02*
X281461D01*
Y225331D01*
X273194Y209976D02*
Y225331D01*
X277328Y215783D02*
Y219524D01*
X275458Y217653D02*
X279198Y217654D01*
X279859Y238654D02*
X283796D01*
X281828Y236685D02*
Y240622D01*
X274741Y241803D02*
X288914D01*
Y235504D02*
Y241803D01*
X274741Y235504D02*
X288914D01*
X274741D02*
Y241803D01*
M02*
