M48
;Layer_Color=9474304
;FILE_FORMAT=2:4
INCH,TZ
;TYPE=PLATED
T1F00S00C0.0118
T2F00S00C0.0335
T3F00S00C0.0827
%
T01
X12481Y12345
X12890Y12108
X13299Y11872
X13535Y12281
X13945Y12045
X14354Y11809
X14117Y11400
X13708Y11636
X14763Y11573
X15172Y11336
X14936Y10927
X14527Y11164
X14590Y12218
X14826Y12627
X15062Y13036
X14653Y13273
X14417Y12863
X14008Y13100
X14244Y13509
X13835Y13745
X13599Y13336
X13363Y12927
X13772Y12691
X14181Y12454
X13126Y12518
X12717Y12754
X12953Y13163
X13190Y13572
X13426Y13981
X13662Y14390
X13898Y14800
X14134Y15209
X14544Y14972
X14953Y14736
X14717Y14327
X15126Y14091
X15362Y14500
X15535Y13855
X15299Y13445
X14889Y13682
X14480Y13918
X14071Y14154
X14307Y14563
X15472Y12800
X15235Y12391
X14999Y11982
X15408Y11746
X15644Y12155
X15881Y12564
X16117Y12973
X15708Y13209
X15944Y13618
X16353Y13382
X16589Y13791
X16180Y14028
X15771Y14264
X17800Y12900
X17270Y12048
X16727Y11225
X16300Y10300
X22450Y13350
X23900Y14300
X25900Y16100
X26579Y16787
X27052
X27524
X27997
X28469
X28941
X29414
X29886
Y17259
X29414
X28941
X28469
X27997
X27524
X27052
X26579
Y17731
X27052
X27524
X27997
X28469
X28941
X29414
X29886
Y18204
X29414
X28941
X28469
X27997
X27524
X27052
X26579
Y18676
X27052
X27524
X27997
X28469
X28941
X29414
X29886
Y19149
X29414
X28941
X28469
X27997
X27524
X27052
X26579
Y19621
X27052
X27524
X27997
X28469
X28941
X29414
X29886
X30450Y20350
X30700Y21000
X29733Y21283
X28733Y20957
X27733
X26750Y21300
X24780Y25730
X23500Y26250
X18675Y26759
X18266Y26522
X17857Y26286
X17621Y26695
X18030Y26932
X18439Y27168
X18203Y27577
X17794Y27341
X17384Y27104
X17148Y27514
X17557Y27750
X17321Y28159
X17730Y28395
X17494Y28804
X17085Y28568
X16676Y28332
X16912Y27923
X16503Y27687
X16094Y27450
X15857Y27859
X16267Y28096
X16030Y28505
X15794Y28914
X16203Y29150
X16440Y28741
X16849Y28977
X16612Y29386
X17022Y29623
X17258Y29213
X17967Y27986
X16739Y27277
X16330Y27041
X16566Y26632
X16975Y26868
X17212Y26459
X16802Y26223
X16393Y25987
X16629Y25577
X16220Y25341
X15984Y25750
X15748Y26160
X16157Y26396
X15921Y26805
X15685Y27214
X17039Y25814
X17448Y26050
X15512Y26569
X15275Y26978
X15039Y27387
X15448Y27623
X15212Y28032
X14976Y28442
X15385Y28678
X15621Y28269
X14567Y28205
X14803Y27796
X13951Y26518
X14400Y25650
X14850Y24700
X13200Y27250
T02
X19977Y9570
X20272Y10082
X27887Y24765
X28478Y24765
X10918Y24454
X11214Y23943
T03
X10479Y14370
X28891Y14409
X19685Y30315
M30
