G04*
G04 #@! TF.GenerationSoftware,Altium Limited,Altium Designer,22.3.1 (43)*
G04*
G04 Layer_Color=8421504*
%FSLAX25Y25*%
%MOIN*%
G70*
G04*
G04 #@! TF.SameCoordinates,81C90355-7C20-497C-A289-08F7F31E86F5*
G04*
G04*
G04 #@! TF.FilePolarity,Positive*
G04*
G01*
G75*
%ADD17R,0.02677X0.04134*%
%ADD18R,0.01024X0.01968*%
G04:AMPARAMS|DCode=19|XSize=11.02mil|YSize=33.47mil|CornerRadius=1.98mil|HoleSize=0mil|Usage=FLASHONLY|Rotation=0.000|XOffset=0mil|YOffset=0mil|HoleType=Round|Shape=RoundedRectangle|*
%AMROUNDEDRECTD19*
21,1,0.01102,0.02950,0,0,0.0*
21,1,0.00706,0.03347,0,0,0.0*
1,1,0.00397,0.00353,-0.01475*
1,1,0.00397,-0.00353,-0.01475*
1,1,0.00397,-0.00353,0.01475*
1,1,0.00397,0.00353,0.01475*
%
%ADD19ROUNDEDRECTD19*%
G04:AMPARAMS|DCode=20|XSize=11.02mil|YSize=33.47mil|CornerRadius=1.98mil|HoleSize=0mil|Usage=FLASHONLY|Rotation=270.000|XOffset=0mil|YOffset=0mil|HoleType=Round|Shape=RoundedRectangle|*
%AMROUNDEDRECTD20*
21,1,0.01102,0.02950,0,0,270.0*
21,1,0.00706,0.03347,0,0,270.0*
1,1,0.00397,-0.01475,-0.00353*
1,1,0.00397,-0.01475,0.00353*
1,1,0.00397,0.01475,0.00353*
1,1,0.00397,0.01475,-0.00353*
%
%ADD20ROUNDEDRECTD20*%
G04:AMPARAMS|DCode=21|XSize=135.83mil|YSize=135.83mil|CornerRadius=2.04mil|HoleSize=0mil|Usage=FLASHONLY|Rotation=180.000|XOffset=0mil|YOffset=0mil|HoleType=Round|Shape=RoundedRectangle|*
%AMROUNDEDRECTD21*
21,1,0.13583,0.13175,0,0,180.0*
21,1,0.13175,0.13583,0,0,180.0*
1,1,0.00408,-0.06588,0.06588*
1,1,0.00408,0.06588,0.06588*
1,1,0.00408,0.06588,-0.06588*
1,1,0.00408,-0.06588,-0.06588*
%
%ADD21ROUNDEDRECTD21*%
%ADD22R,0.08661X0.02953*%
%ADD23R,0.03543X0.02362*%
%ADD24R,0.10630X0.03937*%
%ADD25R,0.02500X0.05000*%
G04:AMPARAMS|DCode=26|XSize=9.06mil|YSize=31.5mil|CornerRadius=1mil|HoleSize=0mil|Usage=FLASHONLY|Rotation=90.000|XOffset=0mil|YOffset=0mil|HoleType=Round|Shape=RoundedRectangle|*
%AMROUNDEDRECTD26*
21,1,0.00906,0.02950,0,0,90.0*
21,1,0.00706,0.03150,0,0,90.0*
1,1,0.00200,0.01475,0.00353*
1,1,0.00200,0.01475,-0.00353*
1,1,0.00200,-0.01475,-0.00353*
1,1,0.00200,-0.01475,0.00353*
%
%ADD26ROUNDEDRECTD26*%
%ADD27R,0.04724X0.05118*%
%ADD28R,0.03150X0.06693*%
%ADD29R,0.03150X0.04331*%
%ADD30R,0.03543X0.03543*%
%ADD31R,0.00787X0.07284*%
G04:AMPARAMS|DCode=32|XSize=72.84mil|YSize=7.87mil|CornerRadius=0mil|HoleSize=0mil|Usage=FLASHONLY|Rotation=90.000|XOffset=0mil|YOffset=0mil|HoleType=Round|Shape=Octagon|*
%AMOCTAGOND32*
4,1,8,0.00197,0.03642,-0.00197,0.03642,-0.00394,0.03445,-0.00394,-0.03445,-0.00197,-0.03642,0.00197,-0.03642,0.00394,-0.03445,0.00394,0.03445,0.00197,0.03642,0.0*
%
%ADD32OCTAGOND32*%

%ADD33R,0.07284X0.00787*%
%ADD34R,0.05236X0.05236*%
%ADD35R,0.07874X0.03543*%
%ADD36R,0.03543X0.07874*%
%ADD37R,0.02756X0.02559*%
%ADD38R,0.05315X0.07480*%
%ADD39R,0.03740X0.06693*%
%ADD40R,0.03740X0.04134*%
%ADD41R,0.03543X0.04134*%
%ADD42R,0.04134X0.03543*%
%ADD43R,0.03543X0.03543*%
D17*
X165795Y62543D02*
D03*
X169339D02*
D03*
Y67543D02*
D03*
X165795D02*
D03*
D18*
X166583Y58626D02*
D03*
X168551D02*
D03*
Y71461D02*
D03*
X166583D02*
D03*
D19*
X143468Y225988D02*
D03*
X141500D02*
D03*
X139532D02*
D03*
X137563D02*
D03*
X135594D02*
D03*
X133626D02*
D03*
X131658D02*
D03*
X129689D02*
D03*
Y206500D02*
D03*
X131658D02*
D03*
X133626D02*
D03*
X135594D02*
D03*
X137563D02*
D03*
X139532D02*
D03*
X141500D02*
D03*
X143468D02*
D03*
D20*
X126835Y223134D02*
D03*
Y221165D02*
D03*
Y219197D02*
D03*
Y217228D02*
D03*
Y215260D02*
D03*
Y213291D02*
D03*
Y211323D02*
D03*
Y209354D02*
D03*
X146323D02*
D03*
Y211323D02*
D03*
Y213291D02*
D03*
Y215260D02*
D03*
Y217228D02*
D03*
Y219197D02*
D03*
Y221165D02*
D03*
Y223134D02*
D03*
D21*
X136579Y216244D02*
D03*
D22*
X249315Y152854D02*
D03*
Y122736D02*
D03*
D23*
X235929Y137795D02*
D03*
Y132677D02*
D03*
Y142913D02*
D03*
Y148031D02*
D03*
Y127559D02*
D03*
D24*
X152165Y63602D02*
D03*
Y54941D02*
D03*
D25*
X116000Y54227D02*
D03*
X119500D02*
D03*
X123000D02*
D03*
D26*
X173374Y68980D02*
D03*
Y67012D02*
D03*
Y65043D02*
D03*
Y63075D02*
D03*
Y61106D02*
D03*
X161760D02*
D03*
Y63075D02*
D03*
Y65043D02*
D03*
Y67012D02*
D03*
Y68980D02*
D03*
D27*
X209063Y184000D02*
D03*
X216937D02*
D03*
X209063Y177500D02*
D03*
X216937D02*
D03*
X209063Y190500D02*
D03*
X216937D02*
D03*
D28*
X116500Y186000D02*
D03*
X103114D02*
D03*
X88193Y91000D02*
D03*
X74807D02*
D03*
D29*
X109807Y192496D02*
D03*
X81500Y84504D02*
D03*
D30*
X166846Y178000D02*
D03*
X160154D02*
D03*
X166846Y189272D02*
D03*
X160154D02*
D03*
X166846Y184000D02*
D03*
X160154D02*
D03*
X231154Y160500D02*
D03*
X237846D02*
D03*
D31*
X187992Y114567D02*
D03*
X186024D02*
D03*
X189961D02*
D03*
X191929D02*
D03*
X193898D02*
D03*
X195866D02*
D03*
X197835D02*
D03*
X199803D02*
D03*
X201772D02*
D03*
X203740D02*
D03*
X205709D02*
D03*
X184055D02*
D03*
X211614D02*
D03*
X209646D02*
D03*
X207677D02*
D03*
X186024Y161024D02*
D03*
X184055D02*
D03*
X182087D02*
D03*
X209646D02*
D03*
X211614D02*
D03*
X187992D02*
D03*
X189961D02*
D03*
X191929D02*
D03*
X193898D02*
D03*
X195866D02*
D03*
X197835D02*
D03*
X199803D02*
D03*
X201772D02*
D03*
X203740D02*
D03*
X207677D02*
D03*
X205709D02*
D03*
D32*
X182087Y114567D02*
D03*
D33*
X220079Y148622D02*
D03*
Y150591D02*
D03*
Y152559D02*
D03*
Y125000D02*
D03*
Y123032D02*
D03*
Y146654D02*
D03*
Y144685D02*
D03*
Y142717D02*
D03*
Y140748D02*
D03*
Y138780D02*
D03*
Y136811D02*
D03*
Y134843D02*
D03*
Y132874D02*
D03*
Y130906D02*
D03*
Y126969D02*
D03*
Y128937D02*
D03*
X173622Y126969D02*
D03*
Y125000D02*
D03*
Y123032D02*
D03*
Y150591D02*
D03*
Y152559D02*
D03*
Y128937D02*
D03*
Y130906D02*
D03*
Y132874D02*
D03*
Y134843D02*
D03*
Y136811D02*
D03*
Y138780D02*
D03*
Y140748D02*
D03*
Y142717D02*
D03*
Y144685D02*
D03*
Y148622D02*
D03*
Y146654D02*
D03*
D34*
X94783Y141083D02*
D03*
Y133858D02*
D03*
Y126634D02*
D03*
X87559Y141083D02*
D03*
Y133858D02*
D03*
Y126634D02*
D03*
X80335Y141083D02*
D03*
Y133858D02*
D03*
Y126634D02*
D03*
D35*
X126969Y160295D02*
D03*
Y155295D02*
D03*
Y150295D02*
D03*
Y145295D02*
D03*
Y140295D02*
D03*
Y135295D02*
D03*
Y130295D02*
D03*
Y125295D02*
D03*
Y120295D02*
D03*
Y115295D02*
D03*
D36*
X58032Y171260D02*
D03*
X63032D02*
D03*
X68032D02*
D03*
X73032D02*
D03*
X78032D02*
D03*
X83032D02*
D03*
X88032D02*
D03*
X93032D02*
D03*
X98032D02*
D03*
X103032D02*
D03*
X108032D02*
D03*
X113032D02*
D03*
X118032D02*
D03*
X123032D02*
D03*
Y104331D02*
D03*
X118032D02*
D03*
X113032D02*
D03*
X108032D02*
D03*
X103032D02*
D03*
X98032D02*
D03*
X93032D02*
D03*
X88032D02*
D03*
X83032D02*
D03*
X78032D02*
D03*
X73032D02*
D03*
X68032D02*
D03*
X63032D02*
D03*
X58032D02*
D03*
D37*
X161500Y49343D02*
D03*
Y54658D02*
D03*
D38*
X192366Y83043D02*
D03*
X179768D02*
D03*
D39*
X172012Y78000D02*
D03*
X160988D02*
D03*
D40*
X68354Y86500D02*
D03*
X62646D02*
D03*
D41*
X68354Y95000D02*
D03*
X62646D02*
D03*
D42*
X123000Y185146D02*
D03*
Y190854D02*
D03*
D43*
X229000Y148154D02*
D03*
Y154846D02*
D03*
X187000Y181846D02*
D03*
Y175154D02*
D03*
X157500Y204154D02*
D03*
Y210846D02*
D03*
M02*
