G04*
G04 #@! TF.GenerationSoftware,Altium Limited,Altium Designer,22.3.1 (43)*
G04*
G04 Layer_Color=2752767*
%FSLAX25Y25*%
%MOIN*%
G70*
G04*
G04 #@! TF.SameCoordinates,81C90355-7C20-497C-A289-08F7F31E86F5*
G04*
G04*
G04 #@! TF.FilePolarity,Positive*
G04*
G01*
G75*
%ADD146C,0.00200*%
%ADD147C,0.00267*%
D146*
X65200Y73200D02*
Y74800D01*
X66800D01*
Y73200D01*
X65200D01*
X225047Y189700D02*
X224247Y191300D01*
X225847D01*
X225047Y189700D01*
X230953D02*
X230153Y191300D01*
X231753D01*
X230953Y189700D01*
X225047Y183200D02*
X224247Y184800D01*
X225847D01*
X225047Y183200D01*
X230953D02*
X230153Y184800D01*
X231753D01*
X230953Y183200D01*
X225047Y176700D02*
X224247Y178300D01*
X225847D01*
X225047Y176700D01*
X230953D02*
X230153Y178300D01*
X231753D01*
X230953Y176700D01*
X102500Y210700D02*
X102900Y211100D01*
X103300D01*
X102900Y211500D01*
X103300Y211900D01*
X102900D01*
X102500Y212300D01*
X102100Y211900D01*
X101700D01*
X102100Y211500D01*
X101700Y211100D01*
X102100D01*
X102500Y210700D01*
Y215700D02*
X102900Y216100D01*
X103300D01*
X102900Y216500D01*
X103300Y216900D01*
X102900D01*
X102500Y217300D01*
X102100Y216900D01*
X101700D01*
X102100Y216500D01*
X101700Y216100D01*
X102100D01*
X102500Y215700D01*
Y220700D02*
X102900Y221100D01*
X103300D01*
X102900Y221500D01*
X103300Y221900D01*
X102900D01*
X102500Y222300D01*
X102100Y221900D01*
X101700D01*
X102100Y221500D01*
X101700Y221100D01*
X102100D01*
X102500Y220700D01*
Y225700D02*
X102900Y226100D01*
X103300D01*
X102900Y226500D01*
X103300Y226900D01*
X102900D01*
X102500Y227300D01*
X102100Y226900D01*
X101700D01*
X102100Y226500D01*
X101700Y226100D01*
X102100D01*
X102500Y225700D01*
Y230700D02*
X102900Y231100D01*
X103300D01*
X102900Y231500D01*
X103300Y231900D01*
X102900D01*
X102500Y232300D01*
X102100Y231900D01*
X101700D01*
X102100Y231500D01*
X101700Y231100D01*
X102100D01*
X102500Y230700D01*
X123500Y238700D02*
X123900Y239100D01*
X124300D01*
X123900Y239500D01*
X124300Y239900D01*
X123900D01*
X123500Y240300D01*
X123100Y239900D01*
X122700D01*
X123100Y239500D01*
X122700Y239100D01*
X123100D01*
X123500Y238700D01*
X118500D02*
X118900Y239100D01*
X119300D01*
X118900Y239500D01*
X119300Y239900D01*
X118900D01*
X118500Y240300D01*
X118100Y239900D01*
X117700D01*
X118100Y239500D01*
X117700Y239100D01*
X118100D01*
X118500Y238700D01*
X113500D02*
X113900Y239100D01*
X114300D01*
X113900Y239500D01*
X114300Y239900D01*
X113900D01*
X113500Y240300D01*
X113100Y239900D01*
X112700D01*
X113100Y239500D01*
X112700Y239100D01*
X113100D01*
X113500Y238700D01*
X108500D02*
X108900Y239100D01*
X109300D01*
X108900Y239500D01*
X109300Y239900D01*
X108900D01*
X108500Y240300D01*
X108100Y239900D01*
X107700D01*
X108100Y239500D01*
X107700Y239100D01*
X108100D01*
X108500Y238700D01*
X103500D02*
X103900Y239100D01*
X104300D01*
X103900Y239500D01*
X104300Y239900D01*
X103900D01*
X103500Y240300D01*
X103100Y239900D01*
X102700D01*
X103100Y239500D01*
X102700Y239100D01*
X103100D01*
X103500Y238700D01*
X89131Y201700D02*
X89531Y202100D01*
X89931D01*
X89531Y202500D01*
X89931Y202900D01*
X89531D01*
X89131Y203300D01*
X88731Y202900D01*
X88331D01*
X88731Y202500D01*
X88331Y202100D01*
X88731D01*
X89131Y201700D01*
Y206700D02*
X89531Y207100D01*
X89931D01*
X89531Y207500D01*
X89931Y207900D01*
X89531D01*
X89131Y208300D01*
X88731Y207900D01*
X88331D01*
X88731Y207500D01*
X88331Y207100D01*
X88731D01*
X89131Y206700D01*
Y211700D02*
X89531Y212100D01*
X89931D01*
X89531Y212500D01*
X89931Y212900D01*
X89531D01*
X89131Y213300D01*
X88731Y212900D01*
X88331D01*
X88731Y212500D01*
X88331Y212100D01*
X88731D01*
X89131Y211700D01*
Y216700D02*
X89531Y217100D01*
X89931D01*
X89531Y217500D01*
X89931Y217900D01*
X89531D01*
X89131Y218300D01*
X88731Y217900D01*
X88331D01*
X88731Y217500D01*
X88331Y217100D01*
X88731D01*
X89131Y216700D01*
Y221700D02*
X89531Y222100D01*
X89931D01*
X89531Y222500D01*
X89931Y222900D01*
X89531D01*
X89131Y223300D01*
X88731Y222900D01*
X88331D01*
X88731Y222500D01*
X88331Y222100D01*
X88731D01*
X89131Y221700D01*
X186200Y40200D02*
Y41800D01*
X187800D01*
Y40200D01*
X186200D01*
X86200Y233200D02*
Y234800D01*
X87800D01*
Y233200D01*
X86200D01*
X42200Y180200D02*
Y181800D01*
X43800D01*
Y180200D01*
X42200D01*
X232700Y104200D02*
Y105800D01*
X234300D01*
Y104200D01*
X232700D01*
X186200Y233700D02*
Y235300D01*
X187800D01*
Y233700D01*
X186200D01*
X67200Y184700D02*
Y186300D01*
X68800D01*
Y184700D01*
X67200D01*
X77200D02*
Y186300D01*
X78800D01*
Y184700D01*
X77200D01*
X63200Y54200D02*
Y55800D01*
X64800D01*
Y54200D01*
X63200D01*
X56380Y61514D02*
Y63114D01*
X57980D01*
Y61514D01*
X56380D01*
X49560Y68827D02*
Y70427D01*
X51160D01*
Y68827D01*
X49560D01*
X229054Y83846D02*
X229454Y84646D01*
X229054Y85446D01*
X229854Y85046D01*
X230654Y85446D01*
X230254Y84646D01*
X230654Y83846D01*
X229854Y84246D01*
X229054Y83846D01*
X75500Y201700D02*
X75900Y202100D01*
X76300D01*
X75900Y202500D01*
X76300Y202900D01*
X75900D01*
X75500Y203300D01*
X75100Y202900D01*
X74700D01*
X75100Y202500D01*
X74700Y202100D01*
X75100D01*
X75500Y201700D01*
Y206700D02*
X75900Y207100D01*
X76300D01*
X75900Y207500D01*
X76300Y207900D01*
X75900D01*
X75500Y208300D01*
X75100Y207900D01*
X74700D01*
X75100Y207500D01*
X74700Y207100D01*
X75100D01*
X75500Y206700D01*
Y211700D02*
X75900Y212100D01*
X76300D01*
X75900Y212500D01*
X76300Y212900D01*
X75900D01*
X75500Y213300D01*
X75100Y212900D01*
X74700D01*
X75100Y212500D01*
X74700Y212100D01*
X75100D01*
X75500Y211700D01*
Y216700D02*
X75900Y217100D01*
X76300D01*
X75900Y217500D01*
X76300Y217900D01*
X75900D01*
X75500Y218300D01*
X75100Y217900D01*
X74700D01*
X75100Y217500D01*
X74700Y217100D01*
X75100D01*
X75500Y216700D01*
Y221700D02*
X75900Y222100D01*
X76300D01*
X75900Y222500D01*
X76300Y222900D01*
X75900D01*
X75500Y223300D01*
X75100Y222900D01*
X74700D01*
X75100Y222500D01*
X74700Y222100D01*
X75100D01*
X75500Y221700D01*
X56000Y212200D02*
X56400Y212600D01*
X56800D01*
X56400Y213000D01*
X56800Y213400D01*
X56400D01*
X56000Y213800D01*
X55600Y213400D01*
X55200D01*
X55600Y213000D01*
X55200Y212600D01*
X55600D01*
X56000Y212200D01*
Y207200D02*
X56400Y207600D01*
X56800D01*
X56400Y208000D01*
X56800Y208400D01*
X56400D01*
X56000Y208800D01*
X55600Y208400D01*
X55200D01*
X55600Y208000D01*
X55200Y207600D01*
X55600D01*
X56000Y207200D01*
Y202200D02*
X56400Y202600D01*
X56800D01*
X56400Y203000D01*
X56800Y203400D01*
X56400D01*
X56000Y203800D01*
X55600Y203400D01*
X55200D01*
X55600Y203000D01*
X55200Y202600D01*
X55600D01*
X56000Y202200D01*
Y197200D02*
X56400Y197600D01*
X56800D01*
X56400Y198000D01*
X56800Y198400D01*
X56400D01*
X56000Y198800D01*
X55600Y198400D01*
X55200D01*
X55600Y198000D01*
X55200Y197600D01*
X55600D01*
X56000Y197200D01*
Y192200D02*
X56400Y192600D01*
X56800D01*
X56400Y193000D01*
X56800Y193400D01*
X56400D01*
X56000Y193800D01*
X55600Y193400D01*
X55200D01*
X55600Y193000D01*
X55200Y192600D01*
X55600D01*
X56000Y192200D01*
X163000Y220200D02*
X163400Y220600D01*
X163800D01*
X163400Y221000D01*
X163800Y221400D01*
X163400D01*
X163000Y221800D01*
X162600Y221400D01*
X162200D01*
X162600Y221000D01*
X162200Y220600D01*
X162600D01*
X163000Y220200D01*
Y225200D02*
X163400Y225600D01*
X163800D01*
X163400Y226000D01*
X163800Y226400D01*
X163400D01*
X163000Y226800D01*
X162600Y226400D01*
X162200D01*
X162600Y226000D01*
X162200Y225600D01*
X162600D01*
X163000Y225200D01*
Y230200D02*
X163400Y230600D01*
X163800D01*
X163400Y231000D01*
X163800Y231400D01*
X163400D01*
X163000Y231800D01*
X162600Y231400D01*
X162200D01*
X162600Y231000D01*
X162200Y230600D01*
X162600D01*
X163000Y230200D01*
Y235200D02*
X163400Y235600D01*
X163800D01*
X163400Y236000D01*
X163800Y236400D01*
X163400D01*
X163000Y236800D01*
X162600Y236400D01*
X162200D01*
X162600Y236000D01*
X162200Y235600D01*
X162600D01*
X163000Y235200D01*
Y240200D02*
X163400Y240600D01*
X163800D01*
X163400Y241000D01*
X163800Y241400D01*
X163400D01*
X163000Y241800D01*
X162600Y241400D01*
X162200D01*
X162600Y241000D01*
X162200Y240600D01*
X162600D01*
X163000Y240200D01*
X137395Y94088D02*
Y93688D01*
X138195D01*
Y94088D01*
X138595D01*
Y94888D01*
X138195D01*
Y95288D01*
X137395D01*
Y94888D01*
X136995D01*
Y94088D01*
X137395D01*
Y180702D02*
Y180302D01*
X138195D01*
Y180702D01*
X138595D01*
Y181502D01*
X138195D01*
Y181902D01*
X137395D01*
Y181502D01*
X136995D01*
Y180702D01*
X137395D01*
X136995Y243294D02*
X137395Y244094D01*
X136995Y244894D01*
X137795Y244494D01*
X138595Y244894D01*
X138195Y244094D01*
X138595Y243294D01*
X137795Y243694D01*
X136995Y243294D01*
X44936Y83846D02*
X45336Y84646D01*
X44936Y85446D01*
X45736Y85046D01*
X46536Y85446D01*
X46136Y84646D01*
X46536Y83846D01*
X45736Y84246D01*
X44936Y83846D01*
X149700Y217700D02*
X150100D01*
X150500Y218100D01*
X150900Y217700D01*
X151300D01*
Y218100D01*
X150900Y218500D01*
X151300Y218900D01*
Y219300D01*
X150900D01*
X150500Y218900D01*
X150100Y219300D01*
X149700D01*
Y218900D01*
X150100Y218500D01*
X149700Y218100D01*
Y217700D01*
X139716Y220181D02*
X140516Y220981D01*
X141316Y220181D01*
X140516Y219381D01*
X139716Y220181D01*
Y216244D02*
X140516Y217044D01*
X141316Y216244D01*
X140516Y215444D01*
X139716Y216244D01*
Y212307D02*
X140516Y213107D01*
X141316Y212307D01*
X140516Y211507D01*
X139716Y212307D01*
X135779Y220181D02*
X136579Y220981D01*
X137379Y220181D01*
X136579Y219381D01*
X135779Y220181D01*
Y216244D02*
X136579Y217044D01*
X137379Y216244D01*
X136579Y215444D01*
X135779Y216244D01*
Y212307D02*
X136579Y213107D01*
X137379Y212307D01*
X136579Y211507D01*
X135779Y212307D01*
X131842Y220181D02*
X132642Y220981D01*
X133442Y220181D01*
X132642Y219381D01*
X131842Y220181D01*
Y216244D02*
X132642Y217044D01*
X133442Y216244D01*
X132642Y215444D01*
X131842Y216244D01*
Y212307D02*
X132642Y213107D01*
X133442Y212307D01*
X132642Y211507D01*
X131842Y212307D01*
X199926Y55474D02*
X200326D01*
X200726Y55874D01*
X201126Y55474D01*
X201526D01*
Y55874D01*
X201126Y56274D01*
X201526Y56674D01*
Y57074D01*
X201126D01*
X200726Y56674D01*
X200326Y57074D01*
X199926D01*
Y56674D01*
X200326Y56274D01*
X199926Y55874D01*
Y55474D01*
X216200Y67700D02*
X216600D01*
X217000Y68100D01*
X217400Y67700D01*
X217800D01*
Y68100D01*
X217400Y68500D01*
X217800Y68900D01*
Y69300D01*
X217400D01*
X217000Y68900D01*
X216600Y69300D01*
X216200D01*
Y68900D01*
X216600Y68500D01*
X216200Y68100D01*
Y67700D01*
X216519Y72176D02*
X216919D01*
X217319Y72576D01*
X217719Y72176D01*
X218119D01*
Y72576D01*
X217719Y72976D01*
X218119Y73376D01*
Y73776D01*
X217719D01*
X217319Y73376D01*
X216919Y73776D01*
X216519D01*
Y73376D01*
X216919Y72976D01*
X216519Y72576D01*
Y72176D01*
X196700Y72700D02*
X197100D01*
X197500Y73100D01*
X197900Y72700D01*
X198300D01*
Y73100D01*
X197900Y73500D01*
X198300Y73900D01*
Y74300D01*
X197900D01*
X197500Y73900D01*
X197100Y74300D01*
X196700D01*
Y73900D01*
X197100Y73500D01*
X196700Y73100D01*
Y72700D01*
X198114Y65614D02*
X198514D01*
X198914Y66014D01*
X199314Y65614D01*
X199714D01*
Y66014D01*
X199314Y66414D01*
X199714Y66814D01*
Y67214D01*
X199314D01*
X198914Y66814D01*
X198514Y67214D01*
X198114D01*
Y66814D01*
X198514Y66414D01*
X198114Y66014D01*
Y65614D01*
X193332Y84538D02*
X193732D01*
X194132Y84938D01*
X194532Y84538D01*
X194932D01*
Y84938D01*
X194532Y85338D01*
X194932Y85738D01*
Y86138D01*
X194532D01*
X194132Y85738D01*
X193732Y86138D01*
X193332D01*
Y85738D01*
X193732Y85338D01*
X193332Y84938D01*
Y84538D01*
X196881Y96200D02*
X197281D01*
X197681Y96600D01*
X198081Y96200D01*
X198481D01*
Y96600D01*
X198081Y97000D01*
X198481Y97400D01*
Y97800D01*
X198081D01*
X197681Y97400D01*
X197281Y97800D01*
X196881D01*
Y97400D01*
X197281Y97000D01*
X196881Y96600D01*
Y96200D01*
X194200Y88200D02*
X194600D01*
X195000Y88600D01*
X195400Y88200D01*
X195800D01*
Y88600D01*
X195400Y89000D01*
X195800Y89400D01*
Y89800D01*
X195400D01*
X195000Y89400D01*
X194600Y89800D01*
X194200D01*
Y89400D01*
X194600Y89000D01*
X194200Y88600D01*
Y88200D01*
X200200Y102200D02*
X200600D01*
X201000Y102600D01*
X201400Y102200D01*
X201800D01*
Y102600D01*
X201400Y103000D01*
X201800Y103400D01*
Y103800D01*
X201400D01*
X201000Y103400D01*
X200600Y103800D01*
X200200D01*
Y103400D01*
X200600Y103000D01*
X200200Y102600D01*
Y102200D01*
X220330Y119247D02*
X220730D01*
X221130Y119647D01*
X221530Y119247D01*
X221930D01*
Y119647D01*
X221530Y120047D01*
X221930Y120447D01*
Y120847D01*
X221530D01*
X221130Y120447D01*
X220730Y120847D01*
X220330D01*
Y120447D01*
X220730Y120047D01*
X220330Y119647D01*
Y119247D01*
X220700Y104700D02*
X221100D01*
X221500Y105100D01*
X221900Y104700D01*
X222300D01*
Y105100D01*
X221900Y105500D01*
X222300Y105900D01*
Y106300D01*
X221900D01*
X221500Y105900D01*
X221100Y106300D01*
X220700D01*
Y105900D01*
X221100Y105500D01*
X220700Y105100D01*
Y104700D01*
X220330Y114700D02*
X220730D01*
X221130Y115100D01*
X221530Y114700D01*
X221930D01*
Y115100D01*
X221530Y115500D01*
X221930Y115900D01*
Y116300D01*
X221530D01*
X221130Y115900D01*
X220730Y116300D01*
X220330D01*
Y115900D01*
X220730Y115500D01*
X220330Y115100D01*
Y114700D01*
X73554Y65346D02*
X73954D01*
X74354Y65746D01*
X74754Y65346D01*
X75154D01*
Y65746D01*
X74754Y66146D01*
X75154Y66546D01*
Y66946D01*
X74754D01*
X74354Y66546D01*
X73954Y66946D01*
X73554D01*
Y66546D01*
X73954Y66146D01*
X73554Y65746D01*
Y65346D01*
X169700Y32700D02*
X170100D01*
X170500Y33100D01*
X170900Y32700D01*
X171300D01*
Y33100D01*
X170900Y33500D01*
X171300Y33900D01*
Y34300D01*
X170900D01*
X170500Y33900D01*
X170100Y34300D01*
X169700D01*
Y33900D01*
X170100Y33500D01*
X169700Y33100D01*
Y32700D01*
Y48200D02*
X170100D01*
X170500Y48600D01*
X170900Y48200D01*
X171300D01*
Y48600D01*
X170900Y49000D01*
X171300Y49400D01*
Y49800D01*
X170900D01*
X170500Y49400D01*
X170100Y49800D01*
X169700D01*
Y49400D01*
X170100Y49000D01*
X169700Y48600D01*
Y48200D01*
X159700Y112011D02*
X160100D01*
X160500Y112411D01*
X160900Y112011D01*
X161300D01*
Y112411D01*
X160900Y112811D01*
X161300Y113211D01*
Y113611D01*
X160900D01*
X160500Y113211D01*
X160100Y113611D01*
X159700D01*
Y113211D01*
X160100Y112811D01*
X159700Y112411D01*
Y112011D01*
X174200Y109381D02*
X174600D01*
X175000Y109781D01*
X175400Y109381D01*
X175800D01*
Y109781D01*
X175400Y110181D01*
X175800Y110581D01*
Y110981D01*
X175400D01*
X175000Y110581D01*
X174600Y110981D01*
X174200D01*
Y110581D01*
X174600Y110181D01*
X174200Y109781D01*
Y109381D01*
X167339Y122158D02*
X167739D01*
X168139Y122558D01*
X168539Y122158D01*
X168939D01*
Y122558D01*
X168539Y122958D01*
X168939Y123358D01*
Y123758D01*
X168539D01*
X168139Y123358D01*
X167739Y123758D01*
X167339D01*
Y123358D01*
X167739Y122958D01*
X167339Y122558D01*
Y122158D01*
X147700Y142200D02*
X148100D01*
X148500Y142600D01*
X148900Y142200D01*
X149300D01*
Y142600D01*
X148900Y143000D01*
X149300Y143400D01*
Y143800D01*
X148900D01*
X148500Y143400D01*
X148100Y143800D01*
X147700D01*
Y143400D01*
X148100Y143000D01*
X147700Y142600D01*
Y142200D01*
X155200Y141200D02*
X155600D01*
X156000Y141600D01*
X156400Y141200D01*
X156800D01*
Y141600D01*
X156400Y142000D01*
X156800Y142400D01*
Y142800D01*
X156400D01*
X156000Y142400D01*
X155600Y142800D01*
X155200D01*
Y142400D01*
X155600Y142000D01*
X155200Y141600D01*
Y141200D01*
X152271Y132271D02*
X152671D01*
X153071Y132671D01*
X153471Y132271D01*
X153871D01*
Y132671D01*
X153471Y133071D01*
X153871Y133471D01*
Y133871D01*
X153471D01*
X153071Y133471D01*
X152671Y133871D01*
X152271D01*
Y133471D01*
X152671Y133071D01*
X152271Y132671D01*
Y132271D01*
X148200Y123995D02*
X148600D01*
X149000Y124395D01*
X149400Y123995D01*
X149800D01*
Y124395D01*
X149400Y124795D01*
X149800Y125195D01*
Y125595D01*
X149400D01*
X149000Y125195D01*
X148600Y125595D01*
X148200D01*
Y125195D01*
X148600Y124795D01*
X148200Y124395D01*
Y123995D01*
X145035Y138200D02*
X145435D01*
X145835Y138600D01*
X146235Y138200D01*
X146635D01*
Y138600D01*
X146235Y139000D01*
X146635Y139400D01*
Y139800D01*
X146235D01*
X145835Y139400D01*
X145435Y139800D01*
X145035D01*
Y139400D01*
X145435Y139000D01*
X145035Y138600D01*
Y138200D01*
X151846Y150554D02*
X152246D01*
X152646Y150954D01*
X153046Y150554D01*
X153446D01*
Y150954D01*
X153046Y151354D01*
X153446Y151754D01*
Y152154D01*
X153046D01*
X152646Y151754D01*
X152246Y152154D01*
X151846D01*
Y151754D01*
X152246Y151354D01*
X151846Y150954D01*
Y150554D01*
X150200Y96700D02*
X150600D01*
X151000Y97100D01*
X151400Y96700D01*
X151800D01*
Y97100D01*
X151400Y97500D01*
X151800Y97900D01*
Y98300D01*
X151400D01*
X151000Y97900D01*
X150600Y98300D01*
X150200D01*
Y97900D01*
X150600Y97500D01*
X150200Y97100D01*
Y96700D01*
X206200Y45700D02*
X206600D01*
X207000Y46100D01*
X207400Y45700D01*
X207800D01*
Y46100D01*
X207400Y46500D01*
X207800Y46900D01*
Y47300D01*
X207400D01*
X207000Y46900D01*
X206600Y47300D01*
X206200D01*
Y46900D01*
X206600Y46500D01*
X206200Y46100D01*
Y45700D01*
X175700Y38200D02*
X176100D01*
X176500Y38600D01*
X176900Y38200D01*
X177300D01*
Y38600D01*
X176900Y39000D01*
X177300Y39400D01*
Y39800D01*
X176900D01*
X176500Y39400D01*
X176100Y39800D01*
X175700D01*
Y39400D01*
X176100Y39000D01*
X175700Y38600D01*
Y38200D01*
X201200Y41200D02*
X201600D01*
X202000Y41600D01*
X202400Y41200D01*
X202800D01*
Y41600D01*
X202400Y42000D01*
X202800Y42400D01*
Y42800D01*
X202400D01*
X202000Y42400D01*
X201600Y42800D01*
X201200D01*
Y42400D01*
X201600Y42000D01*
X201200Y41600D01*
Y41200D01*
X187514Y56794D02*
X187914D01*
X188314Y57194D01*
X188714Y56794D01*
X189114D01*
Y57194D01*
X188714Y57594D01*
X189114Y57994D01*
Y58394D01*
X188714D01*
X188314Y57994D01*
X187914Y58394D01*
X187514D01*
Y57994D01*
X187914Y57594D01*
X187514Y57194D01*
Y56794D01*
X202700Y107700D02*
X203100D01*
X203500Y108100D01*
X203900Y107700D01*
X204300D01*
Y108100D01*
X203900Y108500D01*
X204300Y108900D01*
Y109300D01*
X203900D01*
X203500Y108900D01*
X203100Y109300D01*
X202700D01*
Y108900D01*
X203100Y108500D01*
X202700Y108100D01*
Y107700D01*
X206700Y103700D02*
X207100D01*
X207500Y104100D01*
X207900Y103700D01*
X208300D01*
Y104100D01*
X207900Y104500D01*
X208300Y104900D01*
Y105300D01*
X207900D01*
X207500Y104900D01*
X207100Y105300D01*
X206700D01*
Y104900D01*
X207100Y104500D01*
X206700Y104100D01*
Y103700D01*
X209928Y107700D02*
X210328D01*
X210728Y108100D01*
X211128Y107700D01*
X211528D01*
Y108100D01*
X211128Y108500D01*
X211528Y108900D01*
Y109300D01*
X211128D01*
X210728Y108900D01*
X210328Y109300D01*
X209928D01*
Y108900D01*
X210328Y108500D01*
X209928Y108100D01*
Y107700D01*
X210747Y123987D02*
X211147D01*
X211547Y124388D01*
X211947Y123987D01*
X212347D01*
Y124388D01*
X211947Y124787D01*
X212347Y125188D01*
Y125587D01*
X211947D01*
X211547Y125188D01*
X211147Y125587D01*
X210747D01*
Y125188D01*
X211147Y124787D01*
X210747Y124388D01*
Y123987D01*
X227019Y126700D02*
X227419D01*
X227819Y127100D01*
X228219Y126700D01*
X228619D01*
Y127100D01*
X228219Y127500D01*
X228619Y127900D01*
Y128300D01*
X228219D01*
X227819Y127900D01*
X227419Y128300D01*
X227019D01*
Y127900D01*
X227419Y127500D01*
X227019Y127100D01*
Y126700D01*
X229519Y118700D02*
X229919D01*
X230319Y119100D01*
X230719Y118700D01*
X231119D01*
Y119100D01*
X230719Y119500D01*
X231119Y119900D01*
Y120300D01*
X230719D01*
X230319Y119900D01*
X229919Y120300D01*
X229519D01*
Y119900D01*
X229919Y119500D01*
X229519Y119100D01*
Y118700D01*
Y131700D02*
X229919D01*
X230319Y132100D01*
X230719Y131700D01*
X231119D01*
Y132100D01*
X230719Y132500D01*
X231119Y132900D01*
Y133300D01*
X230719D01*
X230319Y132900D01*
X229919Y133300D01*
X229519D01*
Y132900D01*
X229919Y132500D01*
X229519Y132100D01*
Y131700D01*
X229200Y70700D02*
X229600D01*
X230000Y71100D01*
X230400Y70700D01*
X230800D01*
Y71100D01*
X230400Y71500D01*
X230800Y71900D01*
Y72300D01*
X230400D01*
X230000Y71900D01*
X229600Y72300D01*
X229200D01*
Y71900D01*
X229600Y71500D01*
X229200Y71100D01*
Y70700D01*
X194200Y103700D02*
X194600D01*
X195000Y104100D01*
X195400Y103700D01*
X195800D01*
Y104100D01*
X195400Y104500D01*
X195800Y104900D01*
Y105300D01*
X195400D01*
X195000Y104900D01*
X194600Y105300D01*
X194200D01*
Y104900D01*
X194600Y104500D01*
X194200Y104100D01*
Y103700D01*
X155702Y104881D02*
X156102D01*
X156502Y105281D01*
X156902Y104881D01*
X157302D01*
Y105281D01*
X156902Y105681D01*
X157302Y106081D01*
Y106481D01*
X156902D01*
X156502Y106081D01*
X156102Y106481D01*
X155702D01*
Y106081D01*
X156102Y105681D01*
X155702Y105281D01*
Y104881D01*
X177940Y131700D02*
X178340D01*
X178740Y132100D01*
X179140Y131700D01*
X179540D01*
Y132100D01*
X179140Y132500D01*
X179540Y132900D01*
Y133300D01*
X179140D01*
X178740Y132900D01*
X178340Y133300D01*
X177940D01*
Y132900D01*
X178340Y132500D01*
X177940Y132100D01*
Y131700D01*
X177700Y106700D02*
X178100D01*
X178500Y107100D01*
X178900Y106700D01*
X179300D01*
Y107100D01*
X178900Y107500D01*
X179300Y107900D01*
Y108300D01*
X178900D01*
X178500Y107900D01*
X178100Y108300D01*
X177700D01*
Y107900D01*
X178100Y107500D01*
X177700Y107100D01*
Y106700D01*
X191200D02*
X191600D01*
X192000Y107100D01*
X192400Y106700D01*
X192800D01*
Y107100D01*
X192400Y107500D01*
X192800Y107900D01*
Y108300D01*
X192400D01*
X192000Y107900D01*
X191600Y108300D01*
X191200D01*
Y107900D01*
X191600Y107500D01*
X191200Y107100D01*
Y106700D01*
X171742Y118742D02*
X172142D01*
X172542Y119142D01*
X172942Y118742D01*
X173342D01*
Y119142D01*
X172942Y119542D01*
X173342Y119942D01*
Y120342D01*
X172942D01*
X172542Y119942D01*
X172142Y120342D01*
X171742D01*
Y119942D01*
X172142Y119542D01*
X171742Y119142D01*
Y118742D01*
X126200Y103700D02*
X126600D01*
X127000Y104100D01*
X127400Y103700D01*
X127800D01*
Y104100D01*
X127400Y104500D01*
X127800Y104900D01*
Y105300D01*
X127400D01*
X127000Y104900D01*
X126600Y105300D01*
X126200D01*
Y104900D01*
X126600Y104500D01*
X126200Y104100D01*
Y103700D01*
Y98700D02*
X126600D01*
X127000Y99100D01*
X127400Y98700D01*
X127800D01*
Y99100D01*
X127400Y99500D01*
X127800Y99900D01*
Y100300D01*
X127400D01*
X127000Y99900D01*
X126600Y100300D01*
X126200D01*
Y99900D01*
X126600Y99500D01*
X126200Y99100D01*
Y98700D01*
X147200Y249700D02*
X147600D01*
X148000Y250100D01*
X148400Y249700D01*
X148800D01*
Y250100D01*
X148400Y250500D01*
X148800Y250900D01*
Y251300D01*
X148400D01*
X148000Y250900D01*
X147600Y251300D01*
X147200D01*
Y250900D01*
X147600Y250500D01*
X147200Y250100D01*
Y249700D01*
X152200Y247200D02*
X152600D01*
X153000Y247600D01*
X153400Y247200D01*
X153800D01*
Y247600D01*
X153400Y248000D01*
X153800Y248400D01*
Y248800D01*
X153400D01*
X153000Y248400D01*
X152600Y248800D01*
X152200D01*
Y248400D01*
X152600Y248000D01*
X152200Y247600D01*
Y247200D01*
X125700Y251200D02*
X126100D01*
X126500Y251600D01*
X126900Y251200D01*
X127300D01*
Y251600D01*
X126900Y252000D01*
X127300Y252400D01*
Y252800D01*
X126900D01*
X126500Y252400D01*
X126100Y252800D01*
X125700D01*
Y252400D01*
X126100Y252000D01*
X125700Y251600D01*
Y251200D01*
X76200Y233200D02*
X76600D01*
X77000Y233600D01*
X77400Y233200D01*
X77800D01*
Y233600D01*
X77400Y234000D01*
X77800Y234400D01*
Y234800D01*
X77400D01*
X77000Y234400D01*
X76600Y234800D01*
X76200D01*
Y234400D01*
X76600Y234000D01*
X76200Y233600D01*
Y233200D01*
X56700Y184700D02*
X57100D01*
X57500Y185100D01*
X57900Y184700D01*
X58300D01*
Y185100D01*
X57900Y185500D01*
X58300Y185900D01*
Y186300D01*
X57900D01*
X57500Y185900D01*
X57100Y186300D01*
X56700D01*
Y185900D01*
X57100Y185500D01*
X56700Y185100D01*
Y184700D01*
X31700Y180200D02*
X32100D01*
X32500Y180600D01*
X32900Y180200D01*
X33300D01*
Y180600D01*
X32900Y181000D01*
X33300Y181400D01*
Y181800D01*
X32900D01*
X32500Y181400D01*
X32100Y181800D01*
X31700D01*
Y181400D01*
X32100Y181000D01*
X31700Y180600D01*
Y180200D01*
X36200Y189200D02*
X36600D01*
X37000Y189600D01*
X37400Y189200D01*
X37800D01*
Y189600D01*
X37400Y190000D01*
X37800Y190400D01*
Y190800D01*
X37400D01*
X37000Y190400D01*
X36600Y190800D01*
X36200D01*
Y190400D01*
X36600Y190000D01*
X36200Y189600D01*
Y189200D01*
X48200Y94700D02*
X48600D01*
X49000Y95100D01*
X49400Y94700D01*
X49800D01*
Y95100D01*
X49400Y95500D01*
X49800Y95900D01*
Y96300D01*
X49400D01*
X49000Y95900D01*
X48600Y96300D01*
X48200D01*
Y95900D01*
X48600Y95500D01*
X48200Y95100D01*
Y94700D01*
X33200Y92200D02*
X33600D01*
X34000Y92600D01*
X34400Y92200D01*
X34800D01*
Y92600D01*
X34400Y93000D01*
X34800Y93400D01*
Y93800D01*
X34400D01*
X34000Y93400D01*
X33600Y93800D01*
X33200D01*
Y93400D01*
X33600Y93000D01*
X33200Y92600D01*
Y92200D01*
X127200Y39700D02*
X127600D01*
X128000Y40100D01*
X128400Y39700D01*
X128800D01*
Y40100D01*
X128400Y40500D01*
X128800Y40900D01*
Y41300D01*
X128400D01*
X128000Y40900D01*
X127600Y41300D01*
X127200D01*
Y40900D01*
X127600Y40500D01*
X127200Y40100D01*
Y39700D01*
X105200Y36700D02*
X105600D01*
X106000Y37100D01*
X106400Y36700D01*
X106800D01*
Y37100D01*
X106400Y37500D01*
X106800Y37900D01*
Y38300D01*
X106400D01*
X106000Y37900D01*
X105600Y38300D01*
X105200D01*
Y37900D01*
X105600Y37500D01*
X105200Y37100D01*
Y36700D01*
X105700Y47200D02*
X106100D01*
X106500Y47600D01*
X106900Y47200D01*
X107300D01*
Y47600D01*
X106900Y48000D01*
X107300Y48400D01*
Y48800D01*
X106900D01*
X106500Y48400D01*
X106100Y48800D01*
X105700D01*
Y48400D01*
X106100Y48000D01*
X105700Y47600D01*
Y47200D01*
X137200Y74200D02*
X137600D01*
X138000Y74600D01*
X138400Y74200D01*
X138800D01*
Y74600D01*
X138400Y75000D01*
X138800Y75400D01*
Y75800D01*
X138400D01*
X138000Y75400D01*
X137600Y75800D01*
X137200D01*
Y75400D01*
X137600Y75000D01*
X137200Y74600D01*
Y74200D01*
X126200Y87200D02*
X126600D01*
X127000Y87600D01*
X127400Y87200D01*
X127800D01*
Y87600D01*
X127400Y88000D01*
X127800Y88400D01*
Y88800D01*
X127400D01*
X127000Y88400D01*
X126600Y88800D01*
X126200D01*
Y88400D01*
X126600Y88000D01*
X126200Y87600D01*
Y87200D01*
X148700D02*
X149100D01*
X149500Y87600D01*
X149900Y87200D01*
X150300D01*
Y87600D01*
X149900Y88000D01*
X150300Y88400D01*
Y88800D01*
X149900D01*
X149500Y88400D01*
X149100Y88800D01*
X148700D01*
Y88400D01*
X149100Y88000D01*
X148700Y87600D01*
Y87200D01*
X156700D02*
X157100D01*
X157500Y87600D01*
X157900Y87200D01*
X158300D01*
Y87600D01*
X157900Y88000D01*
X158300Y88400D01*
Y88800D01*
X157900D01*
X157500Y88400D01*
X157100Y88800D01*
X156700D01*
Y88400D01*
X157100Y88000D01*
X156700Y87600D01*
Y87200D01*
X180700Y93700D02*
X181100D01*
X181500Y94100D01*
X181900Y93700D01*
X182300D01*
Y94100D01*
X181900Y94500D01*
X182300Y94900D01*
Y95300D01*
X181900D01*
X181500Y94900D01*
X181100Y95300D01*
X180700D01*
Y94900D01*
X181100Y94500D01*
X180700Y94100D01*
Y93700D01*
X185200D02*
X185600D01*
X186000Y94100D01*
X186400Y93700D01*
X186800D01*
Y94100D01*
X186400Y94500D01*
X186800Y94900D01*
Y95300D01*
X186400D01*
X186000Y94900D01*
X185600Y95300D01*
X185200D01*
Y94900D01*
X185600Y94500D01*
X185200Y94100D01*
Y93700D01*
X228200Y112700D02*
X228600D01*
X229000Y113100D01*
X229400Y112700D01*
X229800D01*
Y113100D01*
X229400Y113500D01*
X229800Y113900D01*
Y114300D01*
X229400D01*
X229000Y113900D01*
X228600Y114300D01*
X228200D01*
Y113900D01*
X228600Y113500D01*
X228200Y113100D01*
Y112700D01*
X233200Y154700D02*
X233600D01*
X234000Y155100D01*
X234400Y154700D01*
X234800D01*
Y155100D01*
X234400Y155500D01*
X234800Y155900D01*
Y156300D01*
X234400D01*
X234000Y155900D01*
X233600Y156300D01*
X233200D01*
Y155900D01*
X233600Y155500D01*
X233200Y155100D01*
Y154700D01*
X224200Y161200D02*
X224600D01*
X225000Y161600D01*
X225400Y161200D01*
X225800D01*
Y161600D01*
X225400Y162000D01*
X225800Y162400D01*
Y162800D01*
X225400D01*
X225000Y162400D01*
X224600Y162800D01*
X224200D01*
Y162400D01*
X224600Y162000D01*
X224200Y161600D01*
Y161200D01*
X242700Y170700D02*
X243100D01*
X243500Y171100D01*
X243900Y170700D01*
X244300D01*
Y171100D01*
X243900Y171500D01*
X244300Y171900D01*
Y172300D01*
X243900D01*
X243500Y171900D01*
X243100Y172300D01*
X242700D01*
Y171900D01*
X243100Y171500D01*
X242700Y171100D01*
Y170700D01*
X243700Y176200D02*
X244100D01*
X244500Y176600D01*
X244900Y176200D01*
X245300D01*
Y176600D01*
X244900Y177000D01*
X245300Y177400D01*
Y177800D01*
X244900D01*
X244500Y177400D01*
X244100Y177800D01*
X243700D01*
Y177400D01*
X244100Y177000D01*
X243700Y176600D01*
Y176200D01*
X241700Y184200D02*
X242100D01*
X242500Y184600D01*
X242900Y184200D01*
X243300D01*
Y184600D01*
X242900Y185000D01*
X243300Y185400D01*
Y185800D01*
X242900D01*
X242500Y185400D01*
X242100Y185800D01*
X241700D01*
Y185400D01*
X242100Y185000D01*
X241700Y184600D01*
Y184200D01*
X236200Y194200D02*
X236600D01*
X237000Y194600D01*
X237400Y194200D01*
X237800D01*
Y194600D01*
X237400Y195000D01*
X237800Y195400D01*
Y195800D01*
X237400D01*
X237000Y195400D01*
X236600Y195800D01*
X236200D01*
Y195400D01*
X236600Y195000D01*
X236200Y194600D01*
Y194200D01*
X230200Y202200D02*
X230600D01*
X231000Y202600D01*
X231400Y202200D01*
X231800D01*
Y202600D01*
X231400Y203000D01*
X231800Y203400D01*
Y203800D01*
X231400D01*
X231000Y203400D01*
X230600Y203800D01*
X230200D01*
Y203400D01*
X230600Y203000D01*
X230200Y202600D01*
Y202200D01*
X196200Y234200D02*
X196600D01*
X197000Y234600D01*
X197400Y234200D01*
X197800D01*
Y234600D01*
X197400Y235000D01*
X197800Y235400D01*
Y235800D01*
X197400D01*
X197000Y235400D01*
X196600Y235800D01*
X196200D01*
Y235400D01*
X196600Y235000D01*
X196200Y234600D01*
Y234200D01*
X189700Y204200D02*
X190100D01*
X190500Y204600D01*
X190900Y204200D01*
X191300D01*
Y204600D01*
X190900Y205000D01*
X191300Y205400D01*
Y205800D01*
X190900D01*
X190500Y205400D01*
X190100Y205800D01*
X189700D01*
Y205400D01*
X190100Y205000D01*
X189700Y204600D01*
Y204200D01*
Y195700D02*
X190100D01*
X190500Y196100D01*
X190900Y195700D01*
X191300D01*
Y196100D01*
X190900Y196500D01*
X191300Y196900D01*
Y197300D01*
X190900D01*
X190500Y196900D01*
X190100Y197300D01*
X189700D01*
Y196900D01*
X190100Y196500D01*
X189700Y196100D01*
Y195700D01*
X182200Y193700D02*
X182600D01*
X183000Y194100D01*
X183400Y193700D01*
X183800D01*
Y194100D01*
X183400Y194500D01*
X183800Y194900D01*
Y195300D01*
X183400D01*
X183000Y194900D01*
X182600Y195300D01*
X182200D01*
Y194900D01*
X182600Y194500D01*
X182200Y194100D01*
Y193700D01*
X130200Y178200D02*
X130600D01*
X131000Y178600D01*
X131400Y178200D01*
X131800D01*
Y178600D01*
X131400Y179000D01*
X131800Y179400D01*
Y179800D01*
X131400D01*
X131000Y179400D01*
X130600Y179800D01*
X130200D01*
Y179400D01*
X130600Y179000D01*
X130200Y178600D01*
Y178200D01*
X107700Y156200D02*
X108100D01*
X108500Y156600D01*
X108900Y156200D01*
X109300D01*
Y156600D01*
X108900Y157000D01*
X109300Y157400D01*
Y157800D01*
X108900D01*
X108500Y157400D01*
X108100Y157800D01*
X107700D01*
Y157400D01*
X108100Y157000D01*
X107700Y156600D01*
Y156200D01*
X114700Y162200D02*
X115100D01*
X115500Y162600D01*
X115900Y162200D01*
X116300D01*
Y162600D01*
X115900Y163000D01*
X116300Y163400D01*
Y163800D01*
X115900D01*
X115500Y163400D01*
X115100Y163800D01*
X114700D01*
Y163400D01*
X115100Y163000D01*
X114700Y162600D01*
Y162200D01*
X184200Y131200D02*
X184600D01*
X185000Y131600D01*
X185400Y131200D01*
X185800D01*
Y131600D01*
X185400Y132000D01*
X185800Y132400D01*
Y132800D01*
X185400D01*
X185000Y132400D01*
X184600Y132800D01*
X184200D01*
Y132400D01*
X184600Y132000D01*
X184200Y131600D01*
Y131200D01*
X165700Y135700D02*
X166100D01*
X166500Y136100D01*
X166900Y135700D01*
X167300D01*
Y136100D01*
X166900Y136500D01*
X167300Y136900D01*
Y137300D01*
X166900D01*
X166500Y136900D01*
X166100Y137300D01*
X165700D01*
Y136900D01*
X166100Y136500D01*
X165700Y136100D01*
Y135700D01*
X210700Y142200D02*
X211100D01*
X211500Y142600D01*
X211900Y142200D01*
X212300D01*
Y142600D01*
X211900Y143000D01*
X212300Y143400D01*
Y143800D01*
X211900D01*
X211500Y143400D01*
X211100Y143800D01*
X210700D01*
Y143400D01*
X211100Y143000D01*
X210700Y142600D01*
Y142200D01*
X202200Y228200D02*
X202600D01*
X203000Y228600D01*
X203400Y228200D01*
X203800D01*
Y228600D01*
X203400Y229000D01*
X203800Y229400D01*
Y229800D01*
X203400D01*
X203000Y229400D01*
X202600Y229800D01*
X202200D01*
Y229400D01*
X202600Y229000D01*
X202200Y228600D01*
Y228200D01*
X211700Y224700D02*
X212100D01*
X212500Y225100D01*
X212900Y224700D01*
X213300D01*
Y225100D01*
X212900Y225500D01*
X213300Y225900D01*
Y226300D01*
X212900D01*
X212500Y225900D01*
X212100Y226300D01*
X211700D01*
Y225900D01*
X212100Y225500D01*
X211700Y225100D01*
Y224700D01*
X142700Y183700D02*
X143100D01*
X143500Y184100D01*
X143900Y183700D01*
X144300D01*
Y184100D01*
X143900Y184500D01*
X144300Y184900D01*
Y185300D01*
X143900D01*
X143500Y184900D01*
X143100Y185300D01*
X142700D01*
Y184900D01*
X143100Y184500D01*
X142700Y184100D01*
Y183700D01*
X178554Y182846D02*
X178954D01*
X179354Y183246D01*
X179754Y182846D01*
X180154D01*
Y183246D01*
X179754Y183646D01*
X180154Y184046D01*
Y184446D01*
X179754D01*
X179354Y184046D01*
X178954Y184446D01*
X178554D01*
Y184046D01*
X178954Y183646D01*
X178554Y183246D01*
Y182846D01*
X178700Y174397D02*
X179100D01*
X179500Y174797D01*
X179900Y174397D01*
X180300D01*
Y174797D01*
X179900Y175197D01*
X180300Y175597D01*
Y175997D01*
X179900D01*
X179500Y175597D01*
X179100Y175997D01*
X178700D01*
Y175597D01*
X179100Y175197D01*
X178700Y174797D01*
Y174397D01*
X172700Y180881D02*
X173100D01*
X173500Y181281D01*
X173900Y180881D01*
X174300D01*
Y181281D01*
X173900Y181681D01*
X174300Y182081D01*
Y182481D01*
X173900D01*
X173500Y182081D01*
X173100Y182481D01*
X172700D01*
Y182081D01*
X173100Y181681D01*
X172700Y181281D01*
Y180881D01*
X126700Y79200D02*
X127100D01*
X127500Y79600D01*
X127900Y79200D01*
X128300D01*
Y79600D01*
X127900Y80000D01*
X128300Y80400D01*
Y80800D01*
X127900D01*
X127500Y80400D01*
X127100Y80800D01*
X126700D01*
Y80400D01*
X127100Y80000D01*
X126700Y79600D01*
Y79200D01*
X140200Y82700D02*
X140600D01*
X141000Y83100D01*
X141400Y82700D01*
X141800D01*
Y83100D01*
X141400Y83500D01*
X141800Y83900D01*
Y84300D01*
X141400D01*
X141000Y83900D01*
X140600Y84300D01*
X140200D01*
Y83900D01*
X140600Y83500D01*
X140200Y83100D01*
Y82700D01*
X117200Y78700D02*
X117600D01*
X118000Y79100D01*
X118400Y78700D01*
X118800D01*
Y79100D01*
X118400Y79500D01*
X118800Y79900D01*
Y80300D01*
X118400D01*
X118000Y79900D01*
X117600Y80300D01*
X117200D01*
Y79900D01*
X117600Y79500D01*
X117200Y79100D01*
Y78700D01*
X117700Y36200D02*
X118100D01*
X118500Y36600D01*
X118900Y36200D01*
X119300D01*
Y36600D01*
X118900Y37000D01*
X119300Y37400D01*
Y37800D01*
X118900D01*
X118500Y37400D01*
X118100Y37800D01*
X117700D01*
Y37400D01*
X118100Y37000D01*
X117700Y36600D01*
Y36200D01*
X174200Y52200D02*
X174600D01*
X175000Y52600D01*
X175400Y52200D01*
X175800D01*
Y52600D01*
X175400Y53000D01*
X175800Y53400D01*
Y53800D01*
X175400D01*
X175000Y53400D01*
X174600Y53800D01*
X174200D01*
Y53400D01*
X174600Y53000D01*
X174200Y52600D01*
Y52200D01*
X157200Y49700D02*
X157600D01*
X158000Y50100D01*
X158400Y49700D01*
X158800D01*
Y50100D01*
X158400Y50500D01*
X158800Y50900D01*
Y51300D01*
X158400D01*
X158000Y50900D01*
X157600Y51300D01*
X157200D01*
Y50900D01*
X157600Y50500D01*
X157200Y50100D01*
Y49700D01*
X145700Y35700D02*
X146100D01*
X146500Y36100D01*
X146900Y35700D01*
X147300D01*
Y36100D01*
X146900Y36500D01*
X147300Y36900D01*
Y37300D01*
X146900D01*
X146500Y36900D01*
X146100Y37300D01*
X145700D01*
Y36900D01*
X146100Y36500D01*
X145700Y36100D01*
Y35700D01*
X212700Y51700D02*
X213100D01*
X213500Y52100D01*
X213900Y51700D01*
X214300D01*
Y52100D01*
X213900Y52500D01*
X214300Y52900D01*
Y53300D01*
X213900D01*
X213500Y52900D01*
X213100Y53300D01*
X212700D01*
Y52900D01*
X213100Y52500D01*
X212700Y52100D01*
Y51700D01*
X166200Y50700D02*
X166600D01*
X167000Y51100D01*
X167400Y50700D01*
X167800D01*
Y51100D01*
X167400Y51500D01*
X167800Y51900D01*
Y52300D01*
X167400D01*
X167000Y51900D01*
X166600Y52300D01*
X166200D01*
Y51900D01*
X166600Y51500D01*
X166200Y51100D01*
Y50700D01*
X131877Y70023D02*
X132277D01*
X132677Y70423D01*
X133077Y70023D01*
X133477D01*
Y70423D01*
X133077Y70823D01*
X133477Y71223D01*
Y71623D01*
X133077D01*
X132677Y71223D01*
X132277Y71623D01*
X131877D01*
Y71223D01*
X132277Y70823D01*
X131877Y70423D01*
Y70023D01*
X141200Y87700D02*
X141600D01*
X142000Y88100D01*
X142400Y87700D01*
X142800D01*
Y88100D01*
X142400Y88500D01*
X142800Y88900D01*
Y89300D01*
X142400D01*
X142000Y88900D01*
X141600Y89300D01*
X141200D01*
Y88900D01*
X141600Y88500D01*
X141200Y88100D01*
Y87700D01*
X131700Y107200D02*
X132100D01*
X132500Y107600D01*
X132900Y107200D01*
X133300D01*
Y107600D01*
X132900Y108000D01*
X133300Y108400D01*
Y108800D01*
X132900D01*
X132500Y108400D01*
X132100Y108800D01*
X131700D01*
Y108400D01*
X132100Y108000D01*
X131700Y107600D01*
Y107200D01*
X168735Y62090D02*
X169535Y62890D01*
X170335Y62090D01*
X169535Y61291D01*
X168735Y62090D01*
X164798D02*
X165598Y62890D01*
X166398Y62090D01*
X165598Y61291D01*
X164798Y62090D01*
Y67996D02*
X165598Y68796D01*
X166398Y67996D01*
X165598Y67196D01*
X164798Y67996D01*
X168735D02*
X169535Y68796D01*
X170335Y67996D01*
X169535Y67196D01*
X168735Y67996D01*
X166767Y65043D02*
X167567Y65843D01*
X168367Y65043D01*
X167567Y64243D01*
X166767Y65043D01*
X138700Y107700D02*
X139100D01*
X139500Y108100D01*
X139900Y107700D01*
X140300D01*
Y108100D01*
X139900Y108500D01*
X140300Y108900D01*
Y109300D01*
X139900D01*
X139500Y108900D01*
X139100Y109300D01*
X138700D01*
Y108900D01*
X139100Y108500D01*
X138700Y108100D01*
Y107700D01*
X110200Y129200D02*
X110600D01*
X111000Y129600D01*
X111400Y129200D01*
X111800D01*
Y129600D01*
X111400Y130000D01*
X111800Y130400D01*
Y130800D01*
X111400D01*
X111000Y130400D01*
X110600Y130800D01*
X110200D01*
Y130400D01*
X110600Y130000D01*
X110200Y129600D01*
Y129200D01*
X111200Y141700D02*
X111600D01*
X112000Y142100D01*
X112400Y141700D01*
X112800D01*
Y142100D01*
X112400Y142500D01*
X112800Y142900D01*
Y143300D01*
X112400D01*
X112000Y142900D01*
X111600Y143300D01*
X111200D01*
Y142900D01*
X111600Y142500D01*
X111200Y142100D01*
Y141700D01*
X179269Y216936D02*
X179669D01*
X180069Y217336D01*
X180469Y216936D01*
X180869D01*
Y217336D01*
X180469Y217736D01*
X180869Y218136D01*
Y218536D01*
X180469D01*
X180069Y218136D01*
X179669Y218536D01*
X179269D01*
Y218136D01*
X179669Y217736D01*
X179269Y217336D01*
Y216936D01*
X180200Y210700D02*
X180600D01*
X181000Y211100D01*
X181400Y210700D01*
X181800D01*
Y211100D01*
X181400Y211500D01*
X181800Y211900D01*
Y212300D01*
X181400D01*
X181000Y211900D01*
X180600Y212300D01*
X180200D01*
Y211900D01*
X180600Y211500D01*
X180200Y211100D01*
Y210700D01*
X176700Y214200D02*
X177100D01*
X177500Y214600D01*
X177900Y214200D01*
X178300D01*
Y214600D01*
X177900Y215000D01*
X178300Y215400D01*
Y215800D01*
X177900D01*
X177500Y215400D01*
X177100Y215800D01*
X176700D01*
Y215400D01*
X177100Y215000D01*
X176700Y214600D01*
Y214200D01*
X129238Y191834D02*
X129638D01*
X130038Y192234D01*
X130438Y191834D01*
X130838D01*
Y192234D01*
X130438Y192634D01*
X130838Y193034D01*
Y193434D01*
X130438D01*
X130038Y193034D01*
X129638Y193434D01*
X129238D01*
Y193034D01*
X129638Y192634D01*
X129238Y192234D01*
Y191834D01*
X130234Y196194D02*
X130634D01*
X131034Y196594D01*
X131434Y196194D01*
X131834D01*
Y196594D01*
X131434Y196994D01*
X131834Y197394D01*
Y197794D01*
X131434D01*
X131034Y197394D01*
X130634Y197794D01*
X130234D01*
Y197394D01*
X130634Y196994D01*
X130234Y196594D01*
Y196194D01*
X122200Y196196D02*
X122600D01*
X123000Y196596D01*
X123400Y196196D01*
X123800D01*
Y196596D01*
X123400Y196996D01*
X123800Y197396D01*
Y197796D01*
X123400D01*
X123000Y197396D01*
X122600Y197796D01*
X122200D01*
Y197396D01*
X122600Y196996D01*
X122200Y196596D01*
Y196196D01*
X122700Y200700D02*
X123100D01*
X123500Y201100D01*
X123900Y200700D01*
X124300D01*
Y201100D01*
X123900Y201500D01*
X124300Y201900D01*
Y202300D01*
X123900D01*
X123500Y201900D01*
X123100Y202300D01*
X122700D01*
Y201900D01*
X123100Y201500D01*
X122700Y201100D01*
Y200700D01*
X193515Y144200D02*
X193915D01*
X194315Y144600D01*
X194715Y144200D01*
X195115D01*
Y144600D01*
X194715Y145000D01*
X195115Y145400D01*
Y145800D01*
X194715D01*
X194315Y145400D01*
X193915Y145800D01*
X193515D01*
Y145400D01*
X193915Y145000D01*
X193515Y144600D01*
Y144200D01*
X184526Y127768D02*
X184926D01*
X185326Y128168D01*
X185726Y127768D01*
X186126D01*
Y128168D01*
X185726Y128568D01*
X186126Y128968D01*
Y129368D01*
X185726D01*
X185326Y128968D01*
X184926Y129368D01*
X184526D01*
Y128968D01*
X184926Y128568D01*
X184526Y128168D01*
Y127768D01*
X199003Y106700D02*
X199403D01*
X199803Y107100D01*
X200203Y106700D01*
X200603D01*
Y107100D01*
X200203Y107500D01*
X200603Y107900D01*
Y108300D01*
X200203D01*
X199803Y107900D01*
X199403Y108300D01*
X199003D01*
Y107900D01*
X199403Y107500D01*
X199003Y107100D01*
Y106700D01*
X158200Y199200D02*
X158600D01*
X159000Y199600D01*
X159400Y199200D01*
X159800D01*
Y199600D01*
X159400Y200000D01*
X159800Y200400D01*
Y200800D01*
X159400D01*
X159000Y200400D01*
X158600Y200800D01*
X158200D01*
Y200400D01*
X158600Y200000D01*
X158200Y199600D01*
Y199200D01*
X154700D02*
X155100D01*
X155500Y199600D01*
X155900Y199200D01*
X156300D01*
Y199600D01*
X155900Y200000D01*
X156300Y200400D01*
Y200800D01*
X155900D01*
X155500Y200400D01*
X155100Y200800D01*
X154700D01*
Y200400D01*
X155100Y200000D01*
X154700Y199600D01*
Y199200D01*
X96700Y213700D02*
X97100D01*
X97500Y214100D01*
X97900Y213700D01*
X98300D01*
Y214100D01*
X97900Y214500D01*
X98300Y214900D01*
Y215300D01*
X97900D01*
X97500Y214900D01*
X97100Y215300D01*
X96700D01*
Y214900D01*
X97100Y214500D01*
X96700Y214100D01*
Y213700D01*
X95200Y217200D02*
X95600D01*
X96000Y217600D01*
X96400Y217200D01*
X96800D01*
Y217600D01*
X96400Y218000D01*
X96800Y218400D01*
Y218800D01*
X96400D01*
X96000Y218400D01*
X95600Y218800D01*
X95200D01*
Y218400D01*
X95600Y218000D01*
X95200Y217600D01*
Y217200D01*
X47200Y186700D02*
X47600D01*
X48000Y187100D01*
X48400Y186700D01*
X48800D01*
Y187100D01*
X48400Y187500D01*
X48800Y187900D01*
Y188300D01*
X48400D01*
X48000Y187900D01*
X47600Y188300D01*
X47200D01*
Y187900D01*
X47600Y187500D01*
X47200Y187100D01*
Y186700D01*
X173700Y242200D02*
X174100D01*
X174500Y242600D01*
X174900Y242200D01*
X175300D01*
Y242600D01*
X174900Y243000D01*
X175300Y243400D01*
Y243800D01*
X174900D01*
X174500Y243400D01*
X174100Y243800D01*
X173700D01*
Y243400D01*
X174100Y243000D01*
X173700Y242600D01*
Y242200D01*
X178700Y232700D02*
X179100D01*
X179500Y233100D01*
X179900Y232700D01*
X180300D01*
Y233100D01*
X179900Y233500D01*
X180300Y233900D01*
Y234300D01*
X179900D01*
X179500Y233900D01*
X179100Y234300D01*
X178700D01*
Y233900D01*
X179100Y233500D01*
X178700Y233100D01*
Y232700D01*
X175700Y224700D02*
X176100D01*
X176500Y225100D01*
X176900Y224700D01*
X177300D01*
Y225100D01*
X176900Y225500D01*
X177300Y225900D01*
Y226300D01*
X176900D01*
X176500Y225900D01*
X176100Y226300D01*
X175700D01*
Y225900D01*
X176100Y225500D01*
X175700Y225100D01*
Y224700D01*
X92700Y157700D02*
X93100D01*
X93500Y158100D01*
X93900Y157700D01*
X94300D01*
Y158100D01*
X93900Y158500D01*
X94300Y158900D01*
Y159300D01*
X93900D01*
X93500Y158900D01*
X93100Y159300D01*
X92700D01*
Y158900D01*
X93100Y158500D01*
X92700Y158100D01*
Y157700D01*
X100700Y163200D02*
X101100D01*
X101500Y163600D01*
X101900Y163200D01*
X102300D01*
Y163600D01*
X101900Y164000D01*
X102300Y164400D01*
Y164800D01*
X101900D01*
X101500Y164400D01*
X101100Y164800D01*
X100700D01*
Y164400D01*
X101100Y164000D01*
X100700Y163600D01*
Y163200D01*
X134200Y130200D02*
X134600D01*
X135000Y130600D01*
X135400Y130200D01*
X135800D01*
Y130600D01*
X135400Y131000D01*
X135800Y131400D01*
Y131800D01*
X135400D01*
X135000Y131400D01*
X134600Y131800D01*
X134200D01*
Y131400D01*
X134600Y131000D01*
X134200Y130600D01*
Y130200D01*
X135200Y149200D02*
X135600D01*
X136000Y149600D01*
X136400Y149200D01*
X136800D01*
Y149600D01*
X136400Y150000D01*
X136800Y150400D01*
Y150800D01*
X136400D01*
X136000Y150400D01*
X135600Y150800D01*
X135200D01*
Y150400D01*
X135600Y150000D01*
X135200Y149600D01*
Y149200D01*
X201200Y153700D02*
X201600D01*
X202000Y154100D01*
X202400Y153700D01*
X202800D01*
Y154100D01*
X202400Y154500D01*
X202800Y154900D01*
Y155300D01*
X202400D01*
X202000Y154900D01*
X201600Y155300D01*
X201200D01*
Y154900D01*
X201600Y154500D01*
X201200Y154100D01*
Y153700D01*
X204200Y150700D02*
X204600D01*
X205000Y151100D01*
X205400Y150700D01*
X205800D01*
Y151100D01*
X205400Y151500D01*
X205800Y151900D01*
Y152300D01*
X205400D01*
X205000Y151900D01*
X204600Y152300D01*
X204200D01*
Y151900D01*
X204600Y151500D01*
X204200Y151100D01*
Y150700D01*
X248200Y159200D02*
X248600D01*
X249000Y159600D01*
X249400Y159200D01*
X249800D01*
Y159600D01*
X249400Y160000D01*
X249800Y160400D01*
Y160800D01*
X249400D01*
X249000Y160400D01*
X248600Y160800D01*
X248200D01*
Y160400D01*
X248600Y160000D01*
X248200Y159600D01*
Y159200D01*
Y150700D02*
X248600D01*
X249000Y151100D01*
X249400Y150700D01*
X249800D01*
Y151100D01*
X249400Y151500D01*
X249800Y151900D01*
Y152300D01*
X249400D01*
X249000Y151900D01*
X248600Y152300D01*
X248200D01*
Y151900D01*
X248600Y151500D01*
X248200Y151100D01*
Y150700D01*
Y144200D02*
X248600D01*
X249000Y144600D01*
X249400Y144200D01*
X249800D01*
Y144600D01*
X249400Y145000D01*
X249800Y145400D01*
Y145800D01*
X249400D01*
X249000Y145400D01*
X248600Y145800D01*
X248200D01*
Y145400D01*
X248600Y145000D01*
X248200Y144600D01*
Y144200D01*
Y136700D02*
X248600D01*
X249000Y137100D01*
X249400Y136700D01*
X249800D01*
Y137100D01*
X249400Y137500D01*
X249800Y137900D01*
Y138300D01*
X249400D01*
X249000Y137900D01*
X248600Y138300D01*
X248200D01*
Y137900D01*
X248600Y137500D01*
X248200Y137100D01*
Y136700D01*
Y128700D02*
X248600D01*
X249000Y129100D01*
X249400Y128700D01*
X249800D01*
Y129100D01*
X249400Y129500D01*
X249800Y129900D01*
Y130300D01*
X249400D01*
X249000Y129900D01*
X248600Y130300D01*
X248200D01*
Y129900D01*
X248600Y129500D01*
X248200Y129100D01*
Y128700D01*
Y122200D02*
X248600D01*
X249000Y122600D01*
X249400Y122200D01*
X249800D01*
Y122600D01*
X249400Y123000D01*
X249800Y123400D01*
Y123800D01*
X249400D01*
X249000Y123400D01*
X248600Y123800D01*
X248200D01*
Y123400D01*
X248600Y123000D01*
X248200Y122600D01*
Y122200D01*
X247700Y111700D02*
X248100D01*
X248500Y112100D01*
X248900Y111700D01*
X249300D01*
Y112100D01*
X248900Y112500D01*
X249300Y112900D01*
Y113300D01*
X248900D01*
X248500Y112900D01*
X248100Y113300D01*
X247700D01*
Y112900D01*
X248100Y112500D01*
X247700Y112100D01*
Y111700D01*
X238700Y92200D02*
X239100D01*
X239500Y92600D01*
X239900Y92200D01*
X240300D01*
Y92600D01*
X239900Y93000D01*
X240300Y93400D01*
Y93800D01*
X239900D01*
X239500Y93400D01*
X239100Y93800D01*
X238700D01*
Y93400D01*
X239100Y93000D01*
X238700Y92600D01*
Y92200D01*
X181200Y32200D02*
X181600D01*
X182000Y32600D01*
X182400Y32200D01*
X182800D01*
Y32600D01*
X182400Y33000D01*
X182800Y33400D01*
Y33800D01*
X182400D01*
X182000Y33400D01*
X181600Y33800D01*
X181200D01*
Y33400D01*
X181600Y33000D01*
X181200Y32600D01*
Y32200D01*
X195700Y41200D02*
X196100D01*
X196500Y41600D01*
X196900Y41200D01*
X197300D01*
Y41600D01*
X196900Y42000D01*
X197300Y42400D01*
Y42800D01*
X196900D01*
X196500Y42400D01*
X196100Y42800D01*
X195700D01*
Y42400D01*
X196100Y42000D01*
X195700Y41600D01*
Y41200D01*
X134700Y47200D02*
X135100D01*
X135500Y47600D01*
X135900Y47200D01*
X136300D01*
Y47600D01*
X135900Y48000D01*
X136300Y48400D01*
Y48800D01*
X135900D01*
X135500Y48400D01*
X135100Y48800D01*
X134700D01*
Y48400D01*
X135100Y48000D01*
X134700Y47600D01*
Y47200D01*
X87200Y62200D02*
X87600D01*
X88000Y62600D01*
X88400Y62200D01*
X88800D01*
Y62600D01*
X88400Y63000D01*
X88800Y63400D01*
Y63800D01*
X88400D01*
X88000Y63400D01*
X87600Y63800D01*
X87200D01*
Y63400D01*
X87600Y63000D01*
X87200Y62600D01*
Y62200D01*
X107200Y55200D02*
X107600D01*
X108000Y55600D01*
X108400Y55200D01*
X108800D01*
Y55600D01*
X108400Y56000D01*
X108800Y56400D01*
Y56800D01*
X108400D01*
X108000Y56400D01*
X107600Y56800D01*
X107200D01*
Y56400D01*
X107600Y56000D01*
X107200Y55600D01*
Y55200D01*
X95200Y68200D02*
X95600D01*
X96000Y68600D01*
X96400Y68200D01*
X96800D01*
Y68600D01*
X96400Y69000D01*
X96800Y69400D01*
Y69800D01*
X96400D01*
X96000Y69400D01*
X95600Y69800D01*
X95200D01*
Y69400D01*
X95600Y69000D01*
X95200Y68600D01*
Y68200D01*
X101700Y78200D02*
X102100D01*
X102500Y78600D01*
X102900Y78200D01*
X103300D01*
Y78600D01*
X102900Y79000D01*
X103300Y79400D01*
Y79800D01*
X102900D01*
X102500Y79400D01*
X102100Y79800D01*
X101700D01*
Y79400D01*
X102100Y79000D01*
X101700Y78600D01*
Y78200D01*
X93200Y96700D02*
X93600D01*
X94000Y97100D01*
X94400Y96700D01*
X94800D01*
Y97100D01*
X94400Y97500D01*
X94800Y97900D01*
Y98300D01*
X94400D01*
X94000Y97900D01*
X93600Y98300D01*
X93200D01*
Y97900D01*
X93600Y97500D01*
X93200Y97100D01*
Y96700D01*
X88700Y96200D02*
X89100D01*
X89500Y96600D01*
X89900Y96200D01*
X90300D01*
Y96600D01*
X89900Y97000D01*
X90300Y97400D01*
Y97800D01*
X89900D01*
X89500Y97400D01*
X89100Y97800D01*
X88700D01*
Y97400D01*
X89100Y97000D01*
X88700Y96600D01*
Y96200D01*
X83200Y95700D02*
X83600D01*
X84000Y96100D01*
X84400Y95700D01*
X84800D01*
Y96100D01*
X84400Y96500D01*
X84800Y96900D01*
Y97300D01*
X84400D01*
X84000Y96900D01*
X83600Y97300D01*
X83200D01*
Y96900D01*
X83600Y96500D01*
X83200Y96100D01*
Y95700D01*
X66700Y177200D02*
X67100D01*
X67500Y177600D01*
X67900Y177200D01*
X68300D01*
Y177600D01*
X67900Y178000D01*
X68300Y178400D01*
Y178800D01*
X67900D01*
X67500Y178400D01*
X67100Y178800D01*
X66700D01*
Y178400D01*
X67100Y178000D01*
X66700Y177600D01*
Y177200D01*
X62700D02*
X63100D01*
X63500Y177600D01*
X63900Y177200D01*
X64300D01*
Y177600D01*
X63900Y178000D01*
X64300Y178400D01*
Y178800D01*
X63900D01*
X63500Y178400D01*
X63100Y178800D01*
X62700D01*
Y178400D01*
X63100Y178000D01*
X62700Y177600D01*
Y177200D01*
X59200Y161200D02*
X59600D01*
X60000Y161600D01*
X60400Y161200D01*
X60800D01*
Y161600D01*
X60400Y162000D01*
X60800Y162400D01*
Y162800D01*
X60400D01*
X60000Y162400D01*
X59600Y162800D01*
X59200D01*
Y162400D01*
X59600Y162000D01*
X59200Y161600D01*
Y161200D01*
X61700Y156700D02*
X62100D01*
X62500Y157100D01*
X62900Y156700D01*
X63300D01*
Y157100D01*
X62900Y157500D01*
X63300Y157900D01*
Y158300D01*
X62900D01*
X62500Y157900D01*
X62100Y158300D01*
X61700D01*
Y157900D01*
X62100Y157500D01*
X61700Y157100D01*
Y156700D01*
X63700Y152700D02*
X64100D01*
X64500Y153100D01*
X64900Y152700D01*
X65300D01*
Y153100D01*
X64900Y153500D01*
X65300Y153900D01*
Y154300D01*
X64900D01*
X64500Y153900D01*
X64100Y154300D01*
X63700D01*
Y153900D01*
X64100Y153500D01*
X63700Y153100D01*
Y152700D01*
X77700Y117700D02*
X78100D01*
X78500Y118100D01*
X78900Y117700D01*
X79300D01*
Y118100D01*
X78900Y118500D01*
X79300Y118900D01*
Y119300D01*
X78900D01*
X78500Y118900D01*
X78100Y119300D01*
X77700D01*
Y118900D01*
X78100Y118500D01*
X77700Y118100D01*
Y117700D01*
X67200Y134200D02*
X67600D01*
X68000Y134600D01*
X68400Y134200D01*
X68800D01*
Y134600D01*
X68400Y135000D01*
X68800Y135400D01*
Y135800D01*
X68400D01*
X68000Y135400D01*
X67600Y135800D01*
X67200D01*
Y135400D01*
X67600Y135000D01*
X67200Y134600D01*
Y134200D01*
X76700Y129700D02*
X77100D01*
X77500Y130100D01*
X77900Y129700D01*
X78300D01*
Y130100D01*
X77900Y130500D01*
X78300Y130900D01*
Y131300D01*
X77900D01*
X77500Y130900D01*
X77100Y131300D01*
X76700D01*
Y130900D01*
X77100Y130500D01*
X76700Y130100D01*
Y129700D01*
X92712Y144460D02*
X93112D01*
X93512Y144860D01*
X93912Y144460D01*
X94312D01*
Y144860D01*
X93912Y145261D01*
X94312Y145660D01*
Y146061D01*
X93912D01*
X93512Y145660D01*
X93112Y146061D01*
X92712D01*
Y145660D01*
X93112Y145261D01*
X92712Y144860D01*
Y144460D01*
X76381Y143200D02*
X76781D01*
X77181Y143600D01*
X77581Y143200D01*
X77981D01*
Y143600D01*
X77581Y144000D01*
X77981Y144400D01*
Y144800D01*
X77581D01*
X77181Y144400D01*
X76781Y144800D01*
X76381D01*
Y144400D01*
X76781Y144000D01*
X76381Y143600D01*
Y143200D01*
X78700Y148200D02*
X79100D01*
X79500Y148600D01*
X79900Y148200D01*
X80300D01*
Y148600D01*
X79900Y149000D01*
X80300Y149400D01*
Y149800D01*
X79900D01*
X79500Y149400D01*
X79100Y149800D01*
X78700D01*
Y149400D01*
X79100Y149000D01*
X78700Y148600D01*
Y148200D01*
X67700Y140700D02*
X68100D01*
X68500Y141100D01*
X68900Y140700D01*
X69300D01*
Y141100D01*
X68900Y141500D01*
X69300Y141900D01*
Y142300D01*
X68900D01*
X68500Y141900D01*
X68100Y142300D01*
X67700D01*
Y141900D01*
X68100Y141500D01*
X67700Y141100D01*
Y140700D01*
X68200Y113200D02*
X68600D01*
X69000Y113600D01*
X69400Y113200D01*
X69800D01*
Y113600D01*
X69400Y114000D01*
X69800Y114400D01*
Y114800D01*
X69400D01*
X69000Y114400D01*
X68600Y114800D01*
X68200D01*
Y114400D01*
X68600Y114000D01*
X68200Y113600D01*
Y113200D01*
X68700Y122200D02*
X69100D01*
X69500Y122600D01*
X69900Y122200D01*
X70300D01*
Y122600D01*
X69900Y123000D01*
X70300Y123400D01*
Y123800D01*
X69900D01*
X69500Y123400D01*
X69100Y123800D01*
X68700D01*
Y123400D01*
X69100Y123000D01*
X68700Y122600D01*
Y122200D01*
X72200Y117700D02*
X72600D01*
X73000Y118100D01*
X73400Y117700D01*
X73800D01*
Y118100D01*
X73400Y118500D01*
X73800Y118900D01*
Y119300D01*
X73400D01*
X73000Y118900D01*
X72600Y119300D01*
X72200D01*
Y118900D01*
X72600Y118500D01*
X72200Y118100D01*
Y117700D01*
X76200Y113200D02*
X76600D01*
X77000Y113600D01*
X77400Y113200D01*
X77800D01*
Y113600D01*
X77400Y114000D01*
X77800Y114400D01*
Y114800D01*
X77400D01*
X77000Y114400D01*
X76600Y114800D01*
X76200D01*
Y114400D01*
X76600Y114000D01*
X76200Y113600D01*
Y113200D01*
X70200Y130200D02*
X70600D01*
X71000Y130600D01*
X71400Y130200D01*
X71800D01*
Y130600D01*
X71400Y131000D01*
X71800Y131400D01*
Y131800D01*
X71400D01*
X71000Y131400D01*
X70600Y131800D01*
X70200D01*
Y131400D01*
X70600Y131000D01*
X70200Y130600D01*
Y130200D01*
X89200Y113200D02*
X89600D01*
X90000Y113600D01*
X90400Y113200D01*
X90800D01*
Y113600D01*
X90400Y114000D01*
X90800Y114400D01*
Y114800D01*
X90400D01*
X90000Y114400D01*
X89600Y114800D01*
X89200D01*
Y114400D01*
X89600Y114000D01*
X89200Y113600D01*
Y113200D01*
X84700D02*
X85100D01*
X85500Y113600D01*
X85900Y113200D01*
X86300D01*
Y113600D01*
X85900Y114000D01*
X86300Y114400D01*
Y114800D01*
X85900D01*
X85500Y114400D01*
X85100Y114800D01*
X84700D01*
Y114400D01*
X85100Y114000D01*
X84700Y113600D01*
Y113200D01*
X81200D02*
X81600D01*
X82000Y113600D01*
X82400Y113200D01*
X82800D01*
Y113600D01*
X82400Y114000D01*
X82800Y114400D01*
Y114800D01*
X82400D01*
X82000Y114400D01*
X81600Y114800D01*
X81200D01*
Y114400D01*
X81600Y114000D01*
X81200Y113600D01*
Y113200D01*
X61700Y89700D02*
X62100D01*
X62500Y90100D01*
X62900Y89700D01*
X63300D01*
Y90100D01*
X62900Y90500D01*
X63300Y90900D01*
Y91300D01*
X62900D01*
X62500Y90900D01*
X62100Y91300D01*
X61700D01*
Y90900D01*
X62100Y90500D01*
X61700Y90100D01*
Y89700D01*
X67700D02*
X68100D01*
X68500Y90100D01*
X68900Y89700D01*
X69300D01*
Y90100D01*
X68900Y90500D01*
X69300Y90900D01*
Y91300D01*
X68900D01*
X68500Y90900D01*
X68100Y91300D01*
X67700D01*
Y90900D01*
X68100Y90500D01*
X67700Y90100D01*
Y89700D01*
X165700Y142200D02*
X166100D01*
X166500Y142600D01*
X166900Y142200D01*
X167300D01*
Y142600D01*
X166900Y143000D01*
X167300Y143400D01*
Y143800D01*
X166900D01*
X166500Y143400D01*
X166100Y143800D01*
X165700D01*
Y143400D01*
X166100Y143000D01*
X165700Y142600D01*
Y142200D01*
X160700Y163200D02*
X161100D01*
X161500Y163600D01*
X161900Y163200D01*
X162300D01*
Y163600D01*
X161900Y164000D01*
X162300Y164400D01*
Y164800D01*
X161900D01*
X161500Y164400D01*
X161100Y164800D01*
X160700D01*
Y164400D01*
X161100Y164000D01*
X160700Y163600D01*
Y163200D01*
X208700Y130200D02*
X209100D01*
X209500Y130600D01*
X209900Y130200D01*
X210300D01*
Y130600D01*
X209900Y131000D01*
X210300Y131400D01*
Y131800D01*
X209900D01*
X209500Y131400D01*
X209100Y131800D01*
X208700D01*
Y131400D01*
X209100Y131000D01*
X208700Y130600D01*
Y130200D01*
X210724Y132224D02*
X211124D01*
X211524Y132624D01*
X211924Y132224D01*
X212324D01*
Y132624D01*
X211924Y133024D01*
X212324Y133424D01*
Y133824D01*
X211924D01*
X211524Y133424D01*
X211124Y133824D01*
X210724D01*
Y133424D01*
X211124Y133024D01*
X210724Y132624D01*
Y132224D01*
X213200Y134255D02*
X213600D01*
X214000Y134655D01*
X214400Y134255D01*
X214800D01*
Y134655D01*
X214400Y135055D01*
X214800Y135455D01*
Y135855D01*
X214400D01*
X214000Y135455D01*
X213600Y135855D01*
X213200D01*
Y135455D01*
X213600Y135055D01*
X213200Y134655D01*
Y134255D01*
X197200Y207200D02*
X197600D01*
X198000Y207600D01*
X198400Y207200D01*
X198800D01*
Y207600D01*
X198400Y208000D01*
X198800Y208400D01*
Y208800D01*
X198400D01*
X198000Y208400D01*
X197600Y208800D01*
X197200D01*
Y208400D01*
X197600Y208000D01*
X197200Y207600D01*
Y207200D01*
X194519Y187700D02*
X194919D01*
X195319Y188100D01*
X195719Y187700D01*
X196119D01*
Y188100D01*
X195719Y188500D01*
X196119Y188900D01*
Y189300D01*
X195719D01*
X195319Y188900D01*
X194919Y189300D01*
X194519D01*
Y188900D01*
X194919Y188500D01*
X194519Y188100D01*
Y187700D01*
X166200Y93381D02*
X166600D01*
X167000Y93781D01*
X167400Y93381D01*
X167800D01*
Y93781D01*
X167400Y94181D01*
X167800Y94581D01*
Y94981D01*
X167400D01*
X167000Y94581D01*
X166600Y94981D01*
X166200D01*
Y94581D01*
X166600Y94181D01*
X166200Y93781D01*
Y93381D01*
X145338Y109859D02*
X145738D01*
X146138Y110259D01*
X146538Y109859D01*
X146938D01*
Y110259D01*
X146538Y110659D01*
X146938Y111059D01*
Y111459D01*
X146538D01*
X146138Y111059D01*
X145738Y111459D01*
X145338D01*
Y111059D01*
X145738Y110659D01*
X145338Y110259D01*
Y109859D01*
X148019Y107560D02*
X148419D01*
X148819Y107960D01*
X149219Y107560D01*
X149619D01*
Y107960D01*
X149219Y108360D01*
X149619Y108760D01*
Y109160D01*
X149219D01*
X148819Y108760D01*
X148419Y109160D01*
X148019D01*
Y108760D01*
X148419Y108360D01*
X148019Y107960D01*
Y107560D01*
X154200Y163700D02*
X154600D01*
X155000Y164100D01*
X155400Y163700D01*
X155800D01*
Y164100D01*
X155400Y164500D01*
X155800Y164900D01*
Y165300D01*
X155400D01*
X155000Y164900D01*
X154600Y165300D01*
X154200D01*
Y164900D01*
X154600Y164500D01*
X154200Y164100D01*
Y163700D01*
X151200Y178200D02*
X151600D01*
X152000Y178600D01*
X152400Y178200D01*
X152800D01*
Y178600D01*
X152400Y179000D01*
X152800Y179400D01*
Y179800D01*
X152400D01*
X152000Y179400D01*
X151600Y179800D01*
X151200D01*
Y179400D01*
X151600Y179000D01*
X151200Y178600D01*
Y178200D01*
X163157Y171731D02*
X163557D01*
X163957Y172132D01*
X164357Y171731D01*
X164757D01*
Y172132D01*
X164357Y172531D01*
X164757Y172932D01*
Y173331D01*
X164357D01*
X163957Y172932D01*
X163557Y173331D01*
X163157D01*
Y172932D01*
X163557Y172531D01*
X163157Y172132D01*
Y171731D01*
X167519Y169200D02*
X167919D01*
X168319Y169600D01*
X168719Y169200D01*
X169119D01*
Y169600D01*
X168719Y170000D01*
X169119Y170400D01*
Y170800D01*
X168719D01*
X168319Y170400D01*
X167919Y170800D01*
X167519D01*
Y170400D01*
X167919Y170000D01*
X167519Y169600D01*
Y169200D01*
X170217Y160524D02*
X170617D01*
X171017Y160924D01*
X171417Y160524D01*
X171817D01*
Y160924D01*
X171417Y161325D01*
X171817Y161724D01*
Y162125D01*
X171417D01*
X171017Y161724D01*
X170617Y162125D01*
X170217D01*
Y161724D01*
X170617Y161325D01*
X170217Y160924D01*
Y160524D01*
X179700Y137700D02*
X180100D01*
X180500Y138100D01*
X180900Y137700D01*
X181300D01*
Y138100D01*
X180900Y138500D01*
X181300Y138900D01*
Y139300D01*
X180900D01*
X180500Y138900D01*
X180100Y139300D01*
X179700D01*
Y138900D01*
X180100Y138500D01*
X179700Y138100D01*
Y137700D01*
X188967Y166401D02*
X189367D01*
X189767Y166801D01*
X190167Y166401D01*
X190567D01*
Y166801D01*
X190167Y167201D01*
X190567Y167601D01*
Y168001D01*
X190167D01*
X189767Y167601D01*
X189367Y168001D01*
X188967D01*
Y167601D01*
X189367Y167201D01*
X188967Y166801D01*
Y166401D01*
X170216Y174397D02*
X170616D01*
X171016Y174797D01*
X171416Y174397D01*
X171816D01*
Y174797D01*
X171416Y175197D01*
X171816Y175597D01*
Y175997D01*
X171416D01*
X171016Y175597D01*
X170616Y175997D01*
X170216D01*
Y175597D01*
X170616Y175197D01*
X170216Y174797D01*
Y174397D01*
X133200Y141200D02*
X133600D01*
X134000Y141600D01*
X134400Y141200D01*
X134800D01*
Y141600D01*
X134400Y142000D01*
X134800Y142400D01*
Y142800D01*
X134400D01*
X134000Y142400D01*
X133600Y142800D01*
X133200D01*
Y142400D01*
X133600Y142000D01*
X133200Y141600D01*
Y141200D01*
X132700Y137700D02*
X133100D01*
X133500Y138100D01*
X133900Y137700D01*
X134300D01*
Y138100D01*
X133900Y138500D01*
X134300Y138900D01*
Y139300D01*
X133900D01*
X133500Y138900D01*
X133100Y139300D01*
X132700D01*
Y138900D01*
X133100Y138500D01*
X132700Y138100D01*
Y137700D01*
X139700Y144200D02*
X140100D01*
X140500Y144600D01*
X140900Y144200D01*
X141300D01*
Y144600D01*
X140900Y145000D01*
X141300Y145400D01*
Y145800D01*
X140900D01*
X140500Y145400D01*
X140100Y145800D01*
X139700D01*
Y145400D01*
X140100Y145000D01*
X139700Y144600D01*
Y144200D01*
X186200Y186700D02*
X186600D01*
X187000Y187100D01*
X187400Y186700D01*
X187800D01*
Y187100D01*
X187400Y187500D01*
X187800Y187900D01*
Y188300D01*
X187400D01*
X187000Y187900D01*
X186600Y188300D01*
X186200D01*
Y187900D01*
X186600Y187500D01*
X186200Y187100D01*
Y186700D01*
X230200Y165700D02*
X230600D01*
X231000Y166100D01*
X231400Y165700D01*
X231800D01*
Y166100D01*
X231400Y166500D01*
X231800Y166900D01*
Y167300D01*
X231400D01*
X231000Y166900D01*
X230600Y167300D01*
X230200D01*
Y166900D01*
X230600Y166500D01*
X230200Y166100D01*
Y165700D01*
X191342Y126200D02*
X191742D01*
X192142Y126600D01*
X192542Y126200D01*
X192942D01*
Y126600D01*
X192542Y127000D01*
X192942Y127400D01*
Y127800D01*
X192542D01*
X192142Y127400D01*
X191742Y127800D01*
X191342D01*
Y127400D01*
X191742Y127000D01*
X191342Y126600D01*
Y126200D01*
Y134700D02*
X191742D01*
X192142Y135100D01*
X192542Y134700D01*
X192942D01*
Y135100D01*
X192542Y135500D01*
X192942Y135900D01*
Y136300D01*
X192542D01*
X192142Y135900D01*
X191742Y136300D01*
X191342D01*
Y135900D01*
X191742Y135500D01*
X191342Y135100D01*
Y134700D01*
X191200Y91381D02*
X191600D01*
X192000Y91781D01*
X192400Y91381D01*
X192800D01*
Y91781D01*
X192400Y92181D01*
X192800Y92581D01*
Y92981D01*
X192400D01*
X192000Y92581D01*
X191600Y92981D01*
X191200D01*
Y92581D01*
X191600Y92181D01*
X191200Y91781D01*
Y91381D01*
X193700Y194200D02*
X194100D01*
X194500Y194600D01*
X194900Y194200D01*
X195300D01*
Y194600D01*
X194900Y195000D01*
X195300Y195400D01*
Y195800D01*
X194900D01*
X194500Y195400D01*
X194100Y195800D01*
X193700D01*
Y195400D01*
X194100Y195000D01*
X193700Y194600D01*
Y194200D01*
X172936Y195464D02*
X173336D01*
X173736Y195864D01*
X174136Y195464D01*
X174536D01*
Y195864D01*
X174136Y196264D01*
X174536Y196664D01*
Y197064D01*
X174136D01*
X173736Y196664D01*
X173336Y197064D01*
X172936D01*
Y196664D01*
X173336Y196264D01*
X172936Y195864D01*
Y195464D01*
X178410Y198700D02*
X178810D01*
X179210Y199100D01*
X179610Y198700D01*
X180010D01*
Y199100D01*
X179610Y199500D01*
X180010Y199900D01*
Y200300D01*
X179610D01*
X179210Y199900D01*
X178810Y200300D01*
X178410D01*
Y199900D01*
X178810Y199500D01*
X178410Y199100D01*
Y198700D01*
X193700Y219700D02*
X194100D01*
X194500Y220100D01*
X194900Y219700D01*
X195300D01*
Y220100D01*
X194900Y220500D01*
X195300Y220900D01*
Y221300D01*
X194900D01*
X194500Y220900D01*
X194100Y221300D01*
X193700D01*
Y220900D01*
X194100Y220500D01*
X193700Y220100D01*
Y219700D01*
X161014Y211514D02*
X161414D01*
X161814Y211914D01*
X162214Y211514D01*
X162614D01*
Y211914D01*
X162214Y212314D01*
X162614Y212714D01*
Y213114D01*
X162214D01*
X161814Y212714D01*
X161414Y213114D01*
X161014D01*
Y212714D01*
X161414Y212314D01*
X161014Y211914D01*
Y211514D01*
X154359Y214457D02*
X154759D01*
X155159Y214857D01*
X155559Y214457D01*
X155959D01*
Y214857D01*
X155559Y215257D01*
X155959Y215657D01*
Y216057D01*
X155559D01*
X155159Y215657D01*
X154759Y216057D01*
X154359D01*
Y215657D01*
X154759Y215257D01*
X154359Y214857D01*
Y214457D01*
X149012Y207512D02*
X149413D01*
X149812Y207912D01*
X150213Y207512D01*
X150612D01*
Y207912D01*
X150213Y208313D01*
X150612Y208713D01*
Y209113D01*
X150213D01*
X149812Y208713D01*
X149413Y209113D01*
X149012D01*
Y208713D01*
X149413Y208313D01*
X149012Y207912D01*
Y207512D01*
X140602Y196200D02*
X141002D01*
X141402Y196600D01*
X141802Y196200D01*
X142202D01*
Y196600D01*
X141802Y197000D01*
X142202Y197400D01*
Y197800D01*
X141802D01*
X141402Y197400D01*
X141002Y197800D01*
X140602D01*
Y197400D01*
X141002Y197000D01*
X140602Y196600D01*
Y196200D01*
X140700Y192200D02*
X141100D01*
X141500Y192600D01*
X141900Y192200D01*
X142300D01*
Y192600D01*
X141900Y193000D01*
X142300Y193400D01*
Y193800D01*
X141900D01*
X141500Y193400D01*
X141100Y193800D01*
X140700D01*
Y193400D01*
X141100Y193000D01*
X140700Y192600D01*
Y192200D01*
X197200Y167700D02*
X197600D01*
X198000Y168100D01*
X198400Y167700D01*
X198800D01*
Y168100D01*
X198400Y168500D01*
X198800Y168900D01*
Y169300D01*
X198400D01*
X198000Y168900D01*
X197600Y169300D01*
X197200D01*
Y168900D01*
X197600Y168500D01*
X197200Y168100D01*
Y167700D01*
X215200Y160910D02*
X215600D01*
X216000Y161310D01*
X216400Y160910D01*
X216800D01*
Y161310D01*
X216400Y161710D01*
X216800Y162110D01*
Y162510D01*
X216400D01*
X216000Y162110D01*
X215600Y162510D01*
X215200D01*
Y162110D01*
X215600Y161710D01*
X215200Y161310D01*
Y160910D01*
X95200Y180200D02*
X95600D01*
X96000Y180600D01*
X96400Y180200D01*
X96800D01*
Y180600D01*
X96400Y181000D01*
X96800Y181400D01*
Y181800D01*
X96400D01*
X96000Y181400D01*
X95600Y181800D01*
X95200D01*
Y181400D01*
X95600Y181000D01*
X95200Y180600D01*
Y180200D01*
X73700Y153700D02*
X74100D01*
X74500Y154100D01*
X74900Y153700D01*
X75300D01*
Y154100D01*
X74900Y154500D01*
X75300Y154900D01*
Y155300D01*
X74900D01*
X74500Y154900D01*
X74100Y155300D01*
X73700D01*
Y154900D01*
X74100Y154500D01*
X73700Y154100D01*
Y153700D01*
X115200Y44700D02*
X115600D01*
X116000Y45100D01*
X116400Y44700D01*
X116800D01*
Y45100D01*
X116400Y45500D01*
X116800Y45900D01*
Y46300D01*
X116400D01*
X116000Y45900D01*
X115600Y46300D01*
X115200D01*
Y45900D01*
X115600Y45500D01*
X115200Y45100D01*
Y44700D01*
X231700Y142200D02*
X232100D01*
X232500Y142600D01*
X232900Y142200D01*
X233300D01*
Y142600D01*
X232900Y143000D01*
X233300Y143400D01*
Y143800D01*
X232900D01*
X232500Y143400D01*
X232100Y143800D01*
X231700D01*
Y143400D01*
X232100Y143000D01*
X231700Y142600D01*
Y142200D01*
X208200Y136200D02*
X208600D01*
X209000Y136600D01*
X209400Y136200D01*
X209800D01*
Y136600D01*
X209400Y137000D01*
X209800Y137400D01*
Y137800D01*
X209400D01*
X209000Y137400D01*
X208600Y137800D01*
X208200D01*
Y137400D01*
X208600Y137000D01*
X208200Y136600D01*
Y136200D01*
X112200Y179266D02*
X112600D01*
X113000Y179666D01*
X113400Y179266D01*
X113800D01*
Y179666D01*
X113400Y180066D01*
X113800Y180466D01*
Y180866D01*
X113400D01*
X113000Y180466D01*
X112600Y180866D01*
X112200D01*
Y180466D01*
X112600Y180066D01*
X112200Y179666D01*
Y179266D01*
X185200Y74200D02*
X185600D01*
X186000Y74600D01*
X186400Y74200D01*
X186800D01*
Y74600D01*
X186400Y75000D01*
X186800Y75400D01*
Y75800D01*
X186400D01*
X186000Y75400D01*
X185600Y75800D01*
X185200D01*
Y75400D01*
X185600Y75000D01*
X185200Y74600D01*
Y74200D01*
X151700Y186519D02*
X152100D01*
X152500Y186919D01*
X152900Y186519D01*
X153300D01*
Y186919D01*
X152900Y187319D01*
X153300Y187719D01*
Y188119D01*
X152900D01*
X152500Y187719D01*
X152100Y188119D01*
X151700D01*
Y187719D01*
X152100Y187319D01*
X151700Y186919D01*
Y186519D01*
X171972Y215519D02*
X172372D01*
X172772Y215919D01*
X173172Y215519D01*
X173572D01*
Y215919D01*
X173172Y216319D01*
X173572Y216719D01*
Y217119D01*
X173172D01*
X172772Y216719D01*
X172372Y217119D01*
X171972D01*
Y216719D01*
X172372Y216319D01*
X171972Y215919D01*
Y215519D01*
X88700Y177200D02*
X89100D01*
X89500Y177600D01*
X89900Y177200D01*
X90300D01*
Y177600D01*
X89900Y178000D01*
X90300Y178400D01*
Y178800D01*
X89900D01*
X89500Y178400D01*
X89100Y178800D01*
X88700D01*
Y178400D01*
X89100Y178000D01*
X88700Y177600D01*
Y177200D01*
X204200Y126200D02*
X204600D01*
X205000Y126600D01*
X205400Y126200D01*
X205800D01*
Y126600D01*
X205400Y127000D01*
X205800Y127400D01*
Y127800D01*
X205400D01*
X205000Y127400D01*
X204600Y127800D01*
X204200D01*
Y127400D01*
X204600Y127000D01*
X204200Y126600D01*
Y126200D01*
X187405Y153700D02*
X187805D01*
X188205Y154100D01*
X188605Y153700D01*
X189005D01*
Y154100D01*
X188605Y154500D01*
X189005Y154900D01*
Y155300D01*
X188605D01*
X188205Y154900D01*
X187805Y155300D01*
X187405D01*
Y154900D01*
X187805Y154500D01*
X187405Y154100D01*
Y153700D01*
X179200Y113700D02*
X179600D01*
X180000Y114100D01*
X180400Y113700D01*
X180800D01*
Y114100D01*
X180400Y114500D01*
X180800Y114900D01*
Y115300D01*
X180400D01*
X180000Y114900D01*
X179600Y115300D01*
X179200D01*
Y114900D01*
X179600Y114500D01*
X179200Y114100D01*
Y113700D01*
X238200Y147200D02*
X238600D01*
X239000Y147600D01*
X239400Y147200D01*
X239800D01*
Y147600D01*
X239400Y148000D01*
X239800Y148400D01*
Y148800D01*
X239400D01*
X239000Y148400D01*
X238600Y148800D01*
X238200D01*
Y148400D01*
X238600Y148000D01*
X238200Y147600D01*
Y147200D01*
X145700Y179200D02*
X146100D01*
X146500Y179600D01*
X146900Y179200D01*
X147300D01*
Y179600D01*
X146900Y180000D01*
X147300Y180400D01*
Y180800D01*
X146900D01*
X146500Y180400D01*
X146100Y180800D01*
X145700D01*
Y180400D01*
X146100Y180000D01*
X145700Y179600D01*
Y179200D01*
X133700Y122700D02*
X134100D01*
X134500Y123100D01*
X134900Y122700D01*
X135300D01*
Y123100D01*
X134900Y123500D01*
X135300Y123900D01*
Y124300D01*
X134900D01*
X134500Y123900D01*
X134100Y124300D01*
X133700D01*
Y123900D01*
X134100Y123500D01*
X133700Y123100D01*
Y122700D01*
X135007Y60437D02*
X135807Y61237D01*
X136607Y60437D01*
X135807Y59637D01*
X135007Y60437D01*
X136976Y57484D02*
X137776Y58284D01*
X138576Y57484D01*
X137776Y56684D01*
X136976Y57484D01*
X133039D02*
X133839Y58284D01*
X134639Y57484D01*
X133839Y56684D01*
X133039Y57484D01*
Y63390D02*
X133839Y64190D01*
X134639Y63390D01*
X133839Y62590D01*
X133039Y63390D01*
X136976D02*
X137776Y64190D01*
X138576Y63390D01*
X137776Y62590D01*
X136976Y63390D01*
D147*
X113280Y30315D02*
X112728Y31076D01*
X111833Y30785D01*
Y29845D01*
X112728Y29554D01*
X113280Y30315D01*
X143280D02*
X142728Y31076D01*
X141833Y30785D01*
Y29845D01*
X142728Y29554D01*
X143280Y30315D01*
X153280D02*
X152728Y31076D01*
X151833Y30785D01*
Y29845D01*
X152728Y29554D01*
X153280Y30315D01*
X163280D02*
X162728Y31076D01*
X161833Y30785D01*
Y29845D01*
X162728Y29554D01*
X163280Y30315D01*
X123280D02*
X122728Y31076D01*
X121833Y30785D01*
Y29845D01*
X122728Y29554D01*
X123280Y30315D01*
X133280D02*
X132728Y31076D01*
X131833Y30785D01*
Y29845D01*
X132728Y29554D01*
X133280Y30315D01*
M02*
