G04*
G04 #@! TF.GenerationSoftware,Altium Limited,Altium Designer,22.3.1 (43)*
G04*
G04 Layer_Color=32768*
%FSLAX25Y25*%
%MOIN*%
G70*
G04*
G04 #@! TF.SameCoordinates,81C90355-7C20-497C-A289-08F7F31E86F5*
G04*
G04*
G04 #@! TF.FilePolarity,Positive*
G04*
G01*
G75*
%ADD11C,0.00394*%
%ADD16C,0.00600*%
%ADD144C,0.00197*%
D11*
X136579Y214276D02*
Y218213D01*
X134610Y216244D02*
X138547D01*
X209108Y66392D02*
X211892Y63608D01*
X209108D02*
X211892Y66392D01*
X105819Y245500D02*
X108181D01*
X107000Y244319D02*
Y246681D01*
X101094Y243138D02*
Y247862D01*
X112906D01*
Y243138D02*
Y247862D01*
X101094Y243138D02*
X112906D01*
X257583Y117323D02*
Y158268D01*
X228842D02*
X257583D01*
X228842Y117323D02*
X257583D01*
X228842D02*
Y158268D01*
X152165Y57303D02*
Y61240D01*
X150197Y59272D02*
X154134D01*
X86319Y136500D02*
X88681D01*
X87500Y135319D02*
Y137681D01*
X93406Y134138D02*
Y138862D01*
X81594D02*
X93406D01*
X81594Y134138D02*
X93406D01*
X81594D02*
Y138862D01*
X118032Y66000D02*
X121969D01*
X120000Y64032D02*
Y67969D01*
X114862Y36594D02*
Y48406D01*
X110138D02*
X114862D01*
X110138Y36594D02*
Y48406D01*
Y36594D02*
X114862D01*
X111319Y42500D02*
X113681D01*
X112500Y41319D02*
Y43681D01*
X205913Y180850D02*
Y187150D01*
Y180850D02*
X220087D01*
Y187150D01*
X205913D02*
X220087D01*
X213000Y182032D02*
Y185969D01*
X211032Y184000D02*
X214969D01*
X205913Y174350D02*
Y180650D01*
Y174350D02*
X220087D01*
Y180650D01*
X205913D02*
X220087D01*
X213000Y175532D02*
Y179469D01*
X211032Y177500D02*
X214969D01*
X204094Y184362D02*
X215906D01*
X204094Y179638D02*
Y184362D01*
Y179638D02*
X215906D01*
Y184362D01*
X210000Y180819D02*
Y183181D01*
X208819Y182000D02*
X211181D01*
X204094Y178862D02*
X215906D01*
X204094Y174138D02*
Y178862D01*
Y174138D02*
X215906D01*
Y178862D01*
X210000Y175319D02*
Y177681D01*
X208819Y176500D02*
X211181D01*
X205913Y187350D02*
Y193650D01*
Y187350D02*
X220087D01*
Y193650D01*
X205913D02*
X220087D01*
X213000Y188532D02*
Y192469D01*
X211032Y190500D02*
X214969D01*
X204094Y189862D02*
X215906D01*
X204094Y185138D02*
Y189862D01*
Y185138D02*
X215906D01*
Y189862D01*
X210000Y186319D02*
Y188681D01*
X208819Y187500D02*
X211181D01*
X204094Y195362D02*
X215906D01*
X204094Y190638D02*
Y195362D01*
Y190638D02*
X215906D01*
Y195362D01*
X210000Y191819D02*
Y194181D01*
X208819Y193000D02*
X211181D01*
X204094Y200862D02*
X215906D01*
X204094Y196138D02*
Y200862D01*
Y196138D02*
X215906D01*
Y200862D01*
X210000Y197319D02*
Y199681D01*
X208819Y198500D02*
X211181D01*
X193138Y175094D02*
Y186906D01*
Y175094D02*
X197862D01*
Y186906D01*
X193138D02*
X197862D01*
X194319Y181000D02*
X196681D01*
X195500Y179819D02*
Y182181D01*
X188362Y202358D02*
Y214169D01*
X183638D02*
X188362D01*
X183638Y202358D02*
Y214169D01*
Y202358D02*
X188362D01*
X184819Y208264D02*
X187181D01*
X186000Y207083D02*
Y209445D01*
X151819Y226000D02*
X154181D01*
X153000Y224819D02*
Y227181D01*
X158906Y223638D02*
Y228362D01*
X147094Y223638D02*
X158906D01*
X147094D02*
Y228362D01*
X158906D01*
X106138Y224094D02*
Y235906D01*
Y224094D02*
X110862D01*
Y235906D01*
X106138D02*
X110862D01*
X107319Y230000D02*
X109681D01*
X108500Y228819D02*
Y231181D01*
X191594Y198638D02*
X203406D01*
Y203362D01*
X191594D02*
X203406D01*
X191594Y198638D02*
Y203362D01*
X197500Y199819D02*
Y202181D01*
X196319Y201000D02*
X198681D01*
X187307Y66020D02*
Y80980D01*
Y66020D02*
X200693D01*
Y80980D01*
X187307D02*
X200693D01*
X192032Y73500D02*
X195969D01*
X194000Y71531D02*
Y75468D01*
X157594Y180362D02*
X169406D01*
Y175638D02*
Y180362D01*
X157594Y175638D02*
X169406D01*
X157594D02*
Y180362D01*
X163500Y176819D02*
Y179181D01*
X162319Y178000D02*
X164681D01*
X98862Y223094D02*
Y234906D01*
X94138D02*
X98862D01*
X94138Y223094D02*
Y234906D01*
Y223094D02*
X98862D01*
X95319Y229000D02*
X97681D01*
X96500Y227819D02*
Y230181D01*
X169291Y110236D02*
X224409D01*
Y165354D01*
X169291D02*
X224409D01*
X169291Y110236D02*
Y165354D01*
X187008Y137795D02*
X206693D01*
X196850Y127953D02*
Y147638D01*
X137795Y127953D02*
Y147638D01*
X127953Y137795D02*
X147638D01*
X163780Y111811D02*
Y163780D01*
X111811Y111811D02*
X163780D01*
X111811D02*
Y163780D01*
X163780D01*
X184098Y83043D02*
X188035D01*
X186067Y81075D02*
Y85012D01*
X147000Y196016D02*
Y197984D01*
X146016Y197000D02*
X147984D01*
X162319Y189272D02*
X164681D01*
X163500Y188091D02*
Y190453D01*
X169406Y186909D02*
Y191634D01*
X157594D02*
X169406D01*
X157594Y186909D02*
Y191634D01*
Y186909D02*
X169406D01*
X162319Y184000D02*
X164681D01*
X163500Y182819D02*
Y185181D01*
X169406Y181638D02*
Y186362D01*
X157594D02*
X169406D01*
X157594Y181638D02*
Y186362D01*
Y181638D02*
X169406D01*
X147000Y192016D02*
Y193984D01*
X146016Y193000D02*
X147984D01*
X65500Y84728D02*
Y88272D01*
X63728Y86500D02*
X67272D01*
X210000Y214228D02*
Y217772D01*
X208228Y216000D02*
X211772D01*
X158500Y44532D02*
Y48469D01*
X156531Y46500D02*
X160469D01*
X208819Y171000D02*
X211181D01*
X210000Y169819D02*
Y172181D01*
X215906Y168638D02*
Y173362D01*
X204094Y168638D02*
X215906D01*
X204094D02*
Y173362D01*
X215906D01*
X86319Y142000D02*
X88681D01*
X87500Y140819D02*
Y143181D01*
X81594Y139638D02*
Y144362D01*
X93406D01*
Y139638D02*
Y144362D01*
X81594Y139638D02*
X93406D01*
X208819Y204000D02*
X211181D01*
X210000Y202819D02*
Y205181D01*
X215906Y201638D02*
Y206362D01*
X204094Y201638D02*
X215906D01*
X204094D02*
Y206362D01*
X215906D01*
X86319Y125500D02*
X88681D01*
X87500Y124319D02*
Y126681D01*
X81594Y123138D02*
Y127862D01*
X93406D01*
Y123138D02*
Y127862D01*
X81594Y123138D02*
X93406D01*
X86319Y131000D02*
X88681D01*
X87500Y129819D02*
Y132181D01*
X81594Y128638D02*
Y133362D01*
X93406D01*
Y128638D02*
Y133362D01*
X81594Y128638D02*
X93406D01*
X151819Y231000D02*
X154181D01*
X153000Y229819D02*
Y232181D01*
X158906Y228638D02*
Y233362D01*
X147094Y228638D02*
X158906D01*
X147094D02*
Y233362D01*
X158906D01*
X151819Y236000D02*
X154181D01*
X153000Y234819D02*
Y237181D01*
X158906Y233638D02*
Y238362D01*
X147094Y233638D02*
X158906D01*
X147094D02*
Y238362D01*
X158906D01*
X118500Y228819D02*
Y231181D01*
X117319Y230000D02*
X119681D01*
X116138Y235906D02*
X120862D01*
Y224094D02*
Y235906D01*
X116138Y224094D02*
X120862D01*
X116138D02*
Y235906D01*
X113500Y228819D02*
Y231181D01*
X112319Y230000D02*
X114681D01*
X111138Y235906D02*
X115862D01*
Y224094D02*
Y235906D01*
X111138Y224094D02*
X115862D01*
X111138D02*
Y235906D01*
X208819Y209500D02*
X211181D01*
X210000Y208319D02*
Y210681D01*
X215906Y207138D02*
Y211862D01*
X204094Y207138D02*
X215906D01*
X204094D02*
Y211862D01*
X215906D01*
X114170Y221000D02*
X116532D01*
X115350Y219819D02*
Y222181D01*
X109445Y218638D02*
Y223362D01*
X121256D01*
Y218638D02*
Y223362D01*
X109445Y218638D02*
X121256D01*
X114170Y216000D02*
X116532D01*
X115350Y214819D02*
Y217181D01*
X109445Y213638D02*
Y218362D01*
X121256D01*
Y213638D02*
Y218362D01*
X109445Y213638D02*
X121256D01*
X82500Y218319D02*
Y220681D01*
X81319Y219500D02*
X83681D01*
X80138Y213594D02*
X84862D01*
X80138D02*
Y225406D01*
X84862D01*
Y213594D02*
Y225406D01*
X82500Y205319D02*
Y207681D01*
X81319Y206500D02*
X83681D01*
X80138Y212406D02*
X84862D01*
Y200594D02*
Y212406D01*
X80138Y200594D02*
X84862D01*
X80138D02*
Y212406D01*
X97819Y205000D02*
X100181D01*
X99000Y203819D02*
Y206181D01*
X93094Y202638D02*
Y207362D01*
X104906D01*
Y202638D02*
Y207362D01*
X93094Y202638D02*
X104906D01*
X69000Y219319D02*
Y221681D01*
X67819Y220500D02*
X70181D01*
X66638Y214594D02*
X71362D01*
X66638D02*
Y226406D01*
X71362D01*
Y214594D02*
Y226406D01*
X64319Y212500D02*
X66681D01*
X65500Y211319D02*
Y213681D01*
X71406Y210138D02*
Y214862D01*
X59594Y210138D02*
X71406D01*
X59594D02*
Y214862D01*
X71406D01*
X64319Y207500D02*
X66681D01*
X65500Y206319D02*
Y208681D01*
X71406Y205138D02*
Y209862D01*
X59594Y205138D02*
X71406D01*
X59594D02*
Y209862D01*
X71406D01*
X50500Y203319D02*
Y205681D01*
X49319Y204500D02*
X51681D01*
X48138Y210406D02*
X52862D01*
Y198594D02*
Y210406D01*
X48138Y198594D02*
X52862D01*
X48138D02*
Y210406D01*
X64319Y202000D02*
X66681D01*
X65500Y200819D02*
Y203181D01*
X59594Y199638D02*
Y204362D01*
X71406D01*
Y199638D02*
Y204362D01*
X59594Y199638D02*
X71406D01*
X44819Y195500D02*
X47181D01*
X46000Y194319D02*
Y196681D01*
X51906Y193138D02*
Y197862D01*
X40094Y193138D02*
X51906D01*
X40094D02*
Y197862D01*
X51906D01*
X167063Y206000D02*
X174937D01*
X171000Y202063D02*
Y209937D01*
X163126Y213874D02*
X178874D01*
X163126Y198126D02*
Y213874D01*
Y198126D02*
X178874D01*
Y213874D01*
X63630Y95000D02*
X67370D01*
X65500Y93130D02*
Y96870D01*
X123000Y186130D02*
Y189870D01*
X121130Y188000D02*
X124870D01*
X228594Y158138D02*
X240406D01*
X228594D02*
Y162862D01*
X240406D01*
Y158138D02*
Y162862D01*
X234500Y159319D02*
Y161681D01*
X233319Y160500D02*
X235681D01*
X229000Y150319D02*
Y152681D01*
X227819Y151500D02*
X230181D01*
X226638Y145594D02*
X231362D01*
Y157406D01*
X226638D02*
X231362D01*
X226638Y145594D02*
Y157406D01*
X186819Y151500D02*
X189181D01*
X188000Y150319D02*
Y152681D01*
X182094Y149138D02*
Y153862D01*
X193906D01*
Y149138D02*
Y153862D01*
X182094Y149138D02*
X193906D01*
X184500Y140819D02*
Y143181D01*
X183319Y142000D02*
X185681D01*
X182138Y147906D02*
X186862D01*
Y136094D02*
Y147906D01*
X182138Y136094D02*
X186862D01*
X182138D02*
Y147906D01*
X86319Y119000D02*
X88681D01*
X87500Y117819D02*
Y120181D01*
X93406Y116638D02*
Y121362D01*
X81594Y116638D02*
X93406D01*
X81594D02*
Y121362D01*
X93406D01*
X169319Y78000D02*
X171681D01*
X170500Y76819D02*
Y79181D01*
X164594Y75638D02*
Y80362D01*
X176406D01*
Y75638D02*
Y80362D01*
X164594Y75638D02*
X176406D01*
X187000Y177319D02*
Y179681D01*
X185819Y178500D02*
X188181D01*
X184638Y184406D02*
X189362D01*
X184638Y172594D02*
Y184406D01*
Y172594D02*
X189362D01*
Y184406D01*
X170000Y236319D02*
Y238681D01*
X168819Y237500D02*
X171181D01*
X167638Y243406D02*
X172362D01*
Y231594D02*
Y243406D01*
X167638Y231594D02*
X172362D01*
X167638D02*
Y243406D01*
X114170Y211000D02*
X116532D01*
X115350Y209819D02*
Y212181D01*
X109445Y208638D02*
Y213362D01*
X121256D01*
Y208638D02*
Y213362D01*
X109445Y208638D02*
X121256D01*
X110819Y200500D02*
X113181D01*
X112000Y199319D02*
Y201681D01*
X106094Y198138D02*
Y202862D01*
X117906D01*
Y198138D02*
Y202862D01*
X106094Y198138D02*
X117906D01*
X77819Y195500D02*
X80181D01*
X79000Y194319D02*
Y196681D01*
X73094Y193138D02*
Y197862D01*
X84906D01*
Y193138D02*
Y197862D01*
X73094Y193138D02*
X84906D01*
X64819Y192500D02*
X67181D01*
X66000Y191319D02*
Y193681D01*
X60094Y190138D02*
Y194862D01*
X71906D01*
Y190138D02*
Y194862D01*
X60094Y190138D02*
X71906D01*
X157500Y206319D02*
Y208681D01*
X156319Y207500D02*
X158681D01*
X155138Y201594D02*
X159862D01*
Y213406D01*
X155138D02*
X159862D01*
X155138Y201594D02*
Y213406D01*
X84532Y158500D02*
X88469D01*
X86500Y156531D02*
Y160469D01*
D16*
X99000Y208000D02*
X106000D01*
Y235000D01*
X99000D02*
X106000D01*
X99000Y208000D02*
Y235000D01*
X100000Y243000D02*
X127000D01*
Y236000D02*
Y243000D01*
X100000Y236000D02*
X127000D01*
X100000D02*
Y243000D01*
X85631Y199000D02*
X92631D01*
Y226000D01*
X85631D02*
X92631D01*
X85631Y199000D02*
Y226000D01*
X72000Y199000D02*
X79000D01*
Y226000D01*
X72000D02*
X79000D01*
X72000Y199000D02*
Y226000D01*
X52500Y189500D02*
Y216500D01*
X59500D01*
Y189500D02*
Y216500D01*
X52500Y189500D02*
X59500D01*
X166500Y217500D02*
Y244500D01*
X159500Y217500D02*
X166500D01*
X159500D02*
Y244500D01*
X166500D01*
D144*
X124768Y228055D02*
X148390D01*
X124768Y204433D02*
X148390D01*
Y228055D01*
X124768Y204433D02*
Y228055D01*
X195955Y60338D02*
X215164Y79547D01*
X195955Y60338D02*
X206673Y49620D01*
X215164Y79547D02*
X225883Y68828D01*
X206673Y49619D02*
X225882Y68827D01*
X158465Y52579D02*
Y65965D01*
X145866D02*
X158465D01*
X145866Y52579D02*
X158465D01*
X145866D02*
Y65965D01*
X113701Y59307D02*
Y72693D01*
X126299D01*
Y59307D02*
Y72693D01*
X113701Y59307D02*
X126299D01*
X159693Y57169D02*
X175441D01*
X159693Y72917D02*
X175441D01*
Y57169D02*
Y72917D01*
X159693Y57169D02*
Y72917D01*
X197090Y77335D02*
Y88752D01*
X175043Y77335D02*
Y88752D01*
Y77335D02*
X197090D01*
X175043Y88752D02*
X197090D01*
X150634Y195524D02*
Y198476D01*
X143827D02*
X150634D01*
X143827Y195524D02*
X150634D01*
X143827D02*
Y198476D01*
X150634Y191524D02*
Y194476D01*
X143827D02*
X150634D01*
X143827Y191524D02*
X150634D01*
X143827D02*
Y194476D01*
X58807Y82366D02*
X72193D01*
X58807Y90634D02*
X72193D01*
Y82366D02*
Y90634D01*
X58807Y82366D02*
Y90634D01*
X203307Y211866D02*
X216693D01*
X203307Y220134D02*
X216693D01*
X203307Y211866D02*
Y220134D01*
X216693Y211866D02*
Y220134D01*
X147476Y40791D02*
X169524D01*
X147476Y52209D02*
X169524D01*
X147476Y40791D02*
Y52209D01*
X169524Y40791D02*
Y52209D01*
X72193Y90866D02*
Y99134D01*
X58807Y90866D02*
Y99134D01*
Y90866D02*
X72193D01*
X58807Y99134D02*
X72193D01*
X118866Y181307D02*
X127134D01*
X118866Y194693D02*
X127134D01*
X118866Y181307D02*
Y194693D01*
X127134Y181307D02*
Y194693D01*
X127933Y52563D02*
Y68311D01*
X143681Y52563D02*
Y68311D01*
X127933Y52563D02*
X143681D01*
X127933Y68311D02*
X143681D01*
X79610Y152201D02*
Y164799D01*
X93390Y152201D02*
Y164799D01*
X79610Y152201D02*
X93390D01*
X79610Y164799D02*
X93390D01*
M02*
