G04*
G04 #@! TF.GenerationSoftware,Altium Limited,Altium Designer,22.3.1 (43)*
G04*
G04 Layer_Color=16711935*
%FSLAX25Y25*%
%MOIN*%
G70*
G04*
G04 #@! TF.SameCoordinates,81C90355-7C20-497C-A289-08F7F31E86F5*
G04*
G04*
G04 #@! TF.FilePolarity,Negative*
G04*
G01*
G75*
%ADD39R,0.03740X0.06693*%
%ADD50R,0.11221X0.04528*%
G04:AMPARAMS|DCode=52|XSize=16.54mil|YSize=38.98mil|CornerRadius=4.74mil|HoleSize=0mil|Usage=FLASHONLY|Rotation=90.000|XOffset=0mil|YOffset=0mil|HoleType=Round|Shape=RoundedRectangle|*
%AMROUNDEDRECTD52*
21,1,0.01654,0.02950,0,0,90.0*
21,1,0.00706,0.03898,0,0,90.0*
1,1,0.00948,0.01475,0.00353*
1,1,0.00948,0.01475,-0.00353*
1,1,0.00948,-0.01475,-0.00353*
1,1,0.00948,-0.01475,0.00353*
%
%ADD52ROUNDEDRECTD52*%
G04:AMPARAMS|DCode=53|XSize=70.47mil|YSize=100mil|CornerRadius=4.71mil|HoleSize=0mil|Usage=FLASHONLY|Rotation=0.000|XOffset=0mil|YOffset=0mil|HoleType=Round|Shape=RoundedRectangle|*
%AMROUNDEDRECTD53*
21,1,0.07047,0.09059,0,0,0.0*
21,1,0.06106,0.10000,0,0,0.0*
1,1,0.00941,0.03053,-0.04530*
1,1,0.00941,-0.03053,-0.04530*
1,1,0.00941,-0.03053,0.04530*
1,1,0.00941,0.03053,0.04530*
%
%ADD53ROUNDEDRECTD53*%
%ADD55R,0.04134X0.04134*%
%ADD59R,0.05906X0.08071*%
%ADD60R,0.04331X0.04724*%
%ADD63R,0.04134X0.04134*%
%ADD65R,0.06496X0.06496*%
%ADD66C,0.08858*%
G04:AMPARAMS|DCode=67|XSize=55.12mil|YSize=55.12mil|CornerRadius=15.26mil|HoleSize=0mil|Usage=FLASHONLY|Rotation=180.000|XOffset=0mil|YOffset=0mil|HoleType=Round|Shape=RoundedRectangle|*
%AMROUNDEDRECTD67*
21,1,0.05512,0.02461,0,0,180.0*
21,1,0.02461,0.05512,0,0,180.0*
1,1,0.03051,-0.01230,0.01230*
1,1,0.03051,0.01230,0.01230*
1,1,0.03051,0.01230,-0.01230*
1,1,0.03051,-0.01230,-0.01230*
%
%ADD67ROUNDEDRECTD67*%
%ADD68R,0.05512X0.05512*%
%ADD69C,0.04600*%
%ADD70R,0.06496X0.06496*%
%ADD71C,0.06496*%
%ADD72P,0.09187X4X178.0*%
%ADD73C,0.16732*%
%ADD74C,0.08465*%
%ADD75C,0.02953*%
%ADD76C,0.02559*%
%ADD102R,0.02423X0.02254*%
%ADD109R,0.02559X0.02756*%
G04:AMPARAMS|DCode=122|XSize=17.72mil|YSize=33.47mil|CornerRadius=0mil|HoleSize=0mil|Usage=FLASHONLY|Rotation=225.000|XOffset=0mil|YOffset=0mil|HoleType=Round|Shape=Rectangle|*
%AMROTATEDRECTD122*
4,1,4,-0.00557,0.01810,0.01810,-0.00557,0.00557,-0.01810,-0.01810,0.00557,-0.00557,0.01810,0.0*
%
%ADD122ROTATEDRECTD122*%

G04:AMPARAMS|DCode=123|XSize=17.72mil|YSize=45.28mil|CornerRadius=0mil|HoleSize=0mil|Usage=FLASHONLY|Rotation=225.000|XOffset=0mil|YOffset=0mil|HoleType=Round|Shape=Rectangle|*
%AMROTATEDRECTD123*
4,1,4,-0.00974,0.02227,0.02227,-0.00974,0.00974,-0.02227,-0.02227,0.00974,-0.00974,0.02227,0.0*
%
%ADD123ROTATEDRECTD123*%

%ADD124R,0.03347X0.04528*%
%ADD125R,0.02559X0.08268*%
%ADD126R,0.02559X0.04528*%
G04:AMPARAMS|DCode=127|XSize=25.59mil|YSize=108.27mil|CornerRadius=0mil|HoleSize=0mil|Usage=FLASHONLY|Rotation=180.000|XOffset=0mil|YOffset=0mil|HoleType=Round|Shape=Octagon|*
%AMOCTAGOND127*
4,1,8,0.00640,-0.05413,-0.00640,-0.05413,-0.01280,-0.04774,-0.01280,0.04774,-0.00640,0.05413,0.00640,0.05413,0.01280,0.04774,0.01280,-0.04774,0.00640,-0.05413,0.0*
%
%ADD127OCTAGOND127*%

%ADD128R,0.08268X0.02559*%
%ADD129R,0.04528X0.02559*%
%ADD130R,0.01378X0.01968*%
%ADD131R,0.07087X0.07087*%
%ADD132R,0.01378X0.03543*%
%ADD133R,0.03543X0.01378*%
%ADD134R,0.01968X0.01378*%
G04:AMPARAMS|DCode=135|XSize=13.78mil|YSize=19.68mil|CornerRadius=0mil|HoleSize=0mil|Usage=FLASHONLY|Rotation=90.000|XOffset=0mil|YOffset=0mil|HoleType=Round|Shape=Octagon|*
%AMOCTAGOND135*
4,1,8,-0.00984,-0.00345,-0.00984,0.00345,-0.00640,0.00689,0.00640,0.00689,0.00984,0.00345,0.00984,-0.00345,0.00640,-0.00689,-0.00640,-0.00689,-0.00984,-0.00345,0.0*
%
%ADD135OCTAGOND135*%

%ADD136R,0.04134X0.03150*%
%ADD137R,0.01693X0.03346*%
%ADD138R,0.01693X0.03347*%
G36*
X121480Y120314D02*
X121503Y120312D01*
X121503Y120312D01*
X121504Y120312D01*
X121527Y120307D01*
X121548Y120301D01*
X121549Y120301D01*
X121549Y120301D01*
X121572Y120291D01*
X121591Y120284D01*
X121591Y120283D01*
X121592Y120283D01*
X121613Y120270D01*
X121631Y120259D01*
X121631Y120259D01*
X121631Y120259D01*
X121651Y120243D01*
X121666Y120229D01*
X121666Y120229D01*
X121667Y120229D01*
X121683Y120209D01*
X121696Y120194D01*
X121696Y120194D01*
X121697Y120193D01*
X121709Y120173D01*
X121721Y120154D01*
X121721Y120154D01*
X121721Y120153D01*
X121729Y120133D01*
X121738Y120111D01*
X121739Y120111D01*
X121739Y120110D01*
X121744Y120088D01*
X121749Y120066D01*
X121749Y120066D01*
X121749Y120065D01*
X121751Y120042D01*
X121753Y120020D01*
X121753Y120019D01*
X121753Y120019D01*
X121733Y112342D01*
X121731Y112319D01*
X121730Y112296D01*
X121730Y112296D01*
X121729Y112295D01*
X121724Y112274D01*
X121719Y112251D01*
X121719Y112251D01*
X121719Y112250D01*
X121710Y112231D01*
X121701Y112208D01*
X121701Y112208D01*
X121701Y112207D01*
X121689Y112189D01*
X121677Y112168D01*
X121676Y112168D01*
X121676Y112168D01*
X121662Y112151D01*
X121646Y112133D01*
X121646Y112133D01*
X121646Y112133D01*
X121628Y112118D01*
X121611Y112103D01*
X121611Y112103D01*
X121610Y112102D01*
X121592Y112091D01*
X121572Y112079D01*
X121571Y112078D01*
X121571Y112078D01*
X121551Y112070D01*
X121528Y112061D01*
X121528Y112061D01*
X121528Y112061D01*
X121506Y112055D01*
X121483Y112050D01*
X121483Y112050D01*
X121483Y112050D01*
X121459Y112048D01*
X121437Y112046D01*
X119488D01*
X119442Y112050D01*
X119397Y112061D01*
X119354Y112079D01*
X119314Y112103D01*
X119279Y112133D01*
X119249Y112168D01*
X119224Y112208D01*
X119207Y112251D01*
X119196Y112296D01*
X119192Y112343D01*
Y118642D01*
X119196Y118688D01*
X119207Y118733D01*
X119224Y118776D01*
X119249Y118816D01*
X119279Y118851D01*
X120657Y120229D01*
X120692Y120259D01*
X120732Y120284D01*
X120744Y120289D01*
X120775Y120301D01*
X120820Y120312D01*
X120866Y120316D01*
X121457D01*
X121457Y120316D01*
X121458Y120316D01*
X121480Y120314D01*
D02*
G37*
G36*
X120066Y121749D02*
X120111Y121738D01*
X120154Y121721D01*
X120194Y121696D01*
X120229Y121666D01*
X120259Y121631D01*
X120284Y121591D01*
X120301Y121548D01*
X120312Y121503D01*
X120316Y121457D01*
Y120866D01*
X120312Y120820D01*
X120301Y120775D01*
X120289Y120744D01*
X120284Y120732D01*
X120259Y120692D01*
X120229Y120657D01*
X118851Y119279D01*
X118816Y119249D01*
X118776Y119224D01*
X118733Y119207D01*
X118688Y119196D01*
X118642Y119192D01*
X112343D01*
X112296Y119196D01*
X112251Y119207D01*
X112208Y119224D01*
X112168Y119249D01*
X112133Y119279D01*
X112103Y119314D01*
X112079Y119354D01*
X112061Y119397D01*
X112050Y119442D01*
X112046Y119488D01*
Y121457D01*
X112050Y121503D01*
X112061Y121548D01*
X112079Y121591D01*
X112103Y121631D01*
X112133Y121666D01*
X112168Y121696D01*
X112208Y121721D01*
X112251Y121738D01*
X112296Y121749D01*
X112343Y121753D01*
X120020D01*
X120066Y121749D01*
D02*
G37*
G36*
X121503Y163541D02*
X121548Y163530D01*
X121591Y163512D01*
X121631Y163488D01*
X121666Y163458D01*
X121696Y163422D01*
X121721Y163382D01*
X121738Y163340D01*
X121749Y163294D01*
X121753Y163248D01*
Y155571D01*
X121749Y155525D01*
X121738Y155479D01*
X121721Y155436D01*
X121696Y155397D01*
X121666Y155361D01*
X121631Y155331D01*
X121591Y155307D01*
X121548Y155289D01*
X121503Y155278D01*
X121457Y155275D01*
X120866D01*
X120820Y155278D01*
X120775Y155289D01*
X120744Y155302D01*
X120732Y155307D01*
X120692Y155331D01*
X120657Y155361D01*
X119279Y156739D01*
X119249Y156775D01*
X119224Y156814D01*
X119207Y156857D01*
X119196Y156903D01*
X119192Y156949D01*
Y163248D01*
X119196Y163294D01*
X119207Y163340D01*
X119224Y163382D01*
X119249Y163422D01*
X119279Y163458D01*
X119314Y163488D01*
X119354Y163512D01*
X119397Y163530D01*
X119442Y163541D01*
X119488Y163544D01*
X121457D01*
X121503Y163541D01*
D02*
G37*
G36*
X118688Y156395D02*
X118733Y156384D01*
X118776Y156366D01*
X118816Y156342D01*
X118851Y156312D01*
X120229Y154934D01*
X120259Y154899D01*
X120284Y154859D01*
X120289Y154846D01*
X120301Y154816D01*
X120312Y154771D01*
X120316Y154724D01*
Y154134D01*
X120316Y154133D01*
X120316Y154133D01*
X120314Y154110D01*
X120312Y154087D01*
X120312Y154087D01*
X120312Y154087D01*
X120307Y154064D01*
X120301Y154042D01*
X120301Y154042D01*
X120301Y154042D01*
X120291Y154018D01*
X120284Y153999D01*
X120283Y153999D01*
X120283Y153999D01*
X120270Y153977D01*
X120259Y153960D01*
X120259Y153960D01*
X120259Y153959D01*
X120243Y153940D01*
X120229Y153924D01*
X120229Y153924D01*
X120229Y153924D01*
X120209Y153907D01*
X120194Y153894D01*
X120194Y153894D01*
X120193Y153894D01*
X120173Y153881D01*
X120154Y153870D01*
X120154Y153870D01*
X120153Y153870D01*
X120133Y153861D01*
X120111Y153852D01*
X120111Y153852D01*
X120110Y153852D01*
X120088Y153847D01*
X120066Y153841D01*
X120066Y153841D01*
X120065Y153841D01*
X120042Y153839D01*
X120020Y153838D01*
X120019Y153838D01*
X120019Y153838D01*
X112342Y153857D01*
X112319Y153859D01*
X112296Y153861D01*
X112296Y153861D01*
X112295Y153861D01*
X112274Y153866D01*
X112251Y153872D01*
X112251Y153872D01*
X112250Y153872D01*
X112231Y153880D01*
X112208Y153890D01*
X112208Y153890D01*
X112207Y153890D01*
X112189Y153901D01*
X112168Y153914D01*
X112168Y153914D01*
X112168Y153914D01*
X112151Y153929D01*
X112133Y153944D01*
X112133Y153944D01*
X112133Y153945D01*
X112118Y153962D01*
X112103Y153979D01*
X112103Y153980D01*
X112102Y153980D01*
X112091Y153999D01*
X112079Y154019D01*
X112078Y154019D01*
X112078Y154020D01*
X112070Y154040D01*
X112061Y154062D01*
X112061Y154062D01*
X112061Y154063D01*
X112055Y154085D01*
X112050Y154107D01*
X112050Y154108D01*
X112050Y154108D01*
X112048Y154131D01*
X112046Y154154D01*
Y156102D01*
X112050Y156149D01*
X112061Y156194D01*
X112079Y156237D01*
X112103Y156277D01*
X112133Y156312D01*
X112168Y156342D01*
X112208Y156366D01*
X112251Y156384D01*
X112296Y156395D01*
X112343Y156399D01*
X118642D01*
X118688Y156395D01*
D02*
G37*
G36*
X163249Y121733D02*
X163272Y121731D01*
X163294Y121730D01*
X163295Y121730D01*
X163295Y121729D01*
X163316Y121724D01*
X163340Y121719D01*
X163340Y121719D01*
X163340Y121719D01*
X163360Y121710D01*
X163382Y121701D01*
X163383Y121701D01*
X163383Y121701D01*
X163402Y121689D01*
X163422Y121677D01*
X163423Y121676D01*
X163423Y121676D01*
X163440Y121662D01*
X163458Y121646D01*
X163458Y121646D01*
X163458Y121646D01*
X163473Y121628D01*
X163488Y121611D01*
X163488Y121611D01*
X163488Y121610D01*
X163500Y121592D01*
X163512Y121572D01*
X163512Y121571D01*
X163512Y121571D01*
X163521Y121551D01*
X163530Y121528D01*
X163530Y121528D01*
X163530Y121528D01*
X163535Y121506D01*
X163541Y121483D01*
X163541Y121483D01*
X163541Y121483D01*
X163542Y121459D01*
X163544Y121437D01*
Y119488D01*
X163541Y119442D01*
X163530Y119397D01*
X163512Y119354D01*
X163488Y119314D01*
X163458Y119279D01*
X163422Y119249D01*
X163382Y119224D01*
X163340Y119207D01*
X163294Y119196D01*
X163248Y119192D01*
X156949D01*
X156903Y119196D01*
X156857Y119207D01*
X156814Y119224D01*
X156775Y119249D01*
X156739Y119279D01*
X155361Y120657D01*
X155331Y120692D01*
X155307Y120732D01*
X155302Y120744D01*
X155289Y120775D01*
X155278Y120820D01*
X155275Y120866D01*
Y121457D01*
X155275Y121457D01*
X155275Y121458D01*
X155277Y121480D01*
X155278Y121503D01*
X155278Y121503D01*
X155278Y121504D01*
X155284Y121527D01*
X155289Y121548D01*
X155289Y121549D01*
X155289Y121549D01*
X155299Y121572D01*
X155307Y121591D01*
X155307Y121591D01*
X155307Y121592D01*
X155320Y121613D01*
X155331Y121631D01*
X155332Y121631D01*
X155332Y121631D01*
X155348Y121651D01*
X155361Y121666D01*
X155362Y121666D01*
X155362Y121667D01*
X155382Y121683D01*
X155397Y121696D01*
X155397Y121696D01*
X155397Y121697D01*
X155418Y121709D01*
X155436Y121721D01*
X155437Y121721D01*
X155437Y121721D01*
X155458Y121729D01*
X155479Y121738D01*
X155480Y121739D01*
X155480Y121739D01*
X155502Y121744D01*
X155525Y121749D01*
X155525Y121749D01*
X155525Y121749D01*
X155549Y121751D01*
X155571Y121753D01*
X155571Y121753D01*
X155572Y121753D01*
X163249Y121733D01*
D02*
G37*
G36*
X154771Y120312D02*
X154816Y120301D01*
X154846Y120289D01*
X154859Y120284D01*
X154899Y120259D01*
X154934Y120229D01*
X156312Y118851D01*
X156342Y118816D01*
X156366Y118776D01*
X156384Y118733D01*
X156395Y118688D01*
X156399Y118642D01*
Y112343D01*
X156395Y112296D01*
X156384Y112251D01*
X156366Y112208D01*
X156342Y112168D01*
X156312Y112133D01*
X156277Y112103D01*
X156237Y112079D01*
X156194Y112061D01*
X156149Y112050D01*
X156102Y112046D01*
X154134D01*
X154087Y112050D01*
X154042Y112061D01*
X153999Y112079D01*
X153960Y112103D01*
X153924Y112133D01*
X153894Y112168D01*
X153870Y112208D01*
X153852Y112251D01*
X153841Y112296D01*
X153838Y112343D01*
Y120020D01*
X153841Y120066D01*
X153852Y120111D01*
X153870Y120154D01*
X153894Y120194D01*
X153924Y120229D01*
X153960Y120259D01*
X153999Y120284D01*
X154042Y120301D01*
X154087Y120312D01*
X154134Y120316D01*
X154724D01*
X154771Y120312D01*
D02*
G37*
G36*
X156149Y163541D02*
X156194Y163530D01*
X156237Y163512D01*
X156277Y163488D01*
X156312Y163458D01*
X156342Y163422D01*
X156366Y163382D01*
X156384Y163340D01*
X156395Y163294D01*
X156399Y163248D01*
Y156949D01*
X156395Y156903D01*
X156384Y156857D01*
X156366Y156814D01*
X156342Y156775D01*
X156312Y156739D01*
X154934Y155361D01*
X154899Y155331D01*
X154859Y155307D01*
X154846Y155302D01*
X154816Y155289D01*
X154771Y155278D01*
X154724Y155275D01*
X154134D01*
X154133Y155275D01*
X154133Y155275D01*
X154110Y155277D01*
X154087Y155278D01*
X154087Y155278D01*
X154087Y155278D01*
X154064Y155284D01*
X154042Y155289D01*
X154042Y155289D01*
X154042Y155289D01*
X154018Y155299D01*
X153999Y155307D01*
X153999Y155307D01*
X153999Y155307D01*
X153977Y155320D01*
X153960Y155331D01*
X153960Y155332D01*
X153959Y155332D01*
X153940Y155348D01*
X153924Y155361D01*
X153924Y155362D01*
X153924Y155362D01*
X153907Y155382D01*
X153894Y155397D01*
X153894Y155397D01*
X153894Y155397D01*
X153881Y155418D01*
X153870Y155436D01*
X153870Y155437D01*
X153870Y155437D01*
X153861Y155458D01*
X153852Y155479D01*
X153852Y155480D01*
X153852Y155480D01*
X153847Y155502D01*
X153841Y155525D01*
X153841Y155525D01*
X153841Y155525D01*
X153839Y155549D01*
X153838Y155571D01*
X153838Y155571D01*
X153838Y155572D01*
X153857Y163249D01*
X153859Y163272D01*
X153861Y163294D01*
X153861Y163295D01*
X153861Y163295D01*
X153866Y163316D01*
X153872Y163340D01*
X153872Y163340D01*
X153872Y163340D01*
X153880Y163360D01*
X153890Y163382D01*
X153890Y163383D01*
X153890Y163383D01*
X153901Y163402D01*
X153914Y163422D01*
X153914Y163423D01*
X153914Y163423D01*
X153929Y163440D01*
X153944Y163458D01*
X153944Y163458D01*
X153945Y163458D01*
X153962Y163473D01*
X153979Y163488D01*
X153980Y163488D01*
X153980Y163488D01*
X153999Y163500D01*
X154019Y163512D01*
X154019Y163512D01*
X154020Y163512D01*
X154040Y163521D01*
X154062Y163530D01*
X154062Y163530D01*
X154063Y163530D01*
X154085Y163535D01*
X154107Y163541D01*
X154108Y163541D01*
X154108Y163541D01*
X154131Y163542D01*
X154154Y163544D01*
X156102D01*
X156149Y163541D01*
D02*
G37*
G36*
X163294Y156395D02*
X163340Y156384D01*
X163382Y156366D01*
X163422Y156342D01*
X163458Y156312D01*
X163488Y156277D01*
X163512Y156237D01*
X163530Y156194D01*
X163541Y156149D01*
X163544Y156102D01*
Y154134D01*
X163541Y154087D01*
X163530Y154042D01*
X163512Y153999D01*
X163488Y153960D01*
X163458Y153924D01*
X163422Y153894D01*
X163382Y153870D01*
X163340Y153852D01*
X163294Y153841D01*
X163248Y153838D01*
X155571D01*
X155525Y153841D01*
X155479Y153852D01*
X155436Y153870D01*
X155397Y153894D01*
X155361Y153924D01*
X155331Y153960D01*
X155307Y153999D01*
X155289Y154042D01*
X155278Y154087D01*
X155275Y154134D01*
Y154724D01*
X155278Y154771D01*
X155289Y154816D01*
X155302Y154846D01*
X155307Y154859D01*
X155331Y154899D01*
X155361Y154934D01*
X156739Y156312D01*
X156775Y156342D01*
X156814Y156366D01*
X156857Y156384D01*
X156903Y156395D01*
X156949Y156399D01*
X163248D01*
X163294Y156395D01*
D02*
G37*
G36*
X166708Y203143D02*
X166745Y203132D01*
X166779Y203113D01*
X166809Y203089D01*
X166834Y203059D01*
X166852Y203025D01*
X166863Y202987D01*
X166867Y202949D01*
Y202654D01*
X166867Y202654D01*
X166865Y202634D01*
X166863Y202615D01*
X166855Y202587D01*
X166852Y202578D01*
X166834Y202544D01*
X166822Y202529D01*
X166809Y202514D01*
X166809Y202514D01*
X166120Y201825D01*
X166120Y201825D01*
X166107Y201814D01*
X166090Y201800D01*
X166056Y201782D01*
X166019Y201771D01*
X166015Y201770D01*
X165980Y201767D01*
X165980Y201767D01*
X163913D01*
X163875Y201771D01*
X163838Y201782D01*
X163804Y201800D01*
X163774Y201825D01*
X163749Y201855D01*
X163731Y201889D01*
X163719Y201926D01*
X163716Y201965D01*
Y202949D01*
X163719Y202987D01*
X163731Y203025D01*
X163749Y203059D01*
X163774Y203089D01*
X163804Y203113D01*
X163838Y203132D01*
X163875Y203143D01*
X163913Y203147D01*
X166669D01*
X166708Y203143D01*
D02*
G37*
G36*
X167654Y201867D02*
X167949D01*
X167987Y201863D01*
X168025Y201852D01*
X168059Y201834D01*
X168089Y201809D01*
X168113Y201779D01*
X168132Y201745D01*
X168143Y201708D01*
X168147Y201669D01*
Y198520D01*
X168143Y198481D01*
X168132Y198444D01*
X168113Y198410D01*
X168089Y198380D01*
X168059Y198355D01*
X168025Y198337D01*
X167987Y198326D01*
X167949Y198322D01*
X166965D01*
X166926Y198326D01*
X166889Y198337D01*
X166855Y198355D01*
X166825Y198380D01*
X166800Y198410D01*
X166782Y198444D01*
X166771Y198481D01*
X166767Y198520D01*
Y200980D01*
X166767Y200980D01*
X166770Y201015D01*
X166771Y201019D01*
X166782Y201056D01*
X166800Y201090D01*
X166814Y201107D01*
X166825Y201120D01*
X166825Y201120D01*
X167514Y201809D01*
X167514Y201809D01*
X167529Y201821D01*
X167544Y201834D01*
X167578Y201852D01*
X167587Y201855D01*
X167615Y201863D01*
X167634Y201865D01*
X167654Y201867D01*
X167654Y201867D01*
D02*
G37*
G36*
X167987Y213674D02*
X168025Y213663D01*
X168059Y213645D01*
X168089Y213620D01*
X168113Y213590D01*
X168132Y213556D01*
X168143Y213519D01*
X168147Y213480D01*
Y210331D01*
X168143Y210292D01*
X168132Y210255D01*
X168113Y210221D01*
X168089Y210191D01*
X168059Y210166D01*
X168025Y210148D01*
X167987Y210137D01*
X167949Y210133D01*
X167654D01*
X167654Y210133D01*
X167634Y210135D01*
X167615Y210137D01*
X167587Y210145D01*
X167578Y210148D01*
X167544Y210166D01*
X167529Y210178D01*
X167514Y210191D01*
X167514Y210191D01*
X166825Y210880D01*
X166825Y210880D01*
X166814Y210893D01*
X166800Y210910D01*
X166782Y210944D01*
X166771Y210981D01*
X166770Y210985D01*
X166767Y211020D01*
X166767Y211020D01*
Y213480D01*
X166771Y213519D01*
X166782Y213556D01*
X166800Y213590D01*
X166825Y213620D01*
X166855Y213645D01*
X166889Y213663D01*
X166926Y213674D01*
X166965Y213678D01*
X167949D01*
X167987Y213674D01*
D02*
G37*
G36*
X166015Y210230D02*
X166019Y210229D01*
X166056Y210218D01*
X166090Y210200D01*
X166107Y210186D01*
X166120Y210175D01*
X166120Y210175D01*
X166809Y209486D01*
X166809Y209486D01*
X166822Y209471D01*
X166834Y209456D01*
X166852Y209422D01*
X166855Y209414D01*
X166863Y209385D01*
X166865Y209366D01*
X166867Y209347D01*
X166867Y209346D01*
Y209051D01*
X166863Y209013D01*
X166852Y208976D01*
X166834Y208941D01*
X166809Y208911D01*
X166779Y208887D01*
X166745Y208868D01*
X166708Y208857D01*
X166669Y208853D01*
X163520D01*
X163481Y208857D01*
X163444Y208868D01*
X163410Y208887D01*
X163380Y208911D01*
X163355Y208941D01*
X163337Y208976D01*
X163326Y209013D01*
X163322Y209051D01*
Y210035D01*
X163326Y210074D01*
X163337Y210111D01*
X163355Y210145D01*
X163380Y210175D01*
X163410Y210200D01*
X163444Y210218D01*
X163481Y210229D01*
X163520Y210233D01*
X165980D01*
X165980Y210233D01*
X166015Y210230D01*
D02*
G37*
G36*
X178519Y203143D02*
X178556Y203132D01*
X178590Y203113D01*
X178620Y203089D01*
X178645Y203059D01*
X178663Y203025D01*
X178674Y202987D01*
X178678Y202949D01*
Y201965D01*
X178674Y201926D01*
X178663Y201889D01*
X178645Y201855D01*
X178620Y201825D01*
X178590Y201800D01*
X178556Y201782D01*
X178519Y201771D01*
X178480Y201767D01*
X176020D01*
X176020Y201767D01*
X175985Y201770D01*
X175981Y201771D01*
X175944Y201782D01*
X175910Y201800D01*
X175893Y201814D01*
X175880Y201825D01*
X175880Y201825D01*
X175191Y202514D01*
X175191Y202514D01*
X175179Y202529D01*
X175166Y202544D01*
X175148Y202578D01*
X175145Y202587D01*
X175137Y202615D01*
X175135Y202634D01*
X175133Y202654D01*
X175133Y202654D01*
Y202949D01*
X175137Y202987D01*
X175148Y203025D01*
X175166Y203059D01*
X175191Y203089D01*
X175221Y203113D01*
X175255Y203132D01*
X175292Y203143D01*
X175331Y203147D01*
X178480D01*
X178519Y203143D01*
D02*
G37*
G36*
X174366Y201865D02*
X174385Y201863D01*
X174414Y201855D01*
X174422Y201852D01*
X174456Y201834D01*
X174471Y201821D01*
X174486Y201809D01*
X174486Y201809D01*
X175175Y201120D01*
X175175Y201120D01*
X175186Y201107D01*
X175200Y201090D01*
X175218Y201056D01*
X175229Y201019D01*
X175230Y201015D01*
X175233Y200980D01*
X175233Y200980D01*
Y198520D01*
X175229Y198481D01*
X175218Y198444D01*
X175200Y198410D01*
X175175Y198380D01*
X175145Y198355D01*
X175111Y198337D01*
X175074Y198326D01*
X175035Y198322D01*
X174051D01*
X174013Y198326D01*
X173976Y198337D01*
X173941Y198355D01*
X173911Y198380D01*
X173887Y198410D01*
X173868Y198444D01*
X173857Y198481D01*
X173853Y198520D01*
Y201669D01*
X173857Y201708D01*
X173868Y201745D01*
X173887Y201779D01*
X173911Y201809D01*
X173941Y201834D01*
X173976Y201852D01*
X174013Y201863D01*
X174051Y201867D01*
X174346D01*
X174346Y201867D01*
X174366Y201865D01*
D02*
G37*
G36*
X175074Y213674D02*
X175111Y213663D01*
X175145Y213645D01*
X175175Y213620D01*
X175200Y213590D01*
X175218Y213556D01*
X175229Y213519D01*
X175233Y213480D01*
Y211020D01*
X175233Y211020D01*
X175230Y210985D01*
X175229Y210981D01*
X175218Y210944D01*
X175200Y210910D01*
X175186Y210893D01*
X175175Y210880D01*
X175175Y210880D01*
X174486Y210191D01*
X174486Y210191D01*
X174471Y210178D01*
X174456Y210166D01*
X174422Y210148D01*
X174414Y210145D01*
X174385Y210137D01*
X174366Y210135D01*
X174346Y210133D01*
X174346Y210133D01*
X174051D01*
X174013Y210137D01*
X173976Y210148D01*
X173941Y210166D01*
X173911Y210191D01*
X173887Y210221D01*
X173868Y210255D01*
X173857Y210292D01*
X173853Y210331D01*
Y213480D01*
X173857Y213519D01*
X173868Y213556D01*
X173887Y213590D01*
X173911Y213620D01*
X173941Y213645D01*
X173976Y213663D01*
X174013Y213674D01*
X174051Y213678D01*
X175035D01*
X175074Y213674D01*
D02*
G37*
G36*
X176020Y210233D02*
X178480D01*
X178519Y210229D01*
X178556Y210218D01*
X178590Y210200D01*
X178620Y210175D01*
X178645Y210145D01*
X178663Y210111D01*
X178674Y210074D01*
X178678Y210035D01*
Y209051D01*
X178674Y209013D01*
X178663Y208976D01*
X178645Y208941D01*
X178620Y208911D01*
X178590Y208887D01*
X178556Y208868D01*
X178519Y208857D01*
X178480Y208853D01*
X175331D01*
X175292Y208857D01*
X175255Y208868D01*
X175221Y208887D01*
X175191Y208911D01*
X175166Y208941D01*
X175148Y208976D01*
X175137Y209013D01*
X175133Y209051D01*
Y209346D01*
X175133Y209347D01*
X175135Y209366D01*
X175137Y209385D01*
X175145Y209414D01*
X175148Y209422D01*
X175166Y209456D01*
X175179Y209471D01*
X175191Y209486D01*
X175191Y209486D01*
X175880Y210175D01*
X175880Y210175D01*
X175893Y210186D01*
X175910Y210200D01*
X175944Y210218D01*
X175981Y210229D01*
X175985Y210230D01*
X176020Y210233D01*
X176020Y210233D01*
D02*
G37*
D39*
X141012Y49000D02*
D03*
X129988D02*
D03*
D50*
X120000Y61669D02*
D03*
Y70331D02*
D03*
D52*
X130000Y56500D02*
D03*
Y58468D02*
D03*
Y60437D02*
D03*
Y62406D02*
D03*
Y64374D02*
D03*
X141614D02*
D03*
Y62406D02*
D03*
Y60437D02*
D03*
Y58468D02*
D03*
Y56500D02*
D03*
D53*
X135807Y60437D02*
D03*
D55*
X103654Y245500D02*
D03*
X110346D02*
D03*
X90846Y136500D02*
D03*
X84154D02*
D03*
X206654Y182000D02*
D03*
X213346D02*
D03*
X206654Y176500D02*
D03*
X213346D02*
D03*
X206654Y187500D02*
D03*
X213346D02*
D03*
X206654Y193000D02*
D03*
X213346D02*
D03*
X206654Y198500D02*
D03*
X213346D02*
D03*
X156346Y226000D02*
D03*
X149654D02*
D03*
X200846Y201000D02*
D03*
X194154D02*
D03*
X213346Y171000D02*
D03*
X206654D02*
D03*
X84154Y142000D02*
D03*
X90846D02*
D03*
X213346Y204000D02*
D03*
X206654D02*
D03*
X84154Y125500D02*
D03*
X90846D02*
D03*
X84154Y131000D02*
D03*
X90846D02*
D03*
X156346Y231000D02*
D03*
X149654D02*
D03*
X156346Y236000D02*
D03*
X149654D02*
D03*
X213346Y209500D02*
D03*
X206654D02*
D03*
X112004Y221000D02*
D03*
X118697D02*
D03*
X112004Y216000D02*
D03*
X118697D02*
D03*
X95654Y205000D02*
D03*
X102346D02*
D03*
X68846Y212500D02*
D03*
X62154D02*
D03*
X68846Y207500D02*
D03*
X62154D02*
D03*
Y202000D02*
D03*
X68846D02*
D03*
X49346Y195500D02*
D03*
X42654D02*
D03*
X184654Y151500D02*
D03*
X191346D02*
D03*
X90846Y119000D02*
D03*
X84154D02*
D03*
X167154Y78000D02*
D03*
X173846D02*
D03*
X112004Y211000D02*
D03*
X118697D02*
D03*
X108654Y200500D02*
D03*
X115346D02*
D03*
X75654Y195500D02*
D03*
X82346D02*
D03*
X62654Y192500D02*
D03*
X69346D02*
D03*
D59*
X152201Y46500D02*
D03*
X164799D02*
D03*
D60*
X207146Y216000D02*
D03*
X212854D02*
D03*
D63*
X112500Y45846D02*
D03*
Y39154D02*
D03*
X195500Y177654D02*
D03*
Y184346D02*
D03*
X186000Y211610D02*
D03*
Y204917D02*
D03*
X108500Y226654D02*
D03*
Y233346D02*
D03*
X96500Y232346D02*
D03*
Y225654D02*
D03*
X118500Y233346D02*
D03*
Y226654D02*
D03*
X113500Y233346D02*
D03*
Y226654D02*
D03*
X82500Y216154D02*
D03*
Y222846D02*
D03*
Y209846D02*
D03*
Y203154D02*
D03*
X69000Y217154D02*
D03*
Y223846D02*
D03*
X50500Y207846D02*
D03*
Y201154D02*
D03*
X184500Y145346D02*
D03*
Y138654D02*
D03*
X170000Y240846D02*
D03*
Y234154D02*
D03*
D65*
X66000Y74000D02*
D03*
X187000Y41000D02*
D03*
D66*
X112480Y30315D02*
D03*
X142480D02*
D03*
X152480D02*
D03*
X162480D02*
D03*
X122480D02*
D03*
X132480D02*
D03*
D67*
X225047Y190500D02*
D03*
Y184000D02*
D03*
Y177500D02*
D03*
D68*
X230953Y190500D02*
D03*
Y184000D02*
D03*
Y177500D02*
D03*
D69*
X102500Y211500D02*
D03*
Y216500D02*
D03*
Y221500D02*
D03*
Y226500D02*
D03*
Y231500D02*
D03*
X123500Y239500D02*
D03*
X118500D02*
D03*
X113500D02*
D03*
X108500D02*
D03*
X103500D02*
D03*
X89131Y202500D02*
D03*
Y207500D02*
D03*
Y212500D02*
D03*
Y217500D02*
D03*
Y222500D02*
D03*
X75500Y202500D02*
D03*
Y207500D02*
D03*
Y212500D02*
D03*
Y217500D02*
D03*
Y222500D02*
D03*
X56000Y213000D02*
D03*
Y208000D02*
D03*
Y203000D02*
D03*
Y198000D02*
D03*
Y193000D02*
D03*
X163000Y221000D02*
D03*
Y226000D02*
D03*
Y231000D02*
D03*
Y236000D02*
D03*
Y241000D02*
D03*
D70*
X87000Y234000D02*
D03*
X43000Y181000D02*
D03*
X233500Y105000D02*
D03*
X187000Y234500D02*
D03*
X68000Y185500D02*
D03*
D71*
X78000D02*
D03*
X57180Y62314D02*
D03*
X50360Y69627D02*
D03*
D72*
X64000Y55000D02*
D03*
D73*
X229854Y84646D02*
D03*
X137795Y244094D02*
D03*
X45736Y84646D02*
D03*
D74*
X137795Y94488D02*
D03*
Y181102D02*
D03*
D75*
X150500Y218500D02*
D03*
X200726Y56274D02*
D03*
X217000Y68500D02*
D03*
X217319Y72976D02*
D03*
X197500Y73500D02*
D03*
X198914Y66414D02*
D03*
X194132Y85338D02*
D03*
X197681Y97000D02*
D03*
X195000Y89000D02*
D03*
X201000Y103000D02*
D03*
X221130Y120047D02*
D03*
X221500Y105500D02*
D03*
X221130Y115500D02*
D03*
X74354Y66146D02*
D03*
X170500Y33500D02*
D03*
Y49000D02*
D03*
X160500Y112811D02*
D03*
X175000Y110181D02*
D03*
X168139Y122958D02*
D03*
X148500Y143000D02*
D03*
X156000Y142000D02*
D03*
X153071Y133071D02*
D03*
X149000Y124795D02*
D03*
X145835Y139000D02*
D03*
X152646Y151354D02*
D03*
X151000Y97500D02*
D03*
X207000Y46500D02*
D03*
X176500Y39000D02*
D03*
X202000Y42000D02*
D03*
X188314Y57594D02*
D03*
X203500Y108500D02*
D03*
X207500Y104500D02*
D03*
X210728Y108500D02*
D03*
X211547Y124787D02*
D03*
X227819Y127500D02*
D03*
X230319Y119500D02*
D03*
Y132500D02*
D03*
X230000Y71500D02*
D03*
X195000Y104500D02*
D03*
X156502Y105681D02*
D03*
X178740Y132500D02*
D03*
X178500Y107500D02*
D03*
X192000D02*
D03*
X172542Y119542D02*
D03*
X127000Y104500D02*
D03*
Y99500D02*
D03*
X148000Y250500D02*
D03*
X153000Y248000D02*
D03*
X126500Y252000D02*
D03*
X77000Y234000D02*
D03*
X57500Y185500D02*
D03*
X32500Y181000D02*
D03*
X37000Y190000D02*
D03*
X49000Y95500D02*
D03*
X34000Y93000D02*
D03*
X128000Y40500D02*
D03*
X106000Y37500D02*
D03*
X106500Y48000D02*
D03*
X138000Y75000D02*
D03*
X127000Y88000D02*
D03*
X149500D02*
D03*
X157500D02*
D03*
X181500Y94500D02*
D03*
X186000D02*
D03*
X229000Y113500D02*
D03*
X234000Y155500D02*
D03*
X225000Y162000D02*
D03*
X243500Y171500D02*
D03*
X244500Y177000D02*
D03*
X242500Y185000D02*
D03*
X237000Y195000D02*
D03*
X231000Y203000D02*
D03*
X197000Y235000D02*
D03*
X190500Y205000D02*
D03*
Y196500D02*
D03*
X183000Y194500D02*
D03*
X131000Y179000D02*
D03*
X108500Y157000D02*
D03*
X115500Y163000D02*
D03*
X185000Y132000D02*
D03*
X166500Y136500D02*
D03*
X211500Y143000D02*
D03*
X203000Y229000D02*
D03*
X212500Y225500D02*
D03*
X143500Y184500D02*
D03*
X179354Y183646D02*
D03*
X179500Y175197D02*
D03*
X173500Y181681D02*
D03*
X127500Y80000D02*
D03*
X141000Y83500D02*
D03*
X118000Y79500D02*
D03*
X118500Y37000D02*
D03*
X175000Y53000D02*
D03*
X158000Y50500D02*
D03*
X146500Y36500D02*
D03*
X213500Y52500D02*
D03*
X167000Y51500D02*
D03*
X132677Y70823D02*
D03*
X142000Y88500D02*
D03*
X132500Y108000D02*
D03*
X139500Y108500D02*
D03*
X111000Y130000D02*
D03*
X112000Y142500D02*
D03*
X180069Y217736D02*
D03*
X181000Y211500D02*
D03*
X177500Y215000D02*
D03*
X130038Y192634D02*
D03*
X131034Y196994D02*
D03*
X123000Y196996D02*
D03*
X123500Y201500D02*
D03*
X194315Y145000D02*
D03*
X185326Y128568D02*
D03*
X199803Y107500D02*
D03*
X159000Y200000D02*
D03*
X155500D02*
D03*
X97500Y214500D02*
D03*
X96000Y218000D02*
D03*
X48000Y187500D02*
D03*
X174500Y243000D02*
D03*
X179500Y233500D02*
D03*
X176500Y225500D02*
D03*
X93500Y158500D02*
D03*
X101500Y164000D02*
D03*
X135000Y131000D02*
D03*
X136000Y150000D02*
D03*
X202000Y154500D02*
D03*
X205000Y151500D02*
D03*
X249000Y160000D02*
D03*
Y151500D02*
D03*
Y145000D02*
D03*
Y137500D02*
D03*
Y129500D02*
D03*
Y123000D02*
D03*
X248500Y112500D02*
D03*
X239500Y93000D02*
D03*
X182000Y33000D02*
D03*
X196500Y42000D02*
D03*
X135500Y48000D02*
D03*
X88000Y63000D02*
D03*
X108000Y56000D02*
D03*
X96000Y69000D02*
D03*
X102500Y79000D02*
D03*
X94000Y97500D02*
D03*
X89500Y97000D02*
D03*
X84000Y96500D02*
D03*
X67500Y178000D02*
D03*
X63500D02*
D03*
X60000Y162000D02*
D03*
X62500Y157500D02*
D03*
X64500Y153500D02*
D03*
X78500Y118500D02*
D03*
X68000Y135000D02*
D03*
X77500Y130500D02*
D03*
X93512Y145261D02*
D03*
X77181Y144000D02*
D03*
X79500Y149000D02*
D03*
X68500Y141500D02*
D03*
X69000Y114000D02*
D03*
X69500Y123000D02*
D03*
X73000Y118500D02*
D03*
X77000Y114000D02*
D03*
X71000Y131000D02*
D03*
X90000Y114000D02*
D03*
X85500D02*
D03*
X82000D02*
D03*
X62500Y90500D02*
D03*
X68500D02*
D03*
X166500Y143000D02*
D03*
X161500Y164000D02*
D03*
X209500Y131000D02*
D03*
X211524Y133024D02*
D03*
X214000Y135055D02*
D03*
X198000Y208000D02*
D03*
X195319Y188500D02*
D03*
X167000Y94181D02*
D03*
X146138Y110659D02*
D03*
X148819Y108360D02*
D03*
X155000Y164500D02*
D03*
X152000Y179000D02*
D03*
X163957Y172531D02*
D03*
X168319Y170000D02*
D03*
X171017Y161325D02*
D03*
X180500Y138500D02*
D03*
X189767Y167201D02*
D03*
X171016Y175197D02*
D03*
X134000Y142000D02*
D03*
X133500Y138500D02*
D03*
X140500Y145000D02*
D03*
X187000Y187500D02*
D03*
X231000Y166500D02*
D03*
X192142Y127000D02*
D03*
Y135500D02*
D03*
X192000Y92181D02*
D03*
X194500Y195000D02*
D03*
X173736Y196264D02*
D03*
X179210Y199500D02*
D03*
X194500Y220500D02*
D03*
X161814Y212314D02*
D03*
X155159Y215257D02*
D03*
X149812Y208313D02*
D03*
X141402Y197000D02*
D03*
X141500Y193000D02*
D03*
X198000Y168500D02*
D03*
X216000Y161710D02*
D03*
X96000Y181000D02*
D03*
X74500Y154500D02*
D03*
X116000Y45500D02*
D03*
X232500Y143000D02*
D03*
X209000Y137000D02*
D03*
X113000Y180066D02*
D03*
X186000Y75000D02*
D03*
X152500Y187319D02*
D03*
X172772Y216319D02*
D03*
X89500Y178000D02*
D03*
X205000Y127000D02*
D03*
X188205Y154500D02*
D03*
X180000Y114500D02*
D03*
X239000Y148000D02*
D03*
X146500Y180000D02*
D03*
X134500Y123500D02*
D03*
D76*
X140516Y220181D02*
D03*
Y216244D02*
D03*
Y212307D02*
D03*
X136579Y220181D02*
D03*
Y216244D02*
D03*
Y212307D02*
D03*
X132642Y220181D02*
D03*
Y216244D02*
D03*
Y212307D02*
D03*
X169535Y62090D02*
D03*
X165598D02*
D03*
Y67996D02*
D03*
X169535D02*
D03*
X167567Y65043D02*
D03*
X135807Y60437D02*
D03*
X137776Y57484D02*
D03*
X133839D02*
D03*
Y63390D02*
D03*
X137776D02*
D03*
D102*
X90860Y148000D02*
D03*
X87486D02*
D03*
X71313Y162000D02*
D03*
X74687D02*
D03*
D109*
X147157Y71000D02*
D03*
X141843D02*
D03*
D122*
X203331Y65209D02*
D03*
X204724Y66601D02*
D03*
X206116Y67993D02*
D03*
X207507Y69385D02*
D03*
X213075Y74952D02*
D03*
X211683Y73560D02*
D03*
X210291Y72169D02*
D03*
X208899Y70777D02*
D03*
X201940Y63817D02*
D03*
X200548Y62425D02*
D03*
D123*
X222652Y69774D02*
D03*
X205726Y52848D02*
D03*
D124*
X190260Y78224D02*
D03*
X197740Y78224D02*
D03*
X194000Y68776D02*
D03*
D125*
X123622Y159409D02*
D03*
X126772D02*
D03*
X136220D02*
D03*
X133071D02*
D03*
X129921D02*
D03*
X148819D02*
D03*
X151969D02*
D03*
X145669D02*
D03*
X142520D02*
D03*
X139370Y116181D02*
D03*
X142520D02*
D03*
X145669D02*
D03*
X151969D02*
D03*
X148819D02*
D03*
X129921D02*
D03*
X133071D02*
D03*
X136220D02*
D03*
X126772D02*
D03*
X123622D02*
D03*
D126*
X155118Y160098D02*
D03*
Y115492D02*
D03*
X120472Y160098D02*
D03*
Y115492D02*
D03*
D127*
X139370Y158130D02*
D03*
D128*
X116181Y151969D02*
D03*
Y148819D02*
D03*
Y139370D02*
D03*
Y142520D02*
D03*
Y145669D02*
D03*
Y126772D02*
D03*
Y123622D02*
D03*
Y129921D02*
D03*
Y133071D02*
D03*
Y136220D02*
D03*
X159409D02*
D03*
Y133071D02*
D03*
Y129921D02*
D03*
Y123622D02*
D03*
Y126772D02*
D03*
Y145669D02*
D03*
Y142520D02*
D03*
Y139370D02*
D03*
Y148819D02*
D03*
Y151969D02*
D03*
D129*
X160098Y155118D02*
D03*
Y120472D02*
D03*
X115492Y155118D02*
D03*
Y120472D02*
D03*
D130*
X167457Y212693D02*
D03*
X174543D02*
D03*
X167457Y199307D02*
D03*
X174543D02*
D03*
D131*
X171000Y206000D02*
D03*
D132*
Y211906D02*
D03*
X172772D02*
D03*
X169228D02*
D03*
Y200094D02*
D03*
X172772D02*
D03*
X171000D02*
D03*
D133*
X176906Y206000D02*
D03*
Y207772D02*
D03*
Y204228D02*
D03*
X165094D02*
D03*
Y207772D02*
D03*
Y206000D02*
D03*
D134*
X177693Y209543D02*
D03*
Y202457D02*
D03*
X164307Y209543D02*
D03*
D135*
Y202457D02*
D03*
D136*
X81776Y154760D02*
D03*
Y158500D02*
D03*
Y162240D02*
D03*
X91224D02*
D03*
Y154760D02*
D03*
D137*
X134823Y54335D02*
D03*
X136791D02*
D03*
D138*
Y66539D02*
D03*
X134823D02*
D03*
M02*
