G04*
G04 #@! TF.GenerationSoftware,Altium Limited,Altium Designer,22.3.1 (43)*
G04*
G04 Layer_Color=16711935*
%FSLAX25Y25*%
%MOIN*%
G70*
G04*
G04 #@! TF.SameCoordinates,81C90355-7C20-497C-A289-08F7F31E86F5*
G04*
G04*
G04 #@! TF.FilePolarity,Positive*
G04*
G01*
G75*
%ADD14C,0.00787*%
G36*
X108824Y189107D02*
X108857D01*
X108893Y189103D01*
X108937Y189099D01*
X109028Y189085D01*
X109123Y189070D01*
X109217Y189045D01*
X109308Y189012D01*
X109312D01*
X109319Y189008D01*
X109330Y189001D01*
X109345Y188994D01*
X109388Y188972D01*
X109439Y188939D01*
X109498Y188895D01*
X109560Y188844D01*
X109618Y188783D01*
X109672Y188713D01*
Y188710D01*
X109680Y188702D01*
X109683Y188691D01*
X109694Y188677D01*
X109702Y188659D01*
X109712Y188637D01*
X109738Y188582D01*
X109763Y188513D01*
X109785Y188437D01*
X109800Y188349D01*
X109807Y188258D01*
X109494Y188229D01*
Y188233D01*
Y188236D01*
X109490Y188248D01*
Y188262D01*
X109483Y188295D01*
X109472Y188342D01*
X109458Y188389D01*
X109443Y188444D01*
X109418Y188495D01*
X109392Y188542D01*
X109388Y188546D01*
X109378Y188560D01*
X109359Y188586D01*
X109330Y188611D01*
X109294Y188644D01*
X109254Y188677D01*
X109199Y188710D01*
X109141Y188739D01*
X109137D01*
X109134Y188742D01*
X109123Y188746D01*
X109112Y188750D01*
X109075Y188761D01*
X109028Y188775D01*
X108970Y188790D01*
X108904Y188801D01*
X108832Y188808D01*
X108751Y188812D01*
X108719D01*
X108682Y188808D01*
X108639Y188804D01*
X108588Y188797D01*
X108529Y188790D01*
X108471Y188775D01*
X108417Y188757D01*
X108409Y188753D01*
X108391Y188746D01*
X108366Y188732D01*
X108333Y188717D01*
X108300Y188691D01*
X108264Y188666D01*
X108227Y188637D01*
X108198Y188601D01*
X108195Y188597D01*
X108187Y188582D01*
X108176Y188564D01*
X108162Y188535D01*
X108147Y188506D01*
X108136Y188470D01*
X108129Y188429D01*
X108125Y188386D01*
Y188382D01*
Y188364D01*
X108129Y188342D01*
X108133Y188313D01*
X108144Y188284D01*
X108154Y188248D01*
X108173Y188211D01*
X108198Y188178D01*
X108202Y188175D01*
X108213Y188164D01*
X108227Y188149D01*
X108253Y188127D01*
X108282Y188105D01*
X108322Y188080D01*
X108369Y188055D01*
X108424Y188033D01*
X108428Y188029D01*
X108446Y188025D01*
X108475Y188014D01*
X108493Y188011D01*
X108519Y188004D01*
X108544Y187993D01*
X108577Y187985D01*
X108613Y187975D01*
X108657Y187963D01*
X108701Y187953D01*
X108751Y187938D01*
X108810Y187924D01*
X108872Y187909D01*
X108875D01*
X108886Y187905D01*
X108904Y187902D01*
X108926Y187894D01*
X108955Y187887D01*
X108988Y187880D01*
X109061Y187858D01*
X109141Y187832D01*
X109225Y187807D01*
X109298Y187782D01*
X109330Y187767D01*
X109359Y187752D01*
X109363D01*
X109367Y187749D01*
X109388Y187734D01*
X109421Y187716D01*
X109458Y187687D01*
X109501Y187654D01*
X109545Y187614D01*
X109589Y187567D01*
X109625Y187516D01*
X109629Y187508D01*
X109640Y187490D01*
X109654Y187461D01*
X109669Y187425D01*
X109683Y187378D01*
X109698Y187323D01*
X109709Y187265D01*
X109712Y187203D01*
Y187199D01*
Y187196D01*
Y187185D01*
Y187170D01*
X109705Y187134D01*
X109698Y187086D01*
X109687Y187032D01*
X109669Y186970D01*
X109643Y186908D01*
X109607Y186846D01*
Y186842D01*
X109603Y186839D01*
X109585Y186817D01*
X109560Y186788D01*
X109527Y186751D01*
X109483Y186711D01*
X109429Y186668D01*
X109363Y186628D01*
X109290Y186591D01*
X109287D01*
X109279Y186588D01*
X109268Y186584D01*
X109254Y186577D01*
X109236Y186569D01*
X109210Y186562D01*
X109155Y186548D01*
X109086Y186533D01*
X109006Y186519D01*
X108923Y186507D01*
X108828Y186504D01*
X108781D01*
X108755Y186507D01*
X108730D01*
X108660Y186515D01*
X108584Y186526D01*
X108504Y186544D01*
X108417Y186566D01*
X108336Y186595D01*
X108333D01*
X108326Y186599D01*
X108315Y186606D01*
X108300Y186613D01*
X108264Y186631D01*
X108216Y186664D01*
X108162Y186700D01*
X108107Y186748D01*
X108056Y186802D01*
X108009Y186864D01*
Y186868D01*
X108005Y186872D01*
X107998Y186882D01*
X107991Y186893D01*
X107973Y186930D01*
X107951Y186977D01*
X107925Y187035D01*
X107907Y187104D01*
X107889Y187177D01*
X107881Y187257D01*
X108202Y187283D01*
Y187279D01*
Y187272D01*
X108205Y187261D01*
X108209Y187243D01*
X108220Y187203D01*
X108235Y187148D01*
X108256Y187090D01*
X108289Y187032D01*
X108329Y186977D01*
X108380Y186926D01*
X108387Y186923D01*
X108406Y186908D01*
X108442Y186886D01*
X108489Y186864D01*
X108551Y186842D01*
X108624Y186821D01*
X108715Y186806D01*
X108817Y186802D01*
X108868D01*
X108890Y186806D01*
X108919Y186810D01*
X108984Y186817D01*
X109057Y186831D01*
X109130Y186850D01*
X109199Y186879D01*
X109228Y186897D01*
X109257Y186915D01*
X109265Y186919D01*
X109279Y186933D01*
X109301Y186959D01*
X109323Y186988D01*
X109348Y187028D01*
X109370Y187072D01*
X109385Y187123D01*
X109392Y187181D01*
Y187188D01*
Y187203D01*
X109388Y187228D01*
X109381Y187257D01*
X109370Y187294D01*
X109352Y187330D01*
X109330Y187367D01*
X109298Y187403D01*
X109294Y187407D01*
X109276Y187417D01*
X109261Y187428D01*
X109247Y187436D01*
X109225Y187447D01*
X109199Y187461D01*
X109166Y187472D01*
X109130Y187487D01*
X109090Y187501D01*
X109043Y187520D01*
X108992Y187534D01*
X108933Y187552D01*
X108868Y187567D01*
X108795Y187585D01*
X108791D01*
X108777Y187589D01*
X108755Y187592D01*
X108730Y187600D01*
X108697Y187607D01*
X108657Y187618D01*
X108617Y187629D01*
X108573Y187640D01*
X108478Y187665D01*
X108387Y187690D01*
X108344Y187705D01*
X108304Y187720D01*
X108267Y187731D01*
X108238Y187745D01*
X108235D01*
X108227Y187749D01*
X108216Y187756D01*
X108202Y187763D01*
X108162Y187785D01*
X108115Y187814D01*
X108060Y187854D01*
X108005Y187898D01*
X107954Y187949D01*
X107911Y188004D01*
X107907Y188011D01*
X107892Y188029D01*
X107878Y188062D01*
X107856Y188105D01*
X107838Y188156D01*
X107820Y188218D01*
X107809Y188287D01*
X107805Y188360D01*
Y188364D01*
Y188368D01*
Y188379D01*
Y188393D01*
X107812Y188433D01*
X107820Y188484D01*
X107834Y188542D01*
X107852Y188604D01*
X107881Y188670D01*
X107922Y188739D01*
Y188742D01*
X107925Y188746D01*
X107943Y188768D01*
X107969Y188801D01*
X108005Y188837D01*
X108053Y188881D01*
X108111Y188928D01*
X108176Y188972D01*
X108253Y189012D01*
X108256D01*
X108264Y189015D01*
X108275Y189019D01*
X108289Y189026D01*
X108311Y189034D01*
X108336Y189045D01*
X108395Y189059D01*
X108464Y189077D01*
X108548Y189096D01*
X108639Y189107D01*
X108737Y189110D01*
X108795D01*
X108824Y189107D01*
D02*
G37*
G36*
X107579Y186548D02*
X107234D01*
X106859Y188200D01*
Y188204D01*
X106855Y188211D01*
X106851Y188226D01*
X106848Y188244D01*
X106844Y188269D01*
X106837Y188295D01*
X106830Y188328D01*
X106822Y188364D01*
X106804Y188440D01*
X106786Y188528D01*
X106768Y188622D01*
X106749Y188717D01*
Y188713D01*
X106746Y188699D01*
X106739Y188681D01*
X106735Y188652D01*
X106728Y188622D01*
X106717Y188586D01*
X106699Y188506D01*
X106677Y188426D01*
X106669Y188386D01*
X106658Y188349D01*
X106651Y188317D01*
X106644Y188287D01*
X106637Y188266D01*
X106633Y188251D01*
X106156Y186548D01*
X105752D01*
X105395Y187825D01*
Y187829D01*
X105388Y187847D01*
X105381Y187873D01*
X105374Y187905D01*
X105363Y187949D01*
X105348Y187996D01*
X105333Y188051D01*
X105319Y188113D01*
X105301Y188182D01*
X105286Y188251D01*
X105253Y188400D01*
X105221Y188557D01*
X105195Y188717D01*
Y188713D01*
X105192Y188706D01*
Y188691D01*
X105184Y188673D01*
X105181Y188652D01*
X105173Y188626D01*
X105170Y188593D01*
X105159Y188557D01*
X105141Y188477D01*
X105119Y188382D01*
X105097Y188280D01*
X105068Y188167D01*
X104675Y186548D01*
X104336D01*
X105028Y189067D01*
X105355D01*
X105883Y187148D01*
Y187144D01*
X105887Y187137D01*
X105890Y187126D01*
X105894Y187108D01*
X105905Y187068D01*
X105916Y187021D01*
X105930Y186970D01*
X105945Y186923D01*
X105956Y186882D01*
X105960Y186864D01*
X105963Y186853D01*
Y186857D01*
X105967Y186861D01*
X105971Y186882D01*
X105978Y186915D01*
X105989Y186955D01*
X106000Y186999D01*
X106014Y187050D01*
X106025Y187101D01*
X106040Y187148D01*
X106571Y189067D01*
X106921D01*
X107579Y186548D01*
D02*
G37*
G36*
X104194Y189063D02*
Y189048D01*
Y189026D01*
X104191Y188997D01*
X104187Y188964D01*
X104180Y188928D01*
X104172Y188892D01*
X104158Y188852D01*
Y188848D01*
X104154Y188844D01*
X104147Y188823D01*
X104132Y188790D01*
X104111Y188746D01*
X104081Y188695D01*
X104045Y188637D01*
X104005Y188579D01*
X103954Y188517D01*
Y188513D01*
X103947Y188510D01*
X103928Y188488D01*
X103896Y188455D01*
X103848Y188408D01*
X103794Y188353D01*
X103725Y188287D01*
X103641Y188215D01*
X103550Y188138D01*
X103546Y188135D01*
X103532Y188124D01*
X103510Y188105D01*
X103484Y188084D01*
X103452Y188055D01*
X103412Y188022D01*
X103372Y187985D01*
X103324Y187945D01*
X103233Y187858D01*
X103142Y187771D01*
X103099Y187727D01*
X103059Y187683D01*
X103022Y187643D01*
X102993Y187603D01*
Y187600D01*
X102986Y187596D01*
X102978Y187585D01*
X102971Y187570D01*
X102946Y187530D01*
X102917Y187483D01*
X102891Y187425D01*
X102866Y187363D01*
X102851Y187294D01*
X102844Y187228D01*
Y187225D01*
Y187221D01*
X102847Y187199D01*
X102851Y187163D01*
X102862Y187123D01*
X102876Y187072D01*
X102902Y187021D01*
X102935Y186970D01*
X102978Y186919D01*
X102986Y186912D01*
X103004Y186897D01*
X103029Y186879D01*
X103069Y186853D01*
X103120Y186831D01*
X103179Y186810D01*
X103248Y186795D01*
X103324Y186792D01*
X103346D01*
X103361Y186795D01*
X103404Y186799D01*
X103455Y186810D01*
X103510Y186824D01*
X103572Y186850D01*
X103630Y186882D01*
X103685Y186926D01*
X103692Y186933D01*
X103706Y186952D01*
X103728Y186981D01*
X103750Y187024D01*
X103776Y187075D01*
X103797Y187141D01*
X103812Y187214D01*
X103819Y187297D01*
X104136Y187265D01*
Y187261D01*
X104132Y187250D01*
Y187232D01*
X104129Y187206D01*
X104121Y187177D01*
X104114Y187144D01*
X104103Y187104D01*
X104092Y187065D01*
X104063Y186977D01*
X104019Y186890D01*
X103994Y186846D01*
X103961Y186802D01*
X103928Y186762D01*
X103892Y186726D01*
X103888Y186722D01*
X103881Y186719D01*
X103870Y186708D01*
X103852Y186697D01*
X103830Y186682D01*
X103805Y186668D01*
X103776Y186650D01*
X103739Y186631D01*
X103699Y186613D01*
X103656Y186595D01*
X103608Y186580D01*
X103557Y186566D01*
X103503Y186555D01*
X103444Y186544D01*
X103383Y186540D01*
X103317Y186537D01*
X103280D01*
X103255Y186540D01*
X103226Y186544D01*
X103190Y186548D01*
X103149Y186555D01*
X103110Y186562D01*
X103015Y186588D01*
X102920Y186624D01*
X102873Y186646D01*
X102825Y186671D01*
X102782Y186704D01*
X102742Y186741D01*
X102738Y186744D01*
X102731Y186748D01*
X102724Y186762D01*
X102709Y186777D01*
X102691Y186795D01*
X102673Y186821D01*
X102655Y186846D01*
X102633Y186879D01*
X102596Y186948D01*
X102560Y187035D01*
X102545Y187079D01*
X102538Y187130D01*
X102531Y187181D01*
X102527Y187235D01*
Y187243D01*
Y187261D01*
X102531Y187290D01*
X102534Y187330D01*
X102542Y187374D01*
X102556Y187425D01*
X102571Y187479D01*
X102593Y187534D01*
X102596Y187541D01*
X102603Y187559D01*
X102618Y187589D01*
X102640Y187629D01*
X102669Y187672D01*
X102705Y187727D01*
X102749Y187782D01*
X102800Y187843D01*
X102807Y187851D01*
X102825Y187873D01*
X102844Y187891D01*
X102862Y187909D01*
X102884Y187931D01*
X102913Y187960D01*
X102942Y187989D01*
X102978Y188022D01*
X103015Y188058D01*
X103059Y188098D01*
X103106Y188138D01*
X103157Y188186D01*
X103215Y188233D01*
X103273Y188284D01*
X103277Y188287D01*
X103284Y188295D01*
X103299Y188306D01*
X103317Y188320D01*
X103339Y188342D01*
X103364Y188364D01*
X103422Y188411D01*
X103484Y188466D01*
X103543Y188521D01*
X103594Y188568D01*
X103615Y188586D01*
X103634Y188604D01*
X103637Y188608D01*
X103648Y188619D01*
X103663Y188633D01*
X103681Y188655D01*
X103699Y188681D01*
X103721Y188706D01*
X103765Y188768D01*
X102523D01*
Y189067D01*
X104194D01*
Y189063D01*
D02*
G37*
G36*
X162887Y51996D02*
X162923D01*
X162960Y51993D01*
X163007Y51989D01*
X163054Y51982D01*
X163160Y51964D01*
X163276Y51938D01*
X163393Y51902D01*
X163506Y51851D01*
X163509Y51847D01*
X163520Y51844D01*
X163535Y51836D01*
X163553Y51822D01*
X163578Y51807D01*
X163608Y51789D01*
X163673Y51742D01*
X163746Y51680D01*
X163819Y51607D01*
X163891Y51523D01*
X163953Y51425D01*
X163957Y51421D01*
X163961Y51410D01*
X163968Y51396D01*
X163979Y51378D01*
X163990Y51349D01*
X164001Y51319D01*
X164015Y51283D01*
X164030Y51243D01*
X164044Y51199D01*
X164059Y51152D01*
X164081Y51050D01*
X164099Y50933D01*
X164106Y50813D01*
Y50777D01*
X164102Y50752D01*
X164099Y50719D01*
X164095Y50679D01*
X164092Y50639D01*
X164081Y50591D01*
X164059Y50493D01*
X164026Y50384D01*
X164004Y50329D01*
X163979Y50278D01*
X163946Y50227D01*
X163913Y50176D01*
X163910Y50173D01*
X163906Y50165D01*
X163895Y50151D01*
X163877Y50133D01*
X163859Y50115D01*
X163833Y50089D01*
X163804Y50064D01*
X163775Y50034D01*
X163739Y50005D01*
X163695Y49976D01*
X163651Y49943D01*
X163604Y49914D01*
X163549Y49889D01*
X163495Y49860D01*
X163436Y49838D01*
X163371Y49816D01*
X163294Y50144D01*
X163298D01*
X163305Y50147D01*
X163320Y50155D01*
X163338Y50162D01*
X163360Y50169D01*
X163389Y50180D01*
X163447Y50209D01*
X163513Y50245D01*
X163578Y50289D01*
X163640Y50344D01*
X163695Y50402D01*
X163702Y50409D01*
X163717Y50431D01*
X163735Y50468D01*
X163760Y50515D01*
X163782Y50577D01*
X163804Y50646D01*
X163819Y50730D01*
X163822Y50821D01*
Y50850D01*
X163819Y50868D01*
Y50893D01*
X163815Y50923D01*
X163804Y50992D01*
X163789Y51068D01*
X163764Y51148D01*
X163728Y51232D01*
X163680Y51308D01*
Y51312D01*
X163673Y51316D01*
X163655Y51341D01*
X163626Y51374D01*
X163582Y51414D01*
X163527Y51461D01*
X163466Y51505D01*
X163389Y51545D01*
X163305Y51581D01*
X163302D01*
X163294Y51585D01*
X163284Y51589D01*
X163265Y51592D01*
X163243Y51600D01*
X163218Y51607D01*
X163156Y51618D01*
X163083Y51632D01*
X163003Y51647D01*
X162916Y51654D01*
X162821Y51658D01*
X162818D01*
X162807D01*
X162788D01*
X162767D01*
X162741Y51654D01*
X162708D01*
X162672Y51651D01*
X162632Y51647D01*
X162545Y51636D01*
X162450Y51618D01*
X162355Y51596D01*
X162261Y51567D01*
X162257D01*
X162250Y51563D01*
X162239Y51556D01*
X162221Y51549D01*
X162177Y51527D01*
X162126Y51494D01*
X162068Y51454D01*
X162006Y51403D01*
X161951Y51345D01*
X161900Y51276D01*
Y51272D01*
X161897Y51265D01*
X161889Y51254D01*
X161882Y51239D01*
X161875Y51221D01*
X161864Y51199D01*
X161842Y51148D01*
X161820Y51083D01*
X161802Y51010D01*
X161787Y50930D01*
X161784Y50846D01*
Y50821D01*
X161787Y50799D01*
Y50773D01*
X161791Y50748D01*
X161806Y50682D01*
X161824Y50606D01*
X161853Y50529D01*
X161893Y50449D01*
X161915Y50409D01*
X161944Y50373D01*
X161948Y50369D01*
X161951Y50366D01*
X161962Y50355D01*
X161973Y50340D01*
X161991Y50326D01*
X162013Y50307D01*
X162035Y50286D01*
X162064Y50267D01*
X162097Y50245D01*
X162133Y50220D01*
X162170Y50198D01*
X162213Y50176D01*
X162261Y50158D01*
X162312Y50140D01*
X162366Y50122D01*
X162425Y50107D01*
X162341Y49772D01*
X162337D01*
X162323Y49776D01*
X162301Y49783D01*
X162272Y49794D01*
X162239Y49805D01*
X162199Y49820D01*
X162155Y49838D01*
X162108Y49860D01*
X162006Y49911D01*
X161904Y49976D01*
X161853Y50016D01*
X161802Y50056D01*
X161758Y50100D01*
X161715Y50151D01*
X161711Y50155D01*
X161704Y50162D01*
X161697Y50180D01*
X161682Y50198D01*
X161664Y50227D01*
X161646Y50257D01*
X161627Y50296D01*
X161609Y50336D01*
X161587Y50384D01*
X161569Y50435D01*
X161551Y50489D01*
X161533Y50548D01*
X161518Y50610D01*
X161511Y50675D01*
X161504Y50744D01*
X161500Y50817D01*
Y50857D01*
X161504Y50886D01*
Y50919D01*
X161507Y50959D01*
X161514Y51003D01*
X161522Y51054D01*
X161540Y51159D01*
X161569Y51268D01*
X161609Y51378D01*
X161635Y51429D01*
X161664Y51480D01*
X161667Y51483D01*
X161671Y51490D01*
X161682Y51505D01*
X161697Y51520D01*
X161711Y51541D01*
X161733Y51567D01*
X161758Y51596D01*
X161787Y51625D01*
X161820Y51654D01*
X161853Y51687D01*
X161937Y51753D01*
X162035Y51814D01*
X162144Y51869D01*
X162148D01*
X162159Y51876D01*
X162177Y51880D01*
X162199Y51891D01*
X162228Y51898D01*
X162264Y51909D01*
X162304Y51924D01*
X162348Y51934D01*
X162395Y51945D01*
X162450Y51960D01*
X162563Y51978D01*
X162690Y51993D01*
X162821Y52000D01*
X162825D01*
X162839D01*
X162861D01*
X162887Y51996D01*
D02*
G37*
G36*
X164062Y48440D02*
Y48189D01*
X162432D01*
Y47847D01*
X162148D01*
Y48189D01*
X161544D01*
Y48498D01*
X162148D01*
Y49594D01*
X162432D01*
X164062Y48440D01*
D02*
G37*
G36*
X163440Y47290D02*
X163447Y47283D01*
X163451Y47268D01*
X163462Y47250D01*
X163473Y47228D01*
X163487Y47203D01*
X163524Y47141D01*
X163564Y47068D01*
X163615Y46995D01*
X163673Y46919D01*
X163735Y46842D01*
X163739Y46839D01*
X163742Y46835D01*
X163753Y46824D01*
X163764Y46809D01*
X163800Y46777D01*
X163844Y46733D01*
X163895Y46689D01*
X163953Y46642D01*
X164012Y46602D01*
X164073Y46565D01*
Y46365D01*
X161544D01*
Y46675D01*
X163513D01*
X163509Y46678D01*
X163495Y46697D01*
X163473Y46718D01*
X163447Y46755D01*
X163415Y46795D01*
X163378Y46846D01*
X163338Y46904D01*
X163298Y46970D01*
Y46973D01*
X163294Y46977D01*
X163280Y46999D01*
X163262Y47035D01*
X163240Y47079D01*
X163214Y47130D01*
X163189Y47184D01*
X163163Y47239D01*
X163142Y47293D01*
X163440D01*
Y47290D01*
D02*
G37*
G36*
X167748Y80603D02*
X167781Y80599D01*
X167821Y80595D01*
X167861Y80592D01*
X167909Y80581D01*
X168007Y80559D01*
X168116Y80526D01*
X168171Y80504D01*
X168222Y80479D01*
X168273Y80446D01*
X168324Y80413D01*
X168327Y80410D01*
X168334Y80406D01*
X168349Y80395D01*
X168367Y80377D01*
X168386Y80359D01*
X168411Y80333D01*
X168436Y80304D01*
X168466Y80275D01*
X168495Y80238D01*
X168524Y80195D01*
X168556Y80151D01*
X168586Y80104D01*
X168611Y80049D01*
X168640Y79995D01*
X168662Y79936D01*
X168684Y79871D01*
X168356Y79795D01*
Y79798D01*
X168353Y79805D01*
X168345Y79820D01*
X168338Y79838D01*
X168331Y79860D01*
X168320Y79889D01*
X168291Y79947D01*
X168254Y80013D01*
X168211Y80078D01*
X168156Y80140D01*
X168098Y80195D01*
X168091Y80202D01*
X168069Y80217D01*
X168032Y80235D01*
X167985Y80260D01*
X167923Y80282D01*
X167854Y80304D01*
X167770Y80319D01*
X167679Y80322D01*
X167650D01*
X167632Y80319D01*
X167606D01*
X167577Y80315D01*
X167508Y80304D01*
X167432Y80290D01*
X167352Y80264D01*
X167268Y80228D01*
X167192Y80180D01*
X167188D01*
X167184Y80173D01*
X167159Y80155D01*
X167126Y80126D01*
X167086Y80082D01*
X167039Y80027D01*
X166995Y79966D01*
X166955Y79889D01*
X166919Y79805D01*
Y79802D01*
X166915Y79795D01*
X166911Y79784D01*
X166908Y79765D01*
X166900Y79743D01*
X166893Y79718D01*
X166882Y79656D01*
X166868Y79583D01*
X166853Y79503D01*
X166846Y79416D01*
X166842Y79321D01*
Y79318D01*
Y79307D01*
Y79289D01*
Y79267D01*
X166846Y79241D01*
Y79208D01*
X166849Y79172D01*
X166853Y79132D01*
X166864Y79045D01*
X166882Y78950D01*
X166904Y78855D01*
X166933Y78761D01*
Y78757D01*
X166937Y78750D01*
X166944Y78739D01*
X166951Y78721D01*
X166973Y78677D01*
X167006Y78626D01*
X167046Y78568D01*
X167097Y78506D01*
X167155Y78451D01*
X167224Y78400D01*
X167228D01*
X167235Y78397D01*
X167246Y78389D01*
X167261Y78382D01*
X167279Y78375D01*
X167301Y78364D01*
X167352Y78342D01*
X167417Y78320D01*
X167490Y78302D01*
X167570Y78288D01*
X167654Y78284D01*
X167679D01*
X167701Y78288D01*
X167727D01*
X167752Y78291D01*
X167818Y78306D01*
X167894Y78324D01*
X167971Y78353D01*
X168051Y78393D01*
X168091Y78415D01*
X168127Y78444D01*
X168131Y78448D01*
X168134Y78451D01*
X168145Y78462D01*
X168160Y78473D01*
X168174Y78491D01*
X168193Y78513D01*
X168214Y78535D01*
X168233Y78564D01*
X168254Y78597D01*
X168280Y78633D01*
X168302Y78670D01*
X168324Y78713D01*
X168342Y78761D01*
X168360Y78812D01*
X168378Y78866D01*
X168393Y78925D01*
X168728Y78841D01*
Y78837D01*
X168724Y78823D01*
X168717Y78801D01*
X168706Y78772D01*
X168695Y78739D01*
X168680Y78699D01*
X168662Y78655D01*
X168640Y78608D01*
X168589Y78506D01*
X168524Y78404D01*
X168484Y78353D01*
X168444Y78302D01*
X168400Y78258D01*
X168349Y78215D01*
X168345Y78211D01*
X168338Y78204D01*
X168320Y78197D01*
X168302Y78182D01*
X168273Y78164D01*
X168244Y78146D01*
X168203Y78127D01*
X168163Y78109D01*
X168116Y78087D01*
X168065Y78069D01*
X168010Y78051D01*
X167952Y78033D01*
X167890Y78018D01*
X167825Y78011D01*
X167756Y78004D01*
X167683Y78000D01*
X167643D01*
X167614Y78004D01*
X167581D01*
X167541Y78007D01*
X167497Y78014D01*
X167446Y78022D01*
X167341Y78040D01*
X167232Y78069D01*
X167122Y78109D01*
X167071Y78135D01*
X167020Y78164D01*
X167017Y78167D01*
X167009Y78171D01*
X166995Y78182D01*
X166980Y78197D01*
X166959Y78211D01*
X166933Y78233D01*
X166904Y78258D01*
X166875Y78288D01*
X166846Y78320D01*
X166813Y78353D01*
X166747Y78437D01*
X166686Y78535D01*
X166631Y78644D01*
Y78648D01*
X166624Y78659D01*
X166620Y78677D01*
X166609Y78699D01*
X166602Y78728D01*
X166591Y78764D01*
X166576Y78804D01*
X166566Y78848D01*
X166554Y78895D01*
X166540Y78950D01*
X166522Y79063D01*
X166507Y79190D01*
X166500Y79321D01*
Y79325D01*
Y79339D01*
Y79361D01*
X166504Y79387D01*
Y79423D01*
X166507Y79460D01*
X166511Y79507D01*
X166518Y79554D01*
X166536Y79660D01*
X166562Y79776D01*
X166598Y79893D01*
X166649Y80006D01*
X166653Y80009D01*
X166656Y80020D01*
X166664Y80035D01*
X166678Y80053D01*
X166693Y80078D01*
X166711Y80107D01*
X166758Y80173D01*
X166820Y80246D01*
X166893Y80319D01*
X166977Y80391D01*
X167075Y80453D01*
X167079Y80457D01*
X167090Y80461D01*
X167104Y80468D01*
X167122Y80479D01*
X167151Y80490D01*
X167181Y80501D01*
X167217Y80515D01*
X167257Y80530D01*
X167301Y80544D01*
X167348Y80559D01*
X167450Y80581D01*
X167567Y80599D01*
X167687Y80606D01*
X167723D01*
X167748Y80603D01*
D02*
G37*
G36*
X171865Y80570D02*
X171894Y80566D01*
X171931Y80563D01*
X171971Y80555D01*
X172011Y80548D01*
X172106Y80523D01*
X172200Y80486D01*
X172248Y80464D01*
X172295Y80439D01*
X172338Y80406D01*
X172379Y80370D01*
X172382Y80366D01*
X172389Y80362D01*
X172397Y80348D01*
X172411Y80333D01*
X172430Y80315D01*
X172448Y80290D01*
X172466Y80264D01*
X172488Y80231D01*
X172524Y80162D01*
X172561Y80075D01*
X172575Y80031D01*
X172582Y79980D01*
X172590Y79929D01*
X172593Y79874D01*
Y79867D01*
Y79849D01*
X172590Y79820D01*
X172586Y79780D01*
X172579Y79736D01*
X172564Y79685D01*
X172550Y79631D01*
X172528Y79576D01*
X172524Y79569D01*
X172517Y79551D01*
X172502Y79522D01*
X172480Y79481D01*
X172451Y79438D01*
X172415Y79383D01*
X172371Y79329D01*
X172320Y79267D01*
X172313Y79259D01*
X172295Y79238D01*
X172277Y79219D01*
X172258Y79201D01*
X172237Y79179D01*
X172207Y79150D01*
X172178Y79121D01*
X172142Y79088D01*
X172106Y79052D01*
X172062Y79012D01*
X172015Y78972D01*
X171964Y78925D01*
X171905Y78877D01*
X171847Y78826D01*
X171844Y78823D01*
X171836Y78815D01*
X171822Y78804D01*
X171803Y78790D01*
X171782Y78768D01*
X171756Y78746D01*
X171698Y78699D01*
X171636Y78644D01*
X171578Y78590D01*
X171527Y78542D01*
X171505Y78524D01*
X171487Y78506D01*
X171483Y78502D01*
X171472Y78491D01*
X171458Y78477D01*
X171439Y78455D01*
X171421Y78430D01*
X171399Y78404D01*
X171356Y78342D01*
X172597D01*
Y78044D01*
X170926D01*
Y78047D01*
Y78062D01*
Y78084D01*
X170930Y78113D01*
X170933Y78146D01*
X170941Y78182D01*
X170948Y78218D01*
X170963Y78258D01*
Y78262D01*
X170966Y78266D01*
X170974Y78288D01*
X170988Y78320D01*
X171010Y78364D01*
X171039Y78415D01*
X171075Y78473D01*
X171116Y78531D01*
X171166Y78593D01*
Y78597D01*
X171174Y78601D01*
X171192Y78622D01*
X171225Y78655D01*
X171272Y78702D01*
X171327Y78757D01*
X171396Y78823D01*
X171479Y78895D01*
X171571Y78972D01*
X171574Y78975D01*
X171589Y78986D01*
X171610Y79005D01*
X171636Y79026D01*
X171669Y79056D01*
X171709Y79088D01*
X171749Y79125D01*
X171796Y79165D01*
X171887Y79252D01*
X171978Y79339D01*
X172022Y79383D01*
X172062Y79427D01*
X172098Y79467D01*
X172127Y79507D01*
Y79511D01*
X172135Y79514D01*
X172142Y79525D01*
X172149Y79540D01*
X172175Y79580D01*
X172204Y79627D01*
X172229Y79685D01*
X172255Y79747D01*
X172269Y79816D01*
X172277Y79882D01*
Y79886D01*
Y79889D01*
X172273Y79911D01*
X172269Y79947D01*
X172258Y79987D01*
X172244Y80038D01*
X172218Y80089D01*
X172186Y80140D01*
X172142Y80191D01*
X172135Y80199D01*
X172116Y80213D01*
X172091Y80231D01*
X172051Y80257D01*
X172000Y80279D01*
X171942Y80300D01*
X171873Y80315D01*
X171796Y80319D01*
X171774D01*
X171760Y80315D01*
X171716Y80311D01*
X171665Y80300D01*
X171610Y80286D01*
X171549Y80260D01*
X171490Y80228D01*
X171436Y80184D01*
X171429Y80177D01*
X171414Y80159D01*
X171392Y80129D01*
X171370Y80086D01*
X171345Y80035D01*
X171323Y79969D01*
X171308Y79896D01*
X171301Y79813D01*
X170984Y79845D01*
Y79849D01*
X170988Y79860D01*
Y79878D01*
X170992Y79904D01*
X170999Y79933D01*
X171006Y79966D01*
X171017Y80006D01*
X171028Y80046D01*
X171057Y80133D01*
X171101Y80220D01*
X171126Y80264D01*
X171159Y80308D01*
X171192Y80348D01*
X171228Y80384D01*
X171232Y80388D01*
X171239Y80391D01*
X171250Y80402D01*
X171268Y80413D01*
X171290Y80428D01*
X171316Y80442D01*
X171345Y80461D01*
X171381Y80479D01*
X171421Y80497D01*
X171465Y80515D01*
X171512Y80530D01*
X171563Y80544D01*
X171618Y80555D01*
X171676Y80566D01*
X171738Y80570D01*
X171803Y80573D01*
X171840D01*
X171865Y80570D01*
D02*
G37*
G36*
X170311Y78932D02*
X170653D01*
Y78648D01*
X170311D01*
Y78044D01*
X170002D01*
Y78648D01*
X168906D01*
Y78932D01*
X170060Y80563D01*
X170311D01*
Y78932D01*
D02*
G37*
G36*
X82552Y90492D02*
X82577D01*
X82647Y90485D01*
X82723Y90474D01*
X82803Y90456D01*
X82890Y90434D01*
X82971Y90405D01*
X82974D01*
X82981Y90401D01*
X82992Y90394D01*
X83007Y90387D01*
X83043Y90369D01*
X83091Y90336D01*
X83145Y90299D01*
X83200Y90252D01*
X83251Y90198D01*
X83298Y90136D01*
Y90132D01*
X83302Y90128D01*
X83309Y90118D01*
X83316Y90107D01*
X83335Y90070D01*
X83356Y90023D01*
X83382Y89965D01*
X83400Y89895D01*
X83418Y89823D01*
X83426Y89743D01*
X83105Y89717D01*
Y89721D01*
Y89728D01*
X83102Y89739D01*
X83098Y89757D01*
X83087Y89797D01*
X83073Y89852D01*
X83051Y89910D01*
X83018Y89968D01*
X82978Y90023D01*
X82927Y90074D01*
X82920Y90078D01*
X82901Y90092D01*
X82865Y90114D01*
X82818Y90136D01*
X82756Y90158D01*
X82683Y90179D01*
X82592Y90194D01*
X82490Y90198D01*
X82439D01*
X82417Y90194D01*
X82388Y90190D01*
X82323Y90183D01*
X82250Y90168D01*
X82177Y90150D01*
X82108Y90121D01*
X82079Y90103D01*
X82050Y90085D01*
X82042Y90081D01*
X82028Y90067D01*
X82006Y90041D01*
X81984Y90012D01*
X81959Y89972D01*
X81937Y89928D01*
X81922Y89877D01*
X81915Y89819D01*
Y89812D01*
Y89797D01*
X81919Y89772D01*
X81926Y89743D01*
X81937Y89706D01*
X81955Y89670D01*
X81977Y89633D01*
X82010Y89597D01*
X82013Y89593D01*
X82031Y89582D01*
X82046Y89571D01*
X82061Y89564D01*
X82082Y89553D01*
X82108Y89539D01*
X82141Y89528D01*
X82177Y89513D01*
X82217Y89499D01*
X82264Y89481D01*
X82315Y89466D01*
X82374Y89448D01*
X82439Y89433D01*
X82512Y89415D01*
X82516D01*
X82530Y89411D01*
X82552Y89408D01*
X82577Y89401D01*
X82610Y89393D01*
X82650Y89382D01*
X82690Y89371D01*
X82734Y89360D01*
X82829Y89335D01*
X82920Y89310D01*
X82963Y89295D01*
X83003Y89280D01*
X83040Y89269D01*
X83069Y89255D01*
X83073D01*
X83080Y89251D01*
X83091Y89244D01*
X83105Y89237D01*
X83145Y89215D01*
X83193Y89186D01*
X83247Y89146D01*
X83302Y89102D01*
X83353Y89051D01*
X83396Y88996D01*
X83400Y88989D01*
X83415Y88971D01*
X83429Y88938D01*
X83451Y88894D01*
X83469Y88844D01*
X83487Y88782D01*
X83498Y88713D01*
X83502Y88640D01*
Y88636D01*
Y88632D01*
Y88621D01*
Y88607D01*
X83495Y88567D01*
X83487Y88516D01*
X83473Y88458D01*
X83455Y88396D01*
X83426Y88330D01*
X83385Y88261D01*
Y88257D01*
X83382Y88254D01*
X83364Y88232D01*
X83338Y88199D01*
X83302Y88163D01*
X83254Y88119D01*
X83196Y88072D01*
X83131Y88028D01*
X83054Y87988D01*
X83051D01*
X83043Y87985D01*
X83032Y87981D01*
X83018Y87974D01*
X82996Y87966D01*
X82971Y87955D01*
X82912Y87941D01*
X82843Y87923D01*
X82759Y87904D01*
X82668Y87893D01*
X82570Y87890D01*
X82512D01*
X82483Y87893D01*
X82450D01*
X82414Y87897D01*
X82370Y87901D01*
X82279Y87915D01*
X82184Y87930D01*
X82090Y87955D01*
X81999Y87988D01*
X81995D01*
X81988Y87992D01*
X81977Y87999D01*
X81962Y88006D01*
X81919Y88028D01*
X81868Y88061D01*
X81809Y88105D01*
X81748Y88156D01*
X81689Y88217D01*
X81635Y88287D01*
Y88290D01*
X81627Y88297D01*
X81624Y88309D01*
X81613Y88323D01*
X81606Y88341D01*
X81595Y88363D01*
X81569Y88418D01*
X81544Y88487D01*
X81522Y88563D01*
X81507Y88651D01*
X81500Y88742D01*
X81813Y88771D01*
Y88767D01*
Y88763D01*
X81817Y88753D01*
Y88738D01*
X81824Y88705D01*
X81835Y88658D01*
X81849Y88611D01*
X81864Y88556D01*
X81889Y88505D01*
X81915Y88458D01*
X81919Y88454D01*
X81929Y88440D01*
X81948Y88414D01*
X81977Y88389D01*
X82013Y88356D01*
X82053Y88323D01*
X82108Y88290D01*
X82166Y88261D01*
X82170D01*
X82173Y88257D01*
X82184Y88254D01*
X82195Y88250D01*
X82232Y88239D01*
X82279Y88225D01*
X82337Y88210D01*
X82403Y88199D01*
X82476Y88192D01*
X82556Y88188D01*
X82588D01*
X82625Y88192D01*
X82668Y88196D01*
X82719Y88203D01*
X82778Y88210D01*
X82836Y88225D01*
X82890Y88243D01*
X82898Y88247D01*
X82916Y88254D01*
X82941Y88268D01*
X82974Y88283D01*
X83007Y88309D01*
X83043Y88334D01*
X83080Y88363D01*
X83109Y88399D01*
X83113Y88403D01*
X83120Y88418D01*
X83131Y88436D01*
X83145Y88465D01*
X83160Y88494D01*
X83171Y88530D01*
X83178Y88570D01*
X83182Y88614D01*
Y88618D01*
Y88636D01*
X83178Y88658D01*
X83174Y88687D01*
X83163Y88716D01*
X83153Y88753D01*
X83134Y88789D01*
X83109Y88822D01*
X83105Y88825D01*
X83094Y88836D01*
X83080Y88851D01*
X83054Y88873D01*
X83025Y88894D01*
X82985Y88920D01*
X82938Y88946D01*
X82883Y88967D01*
X82880Y88971D01*
X82861Y88975D01*
X82832Y88986D01*
X82814Y88989D01*
X82789Y88996D01*
X82763Y89007D01*
X82730Y89015D01*
X82694Y89025D01*
X82650Y89037D01*
X82607Y89047D01*
X82556Y89062D01*
X82497Y89077D01*
X82436Y89091D01*
X82432D01*
X82421Y89095D01*
X82403Y89098D01*
X82381Y89106D01*
X82352Y89113D01*
X82319Y89120D01*
X82246Y89142D01*
X82166Y89167D01*
X82082Y89193D01*
X82010Y89218D01*
X81977Y89233D01*
X81948Y89248D01*
X81944D01*
X81940Y89251D01*
X81919Y89266D01*
X81886Y89284D01*
X81849Y89313D01*
X81806Y89346D01*
X81762Y89386D01*
X81718Y89433D01*
X81682Y89484D01*
X81678Y89491D01*
X81667Y89510D01*
X81653Y89539D01*
X81638Y89575D01*
X81624Y89622D01*
X81609Y89677D01*
X81598Y89735D01*
X81595Y89797D01*
Y89801D01*
Y89805D01*
Y89815D01*
Y89830D01*
X81602Y89866D01*
X81609Y89914D01*
X81620Y89968D01*
X81638Y90030D01*
X81664Y90092D01*
X81700Y90154D01*
Y90158D01*
X81704Y90161D01*
X81722Y90183D01*
X81748Y90212D01*
X81780Y90249D01*
X81824Y90289D01*
X81879Y90332D01*
X81944Y90372D01*
X82017Y90409D01*
X82020D01*
X82028Y90412D01*
X82039Y90416D01*
X82053Y90423D01*
X82072Y90431D01*
X82097Y90438D01*
X82152Y90452D01*
X82221Y90467D01*
X82301Y90482D01*
X82385Y90492D01*
X82479Y90496D01*
X82526D01*
X82552Y90492D01*
D02*
G37*
G36*
X86279Y87933D02*
X85952D01*
X85424Y89852D01*
Y89855D01*
X85420Y89863D01*
X85417Y89874D01*
X85413Y89892D01*
X85402Y89932D01*
X85391Y89979D01*
X85377Y90030D01*
X85362Y90078D01*
X85351Y90118D01*
X85347Y90136D01*
X85344Y90147D01*
Y90143D01*
X85340Y90139D01*
X85337Y90118D01*
X85329Y90085D01*
X85318Y90045D01*
X85307Y90001D01*
X85293Y89950D01*
X85282Y89899D01*
X85267Y89852D01*
X84736Y87933D01*
X84386D01*
X83728Y90452D01*
X84074D01*
X84448Y88800D01*
Y88796D01*
X84452Y88789D01*
X84456Y88774D01*
X84459Y88756D01*
X84463Y88731D01*
X84470Y88705D01*
X84478Y88673D01*
X84485Y88636D01*
X84503Y88560D01*
X84521Y88472D01*
X84539Y88378D01*
X84558Y88283D01*
Y88287D01*
X84561Y88301D01*
X84569Y88319D01*
X84572Y88349D01*
X84579Y88378D01*
X84590Y88414D01*
X84609Y88494D01*
X84630Y88574D01*
X84638Y88614D01*
X84649Y88651D01*
X84656Y88683D01*
X84663Y88713D01*
X84670Y88734D01*
X84674Y88749D01*
X85151Y90452D01*
X85555D01*
X85912Y89175D01*
Y89171D01*
X85919Y89153D01*
X85926Y89127D01*
X85934Y89095D01*
X85944Y89051D01*
X85959Y89004D01*
X85974Y88949D01*
X85988Y88887D01*
X86006Y88818D01*
X86021Y88749D01*
X86054Y88600D01*
X86086Y88443D01*
X86112Y88283D01*
Y88287D01*
X86115Y88294D01*
Y88309D01*
X86123Y88327D01*
X86126Y88349D01*
X86134Y88374D01*
X86137Y88407D01*
X86148Y88443D01*
X86167Y88523D01*
X86188Y88618D01*
X86210Y88720D01*
X86239Y88833D01*
X86632Y90452D01*
X86971D01*
X86279Y87933D01*
D02*
G37*
G36*
X88321D02*
X88012D01*
Y89903D01*
X88008Y89899D01*
X87990Y89885D01*
X87968Y89863D01*
X87932Y89837D01*
X87892Y89805D01*
X87841Y89768D01*
X87783Y89728D01*
X87717Y89688D01*
X87713D01*
X87710Y89684D01*
X87688Y89670D01*
X87652Y89652D01*
X87608Y89630D01*
X87557Y89604D01*
X87502Y89579D01*
X87448Y89553D01*
X87393Y89531D01*
Y89830D01*
X87397D01*
X87404Y89837D01*
X87419Y89841D01*
X87437Y89852D01*
X87459Y89863D01*
X87484Y89877D01*
X87546Y89914D01*
X87619Y89954D01*
X87692Y90005D01*
X87768Y90063D01*
X87845Y90125D01*
X87848Y90128D01*
X87852Y90132D01*
X87863Y90143D01*
X87877Y90154D01*
X87910Y90190D01*
X87954Y90234D01*
X87997Y90285D01*
X88045Y90343D01*
X88085Y90401D01*
X88121Y90463D01*
X88321D01*
Y87933D01*
D02*
G37*
%LPC*%
G36*
X162432Y49292D02*
Y48498D01*
X163560D01*
X162432Y49292D01*
D02*
G37*
G36*
X170002Y80060D02*
X169208Y78932D01*
X170002D01*
Y80060D01*
D02*
G37*
%LPD*%
D14*
X101146Y180291D02*
X118469D01*
X101146D02*
Y195055D01*
X118469D01*
Y180291D02*
Y195055D01*
X27953Y100000D02*
X131299D01*
Y175591D01*
X27953D02*
X131299D01*
X27953Y100000D02*
Y175591D01*
X159335Y56331D02*
X163665D01*
X159335Y47669D02*
Y56331D01*
Y47669D02*
X163665D01*
Y56331D01*
X158626Y74063D02*
Y81937D01*
Y74063D02*
X174374D01*
Y81937D01*
X158626D02*
X174374D01*
X72839Y81945D02*
Y96709D01*
Y81945D02*
X90161D01*
Y96709D01*
X72839D02*
X90161D01*
X80151Y138583D02*
X76215D01*
X77527Y139894D01*
X76215Y141206D01*
X80151D01*
X76215Y142518D02*
X80151D01*
Y144486D01*
X79495Y145142D01*
X76871D01*
X76215Y144486D01*
Y142518D01*
X80151Y146454D02*
Y147766D01*
Y147110D01*
X76215D01*
X76871Y146454D01*
M02*
