G04*
G04 #@! TF.GenerationSoftware,Altium Limited,Altium Designer,22.3.1 (43)*
G04*
G04 Layer_Color=32896*
%FSLAX25Y25*%
%MOIN*%
G70*
G04*
G04 #@! TF.SameCoordinates,81C90355-7C20-497C-A289-08F7F31E86F5*
G04*
G04*
G04 #@! TF.FilePolarity,Positive*
G04*
G01*
G75*
%ADD14C,0.00787*%
D14*
X85684Y149717D02*
X92662D01*
X85684Y146283D02*
Y149717D01*
Y146283D02*
X92662D01*
Y149717D01*
X140169Y68835D02*
Y73165D01*
X148831D01*
Y68835D02*
Y73165D01*
X140169Y68835D02*
X148831D01*
X127626Y45063D02*
Y52937D01*
X143374D01*
Y45063D02*
Y52937D01*
X127626Y45063D02*
X143374D01*
X76489Y160283D02*
Y163717D01*
X69511Y160283D02*
X76489D01*
X69511D02*
Y163717D01*
X76489D01*
X138911Y46245D02*
X138255Y45589D01*
X136943D01*
X136287Y46245D01*
Y48869D01*
X136943Y49525D01*
X138255D01*
X138911Y48869D01*
X142847Y45589D02*
X141535Y46245D01*
X140223Y47557D01*
Y48869D01*
X140879Y49525D01*
X142191D01*
X142847Y48869D01*
Y48213D01*
X142191Y47557D01*
X140223D01*
X69589Y164755D02*
X70245Y165411D01*
X71557D01*
X72213Y164755D01*
Y162131D01*
X71557Y161475D01*
X70245D01*
X69589Y162131D01*
X68277Y164755D02*
X67621Y165411D01*
X66309D01*
X65653Y164755D01*
Y164099D01*
X66309Y163443D01*
X65653Y162787D01*
Y162131D01*
X66309Y161475D01*
X67621D01*
X68277Y162131D01*
Y162787D01*
X67621Y163443D01*
X68277Y164099D01*
Y164755D01*
X67621Y163443D02*
X66309D01*
M02*
