G04*
G04 #@! TF.GenerationSoftware,Altium Limited,Altium Designer,22.3.1 (43)*
G04*
G04 Layer_Color=16711935*
%FSLAX25Y25*%
%MOIN*%
G70*
G04*
G04 #@! TF.SameCoordinates,81C90355-7C20-497C-A289-08F7F31E86F5*
G04*
G04*
G04 #@! TF.FilePolarity,Positive*
G04*
G01*
G75*
%ADD11C,0.00394*%
%ADD14C,0.00787*%
%ADD143C,0.00100*%
D11*
X144846Y222543D02*
X144583Y223528D01*
X143862Y224248D01*
X142878Y224512D01*
X141894Y224248D01*
X141173Y223528D01*
X140909Y222543D01*
X141173Y221559D01*
X141894Y220838D01*
X142878Y220575D01*
X143862Y220838D01*
X144583Y221559D01*
X144846Y222543D01*
X166976Y67602D02*
X166713Y68587D01*
X165992Y69307D01*
X165008Y69571D01*
X164024Y69307D01*
X163303Y68587D01*
X163039Y67602D01*
X163303Y66618D01*
X164024Y65898D01*
X165008Y65634D01*
X165992Y65898D01*
X166713Y66618D01*
X166976Y67602D01*
X135216Y57878D02*
X134953Y58862D01*
X134232Y59583D01*
X133248Y59846D01*
X132264Y59583D01*
X131543Y58862D01*
X131279Y57878D01*
X131543Y56894D01*
X132264Y56173D01*
X133248Y55909D01*
X134232Y56173D01*
X134953Y56894D01*
X135216Y57878D01*
X128937Y94488D02*
X128993Y93496D01*
X129159Y92517D01*
X129434Y91562D01*
X129814Y90645D01*
X130295Y89775D01*
X130870Y88965D01*
X131532Y88225D01*
X132272Y87563D01*
X133082Y86988D01*
X133952Y86507D01*
X134870Y86127D01*
X135824Y85852D01*
X136803Y85686D01*
X137795Y85630D01*
X138787Y85686D01*
X139766Y85852D01*
X140721Y86127D01*
X141639Y86507D01*
X142508Y86988D01*
X143318Y87563D01*
X144059Y88224D01*
X144721Y88965D01*
X145296Y89775D01*
X145776Y90645D01*
X146156Y91562D01*
X146431Y92517D01*
X146598Y93496D01*
X146653Y94488D01*
Y181102D02*
X146598Y182094D01*
X146431Y183073D01*
X146156Y184028D01*
X145776Y184946D01*
X145296Y185815D01*
X144721Y186625D01*
X144059Y187366D01*
X143318Y188028D01*
X142508Y188603D01*
X141639Y189083D01*
X140721Y189463D01*
X139766Y189739D01*
X138787Y189905D01*
X137795Y189961D01*
X136803Y189905D01*
X135824Y189739D01*
X134870Y189463D01*
X133952Y189083D01*
X133082Y188603D01*
X132272Y188028D01*
X131532Y187366D01*
X130870Y186625D01*
X130295Y185815D01*
X129814Y184946D01*
X129434Y184028D01*
X129159Y183073D01*
X128993Y182094D01*
X128937Y181102D01*
X126736Y226087D02*
X146421D01*
X126736Y206402D02*
X146421D01*
Y226087D01*
X126736Y206402D02*
Y226087D01*
X213076Y76624D02*
X214496Y75204D01*
X200299Y61007D02*
X214496Y75204D01*
X198880Y62425D02*
X200299Y61007D01*
X196651Y60198D02*
X198879Y62425D01*
X213076Y76624D02*
X215302Y78850D01*
X215304D02*
X224073Y70081D01*
X222987Y68995D02*
X224073Y70081D01*
X222987Y68995D02*
X224240Y67742D01*
X207759Y51262D02*
X224240Y67742D01*
X206507Y52514D02*
X207759Y51262D01*
X205421Y51428D02*
X206507Y52514D01*
X196651Y60198D02*
X205421Y51428D01*
X207063Y51958D02*
X223544Y68438D01*
X103850Y243925D02*
Y247075D01*
X110150Y243925D02*
Y247075D01*
X103850Y243925D02*
X110150D01*
X103850Y247075D02*
X110150D01*
X158071Y53366D02*
Y65177D01*
X146260Y53366D02*
X158071D01*
X146260Y65177D02*
X158071D01*
X146260Y53366D02*
Y65177D01*
X90650Y134925D02*
Y138075D01*
X84350Y134925D02*
X90650D01*
X84350D02*
Y138075D01*
X90650D01*
X114094Y60094D02*
Y71906D01*
X125906D01*
Y60094D02*
Y71906D01*
X114094Y60094D02*
X125906D01*
X110925Y39350D02*
Y45650D01*
X114075Y39350D02*
Y45650D01*
X110925D02*
X114075D01*
X110925Y39350D02*
X114075D01*
X161465Y58941D02*
X173669D01*
X161465Y71146D02*
X173669D01*
Y58941D02*
Y71146D01*
X161465Y58941D02*
Y71146D01*
X209063Y181638D02*
Y186362D01*
X216937Y181638D02*
Y186362D01*
X209063D02*
X216937D01*
X209063Y181638D02*
X216937D01*
X209063Y175138D02*
Y179862D01*
X216937Y175138D02*
Y179862D01*
X209063D02*
X216937D01*
X209063Y175138D02*
X216937D01*
X206850Y180425D02*
X213150D01*
X206850Y183575D02*
X213150D01*
X206850Y180425D02*
Y183575D01*
X213150Y180425D02*
Y183575D01*
X206850Y174925D02*
X213150D01*
X206850Y178075D02*
X213150D01*
X206850Y174925D02*
Y178075D01*
X213150Y174925D02*
Y178075D01*
X209063Y188138D02*
Y192862D01*
X216937Y188138D02*
Y192862D01*
X209063D02*
X216937D01*
X209063Y188138D02*
X216937D01*
X206850Y185925D02*
X213150D01*
X206850Y189075D02*
X213150D01*
X206850Y185925D02*
Y189075D01*
X213150Y185925D02*
Y189075D01*
X206850Y191425D02*
X213150D01*
X206850Y194575D02*
X213150D01*
X206850Y191425D02*
Y194575D01*
X213150Y191425D02*
Y194575D01*
X206850Y196925D02*
X213150D01*
X206850Y200075D02*
X213150D01*
X206850Y196925D02*
Y200075D01*
X213150Y196925D02*
Y200075D01*
X197075Y177850D02*
Y184150D01*
X193925Y177850D02*
Y184150D01*
Y177850D02*
X197075D01*
X193925Y184150D02*
X197075D01*
X184425Y205114D02*
Y211413D01*
X187575Y205114D02*
Y211413D01*
X184425D02*
X187575D01*
X184425Y205114D02*
X187575D01*
X156150Y224425D02*
Y227575D01*
X149850Y224425D02*
Y227575D01*
X156150D01*
X149850Y224425D02*
X156150D01*
X110075Y226850D02*
Y233150D01*
X106925Y226850D02*
Y233150D01*
Y226850D02*
X110075D01*
X106925Y233150D02*
X110075D01*
X194350Y202575D02*
X200650D01*
X194350Y199425D02*
X200650D01*
Y202575D01*
X194350Y199425D02*
Y202575D01*
X188094Y76256D02*
X199906D01*
Y70744D02*
Y76256D01*
X188094Y70744D02*
X199906D01*
X188094D02*
Y76256D01*
X160350Y176425D02*
X166650D01*
X160350Y179575D02*
X166650D01*
Y176425D02*
Y179575D01*
X160350Y176425D02*
Y179575D01*
X94925Y225850D02*
Y232150D01*
X98075Y225850D02*
Y232150D01*
X94925D02*
X98075D01*
X94925Y225850D02*
X98075D01*
X177165Y118110D02*
X216535D01*
X177165D02*
Y157480D01*
X216535D01*
Y118110D02*
Y157480D01*
X115295Y160295D02*
X160295D01*
X115295Y115295D02*
Y160295D01*
Y115295D02*
X160295D01*
Y160295D01*
X192760Y79500D02*
Y86587D01*
X179374Y79500D02*
Y86587D01*
Y79500D02*
X192760D01*
X179374Y86587D02*
X192760D01*
X150240Y195917D02*
Y198083D01*
X144220D02*
X150240D01*
X144220Y195917D02*
Y198083D01*
Y195917D02*
X150240D01*
X166650Y187697D02*
Y190847D01*
X160350Y187697D02*
Y190847D01*
Y187697D02*
X166650D01*
X160350Y190847D02*
X166650D01*
Y182425D02*
Y185575D01*
X160350Y182425D02*
Y185575D01*
Y182425D02*
X166650D01*
X160350Y185575D02*
X166650D01*
X150240Y191917D02*
Y194083D01*
X144220D02*
X150240D01*
X144220Y191917D02*
Y194083D01*
Y191917D02*
X150240D01*
X62154Y84728D02*
X68846D01*
X62154Y88272D02*
X68846D01*
Y84728D02*
Y88272D01*
X62154Y84728D02*
Y88272D01*
X206654Y214228D02*
X213346D01*
X206654Y217772D02*
X213346D01*
X206654Y214228D02*
Y217772D01*
X213346Y214228D02*
Y217772D01*
X151807Y42957D02*
X165193D01*
X151807Y50043D02*
X165193D01*
X151807Y42957D02*
Y50043D01*
X165193Y42957D02*
Y50043D01*
X213150Y169425D02*
Y172575D01*
X206850Y169425D02*
Y172575D01*
X213150D01*
X206850Y169425D02*
X213150D01*
X84350Y140425D02*
Y143575D01*
X90650Y140425D02*
Y143575D01*
X84350Y140425D02*
X90650D01*
X84350Y143575D02*
X90650D01*
X213150Y202425D02*
Y205575D01*
X206850Y202425D02*
Y205575D01*
X213150D01*
X206850Y202425D02*
X213150D01*
X84350Y123925D02*
Y127075D01*
X90650Y123925D02*
Y127075D01*
X84350Y123925D02*
X90650D01*
X84350Y127075D02*
X90650D01*
X84350Y129425D02*
Y132575D01*
X90650Y129425D02*
Y132575D01*
X84350Y129425D02*
X90650D01*
X84350Y132575D02*
X90650D01*
X156150Y229425D02*
Y232575D01*
X149850Y229425D02*
Y232575D01*
X156150D01*
X149850Y229425D02*
X156150D01*
Y234425D02*
Y237575D01*
X149850Y234425D02*
Y237575D01*
X156150D01*
X149850Y234425D02*
X156150D01*
X116925Y233150D02*
X120075D01*
X116925Y226850D02*
X120075D01*
X116925D02*
Y233150D01*
X120075Y226850D02*
Y233150D01*
X111925D02*
X115075D01*
X111925Y226850D02*
X115075D01*
X111925D02*
Y233150D01*
X115075Y226850D02*
Y233150D01*
X213150Y207925D02*
Y211075D01*
X206850Y207925D02*
Y211075D01*
X213150D01*
X206850Y207925D02*
X213150D01*
X112201Y219425D02*
Y222575D01*
X118500Y219425D02*
Y222575D01*
X112201Y219425D02*
X118500D01*
X112201Y222575D02*
X118500D01*
X112201Y214425D02*
Y217575D01*
X118500Y214425D02*
Y217575D01*
X112201Y214425D02*
X118500D01*
X112201Y217575D02*
X118500D01*
X80925Y216350D02*
X84075D01*
X80925Y222650D02*
X84075D01*
Y216350D02*
Y222650D01*
X80925Y216350D02*
Y222650D01*
Y209650D02*
X84075D01*
X80925Y203350D02*
X84075D01*
X80925D02*
Y209650D01*
X84075Y203350D02*
Y209650D01*
X95850Y203425D02*
Y206575D01*
X102150Y203425D02*
Y206575D01*
X95850Y203425D02*
X102150D01*
X95850Y206575D02*
X102150D01*
X67425Y217350D02*
X70575D01*
X67425Y223650D02*
X70575D01*
Y217350D02*
Y223650D01*
X67425Y217350D02*
Y223650D01*
X68650Y210925D02*
Y214075D01*
X62350Y210925D02*
Y214075D01*
X68650D01*
X62350Y210925D02*
X68650D01*
Y205925D02*
Y209075D01*
X62350Y205925D02*
Y209075D01*
X68650D01*
X62350Y205925D02*
X68650D01*
X48925Y207650D02*
X52075D01*
X48925Y201350D02*
X52075D01*
X48925D02*
Y207650D01*
X52075Y201350D02*
Y207650D01*
X62350Y200425D02*
Y203575D01*
X68650Y200425D02*
Y203575D01*
X62350Y200425D02*
X68650D01*
X62350Y203575D02*
X68650D01*
X49150Y193925D02*
Y197075D01*
X42850Y193925D02*
Y197075D01*
X49150D01*
X42850Y193925D02*
X49150D01*
X164898Y199898D02*
Y212102D01*
X177102D01*
Y199898D02*
Y212102D01*
X164898Y199898D02*
X177102D01*
X68945Y93130D02*
Y96870D01*
X62055Y93130D02*
Y96870D01*
Y93130D02*
X68945D01*
X62055Y96870D02*
X68945D01*
X121130Y184555D02*
X124870D01*
X121130Y191445D02*
X124870D01*
X121130Y184555D02*
Y191445D01*
X124870Y184555D02*
Y191445D01*
X231350Y162075D02*
X237650D01*
X231350Y158925D02*
X237650D01*
X231350D02*
Y162075D01*
X237650Y158925D02*
Y162075D01*
X227425Y148350D02*
X230575D01*
X227425Y154650D02*
X230575D01*
X227425Y148350D02*
Y154650D01*
X230575Y148350D02*
Y154650D01*
X184850Y149925D02*
Y153075D01*
X191150Y149925D02*
Y153075D01*
X184850Y149925D02*
X191150D01*
X184850Y153075D02*
X191150D01*
X182925Y145150D02*
X186075D01*
X182925Y138850D02*
X186075D01*
X182925D02*
Y145150D01*
X186075Y138850D02*
Y145150D01*
X90650Y117425D02*
Y120575D01*
X84350Y117425D02*
Y120575D01*
X90650D01*
X84350Y117425D02*
X90650D01*
X167350Y76425D02*
Y79575D01*
X173650Y76425D02*
Y79575D01*
X167350Y76425D02*
X173650D01*
X167350Y79575D02*
X173650D01*
X185425Y181650D02*
X188575D01*
X185425Y175350D02*
X188575D01*
Y181650D01*
X185425Y175350D02*
Y181650D01*
X168425Y240650D02*
X171575D01*
X168425Y234350D02*
X171575D01*
X168425D02*
Y240650D01*
X171575Y234350D02*
Y240650D01*
X112201Y209425D02*
Y212575D01*
X118500Y209425D02*
Y212575D01*
X112201Y209425D02*
X118500D01*
X112201Y212575D02*
X118500D01*
X108850Y198925D02*
Y202075D01*
X115150Y198925D02*
Y202075D01*
X108850Y198925D02*
X115150D01*
X108850Y202075D02*
X115150D01*
X75850Y193925D02*
Y197075D01*
X82150Y193925D02*
Y197075D01*
X75850Y193925D02*
X82150D01*
X75850Y197075D02*
X82150D01*
X62850Y190925D02*
Y194075D01*
X69150Y190925D02*
Y194075D01*
X62850Y190925D02*
X69150D01*
X62850Y194075D02*
X69150D01*
X155925Y204350D02*
X159075D01*
X155925Y210650D02*
X159075D01*
X155925Y204350D02*
Y210650D01*
X159075Y204350D02*
Y210650D01*
X129705Y54335D02*
Y66539D01*
X141909Y54335D02*
Y66539D01*
X129705Y54335D02*
X141909D01*
X129705Y66539D02*
X141909D01*
X83213Y152614D02*
Y164386D01*
X89787Y152614D02*
Y164386D01*
X83213Y152614D02*
X89787D01*
X83213Y164386D02*
X89787D01*
X102362Y112598D02*
X112598Y102362D01*
X102362Y112598D02*
Y162992D01*
X112598Y173228D01*
X162992D01*
X173228Y162992D01*
Y112598D02*
Y162992D01*
X162992Y102362D02*
X173228Y112598D01*
X112598Y102362D02*
X162992D01*
X96457Y96457D02*
X128937D01*
X96457D02*
Y179134D01*
X128937D01*
Y181102D01*
X146654Y179134D02*
Y181102D01*
Y179134D02*
X179134D01*
Y96457D02*
Y179134D01*
X146654Y96457D02*
X179134D01*
X146654Y94488D02*
Y96457D01*
X128937Y94488D02*
Y96457D01*
D14*
X235535Y154134D02*
X252465D01*
Y121457D02*
Y154134D01*
X235535Y121457D02*
X252465D01*
X235535D02*
Y154134D01*
D143*
X106700Y209000D02*
Y234000D01*
X98300D02*
X106700D01*
X98300Y209000D02*
Y234000D01*
Y209000D02*
X106700D01*
X101000Y235300D02*
Y243700D01*
X126000D01*
Y235300D02*
Y243700D01*
X101000Y235300D02*
X126000D01*
X93331Y200000D02*
Y225000D01*
X84931D02*
X93331D01*
X84931Y200000D02*
Y225000D01*
Y200000D02*
X93331D01*
X79700D02*
Y225000D01*
X71300D02*
X79700D01*
X71300Y200000D02*
Y225000D01*
Y200000D02*
X79700D01*
X51800Y190500D02*
X60200D01*
X51800D02*
Y215500D01*
X60200D01*
Y190500D02*
Y215500D01*
X158800Y243500D02*
X167200D01*
Y218500D02*
Y243500D01*
X158800Y218500D02*
X167200D01*
X158800D02*
Y243500D01*
M02*
