G04*
G04 #@! TF.GenerationSoftware,Altium Limited,Altium Designer,22.3.1 (43)*
G04*
G04 Layer_Color=255*
%FSLAX25Y25*%
%MOIN*%
G70*
G04*
G04 #@! TF.SameCoordinates,81C90355-7C20-497C-A289-08F7F31E86F5*
G04*
G04*
G04 #@! TF.FilePolarity,Positive*
G04*
G01*
G75*
G04:AMPARAMS|DCode=19|XSize=11.02mil|YSize=33.47mil|CornerRadius=1.98mil|HoleSize=0mil|Usage=FLASHONLY|Rotation=0.000|XOffset=0mil|YOffset=0mil|HoleType=Round|Shape=RoundedRectangle|*
%AMROUNDEDRECTD19*
21,1,0.01102,0.02950,0,0,0.0*
21,1,0.00706,0.03347,0,0,0.0*
1,1,0.00397,0.00353,-0.01475*
1,1,0.00397,-0.00353,-0.01475*
1,1,0.00397,-0.00353,0.01475*
1,1,0.00397,0.00353,0.01475*
%
%ADD19ROUNDEDRECTD19*%
G04:AMPARAMS|DCode=20|XSize=11.02mil|YSize=33.47mil|CornerRadius=1.98mil|HoleSize=0mil|Usage=FLASHONLY|Rotation=270.000|XOffset=0mil|YOffset=0mil|HoleType=Round|Shape=RoundedRectangle|*
%AMROUNDEDRECTD20*
21,1,0.01102,0.02950,0,0,270.0*
21,1,0.00706,0.03347,0,0,270.0*
1,1,0.00397,-0.01475,-0.00353*
1,1,0.00397,-0.01475,0.00353*
1,1,0.00397,0.01475,0.00353*
1,1,0.00397,0.01475,-0.00353*
%
%ADD20ROUNDEDRECTD20*%
G04:AMPARAMS|DCode=21|XSize=135.83mil|YSize=135.83mil|CornerRadius=2.04mil|HoleSize=0mil|Usage=FLASHONLY|Rotation=180.000|XOffset=0mil|YOffset=0mil|HoleType=Round|Shape=RoundedRectangle|*
%AMROUNDEDRECTD21*
21,1,0.13583,0.13175,0,0,180.0*
21,1,0.13175,0.13583,0,0,180.0*
1,1,0.00408,-0.06588,0.06588*
1,1,0.00408,0.06588,0.06588*
1,1,0.00408,0.06588,-0.06588*
1,1,0.00408,-0.06588,-0.06588*
%
%ADD21ROUNDEDRECTD21*%
%ADD22R,0.08661X0.02953*%
%ADD23R,0.03543X0.02362*%
%ADD24R,0.10630X0.03937*%
%ADD25R,0.02500X0.05000*%
%ADD27R,0.04724X0.05118*%
%ADD28R,0.03150X0.06693*%
%ADD29R,0.03150X0.04331*%
%ADD30R,0.03543X0.03543*%
%ADD34R,0.05236X0.05236*%
%ADD35R,0.07874X0.03543*%
%ADD36R,0.03543X0.07874*%
%ADD37R,0.02756X0.02559*%
%ADD38R,0.05315X0.07480*%
%ADD39R,0.03740X0.06693*%
%ADD40R,0.03740X0.04134*%
%ADD41R,0.03543X0.04134*%
%ADD42R,0.04134X0.03543*%
%ADD43R,0.03543X0.03543*%
%ADD69C,0.04600*%
G04:AMPARAMS|DCode=77|XSize=64.96mil|YSize=94.49mil|CornerRadius=1.95mil|HoleSize=0mil|Usage=FLASHONLY|Rotation=0.000|XOffset=0mil|YOffset=0mil|HoleType=Round|Shape=RoundedRectangle|*
%AMROUNDEDRECTD77*
21,1,0.06496,0.09059,0,0,0.0*
21,1,0.06106,0.09449,0,0,0.0*
1,1,0.00390,0.03053,-0.04530*
1,1,0.00390,-0.03053,-0.04530*
1,1,0.00390,-0.03053,0.04530*
1,1,0.00390,0.03053,0.04530*
%
%ADD77ROUNDEDRECTD77*%
%ADD78R,0.00984X0.07480*%
G04:AMPARAMS|DCode=79|XSize=74.8mil|YSize=9.84mil|CornerRadius=0mil|HoleSize=0mil|Usage=FLASHONLY|Rotation=90.000|XOffset=0mil|YOffset=0mil|HoleType=Round|Shape=Octagon|*
%AMOCTAGOND79*
4,1,8,0.00246,0.03740,-0.00246,0.03740,-0.00492,0.03494,-0.00492,-0.03494,-0.00246,-0.03740,0.00246,-0.03740,0.00492,-0.03494,0.00492,0.03494,0.00246,0.03740,0.0*
%
%ADD79OCTAGOND79*%

%ADD80R,0.07480X0.00984*%
%ADD81R,0.02165X0.02559*%
%ADD89R,0.05906X0.05906*%
%ADD90C,0.08268*%
G04:AMPARAMS|DCode=91|XSize=49.21mil|YSize=49.21mil|CornerRadius=12.3mil|HoleSize=0mil|Usage=FLASHONLY|Rotation=180.000|XOffset=0mil|YOffset=0mil|HoleType=Round|Shape=RoundedRectangle|*
%AMROUNDEDRECTD91*
21,1,0.04921,0.02461,0,0,180.0*
21,1,0.02461,0.04921,0,0,180.0*
1,1,0.02461,-0.01230,0.01230*
1,1,0.02461,0.01230,0.01230*
1,1,0.02461,0.01230,-0.01230*
1,1,0.02461,-0.01230,-0.01230*
%
%ADD91ROUNDEDRECTD91*%
%ADD92R,0.04921X0.04921*%
%ADD93R,0.05906X0.05906*%
%ADD94C,0.05906*%
%ADD95P,0.08352X4X178.0*%
%ADD96C,0.16142*%
%ADD97C,0.07874*%
D19*
X143468Y225988D02*
D03*
X141500D02*
D03*
X139532D02*
D03*
X137563D02*
D03*
X135594D02*
D03*
X133626D02*
D03*
X131658D02*
D03*
X129689D02*
D03*
Y206500D02*
D03*
X131658D02*
D03*
X133626D02*
D03*
X135594D02*
D03*
X137563D02*
D03*
X139532D02*
D03*
X141500D02*
D03*
X143468D02*
D03*
D20*
X126835Y223134D02*
D03*
Y221165D02*
D03*
Y219197D02*
D03*
Y217228D02*
D03*
Y215260D02*
D03*
Y213291D02*
D03*
Y211323D02*
D03*
Y209354D02*
D03*
X146323D02*
D03*
Y211323D02*
D03*
Y213291D02*
D03*
Y215260D02*
D03*
Y217228D02*
D03*
Y219197D02*
D03*
Y221165D02*
D03*
Y223134D02*
D03*
X173374Y68980D02*
D03*
Y67012D02*
D03*
Y65043D02*
D03*
Y63075D02*
D03*
Y61106D02*
D03*
X161760D02*
D03*
Y63075D02*
D03*
Y65043D02*
D03*
Y67012D02*
D03*
Y68980D02*
D03*
D21*
X136579Y216244D02*
D03*
D22*
X249315Y152854D02*
D03*
Y122736D02*
D03*
D23*
X235929Y137795D02*
D03*
Y132677D02*
D03*
Y142913D02*
D03*
Y148031D02*
D03*
Y127559D02*
D03*
D24*
X152165Y63602D02*
D03*
Y54941D02*
D03*
D25*
X116000Y54227D02*
D03*
X119500D02*
D03*
X123000D02*
D03*
D27*
X209063Y184000D02*
D03*
X216937D02*
D03*
X209063Y177500D02*
D03*
X216937D02*
D03*
X209063Y190500D02*
D03*
X216937D02*
D03*
D28*
X116500Y186000D02*
D03*
X103114D02*
D03*
X88193Y91000D02*
D03*
X74807D02*
D03*
D29*
X109807Y192496D02*
D03*
X81500Y84504D02*
D03*
D30*
X166846Y178000D02*
D03*
X160154D02*
D03*
X166846Y189272D02*
D03*
X160154D02*
D03*
X166846Y184000D02*
D03*
X160154D02*
D03*
X231154Y160500D02*
D03*
X237846D02*
D03*
D34*
X94783Y141083D02*
D03*
Y133858D02*
D03*
Y126634D02*
D03*
X87559Y141083D02*
D03*
Y133858D02*
D03*
Y126634D02*
D03*
X80335Y141083D02*
D03*
Y133858D02*
D03*
Y126634D02*
D03*
D35*
X126969Y160295D02*
D03*
Y155295D02*
D03*
Y150295D02*
D03*
Y145295D02*
D03*
Y140295D02*
D03*
Y135295D02*
D03*
Y130295D02*
D03*
Y125295D02*
D03*
Y120295D02*
D03*
Y115295D02*
D03*
D36*
X58032Y171260D02*
D03*
X63032D02*
D03*
X68032D02*
D03*
X73032D02*
D03*
X78032D02*
D03*
X83032D02*
D03*
X88032D02*
D03*
X93032D02*
D03*
X98032D02*
D03*
X103032D02*
D03*
X108032D02*
D03*
X113032D02*
D03*
X118032D02*
D03*
X123032D02*
D03*
Y104331D02*
D03*
X118032D02*
D03*
X113032D02*
D03*
X108032D02*
D03*
X103032D02*
D03*
X98032D02*
D03*
X93032D02*
D03*
X88032D02*
D03*
X83032D02*
D03*
X78032D02*
D03*
X73032D02*
D03*
X68032D02*
D03*
X63032D02*
D03*
X58032D02*
D03*
D37*
X161500Y49343D02*
D03*
Y54658D02*
D03*
D38*
X192366Y83043D02*
D03*
X179768D02*
D03*
D39*
X172012Y78000D02*
D03*
X160988D02*
D03*
D40*
X68354Y86500D02*
D03*
X62646D02*
D03*
D41*
X68354Y95000D02*
D03*
X62646D02*
D03*
D42*
X123000Y185146D02*
D03*
Y190854D02*
D03*
D43*
X229000Y148154D02*
D03*
Y154846D02*
D03*
X187000Y181846D02*
D03*
Y175154D02*
D03*
X157500Y204154D02*
D03*
Y210846D02*
D03*
D69*
X102500Y211500D02*
D03*
Y216500D02*
D03*
Y221500D02*
D03*
Y226500D02*
D03*
Y231500D02*
D03*
X123500Y239500D02*
D03*
X118500D02*
D03*
X113500D02*
D03*
X108500D02*
D03*
X103500D02*
D03*
X89131Y202500D02*
D03*
Y207500D02*
D03*
Y212500D02*
D03*
Y217500D02*
D03*
Y222500D02*
D03*
X75500Y202500D02*
D03*
Y207500D02*
D03*
Y212500D02*
D03*
Y217500D02*
D03*
Y222500D02*
D03*
X56000Y213000D02*
D03*
Y208000D02*
D03*
Y203000D02*
D03*
Y198000D02*
D03*
Y193000D02*
D03*
X163000Y221000D02*
D03*
Y226000D02*
D03*
Y231000D02*
D03*
Y236000D02*
D03*
Y241000D02*
D03*
D77*
X167567Y65043D02*
D03*
D78*
X187992Y114567D02*
D03*
X186024D02*
D03*
X189961D02*
D03*
X191929D02*
D03*
X193898D02*
D03*
X195866D02*
D03*
X197835D02*
D03*
X199803D02*
D03*
X201772D02*
D03*
X203740D02*
D03*
X205709D02*
D03*
X184055D02*
D03*
X211614D02*
D03*
X209646D02*
D03*
X207677D02*
D03*
X186024Y161024D02*
D03*
X184055D02*
D03*
X182087D02*
D03*
X209646D02*
D03*
X211614D02*
D03*
X187992D02*
D03*
X189961D02*
D03*
X191929D02*
D03*
X193898D02*
D03*
X195866D02*
D03*
X197835D02*
D03*
X199803D02*
D03*
X201772D02*
D03*
X203740D02*
D03*
X207677D02*
D03*
X205709D02*
D03*
D79*
X182087Y114567D02*
D03*
D80*
X220079Y148622D02*
D03*
Y150591D02*
D03*
Y152559D02*
D03*
Y125000D02*
D03*
Y123032D02*
D03*
Y146654D02*
D03*
Y144685D02*
D03*
Y142717D02*
D03*
Y140748D02*
D03*
Y138780D02*
D03*
Y136811D02*
D03*
Y134843D02*
D03*
Y132874D02*
D03*
Y130906D02*
D03*
Y126969D02*
D03*
Y128937D02*
D03*
X173622Y126969D02*
D03*
Y125000D02*
D03*
Y123032D02*
D03*
Y150591D02*
D03*
Y152559D02*
D03*
Y128937D02*
D03*
Y130906D02*
D03*
Y132874D02*
D03*
Y134843D02*
D03*
Y136811D02*
D03*
Y138780D02*
D03*
Y140748D02*
D03*
Y142717D02*
D03*
Y144685D02*
D03*
Y148622D02*
D03*
Y146654D02*
D03*
D81*
X149165Y197000D02*
D03*
X145228D02*
D03*
X149165Y193000D02*
D03*
X145228D02*
D03*
D89*
X66000Y74000D02*
D03*
X187000Y41000D02*
D03*
D90*
X112480Y30315D02*
D03*
X142480D02*
D03*
X152480D02*
D03*
X162480D02*
D03*
X122480D02*
D03*
X132480D02*
D03*
D91*
X225047Y190500D02*
D03*
Y184000D02*
D03*
Y177500D02*
D03*
D92*
X230953Y190500D02*
D03*
Y184000D02*
D03*
Y177500D02*
D03*
D93*
X87000Y234000D02*
D03*
X43000Y181000D02*
D03*
X233500Y105000D02*
D03*
X187000Y234500D02*
D03*
X68000Y185500D02*
D03*
D94*
X78000D02*
D03*
X57180Y62314D02*
D03*
X50360Y69627D02*
D03*
D95*
X64000Y55000D02*
D03*
D96*
X229854Y84646D02*
D03*
X137795Y244094D02*
D03*
X45736Y84646D02*
D03*
D97*
X137795Y94488D02*
D03*
Y181102D02*
D03*
M02*
